<svg xmlns="http://www.w3.org/2000/svg" width="110" height="50" viewBox="0 0 110 50"><g transform="translate(4880 -1501)"><rect width="110" height="50" transform="translate(-4880 1501)" fill="#fff" opacity="0"/><g transform="translate(-4994.079 840.755)"><g transform="translate(125.075 704.309)"><path d="M130.31,725.438l.13-.485a.255.255,0,0,1,.036-.122.064.064,0,0,1,.051-.027c.039,0,.083.045.132.137a.458.458,0,0,0,.089.127.205.205,0,0,0,.1.036l.033,0,.137.013.755.01.892,0h.261l.5-.009c.021,0,.047,0,.081.005.144.013.234.02.268.02a.1.1,0,0,0,.076-.031c.007-.008.042-.08.106-.212.027-.061.062-.089.1-.089a.194.194,0,0,1,.064.012.463.463,0,0,1,.016.114l0,.127,0,.272q0,.1-.016.635a.14.14,0,0,1-.013.064.116.116,0,0,1-.06.023.056.056,0,0,1-.044-.024.5.5,0,0,1-.048-.147,1.072,1.072,0,0,0-.16-.409.35.35,0,0,0-.184-.114,2.734,2.734,0,0,0-.576-.035h-.543c0,.084-.006.162-.006.231l.025,1.977c0,.078,0,.227-.012.445l0,.424,0,.236a.249.249,0,0,0,.038.158.423.423,0,0,0,.207.093q.292.073.391.089a.258.258,0,0,1,.1.027v.1l-.451-.014c-.248,0-.435-.008-.56-.016l-.464.024-.34.021a1.161,1.161,0,0,1-.175-.008l-.044-.018a.163.163,0,0,1,.028-.095.26.26,0,0,1,.117-.033,2.615,2.615,0,0,0,.315-.069.637.637,0,0,0,.239-.1.176.176,0,0,0,.045-.1,3.383,3.383,0,0,0,.028-.552v-.541l-.014-1.183-.015-.255,0-.851h-.512a1.6,1.6,0,0,0-.558.055,1.989,1.989,0,0,0-.465.509c-.068.106-.127.158-.178.158l-.028-.007a.067.067,0,0,1-.013-.035,1.454,1.454,0,0,1,.051-.231C130.276,725.606,130.3,725.495,130.31,725.438Z" transform="translate(-130.184 -724.789)" fill="#6f8b1e"/><path d="M138.668,728.1l-1.275.014-.244,0c-.1,0-.2,0-.3.011a.552.552,0,0,0-.029.13l0,.032v.031l0,.156a1.261,1.261,0,0,0,.122.475.948.948,0,0,0,.351.431,1.087,1.087,0,0,0,.568.158,1.272,1.272,0,0,0,.29-.044,1.5,1.5,0,0,0,.305-.162l.229-.187.02.127a.4.4,0,0,1,0,.047,1.379,1.379,0,0,1-.364.318,1.722,1.722,0,0,1-.446.2,1.549,1.549,0,0,1-.357.029,1.137,1.137,0,0,1-.447-.094,1.079,1.079,0,0,1-.511-.451,1.435,1.435,0,0,1-.187-.754,1.586,1.586,0,0,1,.053-.36,1.84,1.84,0,0,1,.189-.47.935.935,0,0,1,.227-.278,1.428,1.428,0,0,1,.335-.213,1.229,1.229,0,0,1,.481-.086.944.944,0,0,1,.865.479.872.872,0,0,1,.126.416ZM136.892,728h.15c.109,0,.43-.018.967-.051a.386.386,0,0,0,.156-.027.173.173,0,0,0,.057-.109.521.521,0,0,0-.064-.227.442.442,0,0,0-.2-.2.651.651,0,0,0-.307-.07.723.723,0,0,0-.593.279A.654.654,0,0,0,136.892,728Z" transform="translate(-132.153 -725.538)" fill="#6f8b1e"/><path d="M143.157,729.227l0,.209a1.531,1.531,0,0,1-.492.365,1.438,1.438,0,0,1-.571.1,1.153,1.153,0,0,1-.645-.188,1.213,1.213,0,0,1-.442-.532,1.627,1.627,0,0,1-.155-.675,1.35,1.35,0,0,1,.186-.686,1.21,1.21,0,0,1,.495-.481,1.687,1.687,0,0,1,.775-.159,1.251,1.251,0,0,1,.68.152.264.264,0,0,1,.131.227.228.228,0,0,1-.067.168.239.239,0,0,1-.173.067.532.532,0,0,1-.352-.2.834.834,0,0,0-.214-.166.49.49,0,0,0-.214-.046.582.582,0,0,0-.474.236,1.332,1.332,0,0,0-.263.844,1.228,1.228,0,0,0,.269.834.807.807,0,0,0,.626.311,1.122,1.122,0,0,0,.443-.082A1.84,1.84,0,0,0,143.157,729.227Z" transform="translate(-133.57 -725.544)" fill="#6f8b1e"/><path d="M145.008,728.946a2.047,2.047,0,0,0,.431-.1c.024-.014.035-.049.035-.1l0-.21,0-.372-.008-.948,0-.354v-.252l.009-.308q0-.726-.014-.867a.292.292,0,0,0-.055-.177,1.11,1.11,0,0,0-.421-.152v-.016a.378.378,0,0,1,.006-.064l.087-.016a.485.485,0,0,1,.079-.013,2.562,2.562,0,0,0,.554-.212h.156q.007.089.007.565l0,.406,0,.525-.013.646a1.254,1.254,0,0,0,.006.128,3.09,3.09,0,0,1,.294-.311,1.419,1.419,0,0,1,.355-.212,1.016,1.016,0,0,1,.4-.078.771.771,0,0,1,.644.33.917.917,0,0,1,.143.551l-.01.324,0,.182-.012.315q-.013.392-.013.465c0,.055,0,.129.005.222l.179.042a2.61,2.61,0,0,1,.275.07l0,.1-.675-.022c-.038,0-.141,0-.31.014l-.18.008h-.07a.108.108,0,0,1-.016-.047v-.029a.26.26,0,0,1,.166-.076l.191-.044a.119.119,0,0,0,.046-.067q.012-.084.029-.824l.006-.236a2.066,2.066,0,0,0-.057-.619.45.45,0,0,0-.2-.27.666.666,0,0,0-.367-.1.749.749,0,0,0-.327.073,1.279,1.279,0,0,0-.253.188,1.11,1.11,0,0,0-.2.23.422.422,0,0,0-.038.208l0,.222-.005.231q0,.029.009.4l0,.2.008.222a.276.276,0,0,0,.009.069l.449.109a1.009,1.009,0,0,1,.106.04l.009.036a.155.155,0,0,1-.016.055l-.141,0-.249,0-.55.008-.411.008c-.022,0-.054-.005-.1-.008l0-.022A.119.119,0,0,1,145.008,728.946Z" transform="translate(-134.878 -724.782)" fill="#6f8b1e"/><path d="M150.372,729.655a1.694,1.694,0,0,1,.185-.038.537.537,0,0,0,.242-.067.261.261,0,0,0,.04-.175l.007-.115c0-.042,0-.1,0-.162l-.005-.979a.428.428,0,0,0-.051-.255.554.554,0,0,0-.318-.124v-.113a.942.942,0,0,0,.354-.168,1.154,1.154,0,0,0,.3-.39l.109,0c.006.1.009.172.009.216v.212l0,.059c.026-.018.056-.039.089-.064a2.168,2.168,0,0,1,.395-.236,1.9,1.9,0,0,1,.358-.126.875.875,0,0,1,.225-.026.732.732,0,0,1,.452.141.638.638,0,0,1,.245.332,3.254,3.254,0,0,1,.055.757v.484c0,.013,0,.055,0,.128s0,.157,0,.25a1.248,1.248,0,0,0,.019.285.189.189,0,0,0,.083.083.757.757,0,0,1,.358.1v.024a.209.209,0,0,1-.019.078h-.061l-.425-.008-.419.01c-.155,0-.3,0-.428,0l-.019-.075a.122.122,0,0,1,.022-.057.778.778,0,0,1,.242-.051.486.486,0,0,0,.128-.02.3.3,0,0,0,.087-.05.308.308,0,0,0,.038-.128c0-.014,0-.044-.006-.089-.007-.1-.011-.34-.013-.728V728.4l.006-.255a.774.774,0,0,0-.165-.567.622.622,0,0,0-.443-.155.98.98,0,0,0-.416.094,1.431,1.431,0,0,0-.4.283c0,.1-.005.188-.005.261l.01.7c0,.368.005.593.016.676a.135.135,0,0,0,.022.07.219.219,0,0,0,.1.041c.051.011.111.025.178.044s.111.031.133.035a.119.119,0,0,1,.087.066l0,.066h-.335l-.689-.005-.3,0h-.081l0-.04A.3.3,0,0,1,150.372,729.655Z" transform="translate(-136.585 -725.507)" fill="#6f8b1e"/><path d="M155.9,728.516a1.343,1.343,0,0,1,.091-.464,1.362,1.362,0,0,1,.666-.735,1.677,1.677,0,0,1,.707-.133,1.335,1.335,0,0,1,1,.408,1.351,1.351,0,0,1,.4.981,1.229,1.229,0,0,1-.418.909,1.471,1.471,0,0,1-1.058.4,1.435,1.435,0,0,1-.746-.208,1.336,1.336,0,0,1-.449-.462A1.309,1.309,0,0,1,155.9,728.516Zm1.408,1.243a.907.907,0,0,0,.468-.132.894.894,0,0,0,.361-.419,1.57,1.57,0,0,0,.134-.667,1.953,1.953,0,0,0-.1-.576.968.968,0,0,0-.32-.492.814.814,0,0,0-.507-.164,1.045,1.045,0,0,0-.429.1.822.822,0,0,0-.371.38,1.7,1.7,0,0,0-.152.8,1.286,1.286,0,0,0,.264.878A.844.844,0,0,0,157.306,729.76Z" transform="translate(-138.341 -725.544)" fill="#6f8b1e"/><path d="M161.09,725.1v-.073c.06-.02.127-.04.2-.062.107-.034.264-.087.474-.156h.15v.175q0,2.623-.014,3.126v.317a1.347,1.347,0,0,0,.028.4c.025.038.1.065.23.079a.775.775,0,0,1,.227.046.046.046,0,0,1,.025.045.068.068,0,0,1-.014.05.075.075,0,0,1-.052.014l-.335-.012-.418-.016-.536.029a.107.107,0,0,1-.076-.02.06.06,0,0,1-.019-.047.053.053,0,0,1,.021-.049,1.13,1.13,0,0,1,.229-.05.791.791,0,0,0,.24-.059.15.15,0,0,0,.04-.106c.009-.076.012-.292.012-.647l0-.733.01-.757,0-.759.009-.373a.28.28,0,0,0-.035-.161.348.348,0,0,0-.151-.1C161.212,725.15,161.133,725.117,161.09,725.1Z" transform="translate(-139.947 -724.789)" fill="#6f8b1e"/><path d="M163.928,728.516a1.357,1.357,0,0,1,.09-.464,1.337,1.337,0,0,1,.275-.442,1.313,1.313,0,0,1,.393-.292,1.674,1.674,0,0,1,.706-.133,1.336,1.336,0,0,1,1,.408,1.351,1.351,0,0,1,.4.981,1.227,1.227,0,0,1-.419.909,1.469,1.469,0,0,1-1.058.4,1.435,1.435,0,0,1-.745-.208,1.325,1.325,0,0,1-.449-.462A1.309,1.309,0,0,1,163.928,728.516Zm1.409,1.243a.913.913,0,0,0,.468-.132.9.9,0,0,0,.359-.419,1.559,1.559,0,0,0,.134-.667,1.931,1.931,0,0,0-.1-.576.967.967,0,0,0-.319-.492.814.814,0,0,0-.507-.164,1.04,1.04,0,0,0-.429.1.823.823,0,0,0-.371.38,1.7,1.7,0,0,0-.151.8,1.286,1.286,0,0,0,.264.878A.843.843,0,0,0,165.337,729.76Z" transform="translate(-140.889 -725.544)" fill="#6f8b1e"/><path d="M169.833,730.008c-.025-.013-.108-.048-.246-.105a1.524,1.524,0,0,1-.307-.232.254.254,0,0,1-.064-.168.183.183,0,0,1,.048-.134.685.685,0,0,1,.277-.139,3.03,3.03,0,0,0,.341-.13c-.028-.019-.072-.046-.131-.083a.908.908,0,0,1-.477-.813.972.972,0,0,1,.3-.722,1.061,1.061,0,0,1,.772-.295,1.215,1.215,0,0,1,.392.061,1.485,1.485,0,0,1,.3.161c.085.054.135.084.15.09a.386.386,0,0,0,.116.016c.036,0,.124-.009.264-.025s.223-.026.248-.026a.251.251,0,0,1,.122.027.425.425,0,0,1,.038.208.094.094,0,0,1-.027.074.114.114,0,0,1-.079.026,1.468,1.468,0,0,1-.3-.051,1.535,1.535,0,0,0-.251-.051l-.061.005a1.12,1.12,0,0,1,.139.5.915.915,0,0,1-.143.466.94.94,0,0,1-.4.368,1.121,1.121,0,0,1-.51.128l-.108,0a1.033,1.033,0,0,0-.535.145c-.077.049-.116.095-.116.137s.038.089.115.132a2.939,2.939,0,0,0,1.144.188,1.531,1.531,0,0,1,.57.1.656.656,0,0,1,.307.272.744.744,0,0,1,.1.371.753.753,0,0,1-.175.479,1.231,1.231,0,0,1-.533.356,2.25,2.25,0,0,1-.818.137,1.973,1.973,0,0,1-.787-.125,1.036,1.036,0,0,1-.393-.27.473.473,0,0,1-.116-.29.6.6,0,0,1,.128-.311,1.437,1.437,0,0,1,.531-.391C169.749,730.053,169.8,730.024,169.833,730.008Zm-.234,1.127a1.175,1.175,0,0,0,.733.223,2.062,2.062,0,0,0,.627-.1.921.921,0,0,0,.459-.286.58.58,0,0,0,.145-.35.445.445,0,0,0-.051-.2.472.472,0,0,0-.139-.165.663.663,0,0,0-.231-.1,1.5,1.5,0,0,0-.291-.041q-.535-.042-.656-.042a.9.9,0,0,0-.606.229.521.521,0,0,0,.009.838Zm.105-2.94a1.175,1.175,0,0,0,.085.479.627.627,0,0,0,.234.285.567.567,0,0,0,.3.094.579.579,0,0,0,.457-.212.966.966,0,0,0,.182-.644,1.006,1.006,0,0,0-.19-.662.576.576,0,0,0-.459-.226.526.526,0,0,0-.457.215A1.16,1.16,0,0,0,169.705,728.194Z" transform="translate(-142.501 -725.544)" fill="#6f8b1e"/><path d="M173.9,726.793l0-.092a2.176,2.176,0,0,0,.226-.07,1.035,1.035,0,0,0,.244-.156,1.053,1.053,0,0,0,.214-.234.342.342,0,0,1,.061-.006l.04,0c.008.1.012.176.012.223,0,.011,0,.059-.006.144v.169l0,.919-.01.972a.239.239,0,0,0,.038.165.628.628,0,0,0,.248.1,1.914,1.914,0,0,1,.193.061.1.1,0,0,1,.01.038.109.109,0,0,1-.016.049c-.084,0-.191-.007-.322-.015-.179-.014-.3-.021-.355-.021l-.517.014a1.829,1.829,0,0,0-.188.015.228.228,0,0,1-.051-.011.083.083,0,0,1-.016-.043.086.086,0,0,1,.061-.078c.008,0,.117-.029.326-.072a.208.208,0,0,0,.134-.064.332.332,0,0,0,.055-.213q.007-.245.007-1.341a1.146,1.146,0,0,0-.019-.274.239.239,0,0,0-.084-.086A.91.91,0,0,0,173.9,726.793Zm.27-1.648a.238.238,0,0,1,.081-.18.273.273,0,0,1,.2-.075.288.288,0,0,1,.2.085.234.234,0,0,1,0,.367.282.282,0,0,1-.2.087.262.262,0,0,1-.2-.079A.275.275,0,0,1,174.171,725.144Z" transform="translate(-143.992 -724.816)" fill="#6f8b1e"/><path d="M179.02,728.1l-1.275.014-.242,0c-.1,0-.2,0-.3.011a.54.54,0,0,0-.028.13l0,.032v.031l0,.156a1.248,1.248,0,0,0,.122.475.943.943,0,0,0,.351.431,1.085,1.085,0,0,0,.568.158,1.266,1.266,0,0,0,.29-.044,1.488,1.488,0,0,0,.305-.162l.23-.187.018.127c0,.014,0,.03,0,.047a1.39,1.39,0,0,1-.364.318,1.726,1.726,0,0,1-.447.2,1.542,1.542,0,0,1-.356.029,1.132,1.132,0,0,1-.447-.094,1.076,1.076,0,0,1-.511-.451,1.435,1.435,0,0,1-.187-.754,1.578,1.578,0,0,1,.053-.36,1.842,1.842,0,0,1,.19-.47.922.922,0,0,1,.226-.278,1.456,1.456,0,0,1,.335-.213,1.235,1.235,0,0,1,.481-.086.944.944,0,0,1,.865.479.87.87,0,0,1,.126.416ZM177.245,728h.15c.107,0,.43-.018.967-.051a.394.394,0,0,0,.156-.027.173.173,0,0,0,.057-.109.514.514,0,0,0-.064-.227.434.434,0,0,0-.2-.2.644.644,0,0,0-.306-.07.721.721,0,0,0-.593.279A.65.65,0,0,0,177.245,728Z" transform="translate(-144.955 -725.538)" fill="#6f8b1e"/><path d="M181.472,728.98a2.511,2.511,0,0,0,.178.391.909.909,0,0,0,.29.281.7.7,0,0,0,.365.1.545.545,0,0,0,.359-.156.366.366,0,0,0,.128-.275.584.584,0,0,0-.148-.383,1.449,1.449,0,0,0-.567-.331,1.353,1.353,0,0,1-.563-.337.67.67,0,0,1-.026-.793.713.713,0,0,1,.325-.251,1.01,1.01,0,0,1,.382-.084,2.156,2.156,0,0,1,.406.034,1.094,1.094,0,0,1,.311.109c.016.11.031.271.042.483l.006.1-.071,0h-.046a.921.921,0,0,0-.291-.423.615.615,0,0,0-.384-.156.4.4,0,0,0-.426.422.385.385,0,0,0,.1.256,1.241,1.241,0,0,0,.445.253,2.224,2.224,0,0,1,.511.264.76.76,0,0,1,.237.3.87.87,0,0,1,.075.337.674.674,0,0,1-.145.414.776.776,0,0,1-.363.27,1.15,1.15,0,0,1-.391.079,1.84,1.84,0,0,1-.746-.151.127.127,0,0,1-.034-.1.879.879,0,0,0-.007-.091c-.033-.287-.051-.456-.051-.51a.061.061,0,0,1,.016-.05A.164.164,0,0,1,181.472,728.98Z" transform="translate(-146.422 -725.531)" fill="#6f8b1e"/><path d="M194.473,725.176a3.288,3.288,0,0,1,.038.5c0,.034,0,.079,0,.137a.383.383,0,0,1-.068.01.368.368,0,0,1-.055-.007,1.108,1.108,0,0,0-.438-.573,1.329,1.329,0,0,0-.75-.2,1.3,1.3,0,0,0-.4.054,1.613,1.613,0,0,0-.873.685,2.1,2.1,0,0,0-.238.582,2.785,2.785,0,0,0-.087.7,2.655,2.655,0,0,0,.208,1.124,1.3,1.3,0,0,0,.568.633,1.562,1.562,0,0,0,.728.19l.151,0a2.418,2.418,0,0,0,.348-.06,1.641,1.641,0,0,0,.384-.158,1.275,1.275,0,0,0,.3-.256,1.66,1.66,0,0,0,.248-.384l.038-.013a.1.1,0,0,1,.048.018c0,.051,0,.083-.006.1q-.134.538-.2.735c-.033.008-.076.022-.128.04a3.161,3.161,0,0,1-1,.129,3.072,3.072,0,0,1-.755-.069,3.112,3.112,0,0,1-.546-.214,1.783,1.783,0,0,1-.519-.382,1.8,1.8,0,0,1-.36-.6,2.22,2.22,0,0,1-.138-.794,2.122,2.122,0,0,1,.109-.712,2.463,2.463,0,0,1,.335-.615,2.107,2.107,0,0,1,.535-.519,2.025,2.025,0,0,1,.686-.293,3.7,3.7,0,0,1,.749-.057,2.316,2.316,0,0,1,.667.093A1.294,1.294,0,0,1,194.473,725.176Z" transform="translate(-149.468 -724.819)" fill="#6f8b1e"/><path d="M197.552,727.057a1.926,1.926,0,0,1,.079-.579,2.392,2.392,0,0,1,.262-.55,1.849,1.849,0,0,1,.447-.5,2.5,2.5,0,0,1,.724-.353,2.716,2.716,0,0,1,.823-.1,2.4,2.4,0,0,1,.655.089,2.313,2.313,0,0,1,.583.249,2.069,2.069,0,0,1,.523.492,1.7,1.7,0,0,1,.274.494,2.137,2.137,0,0,1,.122.718,2.54,2.54,0,0,1-.081.7,1.861,1.861,0,0,1-.272.548,2.444,2.444,0,0,1-.514.485,1.943,1.943,0,0,1-.6.3,2.576,2.576,0,0,1-.779.114,2.668,2.668,0,0,1-.756-.1,2.189,2.189,0,0,1-.553-.241,2.122,2.122,0,0,1-.457-.42,2.014,2.014,0,0,1-.356-.612A2.135,2.135,0,0,1,197.552,727.057Zm2.214,1.986a2.185,2.185,0,0,0,.556-.076,1.389,1.389,0,0,0,.511-.249,1.334,1.334,0,0,0,.348-.4,2.069,2.069,0,0,0,.2-.571,3.207,3.207,0,0,0,.076-.7,2.984,2.984,0,0,0-.128-.858,1.557,1.557,0,0,0-.86-.97,1.647,1.647,0,0,0-.672-.139,1.725,1.725,0,0,0-.567.095,1.452,1.452,0,0,0-.456.244,1.493,1.493,0,0,0-.332.422,2.421,2.421,0,0,0-.233.6,2.532,2.532,0,0,0-.079.581,2.651,2.651,0,0,0,.079.6,2.239,2.239,0,0,0,.219.58,1.784,1.784,0,0,0,.341.436,1.4,1.4,0,0,0,.453.291A1.427,1.427,0,0,0,199.766,729.044Z" transform="translate(-151.555 -724.843)" fill="#6f8b1e"/><path d="M204.916,730.473a.337.337,0,0,1,.1-.245.326.326,0,0,1,.24-.1.3.3,0,0,1,.226.1.375.375,0,0,1,0,.5.316.316,0,0,1-.467,0A.345.345,0,0,1,204.916,730.473Z" transform="translate(-153.891 -726.476)" fill="#6f8b1e"/><path d="M207.317,731.94l0-.1c.026-.013.051-.025.078-.036a1.092,1.092,0,0,0,.449-.331.57.57,0,0,0,.113-.3.218.218,0,0,0-.064-.156.426.426,0,0,0-.218-.1,1.609,1.609,0,0,1-.2-.052.266.266,0,0,1-.081-.063.31.31,0,0,1-.031-.128.263.263,0,0,1,.061-.2.4.4,0,0,1,.264-.111.567.567,0,0,1,.423.186.648.648,0,0,1,.178.466.867.867,0,0,1-.128.42.933.933,0,0,1-.386.366A1.013,1.013,0,0,1,207.317,731.94Z" transform="translate(-154.653 -726.551)" fill="#6f8b1e"/><path d="M212.418,729.133a.2.2,0,0,1,.025-.087,2.913,2.913,0,0,1,.486-.089.286.286,0,0,0,.2-.071.76.76,0,0,0,.038-.306l.023-.842,0-.57,0-.747v-.2c0-.449,0-.729-.006-.839a.4.4,0,0,0-.025-.089.783.783,0,0,0-.141-.051c-.038-.008-.206-.04-.5-.092,0-.024,0-.041,0-.051s0-.03,0-.051c.041,0,.108,0,.2.008l.487.022.281.005.083,0,.093.006c.126,0,.2,0,.217,0l.256-.02c.173,0,.294,0,.365.009a.623.623,0,0,1-.023.122c-.024,0-.134.009-.332.017a1.225,1.225,0,0,0-.342.037c-.049.028-.072.113-.072.255,0,.034,0,.1-.008.208v.191l0,.591v.2l.006,1.056-.01.9,0,.2c0,.064.011.1.032.117.053,0,.21,0,.47.007h.216l.552-.02a1.032,1.032,0,0,0,.309-.042,1.512,1.512,0,0,0,.309-.215,1.043,1.043,0,0,0,.2-.236c.011-.016.029-.042.055-.076a1.781,1.781,0,0,0,.162-.33h.1c-.012.076-.026.148-.04.216-.059.3-.1.55-.123.75,0,.043-.007.082-.012.118l-1.194-.034q-1.541,0-1.829.023c-.059,0-.122.005-.188.005Z" transform="translate(-156.271 -724.867)" fill="#6f8b1e"/><path d="M217.91,725.438l.13-.485a.257.257,0,0,1,.035-.122.065.065,0,0,1,.051-.027c.04,0,.083.045.132.137a.431.431,0,0,0,.089.127.2.2,0,0,0,.1.036l.033,0,.137.013.754.01.892,0h.261l.5-.009c.02,0,.047,0,.08.005.144.013.234.02.268.02a.1.1,0,0,0,.076-.031c.006-.008.042-.08.106-.212.027-.061.061-.089.1-.089a.2.2,0,0,1,.064.012.463.463,0,0,1,.016.114l0,.127,0,.272q0,.1-.016.635a.15.15,0,0,1-.013.064.118.118,0,0,1-.06.023.057.057,0,0,1-.045-.024.484.484,0,0,1-.048-.147,1.1,1.1,0,0,0-.16-.409.355.355,0,0,0-.184-.114,2.746,2.746,0,0,0-.576-.035h-.543c0,.084-.005.162-.005.231l.025,1.977c0,.078,0,.227-.013.445l0,.424,0,.236a.254.254,0,0,0,.038.158.426.426,0,0,0,.207.093q.293.073.391.089a.251.251,0,0,1,.1.027v.1l-.451-.014c-.248,0-.434-.008-.56-.016l-.464.024-.34.021a1.174,1.174,0,0,1-.175-.008l-.044-.018a.168.168,0,0,1,.028-.095.26.26,0,0,1,.118-.033,2.644,2.644,0,0,0,.315-.069.642.642,0,0,0,.239-.1.181.181,0,0,0,.044-.1,3.358,3.358,0,0,0,.029-.552v-.541l-.015-1.183-.014-.255,0-.851h-.512a1.6,1.6,0,0,0-.558.055,2.014,2.014,0,0,0-.465.509c-.068.106-.127.158-.178.158l-.028-.007a.065.065,0,0,1-.012-.035,1.5,1.5,0,0,1,.05-.231C217.875,725.606,217.9,725.495,217.91,725.438Z" transform="translate(-157.973 -724.789)" fill="#6f8b1e"/><path d="M224.27,729.023a.923.923,0,0,1,.275-.068.71.71,0,0,0,.339-.109,2.7,2.7,0,0,0,.086-.9v-.505l.007-.3-.007-.225.007-.412-.009-1.039a.353.353,0,0,0-.053-.231.852.852,0,0,0-.391-.147.489.489,0,0,1-.16-.052.125.125,0,0,1-.036-.089.5.5,0,0,1,.1-.016h.227l.119,0a1.422,1.422,0,0,1,.261.025c.2.012.4.019.6.019.06,0,.145,0,.257-.011q.44-.025.631-.026a3.331,3.331,0,0,1,.731.077,2.535,2.535,0,0,1,.707.283,1.815,1.815,0,0,1,.465.413,2.045,2.045,0,0,1,.361.615,2.158,2.158,0,0,1,.123.751,2.124,2.124,0,0,1-.136.739,1.964,1.964,0,0,1-.378.636,1.866,1.866,0,0,1-.492.4,2.752,2.752,0,0,1-.76.236,5,5,0,0,1-.757.038c-.241,0-.437-.008-.587-.021a1.419,1.419,0,0,0-.191-.012.178.178,0,0,0-.036,0l-1.3.029-.007-.026a.1.1,0,0,1-.006-.036Zm1.629-.135a1.509,1.509,0,0,0,.492.084,2.051,2.051,0,0,0,.632-.1,1.808,1.808,0,0,0,.547-.285,1.717,1.717,0,0,0,.391-.414,1.9,1.9,0,0,0,.217-.417,2.3,2.3,0,0,0,.089-.7,2.194,2.194,0,0,0-.175-.84,1.55,1.55,0,0,0-.426-.567,1.893,1.893,0,0,0-.719-.4,3.074,3.074,0,0,0-.9-.126,1.233,1.233,0,0,0-.49.072.377.377,0,0,0-.038.045.618.618,0,0,0-.02.147c0,.027,0,.06,0,.1.006.246.009.444.009.593l0,.724a12.335,12.335,0,0,0,.059,1.774A.585.585,0,0,0,225.9,728.888Z" transform="translate(-160.029 -724.83)" fill="#6f8b1e"/></g><path d="M160.3,703.864l.255.261a28.661,28.661,0,0,0-.79,7.249,20.706,20.706,0,0,0,1.715-2.164,17.975,17.975,0,0,0,1.46-2.506,11.213,11.213,0,0,0,.877-2.532h1.2l-.482,7.7,1.458-.31v.755a5.4,5.4,0,0,0-3.1.87,37.333,37.333,0,0,0,.683-6.155,41.669,41.669,0,0,1-4.181,6H158.4l.458-7.952-1.363.328v-.677a5.765,5.765,0,0,0,1.415-.241A8.153,8.153,0,0,0,160.3,703.864Z" transform="translate(-13.773 -13.837)" fill="#5f5e5e"/><path d="M177.063,704.324v1.549a.963.963,0,0,0-.111-.023,1.572,1.572,0,0,0-.223-.014q-.908,0-1.918,2.171a19.8,19.8,0,0,0-.8,2.109q-.351,1.105-.567,2a8.279,8.279,0,0,0-.216,1.03h-.959l.423-7.732-1.823.369v-.74a7.012,7.012,0,0,0,1.6-.258,10.5,10.5,0,0,0,1.63-.555l-.244,4.644c.018-.042.154-.374.407-1s.458-1.113.614-1.468.314-.681.47-.976a3.159,3.159,0,0,1,.444-.664,1.26,1.26,0,0,1,.94-.481,1.47,1.47,0,0,1,.223.014A.8.8,0,0,1,177.063,704.324Z" transform="translate(-18.015 -13.953)" fill="#5f5e5e"/><path d="M183.422,702.125l-.274-.464.534-.37q.892-.555,1.238-.742a1.6,1.6,0,0,1,.77-.186,1.454,1.454,0,0,1,1.188.558,3.208,3.208,0,0,1,.625,1.335,6.81,6.81,0,0,1,.175,1.51,7.637,7.637,0,0,1-.284,1.892,7.279,7.279,0,0,1-.8,1.867,4.529,4.529,0,0,1-1.327,1.422,3.122,3.122,0,0,1-1.807.544,4.53,4.53,0,0,1-1.256-.261,3.914,3.914,0,0,1-1.083-.651l.333-5.459c.021-.305.053-.835.095-1.586s.075-1.307.1-1.664.059-.748.1-1.174.114-.937.2-1.533q.261-1.554.484-2.514t.679-2.487h1.861v.476c-.057.033-.158.087-.3.16a1.673,1.673,0,0,0-.345.224.754.754,0,0,0-.2.3q-.105.274-.484,2.03t-.694,3.887a29.15,29.15,0,0,0-.337,3.847l-.073,4.211a1.394,1.394,0,0,0,.516,1.094,1.769,1.769,0,0,0,1.2.449,1.667,1.667,0,0,0,1.2-.613,3.781,3.781,0,0,0,.76-1.453,6.354,6.354,0,0,0,.254-1.768,7.753,7.753,0,0,0-.348-2.45,1.278,1.278,0,0,0-1.239-1.039,1.853,1.853,0,0,0-.532.066,1.682,1.682,0,0,0-.444.217C183.754,701.9,183.593,702.008,183.422,702.125Z" transform="translate(-21.268 -10.125)" fill="#5f5e5e"/><path d="M191.791,710.257a13.167,13.167,0,0,1,.364-3.057,4.451,4.451,0,0,1,1.295-2.221,3.911,3.911,0,0,1,2.669-.916,1.352,1.352,0,0,1,1.114.556,3.53,3.53,0,0,1,.63,1.4,8.625,8.625,0,0,1,.217,1.751,9.454,9.454,0,0,1-.373,2.745,4.152,4.152,0,0,1-1.24,1.982,3.322,3.322,0,0,1-2.261.752h-.35a2.956,2.956,0,0,1-1.14-.337,1.649,1.649,0,0,1-.684-.881A5.1,5.1,0,0,1,191.791,710.257Zm1.419-.83a11.265,11.265,0,0,0,.092,1.551,2.433,2.433,0,0,0,.442,1.129,1.343,1.343,0,0,0,1.05.526,1.6,1.6,0,0,0,1.541-1.194,8,8,0,0,0,.461-2.874V708.3a6.652,6.652,0,0,0-.438-2.505,1.5,1.5,0,0,0-1.439-1.084q-.613.031-.991.85a6.859,6.859,0,0,0-.535,1.893A17.294,17.294,0,0,0,193.21,709.427Z" transform="translate(-24.653 -13.9)" fill="#5f5e5e"/><path d="M115.545,665.705l1.47-.723a11.518,11.518,0,0,0,1.143-.537l-.035-.747a.5.5,0,0,1,.572.012,5.987,5.987,0,0,0,1-.525c.07-.117.082-.082.082-.082l.2.323.018.027s1.411-.653,1.482-.653,4.375-.84,4.457-.957c0,0,.257-.362.4-.315a.262.262,0,0,1,.152.222l.537-.046.677.315.28-.035a2.525,2.525,0,0,1,2.229-.421,3.6,3.6,0,0,0,1.062-.022c.164-.094,1.377-.362,3.92.373a.348.348,0,0,0,.2.152l.245.022.093-.081a6.122,6.122,0,0,1,2.485.431,8.257,8.257,0,0,0,2.6.327s.175.234.362.234.222.081.222.081.292-.234,1.073.036c.058.023,1.073.361,1.144.361s.2-.244.711-.012c.443.245.548.059.548.059a2.246,2.246,0,0,0,.98.117,1.874,1.874,0,0,1,1.388.338l.525.07s.77-.386,1.038.256l1.062.012a.627.627,0,0,1,.793.07l.292.059a.585.585,0,0,1,.712-.094l1.062.2s.408-.455.723-.164l1.109-.374s.466-.07.537-.268a.468.468,0,0,1,.5-.152l.5-.257s.14-.046.175.035l.3.164a.658.658,0,0,1,.91-.35v.035s-.093-.571.07-.618a1.1,1.1,0,0,1,.466.046s.094-.268.2-.315a.517.517,0,0,0,.2-.584s.059-.152.187.035a1.671,1.671,0,0,0,.234.281l.093-.584a1.758,1.758,0,0,1-.257-1.237s.77,1,.9.98-.163-.607-.163-.607.3.42.455.362a.357.357,0,0,1,.455.315c.234.233.735.641.735.641l.281.607.2-.07.339.63s1.015.747.817,1.272c0,0,1.33.968.933,1.634l.338,1.213a.714.714,0,0,1,.537.455,2.13,2.13,0,0,0,.3.6l-.128.525a.93.93,0,0,1,.746.688s-.046.432-.723.222v.49H163.57l-.269.117.362,1.178.035.362-.081,1-.315.361-.653.444s0,.175-.315.245-1.622.35-1.622.35l-1.132.49a1.233,1.233,0,0,1-.945.327l-1.027.361a6.857,6.857,0,0,0-1.47.268c-.525.2-1.038.4-1.318.245a18.5,18.5,0,0,1-3.337-.233l-.513.058s-.327.619-1.086-.036l-.163.292-2.392-.723-.63.2a.853.853,0,0,1-.5-.268,6.636,6.636,0,0,0-.747.128,5.814,5.814,0,0,1-1.668-.49c-.444-.3-.6-.245-.6-.245s-.292.128.012.841a5.176,5.176,0,0,0,.035,1.551.649.649,0,0,1-.35.782c-.059,0-1.19.525-.98,1.447,0,0-.152,1.038-.152,1.493a3.4,3.4,0,0,1-.35,1.284,2.852,2.852,0,0,0-.094,1c-.023.257-.245.421-.42.339a7.121,7.121,0,0,1,.234,2.73l.361.361-.968,1.891s-.163.012.268,2.672c0,0-.14,3.372-.56,6.137a3.16,3.16,0,0,1-2.637,2.742s-.6-.105-1.2-1.949a2.872,2.872,0,0,1,.175-.537s0-.046-1.669-2.812a7.1,7.1,0,0,1-.8-2.474c.035-.093-.105-.8-1.307-2.45a5.642,5.642,0,0,1-.759-1.575c0-.128.467-.315.128-.712-.443-1.026-1.855-2.788-1.376-3.885a1.878,1.878,0,0,1,.84-.782l-.583-1.1.571-.909.234.14-.082-.315.187-.1s-.234.677.21.3.3-.339.3-.339l-.186-.28s1.482-1.2,1.284-2.217c0,0,.688.094.98-.933a3.172,3.172,0,0,0,1.82-1.027l.163.14.024-.07.058.186.117-.257s.257.257.326.234.059-.42.957-.747a2.324,2.324,0,0,0,.991-.8s.91,1.015,1.26,1.015c.5.187.886-.525.886-.525s.409-.513.619-.455c0,0,.352.238,1.2-.081l.034-.013a5.674,5.674,0,0,0-.642-.3l-.2.059a4.773,4.773,0,0,0-1.015-.56s-.35-.6-.618-.444l-.42.012s-.117-.163-.268.175-.257.128-.269,0a2.278,2.278,0,0,0-.093-.373s-.4-.385-.548-.362-.152.234-.152.234-.444-.362-.724-.187c0,0-.21-.28-.677.047,0,0,.21-.84-.35-.233a1.67,1.67,0,0,0-1.458-.478s-.385-.373-.537-.012-.035,0-.035,0-1.2-.326-1.318-.163c0,0,.023.362-.105.362a.859.859,0,0,1-.35-.175.45.45,0,0,0-.455-.432.461.461,0,0,1-.479-.4l-.14-.035s-.023.373-.28.292a1.316,1.316,0,0,0-.21.28c-.07.14-.152.024-.268-.07a1.749,1.749,0,0,1-.222-.222l-.384-.035-.222-.537h-.234l-.081.666s-.957-.245-1.237.21a.936.936,0,0,0-.8.315c-.105.058-.432.175-.432.175s-.036-.724-.257-.525c-.222.082-.444.455-.49.537,0,0-.292.362-.584-.14l-.478.42-.467-.117-.175-.175s-.49-.07-.537-.012c0,0-.21.338-.3.338s-.292-.268-.292-.268-.14.327-.245.315a.936.936,0,0,0-.361-.513l-.21-.3-1.1.42s-.036.4-.128.4-.292-.28-.292-.28l-1.657.385-.094.07s-.362.047-.49.07-.081.105-.081.105-.724-.059-.688-.141.537-.011.606-.011c0,0-.245-.129-.175-.246s.14-.117.14-.117l-.094-.42.059-.105-.467-.536s-.07-.572.222-.315a2.332,2.332,0,0,0,.385.175c.035-.011.035-.116.035-.116l.268-.175.49.117.082-.07s.023-.408.28-.385a.186.186,0,0,1,.151.119.2.2,0,0,1,.012.033l-.315-.864s.012-.361.455-.058a2.8,2.8,0,0,1,.455.537l.3-.046s0-.268.081-.281a.765.765,0,0,1,.222.024l-.292-.619.046-.362a7.146,7.146,0,0,0,.945-.479c.117-.116.572-.1.63-.093a1.38,1.38,0,0,0-.326-.875s-.432-.688.046-.7l.128-.164-.035-.093-.14-1.074-.5.257-.829.268-.455-.244s-.711.793-1.178.455l-1.26.444a8.329,8.329,0,0,0-.91-.129s-.07.6-.14.63a2.1,2.1,0,0,1-.992.409,6.7,6.7,0,0,0-.828.933s-.957-.024-.992-.712l.046-.2s-.7-.234-.769-.234c0,0-.315-.187-.024-.571S115.463,665.857,115.545,665.705Z" fill="#d4d5d5"/><g transform="translate(179.574 689.892)"><path d="M215.083,710.077l.172.918a13.532,13.532,0,0,1-1.777,1.358,16.709,16.709,0,0,1-2.706,1.358,1.972,1.972,0,0,1-.3.051q-.471,0-.471-.524a.49.49,0,0,1,.361-.483,16.7,16.7,0,0,0,2.856-1.243A8.269,8.269,0,0,0,215.083,710.077Zm5.072-5.649a.437.437,0,1,1,0,.875h-9.582a.437.437,0,1,1,0-.875Zm-1.488,1.684q.9,0,.9.853v2.625q0,.853-.9.853l-.35-.831q.328,0,.328-.372v-1.925q0-.372-.328-.372H212.28c-.218,0-.328.124-.328.372v1.925c0,.248.11.372.328.372h6.038l.35.831H211.93q-.9,0-.9-.853v-2.625q0-.854.9-.853Zm.438,1.728v.788h-7.613v-.788Zm-3.856-4.174a.409.409,0,0,1,.465.459v9.626a.408.408,0,0,1-.465.459.4.4,0,0,1-.454-.459v-9.626A.4.4,0,0,1,215.25,703.666Zm2.495,7.889a21.9,21.9,0,0,0,2.635,1.117.49.49,0,0,1,.3.513q0,.45-.481.449a3.037,3.037,0,0,1-.445-.086q-1.1-.487-2.089-1.019a16.314,16.314,0,0,1-2.41-1.622l.208-.831A10.894,10.894,0,0,0,217.745,711.555Z" transform="translate(-210.005 -703.666)" fill="#6f8b1e"/><path d="M228.476,706.4l.536.8a12.285,12.285,0,0,1-.463,1.648,15.551,15.551,0,0,1-.6,1.509,5.6,5.6,0,0,1-.576,1.107.544.544,0,0,1-.42.189q-.477,0-.477-.4a.747.747,0,0,1,.158-.373,15.031,15.031,0,0,0,1.22-2.379A12.6,12.6,0,0,0,228.476,706.4Zm1.849-.442a.437.437,0,0,1,0,.875H227.13a.437.437,0,0,1,0-.875Zm-1.314-2.161a.408.408,0,0,1,.465.459V713.7a.408.408,0,0,1-.465.459.4.4,0,0,1-.454-.459v-9.451A.4.4,0,0,1,229.011,703.795Zm1.813,5.644a.842.842,0,0,1,.113.374q0,.478-.506.479-.193,0-.289-.242l-1.131-2.553.246-.793Zm4.969-4.31a.783.783,0,0,1,.9.875v7.049a.783.783,0,0,1-.9.875l-.35-.875q.329,0,.328-.35v-6.35q0-.349-.328-.35h-3.15q-.328,0-.328.35v6.35q0,.349.328.35h3.15l.35.875h-3.85a.783.783,0,0,1-.9-.875V706a.783.783,0,0,1,.9-.875Zm.438,3.714v.875h-4.725v-.875Zm-2.5-4.983a.473.473,0,0,1,.345.145.517.517,0,0,1,.146.358.543.543,0,0,1-.126.345,4.045,4.045,0,0,1-.3.509,2.451,2.451,0,0,1-.3.348h-1.082a4.748,4.748,0,0,0,.43-.63,7,7,0,0,0,.431-.872A.537.537,0,0,1,233.727,703.861Z" transform="translate(-215.229 -703.707)" fill="#6f8b1e"/><path d="M246.112,706.455c0,.056-.045.119-.134.19a6.661,6.661,0,0,1-.9.458,11.815,11.815,0,0,1-1.312.458.627.627,0,0,1-.18.031q-.451,0-.451-.469a.434.434,0,0,1,.345-.449,9.584,9.584,0,0,0,.974-.239,10.59,10.59,0,0,0,1.053-.4l.166-.06Q246.112,705.974,246.112,706.455Zm-.263-2.018a.394.394,0,1,1,0,.787H243.7a.394.394,0,1,1,0-.787Zm1.181,7.968a.385.385,0,0,1,.438.433.518.518,0,0,1-.178.346,15.19,15.19,0,0,1-3.133.9,1.9,1.9,0,0,1-.315.05q-.488,0-.488-.507a.511.511,0,0,1,.216-.354,19.755,19.755,0,0,0,3.2-.784A.744.744,0,0,1,247.029,712.405Zm4.989-4.594q.744,0,.744.7v3.238q0,.7-.744.7l-.263-.787c.088,0,.132-.059.132-.176v-2.713c0-.117-.044-.175-.132-.175h-6.865c-.087,0-.131.058-.131.175v2.713c0,.117.044.176.131.176h6.865l.263.787h-7.39q-.744,0-.744-.7v-3.238q0-.7.744-.7Zm.306,1.335v.744h-8.007v-.744Zm0,1.176v.744h-8.007v-.744Zm-2.227-5.64v.985c0,.115.088.246.264.391a2.5,2.5,0,0,0,.9.4,8.376,8.376,0,0,0,1.686.276q.431.04.431.414a.372.372,0,0,1-.418.423,9.317,9.317,0,0,1-1.929-.314,3.1,3.1,0,0,1-1.021-.475c-.2-.175-.3-.329-.3-.461a.706.706,0,0,1-.287.461,2.321,2.321,0,0,1-.859.475,9.532,9.532,0,0,1-2,.314q-.442,0-.442-.423,0-.374.431-.414a8.725,8.725,0,0,0,1.769-.276,2.258,2.258,0,0,0,.756-.4.586.586,0,0,0,.243-.391v-.985a1.3,1.3,0,0,1,.384-.022A1.425,1.425,0,0,1,250.1,704.683Zm-2-.581a3.071,3.071,0,0,1-.244.97,2.214,2.214,0,0,1-.67.826.589.589,0,0,1-.411.208q-.447,0-.447-.417a.541.541,0,0,1,.078-.22,2.017,2.017,0,0,0,.638-.638,2.163,2.163,0,0,0,.225-.743q0-.389.41-.39T248.1,704.1Zm4.422.21a.71.71,0,0,1,.806.8,1.366,1.366,0,0,1-.039.3c-.052.19-.117.4-.2.634a.5.5,0,0,1-.394.232q-.509,0-.509-.409a.4.4,0,0,1,.055-.179,3.31,3.31,0,0,0,.173-.307.158.158,0,0,0,.035-.095q0-.279-.259-.279h-4.335q-.437,0-.438-.35c0-.234.146-.35.438-.35Zm-2.35,8.13a28.73,28.73,0,0,1,2.9.772c.2.122.3.248.3.378q0,.526-.459.526a1.536,1.536,0,0,1-.292-.05,29.448,29.448,0,0,0-3.074-.914.356.356,0,0,1-.287-.36q0-.406.437-.406A3.779,3.779,0,0,1,250.174,712.442Z" transform="translate(-220.515 -703.676)" fill="#6f8b1e"/><path d="M263.024,705.678a.437.437,0,1,1,0,.875h-3.238a.437.437,0,1,1,0-.875Zm-.744,4.572a.764.764,0,0,1,.875.853v2.061a.764.764,0,0,1-.875.853l-.35-.832c.233,0,.35-.124.35-.372v-1.361q0-.372-.35-.372h-1q-.35,0-.35.372v1.361c0,.249.117.372.35.372h1l.35.832h-1.7a.764.764,0,0,1-.875-.853V711.1a.764.764,0,0,1,.875-.853Zm.306-5.95a.416.416,0,1,1,0,.832h-2.45a.416.416,0,0,1,0-.832Zm.044,2.866a.394.394,0,1,1,0,.787h-2.362a.394.394,0,1,1,0-.787Zm0,1.536a.394.394,0,1,1,0,.787h-2.362a.394.394,0,1,1,0-.787Zm4.157-.4a.437.437,0,1,1,0,.875h-3.019a.437.437,0,0,1,0-.875Zm.705-3.977a.773.773,0,0,1,.875.875V709.1a28.415,28.415,0,0,0,.215,3.341c.029.183.058.274.087.274q.167,0,.388-1.244a.313.313,0,0,1,.355-.315q.506,0,.507.465a6.094,6.094,0,0,1-.227,1.188,3.077,3.077,0,0,1-.52,1.168.718.718,0,0,1-.5.242q-.265,0-.464-.349a4.39,4.39,0,0,1-.481-1.454,19.517,19.517,0,0,1-.232-3.316v-3.544a.31.31,0,0,0-.35-.35h-3.33a.438.438,0,1,1,0-.875Zm-2.625.438h.875v9.057a.389.389,0,0,1-.443.438.384.384,0,0,1-.431-.438Z" transform="translate(-225.658 -703.867)" fill="#6f8b1e"/></g></g></g></svg>