<svg xmlns="http://www.w3.org/2000/svg" width="218" height="50" viewBox="0 0 218 50"><g transform="translate(4880 -1563)"><rect width="218" height="50" transform="translate(-4880 1563)" fill="#fff" opacity="0"/><g transform="translate(-4492 1359.606)"><path d="M3.007-29.289v.77H9.352v-.77H6.924v-3.027H9.78v-.77H6.924V-35.7H5.418v2.617H2.562v.77H5.418v3.027Zm9.578-2.959h-2.36v8.569h6.414v-8.569H13.406a20.054,20.054,0,0,0,1.2-1.864h3.01v-.77H9.78v.77h3.13C12.842-33.565,12.722-32.847,12.585-32.248ZM15.2-29.7H11.662v-1.779H15.2Zm0,2.583H11.662V-28.93H15.2Zm-6.38.137H3.486v6.534H4.957v-1.2H8.822Zm6.38,2.531H11.662v-1.9H15.2ZM7.385-22.413H4.957v-3.8H7.385ZM7.9-20.241l.239.564a12.515,12.515,0,0,0,5.1-2.617L11.867-23.3A9.789,9.789,0,0,1,7.9-20.241Zm5.987-3.045-.291.547a38.01,38.01,0,0,1,3.181,2.993l1.06-1.4A15.328,15.328,0,0,0,13.885-23.285ZM28.03-33.719l.564-1.2a18.419,18.419,0,0,0-4.071-.958l-.171.6c.838.393,2.1,1.026,3.062,1.556H19.53v.855H34.787v-.855Zm3.831,1.813H22.643v3.233h9.219Zm-1.505,2.463H24.148v-1.693h6.209Zm1.06,1.642-.735.188h-9.3v.77h8.946a12.678,12.678,0,0,1-2.275,1.471l-1.488-.291v3.746c0,.907-.376,1.06-3.164.65l-.171.582c3.01,1.488,4.943.975,4.943-.7v-3.37a17.769,17.769,0,0,0,4.55-1.9Zm12.315-5.987h1.659c-.582,2.018-1.984,3.318-4.635,3.934l.171.582a6.668,6.668,0,0,0,5.439-2.942,7.991,7.991,0,0,0,4.721,3.267l.65-1.471a7.85,7.85,0,0,1-5.046-2.446A7.308,7.308,0,0,0,47-33.788h2.258a8.929,8.929,0,0,1-.975,1.728l.393.411a9.663,9.663,0,0,0,2.36-2.36L49.667-34.8l-.393.239h-5.08a7.539,7.539,0,0,0,.445-1.009l-1.42-.393a10.064,10.064,0,0,1-2.07,4.054l.411.428A9.137,9.137,0,0,0,43.732-33.788Zm-2.6-.53a14.907,14.907,0,0,0-3.472-1.146l-.205.582A25.041,25.041,0,0,1,40.277-33Zm-.12,2.07-.445-.376A23.669,23.669,0,0,1,36.839-29.8l.907,1.232A19.727,19.727,0,0,0,41.013-32.248Zm-2.035,9.39H49.6v-6.226H38.977Zm1.505-5.456h7.611v1.06H40.482Zm0,1.779h7.611v1.009H40.482Zm0,1.728h7.611v1.18H40.482Zm-3.609,4.345.154.6a22.581,22.581,0,0,0,6.7-1.728l-1.266-1.214A18.3,18.3,0,0,1,36.873-20.463ZM45.2-22.02c1.676.564,4.379,1.556,5.833,2.258l.684-1.659a37.826,37.826,0,0,0-6.363-1.232ZM60.187-32.83H57.228l.889-.633a11.879,11.879,0,0,0-2.446-2.36l-.445.411c.428.667.992,1.659,1.471,2.583H53.773v.787h6.414Zm8.74,8.09h-.616c.034,2.514-.017,3.062-.376,2.805-.376-.274-.718-2.959-.718-8.381v-4.4H59.964v.77h1.864v5.3H59.981v.77h1.847v7.988h1.539v-7.988h1.967v-.77H63.368v-5.3h2.343v3.609c0,5.679.137,9.476,1.967,10.246C68.824-19.608,70.09-20.5,68.927-24.739ZM54.354-29.546h5.268V-30.3H54.354Zm0,2.292h5.268v-.753H54.354Zm0,7.3h1.317v-1.18h2.6v.924h1.351V-25.56H54.354Zm1.317-4.841h2.583v2.874H55.671Zm20.85,2.754V-35.1H71.783v6.089c0,4.31-.12,6.551-1.043,8.946l.513.325c1.2-1.574,1.779-3.848,1.95-6.722H75.05v4.054c0,.753-.188.838-2.189.547l-.154.564C75.136-20.172,76.521-20.532,76.521-22.037ZM79.874-33.36v-.821h2.07V-30.9c0,1.232.239,1.659,2.138,1.659a2.679,2.679,0,0,0,2.1-.564l-.616-1.112a1.424,1.424,0,0,1-1.2.393c-.838,0-.958-.154-.958-.667v-3.763H78.4V-33.6c0,2.206-.068,3.37-1.574,4.772l.325.53C79.207-29.409,79.874-30.743,79.874-33.36ZM75.05-30.982h-1.8v-3.352h1.8Zm0,3.746H73.237c.017-.393.017-.8.017-1.232V-30.23h1.8Zm11.255,5.473A11.611,11.611,0,0,1,82.354-23.2a12.044,12.044,0,0,0,2.429-4.567L83.158-28.4l-.359.325H77.137v.77h1.334a9.967,9.967,0,0,0,1.984,4.242,11.445,11.445,0,0,1-4.533,2.617l.205.582a11.813,11.813,0,0,0,5.166-2.309,10.008,10.008,0,0,0,4.156,2.241ZM82.953-27.3a10.449,10.449,0,0,1-1.676,3.318A7.757,7.757,0,0,1,79.1-27.3Zm9.9-8.142-1.71-.393a19.607,19.607,0,0,1-3.352,8.792l.411.445a12.119,12.119,0,0,0,1.967-2.309v9h1.471V-31.632A20.293,20.293,0,0,0,92.856-35.447Zm6.465.411H96.414v.77h2.292a9.606,9.606,0,0,0,3.695,6.294l1.146-1.608C101.682-30.64,99.766-31.992,99.321-35.036Zm-3.147,1.06-1.574-.5a14.5,14.5,0,0,1-2.7,6.329l.445.428A12.754,12.754,0,0,0,96.174-33.976ZM93.54-27.938h2c-.222,3.951-1.249,5.73-3.489,7.526l.376.5c2.839-1.608,4.327-3.506,4.669-8.022h2.378a50.006,50.006,0,0,1-.308,5.3c-.137,1.232-.393,1.42-2.771.872l-.171.564c2.48,1.659,4.31,1.026,4.516-.821.171-1.574.359-4.635.411-6.688H93.54ZM120.1-32.282v-.941h-8.176a21.154,21.154,0,0,0,.753-2.429l-1.71-.342a21.834,21.834,0,0,1-.787,2.771h-4.7v.941h4.345a16.51,16.51,0,0,1-4.841,6.585l.359.513a13.676,13.676,0,0,0,3.524-2.942V-19.9h1.574v-4.054h6.209v1.762c0,1.009-.376,1.078-2.908.684l-.171.6c2.839,1.505,4.652.992,4.652-.838v-8.4h-7.851a16.96,16.96,0,0,0,1.146-2.138Zm-9.664,2.993h6.209v1.864h-6.209Zm0,2.634h6.209v1.933h-6.209Zm17.549.821a6.75,6.75,0,0,0-2.138-4.242,21.066,21.066,0,0,0,2.36-4.43l-1.574-.667-.411.325h-1.847l-1.385-.393v15.394h1.437V-34.13H126.4a20.94,20.94,0,0,1-1.129,4.105,7.359,7.359,0,0,1,1.266,3.814c0,1.42-.239,1.556-1.762,1.18l-.171.582C126.535-22.892,128.04-23.645,127.988-25.834Zm6,1.437a14.467,14.467,0,0,0,3.113-2.121l-1.385-1.06a13,13,0,0,1-2.087,2.651,10.049,10.049,0,0,1-1.283-3.37h3.677v-6.448h-7.252v12.5c-.684.1-1.334.171-1.9.205l.376,1.728a24.07,24.07,0,0,0,5.833-2.172l-.205-.564c-.735.205-1.642.393-2.566.564V-28.3h1.368c.633,5.08,3.062,7.406,4.635,8.535l1.317-1.642A11.3,11.3,0,0,1,133.992-24.4Zm-3.677-9.578h4.173v2.053h-4.173Zm0,2.822h4.173v2.087h-4.173Zm15.12-2.908-1.813-.718a15.567,15.567,0,0,1-4.533,8.227l.359.513A16.4,16.4,0,0,0,145.435-34.061Zm4.242-.718H146.29v.77h2.754a11.62,11.62,0,0,0,4.4,7.936l1.4-1.933A9.074,9.074,0,0,1,149.677-34.78Zm-.53,8.364-.513.428c.547.855,1.06,1.762,1.522,2.651-1.813.257-4.242.445-6.5.547a27.364,27.364,0,0,0,3.917-6.346l-1.95-.753a27.793,27.793,0,0,1-2.942,7.15c-.753.017-1.471.034-2.121.034l.479,1.95a48.958,48.958,0,0,0,9.476-1.9c.428.889.8,1.745,1.095,2.514l1.83-.992A24.092,24.092,0,0,0,149.147-26.416Zm8.039-8.347v.77h11.477v11.357c0,1.368-.462,1.591-3.421.941l-.205.582c3.626,2.1,5.2,1.078,5.2-.992V-34.762Zm9.972,2.942h-9.373v.77h9.373Zm-1.18,8.689v-5.9h-7.269v6.277h1.505v-1.471h4.259v1.095ZM160.213-25v-3.267h4.259V-25Z" transform="translate(-341.35 250.218)" fill="#282d3c"/><path d="M3.6-18.007H4.833v4.731a2.372,2.372,0,0,1-.743,1.818,2.567,2.567,0,0,1-1.837.684A2.637,2.637,0,0,1,1.2-10.989,2.322,2.322,0,0,1,.356-11.6l-.068-.068.547-.43.059.068a1.741,1.741,0,0,0,1.359.635,1.33,1.33,0,0,0,1-.342,1.774,1.774,0,0,0,.352-1.31v-4.965ZM6.3-18H7.55v7.164H6.3Zm4.027,3.382v3.137h3.861l-.479.645H9.094V-18H14.3l-.606.626H10.326v2.14h3.822l-.5.616Zm15.765-3.392h.1v7.174H24.938v-2.893H21.185v2.893H19.924v-7.174h1.261v3.665h3.753l-.01-3.665h1.163Zm2.883,3.392v3.137h3.861l-.479.645H27.743V-18h5.21l-.606.626H28.974v2.14H32.8l-.5.616ZM39.511-18h.616v7.164h-.772l-4.789-5.151-.01,5.151H33.94V-18h.586l4.985,5.337ZM45.1-14.479h2.854v3.607H46.7v-.459a2.392,2.392,0,0,1-1.691.6,3.652,3.652,0,0,1-1.407-.279,3.61,3.61,0,0,1-1.163-.757,3.6,3.6,0,0,1-.777-1.134,3.383,3.383,0,0,1-.288-1.378,4.279,4.279,0,0,1,.313-1.666,3.36,3.36,0,0,1,.831-1.217,3.712,3.712,0,0,1,1.163-.718,3.658,3.658,0,0,1,1.329-.249,3.308,3.308,0,0,1,1.427.323,3.439,3.439,0,0,1,1.183.919l.059.078-.645.508-.059-.078a2.986,2.986,0,0,0-1.148-.9,2.34,2.34,0,0,0-1.354-.171,2,2,0,0,0-.963.415,2.015,2.015,0,0,0-.6.787,3.732,3.732,0,0,0-.264.953,4.035,4.035,0,0,0-.01,1.012,3.717,3.717,0,0,0,.225.943,3.665,3.665,0,0,0,.454.85,2.993,2.993,0,0,0,.63.65,1.987,1.987,0,0,0,1.6.44,1.7,1.7,0,0,0,.728-.308,1.166,1.166,0,0,0,.425-.494v-1.652h-1.31ZM53.957-18h1.251v7.164H53.957Zm8.366,0h.616v7.164h-.772l-4.789-5.151-.01,5.151h-.616V-18h.586l4.985,5.337Zm7.829-.02-.792.616H65.7v2.913h2.316l-.117.156q-.244.342-.293.4a.189.189,0,0,1-.088.068H65.7v3.03h-1.2v-7.184Zm2.932-.127a3.484,3.484,0,0,1,1.813.5,3.757,3.757,0,0,1,1.344,1.359,3.6,3.6,0,0,1,.5,1.842,3.6,3.6,0,0,1-.5,1.842A3.757,3.757,0,0,1,74.9-11.239a3.484,3.484,0,0,1-1.813.5,3.476,3.476,0,0,1-1.818-.5A3.731,3.731,0,0,1,69.932-12.6a3.624,3.624,0,0,1-.494-1.842,3.624,3.624,0,0,1,.494-1.842,3.731,3.731,0,0,1,1.334-1.359A3.476,3.476,0,0,1,73.084-18.144Zm-.547.674a2.06,2.06,0,0,0-1.368.87,2.854,2.854,0,0,0-.469,1.178A4.174,4.174,0,0,0,70.709-14a3.446,3.446,0,0,0,1.056,2.033,2.132,2.132,0,0,0,1.857.557A2.079,2.079,0,0,0,75.01-12.3a3.044,3.044,0,0,0,.489-1.207,3.922,3.922,0,0,0-.01-1.432,3.37,3.37,0,0,0-.914-1.857,2.267,2.267,0,0,0-1.647-.7A2.632,2.632,0,0,0,72.537-17.47ZM87.11-11.605l.068-.029.391.538-.108.049a5.1,5.1,0,0,1-2.053.42,7.521,7.521,0,0,1-2.922-.528,4.124,4.124,0,0,1-1.906-1.5H79.212v1.818H77.981v-7.155h2.541a3.27,3.27,0,0,1,1.515.367,3.062,3.062,0,0,1,1.139.977,2.243,2.243,0,0,1,.425,1.3v.039a2.072,2.072,0,0,1-.269,1.021,2.864,2.864,0,0,1-.674.821,3.588,3.588,0,0,1-.885.542,3.6,3.6,0,0,0,1.344,1.021,5.879,5.879,0,0,0,1.774.562A4.006,4.006,0,0,0,87.11-11.605ZM82.33-15.339a2.092,2.092,0,0,0-.225-.992,1.61,1.61,0,0,0-.635-.66,1.877,1.877,0,0,0-.948-.235h-1.31V-13.4h1.31a1.726,1.726,0,0,0,1.31-.523,1.908,1.908,0,0,0,.5-1.373ZM90.834-18h1.075v7.164H90.765V-16.59l-2.834,5.151-3-4.574v4.183H84.3V-18h.909l3.059,4.652Zm6.031.186,2.746,6.979H98.252l-.068-.186-.518-1.31H94.118l-.088.2-.518,1.3h-.674l.147-.381,2.746-6.773H96.8Zm.567,4.867-.049-.127-1.476-3.753-1.544,3.88Zm1.241-5.073h6.49l-.2.616h-2.424v6.568H101.3V-17.4H98.878Zm7.184.02h1.251v7.164h-1.251Zm6.118-.147a3.484,3.484,0,0,1,1.813.5,3.757,3.757,0,0,1,1.344,1.359,3.6,3.6,0,0,1,.5,1.842,3.6,3.6,0,0,1-.5,1.842,3.757,3.757,0,0,1-1.344,1.359,3.484,3.484,0,0,1-1.813.5,3.476,3.476,0,0,1-1.818-.5,3.731,3.731,0,0,1-1.334-1.359,3.624,3.624,0,0,1-.494-1.842,3.624,3.624,0,0,1,.494-1.842,3.731,3.731,0,0,1,1.334-1.359A3.476,3.476,0,0,1,111.975-18.144Zm-.547.674a2.06,2.06,0,0,0-1.368.87,2.854,2.854,0,0,0-.469,1.178A4.174,4.174,0,0,0,109.6-14a3.446,3.446,0,0,0,1.056,2.033,2.132,2.132,0,0,0,1.857.557A2.079,2.079,0,0,0,113.9-12.3a3.044,3.044,0,0,0,.489-1.207,3.922,3.922,0,0,0-.01-1.432,3.37,3.37,0,0,0-.914-1.857,2.266,2.266,0,0,0-1.647-.7A2.632,2.632,0,0,0,111.427-17.47ZM122.433-18h.616v7.164h-.772l-4.789-5.151-.01,5.151h-.616V-18h.586l4.985,5.337Zm11.954,6.216.059-.039.45.459-.1.059a3.777,3.777,0,0,1-2,.567,3.9,3.9,0,0,1-1.935-.5,3.862,3.862,0,0,1-1.427-1.359,3.437,3.437,0,0,1-.528-1.837,3.437,3.437,0,0,1,.528-1.837,3.862,3.862,0,0,1,1.427-1.359,3.9,3.9,0,0,1,1.935-.5,3.724,3.724,0,0,1,2.219.713l.088.059-.567.586-.068-.049a2.778,2.778,0,0,0-2.258-.635,2.292,2.292,0,0,0-1.593.977,2.758,2.758,0,0,0-.469,1.139,3.594,3.594,0,0,0,.02,1.344,3.33,3.33,0,0,0,1.163,2.033,2.527,2.527,0,0,0,2.053.557A2.582,2.582,0,0,0,134.386-11.781Zm4.447-6.363a3.484,3.484,0,0,1,1.813.5,3.757,3.757,0,0,1,1.344,1.359,3.6,3.6,0,0,1,.5,1.842,3.6,3.6,0,0,1-.5,1.842,3.757,3.757,0,0,1-1.344,1.359,3.484,3.484,0,0,1-1.813.5,3.476,3.476,0,0,1-1.818-.5,3.731,3.731,0,0,1-1.334-1.359,3.624,3.624,0,0,1-.494-1.842,3.624,3.624,0,0,1,.494-1.842,3.731,3.731,0,0,1,1.334-1.359A3.476,3.476,0,0,1,138.833-18.144Zm-.547.674a2.06,2.06,0,0,0-1.368.87,2.854,2.854,0,0,0-.469,1.178,4.174,4.174,0,0,0,.01,1.422,3.446,3.446,0,0,0,1.056,2.033,2.132,2.132,0,0,0,1.857.557,2.079,2.079,0,0,0,1.388-.889,3.044,3.044,0,0,0,.489-1.207,3.922,3.922,0,0,0-.01-1.432,3.37,3.37,0,0,0-.914-1.857,2.266,2.266,0,0,0-1.647-.7A2.632,2.632,0,0,0,138.286-17.47Zm4.8,5.737a.6.6,0,0,1,.415-.156.587.587,0,0,1,.411.156.492.492,0,0,1,.171.376.492.492,0,0,1-.171.376.587.587,0,0,1-.411.156.587.587,0,0,1-.411-.156.492.492,0,0,1-.171-.376A.5.5,0,0,1,143.085-11.732Zm1.935.137h.821l-.02.108a.3.3,0,0,1-.02.059l-.665,1.437h-.821l.02-.117a.185.185,0,0,1,.01-.059Zm7.7.147h3.714l-.137.156-.381.43-.029.029h-4.408V-18h1.241Zm2.395-6.568h6.49l-.2.616h-2.424v6.568h-1.241V-17.4h-2.424Zm12.227.968a3.36,3.36,0,0,1,1.075,2.629,3.473,3.473,0,0,1-1.271,2.727,3.869,3.869,0,0,1-2.619.86h-2.238v-6.656q-.01-.352,0-.415A.107.107,0,0,1,162.35-18l.059-.02.02.02h2.1A4.054,4.054,0,0,1,167.344-17.049Zm-.186,2.629q0-3.01-2.629-3.01h-1.016v6.021h1.016a2.5,2.5,0,0,0,1.974-.743A3.353,3.353,0,0,0,167.158-14.42Zm1.847,2.688a.6.6,0,0,1,.415-.156.587.587,0,0,1,.41.156.492.492,0,0,1,.171.376.492.492,0,0,1-.171.376.587.587,0,0,1-.41.156.587.587,0,0,1-.411-.156.492.492,0,0,1-.171-.376A.5.5,0,0,1,169.006-11.732Z" transform="translate(-340.003 255.113)" fill="#7a8387"/></g><g transform="translate(-4925 1116)"><path d="M-845.647,1502.171c7.819-5.3,35.095,7.411,35.885,17.333s-14.155,23.386-31.276,21.182S-853.466,1507.467-845.647,1502.171Z" transform="translate(897.695 -1048.927)" fill="#282d3c"/><g transform="translate(53.889 459.778)"><g transform="translate(0 0)"><path d="M436.12,465.5c8.268-.081,12.213,3.945,12.192,12.1h-5.35c-.246-3.294-.814-5.769-3.542-6.586a6.222,6.222,0,0,0-2.616-.2l-1.489.4A18.8,18.8,0,0,0,436.12,465.5Z" transform="translate(-424.979 -454.27)" fill="#fff" fill-rule="evenodd"/><path d="M186.242,180h5.138v8.4c0,3.124.066,6.192-.706,8.527-1.31,3.959-5.323,6.322-10.459,6.323.028-.061.033-5.462,0-5.419,5.394-.015,6.027-4.111,6.027-9.673Z" transform="translate(-180.215 -180)" fill="#3cb1ff" fill-rule="evenodd"/></g></g></g></g></svg>