<svg xmlns="http://www.w3.org/2000/svg" width="512.001" height="512" viewBox="0 0 512.001 512"><g transform="translate(-2240 -125.801)"><g transform="translate(2240 119)"><path d="M93.867,12.8H418.134A94.005,94.005,0,0,1,512,106.668V418.135A94.005,94.005,0,0,1,418.134,512H93.867A94.005,94.005,0,0,1,0,418.135V106.668A94.006,94.006,0,0,1,93.867,12.8" fill="#ff7c00"/><path d="M98.133,34.134H413.866a76.48,76.48,0,0,1,76.8,76.8V413.867a76.48,76.48,0,0,1-76.8,76.8H98.133a76.48,76.48,0,0,1-76.8-76.8V110.934a76.481,76.481,0,0,1,76.8-76.8" fill="#261300"/><path d="M237.855,152.268c-.829-1.659-.829-1.659-2.488-1.659H192.24c-.829,0-1.659,0-1.659,1.659a64.955,64.955,0,0,1-1.659,17.417L130.038,376.2c-.829,2.488,0,3.317,1.659,3.317h30.686c2.488,0,3.317-.829,3.317-2.488l16.587-62.2h65.519l17.416,62.2c.829,1.659,1.659,1.659,3.317,1.659h34c1.659,0,1.659-.829,1.659-2.488L237.855,152.268ZM191.411,281.647c8.5-32.345,19.9-73.813,24.051-97.864,4.976,24.881,19.075,74.642,24.881,97.864H191.411Zm141.82-115.28a21.563,21.563,0,1,1,43.127-.007v.007a20.009,20.009,0,0,1-21.564,21.563C342.354,187.1,333.231,179.636,333.231,166.367Zm2.488,47.273a2.177,2.177,0,0,1,2.488-2.488h32.345a2.177,2.177,0,0,1,2.488,2.488V377.023c0,1.659,0,2.488-2.488,2.488H338.207a2.177,2.177,0,0,1-2.488-2.488Z" fill="#fff"/><path d="M237.855,152.268c-.829-1.659-.829-1.659-2.488-1.659H192.24c-.829,0-1.659,0-1.659,1.659a64.955,64.955,0,0,1-1.659,17.417L130.038,376.2c-.829,2.488,0,3.317,1.659,3.317h30.686c2.488,0,3.317-.829,3.317-2.488l16.587-62.2h65.519l17.416,62.2c.829,1.659,1.659,1.659,3.317,1.659h34c1.659,0,1.659-.829,1.659-2.488L237.855,152.268ZM191.411,281.647c8.5-32.345,19.9-73.813,24.051-97.864,4.976,24.881,19.075,74.642,24.881,97.864H191.411Zm141.82-115.28a21.563,21.563,0,1,1,43.127-.007v.007a20.009,20.009,0,0,1-21.564,21.563C342.354,187.1,333.231,179.636,333.231,166.367Zm2.488,47.273a2.177,2.177,0,0,1,2.488-2.488h32.345a2.177,2.177,0,0,1,2.488,2.488V377.023c0,1.659,0,2.488-2.488,2.488H338.207a2.177,2.177,0,0,1-2.488-2.488Z" fill="#ff7c00" opacity="0.15"/></g><rect width="512" height="512" transform="translate(2240 125.801)" fill="#fff" opacity="0"/></g></svg>