<svg xmlns="http://www.w3.org/2000/svg" version="1" viewBox="0 0 512 512"><path fill="#00C8FF" d="M93.867 12.8h326.016C470.547 12.8 512 54.253 512 104.918v314.965C512 470.547 470.547 512 419.883 512H92.118C41.453 512 0 470.547 0 419.882V106.667C0 54.933 42.134 12.8 93.867 12.8"/><path fill="#001D26" d="M98.133 34.133h317.482c41.45 0 75.051 33.601 75.051 75.051v306.431c0 41.45-33.602 75.051-75.051 75.051H96.384c-41.45 0-75.051-33.601-75.051-75.051V110.933c0-42.666 34.133-76.8 76.8-76.8"/><path fill="#FFF" d="M341.146 233.353c-16.816 0-21.861 8.408-21.861 15.135s4.204 12.612 26.275 24.384c32.792 15.765 43.722 31.11 43.722 53.812 0 33.633-25.224 52.131-60.539 52.131a89.34 89.34 0 01-43.722-9.249c-1.682-.841-1.682-1.682-1.682-3.363v-31.11c0-1.682.841-2.522 2.522-1.682a74.776 74.776 0 0042.041 12.612c16.816 0 23.543-6.727 23.543-15.765 0-7.567-5.255-14.294-26.276-25.224-29.429-14.294-42.041-28.588-42.041-52.971 0-26.906 21.02-49.608 57.806-49.608a98.958 98.958 0 0137.837 5.886 3.048 3.048 0 011.682 4.204v28.588c0 1.682-.841 2.522-3.363 1.682a77.04 77.04 0 00-35.735-9.459h-.209zm-77.776-16.816c0 53.812-38.678 76.514-86.604 76.514h-15.765v80.718a2.206 2.206 0 01-2.523 2.522h-33.212a2.206 2.206 0 01-2.522-2.523l.841-227.02c0-1.682 3.363-2.522 5.255-2.522 13.453-.841 33.633-.841 53.812-.841 57.806.001 80.718 31.952 80.718 73.152zm-38.257 0c0-26.906-16.816-40.359-44.563-40.359-6.738-.24-13.485.042-20.18.841v81.559h16.816c24.595 0 47.927-8.408 47.927-42.041z"/><path fill="#00C8FF" d="M341.146 233.353c-16.816 0-21.861 8.408-21.861 15.135s4.204 12.612 26.275 24.384c32.792 15.765 43.722 31.11 43.722 53.812 0 33.633-25.224 52.131-60.539 52.131a89.34 89.34 0 01-43.722-9.249c-1.682-.841-1.682-1.682-1.682-3.363v-31.11c0-1.682.841-2.522 2.522-1.682a74.776 74.776 0 0042.041 12.612c16.816 0 23.543-6.727 23.543-15.765 0-7.567-5.255-14.294-26.276-25.224-29.429-14.294-42.041-28.588-42.041-52.971 0-26.906 21.02-49.608 57.806-49.608a98.958 98.958 0 0137.837 5.886 3.048 3.048 0 011.682 4.204v28.588c0 1.682-.841 2.522-3.363 1.682a77.04 77.04 0 00-35.735-9.459h-.209zm-77.776-16.816c0 53.812-38.678 76.514-86.604 76.514h-15.765v80.718a2.206 2.206 0 01-2.523 2.522h-33.212a2.206 2.206 0 01-2.522-2.523l.841-227.02c0-1.682 3.363-2.522 5.255-2.522 13.453-.841 33.633-.841 53.812-.841 57.806.001 80.718 31.952 80.718 73.152zm-38.257 0c0-26.906-16.816-40.359-44.563-40.359-6.738-.24-13.485.042-20.18.841v81.559h16.816c24.595 0 47.927-8.408 47.927-42.041z" opacity=".15"/></svg>