<svg xmlns="http://www.w3.org/2000/svg" width="512" height="512" viewBox="0 0 512 512"><g transform="translate(-115 -125.8)"><g transform="translate(115 119)"><path d="M93.867,12.8H419.883C470.547,12.8,512,54.253,512,104.918V419.883C512,470.547,470.547,512,419.883,512H92.118C41.453,512,0,470.547,0,419.882V106.667A94.005,94.005,0,0,1,93.867,12.8" fill="#00c8ff"/><path d="M98.133,34.133H415.615a75.05,75.05,0,0,1,75.051,75.051V415.615a75.051,75.051,0,0,1-75.051,75.051H96.384a75.05,75.05,0,0,1-75.051-75.051V110.933a76.481,76.481,0,0,1,76.8-76.8" fill="#001d26"/><path d="M341.146,233.353c-16.816,0-21.861,8.408-21.861,15.135s4.2,12.612,26.275,24.384c32.792,15.765,43.722,31.11,43.722,53.812,0,33.633-25.224,52.131-60.539,52.131a89.34,89.34,0,0,1-43.722-9.249c-1.682-.841-1.682-1.682-1.682-3.363v-31.11c0-1.682.841-2.522,2.522-1.682A74.776,74.776,0,0,0,327.9,346.023c16.816,0,23.543-6.727,23.543-15.765,0-7.567-5.255-14.294-26.276-25.224-29.429-14.294-42.041-28.588-42.041-52.971,0-26.906,21.02-49.608,57.806-49.608a98.959,98.959,0,0,1,37.837,5.886,3.048,3.048,0,0,1,1.682,4.2v28.588c0,1.682-.841,2.522-3.363,1.682a77.04,77.04,0,0,0-35.735-9.459h-.209ZM263.37,216.537c0,53.812-38.678,76.514-86.6,76.514H161v80.718a2.206,2.206,0,0,1-2.523,2.522H125.266a2.206,2.206,0,0,1-2.522-2.523l.841-227.02c0-1.682,3.363-2.522,5.255-2.522,13.453-.841,33.633-.841,53.812-.841,57.806,0,80.718,31.952,80.718,73.152Zm-38.257,0c0-26.906-16.816-40.359-44.563-40.359a130.958,130.958,0,0,0-20.18.841v81.559h16.816C201.781,258.578,225.113,250.17,225.113,216.537Z" fill="#fff"/><path d="M341.146,233.353c-16.816,0-21.861,8.408-21.861,15.135s4.2,12.612,26.275,24.384c32.792,15.765,43.722,31.11,43.722,53.812,0,33.633-25.224,52.131-60.539,52.131a89.34,89.34,0,0,1-43.722-9.249c-1.682-.841-1.682-1.682-1.682-3.363v-31.11c0-1.682.841-2.522,2.522-1.682A74.776,74.776,0,0,0,327.9,346.023c16.816,0,23.543-6.727,23.543-15.765,0-7.567-5.255-14.294-26.276-25.224-29.429-14.294-42.041-28.588-42.041-52.971,0-26.906,21.02-49.608,57.806-49.608a98.959,98.959,0,0,1,37.837,5.886,3.048,3.048,0,0,1,1.682,4.2v28.588c0,1.682-.841,2.522-3.363,1.682a77.04,77.04,0,0,0-35.735-9.459h-.209ZM263.37,216.537c0,53.812-38.678,76.514-86.6,76.514H161v80.718a2.206,2.206,0,0,1-2.523,2.522H125.266a2.206,2.206,0,0,1-2.522-2.523l.841-227.02c0-1.682,3.363-2.522,5.255-2.522,13.453-.841,33.633-.841,53.812-.841,57.806,0,80.718,31.952,80.718,73.152Zm-38.257,0c0-26.906-16.816-40.359-44.563-40.359a130.958,130.958,0,0,0-20.18.841v81.559h16.816C201.781,258.578,225.113,250.17,225.113,216.537Z" fill="#00c8ff" opacity="0.15"/></g><rect width="512" height="512" transform="translate(115 125.8)" fill="#fff" opacity="0"/></g></svg>