<svg xmlns="http://www.w3.org/2000/svg" version="1" viewBox="0 0 512 512"><path fill="#FF7C00" d="M93.867 12.801h324.267c51.733 0 93.867 42.133 93.867 93.867v311.467c0 51.733-42.133 93.867-93.867 93.867H93.867C42.134 512.002 0 469.869 0 418.135V106.668c.001-51.734 42.134-93.867 93.867-93.867"/><path fill="#261300" d="M98.133 34.134h315.733c42.667 0 76.8 34.133 76.8 76.8v302.933c0 42.667-34.133 76.8-76.8 76.8H98.133c-42.667 0-76.8-34.133-76.8-76.8V110.934c0-42.666 34.133-76.8 76.8-76.8"/><path fill="#FFF" d="M237.855 152.268c-.829-1.659-.829-1.659-2.488-1.659H192.24c-.829 0-1.659 0-1.659 1.659a64.955 64.955 0 01-1.659 17.417l-58.884 206.51c-.829 2.488 0 3.317 1.659 3.317h30.686c2.488 0 3.317-.829 3.317-2.488l16.587-62.202h65.519l17.416 62.202c.829 1.659 1.659 1.659 3.317 1.659h34.004c1.659 0 1.659-.829 1.659-2.488l-66.347-223.927zm-46.444 129.379c8.501-32.345 19.905-73.813 24.051-97.864 4.976 24.881 19.075 74.642 24.881 97.864h-48.932zm141.82-115.28c-.002-11.909 9.651-21.565 21.56-21.567 11.909-.002 21.565 9.651 21.567 21.56v.007c.895 11.014-7.308 20.668-18.322 21.563a19.94 19.94 0 01-3.242 0c-12.44-.829-21.563-8.294-21.563-21.563zm2.488 47.273a2.177 2.177 0 012.488-2.488h32.345a2.177 2.177 0 012.488 2.488v163.383c0 1.659 0 2.488-2.488 2.488h-32.345a2.177 2.177 0 01-2.488-2.488V213.64z"/><path fill="#FF7C00" d="M237.855 152.268c-.829-1.659-.829-1.659-2.488-1.659H192.24c-.829 0-1.659 0-1.659 1.659a64.955 64.955 0 01-1.659 17.417l-58.884 206.51c-.829 2.488 0 3.317 1.659 3.317h30.686c2.488 0 3.317-.829 3.317-2.488l16.587-62.202h65.519l17.416 62.202c.829 1.659 1.659 1.659 3.317 1.659h34.004c1.659 0 1.659-.829 1.659-2.488l-66.347-223.927zm-46.444 129.379c8.501-32.345 19.905-73.813 24.051-97.864 4.976 24.881 19.075 74.642 24.881 97.864h-48.932zm141.82-115.28c-.002-11.909 9.651-21.565 21.56-21.567 11.909-.002 21.565 9.651 21.567 21.56v.007c.895 11.014-7.308 20.668-18.322 21.563a19.94 19.94 0 01-3.242 0c-12.44-.829-21.563-8.294-21.563-21.563zm2.488 47.273a2.177 2.177 0 012.488-2.488h32.345a2.177 2.177 0 012.488 2.488v163.383c0 1.659 0 2.488-2.488 2.488h-32.345a2.177 2.177 0 01-2.488-2.488V213.64z" opacity=".15"/></svg>