<svg xmlns="http://www.w3.org/2000/svg" xmlns:xlink="http://www.w3.org/1999/xlink" width="2093.842" height="807.278" viewBox="0 0 2093.842 807.278"><defs><clipPath id="a"><path d="M1162.3,936.348l74.639,88.519a9.5,9.5,0,0,0,9.979,2.976l175.3-52.425a2.484,2.484,0,0,0,.708-4.419L1352.55,921.99a9.49,9.49,0,0,0-6.047-1.683l-182.47,11.96A2.484,2.484,0,0,0,1162.3,936.348Z" transform="translate(-1161.707 -920.287)" fill="#2e2e2e"/></clipPath></defs><g transform="translate(3)"><path d="M1462.843,1341.1l-141.575,0s-246.91-137.4-263.092-154.528l-170.41,163.15c-28.341-23.385-111.431-73.829-137.477-88.3,0,0,190.607-238.694,272.493-248.718s277.592,125.371,277.592,125.371Z" transform="translate(51.869 -697.771)" fill="#fff" stroke="#5c63c6" stroke-linecap="round" stroke-linejoin="round" stroke-width="6.29"/><path d="M1309.293,1235.663c47.553-6.8,121.956,20.063,143.835,71.73" transform="translate(-497.419 -697.771)" fill="none" stroke="#5c63c6" stroke-linecap="round" stroke-linejoin="round" stroke-width="6"/><path d="M889.7,1196.961l2.859,1.727L1006.528,1341.1l-141.575,0s-28.034-15.6-65.828-36.942l6.711-11.261c-8.353-14.359-20.232-25.517-33.775-34.008C772.061,1258.894,675.315,1191.219,889.7,1196.961Z" transform="translate(508.185 -697.771)" fill="#2e2e2e"/><line y1="22.908" x2="22.781" transform="translate(1110.045 465.899)" fill="none" stroke="#5c63c6" stroke-linecap="round" stroke-linejoin="round" stroke-width="6"/><path d="M1323.077,1270.551c13.432-47.455,166.561,21.337,144.755,76.67C1457.655,1373.047,1305.085,1326.989,1323.077,1270.551Z" transform="translate(-526.557 -697.771)" fill="#2e2e2e" stroke="#5c63c6" stroke-linecap="round" stroke-linejoin="round" stroke-width="6"/><path d="M1371.683,1231.51" transform="translate(-478.365 -697.771)" fill="none" stroke="#5c63c6" stroke-linecap="round" stroke-linejoin="round" stroke-width="6"/><g transform="translate(722.828 12.021)"><path d="M1233.756,709.808l243.8,27.743a11.857,11.857,0,0,1,10.376,8.019l54.241,160.058H1289.493L1227.7,717.4A5.887,5.887,0,0,1,1233.756,709.808Z" transform="translate(-1227.441 -709.792)" fill="#fff" stroke="#5c63c6" stroke-linecap="round" stroke-linejoin="round" stroke-width="6.29"/><path d="M1476.956,749.76l50.584,149.265H1295.674l-57.622-175.532Z" transform="translate(-1223.419 -709.792)" fill="#362e8b"/><path d="M1457.024,890.193h-116.8a6.62,6.62,0,0,1-6.339-4.712l-36.8-122.262a3.043,3.043,0,0,1,3.247-3.9l119.4,13.127a6.62,6.62,0,0,1,5.587,4.58l34.608,109.206A3.044,3.044,0,0,1,1457.024,890.193Z" transform="translate(-1214.851 -709.792)" fill="#2e2e2e"/><path d="M1449.439,879.574h-116.8a6.618,6.618,0,0,1-6.339-4.712L1289.5,752.6a3.043,3.043,0,0,1,3.247-3.9l119.4,13.128a6.618,6.618,0,0,1,5.587,4.58l34.609,109.206A3.043,3.043,0,0,1,1449.439,879.574Z" transform="translate(-1199.681 -709.792)" fill="#15b1ff"/><g transform="translate(110.385 55.698)"><path d="M1328.078,811.521l-4.985-16.822,95.217,5.068,4.824,15.221Z" transform="translate(-1314.437 -765.49)" fill="#fff"/><path d="M1336.577,781.777l-4.826-16.288,95.845,8.946,4.194,13.233Z" transform="translate(-1331.75 -765.49)" fill="#fff"/><path d="M1405.136,825.735l9.622,30.36-95.186-1.049-9.506-32.079Z" transform="translate(-1293.034 -765.49)" fill="#fff"/></g><path d="M1365.423,871.776l-24.64.376a6.68,6.68,0,0,1-6.651-5.363l-.049-.241a3.164,3.164,0,0,1,3.132-3.786l24.87.233a6.679,6.679,0,0,1,6.3,4.662h0A3.163,3.163,0,0,1,1365.423,871.776Z" transform="translate(-1160.386 -709.792)" fill="#ff5963"/><path d="M1118.217,912.991a31.833,31.833,0,0,0,5,17.129l110.271,172.742a15.7,15.7,0,0,0,19.928,5.753l225.04-106.1" transform="translate(-1054.501 -709.792)" fill="#5c63c6" stroke="#fff" stroke-linecap="round" stroke-linejoin="round" stroke-width="4"/><path d="M1101.034,905.628l120.453,189.863a12.474,12.474,0,0,0,15.678,4.682l240.451-108.854a4.263,4.263,0,0,0,.511-7.494l-124.412-78.2Z" transform="translate(-1038.982 -709.792)" fill="#fff" stroke="#5c63c6" stroke-linecap="round" stroke-linejoin="round" stroke-width="6.29"/><g transform="translate(118.19 210.495)"><path d="M1162.3,936.348l74.639,88.519a9.5,9.5,0,0,0,9.979,2.976l175.3-52.425a2.484,2.484,0,0,0,.708-4.419L1352.55,921.99a9.49,9.49,0,0,0-6.047-1.683l-182.47,11.96A2.484,2.484,0,0,0,1162.3,936.348Z" transform="translate(-1161.707 -920.287)" fill="#2e2e2e"/><g clip-path="url(#a)"><path d="M1182.436,929.985a1.509,1.509,0,0,1,2.132.121l27.549,30.886,18.152-2.618h0l.016,0,16.076-2.32-26.335-27.21a1.511,1.511,0,1,1,2.171-2.1l27.854,28.779,18.268-2.635,15.976-2.3-26.248-24.873a1.511,1.511,0,0,1,2.079-2.193l27.982,26.516,18.377-2.651,15.863-2.289-27.391-23.671a1.51,1.51,0,0,1,1.976-2.285l29.375,25.385,18.5-2.67,15.735-2.27-28.674-22.448a1.511,1.511,0,1,1,1.862-2.379l30.95,24.23,18.652-2.691a1.51,1.51,0,0,1,.431,2.99l-19.29,2.783-15.85,2.287,22.818,18.784,18.158-3.952,18.881-4.11a1.511,1.511,0,0,1,.643,2.952l-18.881,4.11-18.871,4.107h0l-4.355.948,26.541,21.849a1.511,1.511,0,0,1-1.92,2.333l-28.381-23.363-10.753,2.341-18.862,4.105-.015,0h0l-18.842,4.1-18.852,4.1-16.2,3.526,25.889,26.748a1.51,1.51,0,1,1-2.171,2.1l-27.191-28.092-18.022,3.923-18.84,4.1-18.836,4.1a1.562,1.562,0,0,1-.323.034,1.51,1.51,0,0,1-.32-2.986l18.836-4.1,16.252-3.538-25.078-27.006-18.19,2.624-18.949,2.734a1.609,1.609,0,0,1-.218.016,1.511,1.511,0,0,1-.213-3.006l16.165-2.333-26.217-29.391A1.511,1.511,0,0,1,1182.436,929.985Zm94.01,53.83,16.13-3.511-24.566-24.323-18.288,2.638-16.149,2.33,24.872,26.784Zm37.7-8.207,15.988-3.48-23.917-21.659-18.4,2.654-16.062,2.317,24.338,24.1Zm37.718-8.21,15.825-3.445-23.1-19.02-18.525,2.673-15.962,2.3,23.664,21.429Z" transform="translate(-1168.267 -920.287)" fill="#fff"/></g></g></g><g transform="translate(1025.624 148.501)"><path d="M1208.089,873.217c-37.169-4.079-175.557,23.4-175.557,23.4s-182.118-60-211.488-49c-35.106,13.14-61.185,89.625-40.861,93.487,3.967.754,10.073-8.969,15.328-21.519.779-1.862,20.787,21.14,28.93,19.825,14.109-2.279,21.615-8.474,21.615-8.474,28.892,4.354,119.962,87.508,183.512,81.338,59.122-5.741,195.7-41.133,195.7-41.133S1266.455,879.623,1208.089,873.217Z" transform="translate(-773.051 -846.272)" fill="#fdb78f"/><path d="M894.633,900.932l-10.106,18.653c-5.255,12.55-11.361,22.273-15.328,21.519-20.324-3.862,5.755-80.347,40.861-93.487,29.37-10.994,211.488,49,211.488,49l117.829-20.112" transform="translate(-862.067 -846.272)" fill="none" stroke="#e58863" stroke-linecap="round" stroke-linejoin="round" stroke-width="4"/><path d="M1143.372,858.344c.336,8.023,2.54,36.371,4.223,44.191,1.875,8.712,16.435,2.073,17.384-23.038,4.281,15.329,12.281,30.325,29.25,30.457" transform="translate(-1098.224 -846.272)" fill="#fdb78f" stroke="#e58863" stroke-linecap="round" stroke-linejoin="round" stroke-width="4"/><g transform="translate(250.075 63.682)"><path d="M978.157,909.954c-1.677,17.454,4.642,52.041,4.642,52.041" transform="translate(-971.371 -909.954)" fill="none" stroke="#e58863" stroke-linecap="round" stroke-linejoin="round" stroke-width="4"/><path d="M989.3,914.543c-1.362,6.917-1.713,16.666-1.644,25.864" transform="translate(-987.65 -909.954)" fill="none" stroke="#e58863" stroke-linecap="round" stroke-linejoin="round" stroke-width="4"/></g></g><path d="M958.413,859.9c-41.513-5.1-167.4,22.19-222.318,23.281-17.949,55.243,10.119,124.883,10.119,124.883s88.878,1.95,111.724-3.741C877.655,895.732,958.413,859.9,958.413,859.9Z" transform="translate(576.489 -697.771)" fill="#ff5963"/><path d="M1180.209,1230.034" transform="translate(-95.417 -697.771)" fill="none" stroke="#5c63c6" stroke-linecap="round" stroke-linejoin="round" stroke-width="6"/><path d="M951.84,1263.6c17.608-33.349,167.686,8.878,150.061,65.681C1093.674,1355.794,938.1,1321.222,951.84,1263.6Z" transform="translate(210.684 -697.771)" fill="#2e2e2e" stroke="#5c63c6" stroke-linecap="round" stroke-linejoin="round" stroke-width="6"/><path d="M801.764,1010.55c27.637-49.971,78.779-80.352,109.843-83.075l13.48-10.849a156.9,156.9,0,0,0-14.679,29.8l-.049.134q-1.3,3.538-2.452,7.222c-.026.084-.053.167-.079.251q-.546,1.754-1.058,3.54c-.048.165-.094.331-.141.5q-.512,1.8-.989,3.635l-.005.02q-.464,1.791-.89,3.616c-.047.2-.095.4-.141.6q-.41,1.769-.785,3.568c-.048.231-.1.464-.142.7q-.381,1.86-.728,3.748c-22.847,5.691-46.429,94.232-46.429,94.232S809.329,1027.291,801.764,1010.55Z" transform="translate(538.15 -697.771)" fill="#2e2e2e"/><path d="M213.522,862.926c70.6,5.078,131.393,100.113,181.409,175,60.65,90.81,108.153,167.8,172.773,221.708,85.25,71.113,101.168,81.468,15.956,80.254-26.588-.379-47.521-15.043-71.819-28.928-12.41-7.091-8.96,37.9-37.955,28.961-4.093-1.263,11.487-42.694,2.811-57.168-16.66-27.793-108.854-91.955-140.429-134.591-71.745-96.879-87.236-99.586-123.165-142.557C176.046,961.289,213.522,862.926,213.522,862.926Z" transform="translate(1428.099 -697.771)" fill="#fdb78f"/><path d="M423.7,1184.427c-5.353-205.233,62.726-256.952,105.835-301.243C546.126,866.143,571.626,861,606.046,859.9c51-1.628,115.529-15.719,165.832,12.411,48.916,27.353,80.308,89.681,140.861,164.964-15.479,31.07-103.241,67.412-130.14,77.5-5.95,2.232-61.024-63.884-61.024-63.884s29.246,139.311,14.506,173.484c-10.012,23.209-29.871,19.772-39.2,11.931C644.045,1191.9,424.632,1220.015,423.7,1184.427Z" transform="translate(928.857 -697.771)" fill="#ff5963"/><path d="M555.343,1017.833c-24.443,28.68-55.164,50.535-130.009,76.315" transform="translate(1284.324 -697.771)" fill="none" stroke="#fff" stroke-miterlimit="10" stroke-width="4"/><path d="M601.523,1028.861l17.2,22.037s22.8,108.587,17.993,157.541h0C635.151,1143.842,578.173,1118.144,601.523,1028.861Z" transform="translate(1031.707 -697.771)" fill="#2e2e2e"/><path d="M810.619,721.184c-4.366,1.192-18.7,27.087-4.73,46.952,14.366,20.424,26.889-22.777,24.357-31.562S810.619,721.184,810.619,721.184Z" transform="translate(634.512 -697.771)" fill="#2e2e2e"/><path d="M732.4,785.881c4.1,6.364,7.931,29.416,12.743,42.385,0,0,23.726,27.5,44.07,36.505,0,0-7.192,24.386-31.892,35.671-40.965,18.716-78.479-.487-60.451-27.506,11.527-14.049-13.449-43.549-22.351-50.795Z" transform="translate(801.277 -697.771)" fill="#fdb78f"/><path d="M778.851,865.461s-3.03,22.283-29.839,38.693c-51.727,31.661-102.175-3.839-72.065-38.693" transform="translate(818.249 -697.771)" fill="none" stroke="#fff" stroke-linecap="round" stroke-linejoin="round" stroke-width="4"/><path d="M743.2,825.4c4.091-4.142,8.9-8.453,9.95-11.725L769.39,803.5l16.257-3.99c-2.378,12.129-10.242,28.723-19.539,38.278-2,2.051-4.813,4.882-7.549,7.354A103.564,103.564,0,0,0,743.2,825.4Z" transform="translate(736.159 -697.771)" fill="#2e2e2e"/><path d="M816.722,804.785c-17.476,23.358-57.1,44.147-80.049,26.131-13.57-10.655-16.535-72.3.941-95.66s45.1-21.883,68.456-4.408A52.822,52.822,0,0,1,816.722,804.785Z" transform="translate(712.262 -697.771)" fill="#fdb78f"/><path d="M706.543,711.9c-2.943,44.7,75.392,24.9,70.489,78.538,1.491,3.161,2.548,3.489,4.505,3.656,0,0,10.7-20.536,18.676-8.82,4.16,6.111-.242,12.049,1.4,21.2,1.464,8.167,6.711,15.843,11.638,21.789-1.441-24.075,10.567-45.031,12-65.081,2.39-33.421-30.816-66.626-65.913-59.013C727.662,711.042,708.561,681.262,706.543,711.9Z" transform="translate(733.166 -697.771)" fill="#362e8b"/><path d="M795.663,776.929c-.044-1.016-6.507-1.34-7.774-.705-.283-.015-.187,5.749,1.264,7.454s4.622.651,5.607-1.024C795.689,781.074,792.735,779.582,795.663,776.929Z" transform="translate(681.576 -697.771)" fill="#010101"/><path d="M824.836,776.177c-.045-.862-5.53-1.093-6.6-.545-.24-.011-.119,4.879,1.124,6.316s3.926.521,4.75-.907C824.885,779.694,822.369,778.448,824.836,776.177Z" transform="translate(622.033 -697.771)" fill="#010101"/><path d="M811.113,806.477c-1.373.022-2.548,2.9-3.612,3.6a23.688,23.688,0,0,1-8.345,3.241c-4.359.7-9.221-.979-13.187-2.576-1.086-.436-1.067,4.449,1.234,5.5,4.481,2.056,12.9,2.023,17.206-.423,2.154-1.226,3.671-3.507,5.81-4.62.645-.335,2.791,4.267,3.28,1.3C813.7,811.288,813.009,806.448,811.113,806.477Z" transform="translate(666.197 -697.771)" fill="#e58863"/><path d="M820.252,767.87c-10.658-3.013-22.219-4.2-25.969.911-4.214,5.738-4.134,16.774-13.91,24.113-4.005,3.006.664,9.066,5.33,11.3" transform="translate(665.894 -697.771)" fill="none" stroke="#e58863" stroke-linecap="round" stroke-linejoin="round" stroke-width="4"/><path d="M825.392,763.261c-6.754,2.844-13.444.176-13.8.159" transform="translate(628.02 -697.771)" fill="none" stroke="#e58863" stroke-linecap="round" stroke-linejoin="round" stroke-width="4"/><path d="M260.989,1331.123c-32.476-16.922-40.179-27.791-40.179-27.791" transform="translate(1783.202 -697.771)" fill="none" stroke="#e58863" stroke-linecap="round" stroke-linejoin="round" stroke-width="4"/><path d="M296.318,1330.9c-33.156-15.548-47.286-32.667-47.286-32.667" transform="translate(1719.651 -697.771)" fill="none" stroke="#e58863" stroke-linecap="round" stroke-linejoin="round" stroke-width="4"/><path d="M238.127,1317.228a216.133,216.133,0,0,1-19.733-12.648" transform="translate(1808.48 -697.771)" fill="none" stroke="#e58863" stroke-linecap="round" stroke-linejoin="round" stroke-width="4"/><line x1="703.083" transform="translate(0 643.334)" fill="none" stroke="#fff" stroke-linecap="round" stroke-linejoin="round" stroke-width="6"/><line x1="125.361" transform="translate(983.198 643.334)" fill="none" stroke="#fff" stroke-linecap="round" stroke-linejoin="round" stroke-width="6"/><line x1="762.257" transform="translate(1325.585 643.334)" fill="none" stroke="#fff" stroke-linecap="round" stroke-linejoin="round" stroke-width="6"/><path d="M1101.4,1236.313c5.265,50.219-6.274,100.851-89.358,104.328-133.445,5.584-136.075-39.644-193.533-115.01l-30.262,103.651c-4.237-65.681-133.662-83.41-150.061-65.681,0,0,16.7-61.695,39.891-132.379C702,1058.31,733.215,976.341,785.78,976.33c72.863,0,211.422,187.34,211.422,187.34l32.55,45.274S1087.123,1220.053,1101.4,1236.313Z" transform="translate(524.341 -697.771)" fill="#fff"/><g transform="translate(1299.461 388.315)"><path d="M963.549,1271.169c.523-2.042,1.192-4.644,1.991-7.723" transform="translate(-963.549 -1086.086)" fill="none" stroke="#5c63c6" stroke-linecap="round" stroke-linejoin="round" stroke-width="6"/><path d="M769.8,1248.345c14.024-52.944,44.516-162.539,56.567-162.259,26.348.612,105.716,101.59,133.218,137.629" transform="translate(-763.855 -1086.086)" fill="none" stroke="#5c63c6" stroke-linecap="round" stroke-linejoin="round" stroke-width="6" stroke-dasharray="21.669 21.669"/><path d="M760.3,1229.932c3.068,4.062,4.784,6.382,4.784,6.382" transform="translate(-559.844 -1086.086)" fill="none" stroke="#5c63c6" stroke-linecap="round" stroke-linejoin="round" stroke-width="6"/></g><path d="M1105.509,1251.8c-42.2-20.234-93.782-18.959-107.832-9.671" transform="translate(161.815 -697.771)" fill="none" stroke="#5c63c6" stroke-linecap="round" stroke-linejoin="round" stroke-width="6"/><path d="M743.459,1263.6s16.7-61.695,39.891-132.379c23.923-72.912,55.141-154.881,107.706-154.892,72.863,0,211.422,187.34,211.422,187.34" transform="translate(419.064 -697.771)" fill="none" stroke="#5c63c6" stroke-linecap="round" stroke-linejoin="round" stroke-width="6"/><line y1="198.06" x2="54.659" transform="translate(1312.584 433.451)" fill="none" stroke="#5c63c6" stroke-linecap="round" stroke-linejoin="round" stroke-width="6"/><line x2="47.869" y2="66.582" transform="translate(1521.543 465.899)" fill="none" stroke="#5c63c6" stroke-linecap="round" stroke-linejoin="round" stroke-width="6"/><path d="M1323.077,1270.551c13.432-47.455,166.561,21.337,144.755,76.67C1457.655,1373.047,1305.085,1326.989,1323.077,1270.551Z" transform="translate(-526.557 -697.771)" fill="#2e2e2e" stroke="#5c63c6" stroke-linecap="round" stroke-linejoin="round" stroke-width="6"/><g transform="translate(626.086 563.653)"><path d="M1457.473,1317.922c6.5-10.391,50.937-56.5,50.937-56.5,31.214-.264,70.649,33.049,84.161,58.937-12.442,22.754-36.985,39.446-36.762,42.418,16.144,79.015-181.538,89.621-198.524,57.385S1445.127,1337.672,1457.473,1317.922Z" transform="translate(-1309.083 -1261.423)" fill="#fdb78f"/><path d="M1513.154,1315.585c9.734-26.493,46.6-5.034,36.782,21.348-24.177,64.935,69.044,21.049,77.81,17.3s10.461,31.244,11.165,60.432c.592,24.526-50.922,10.249-96.352,28.919-73.8,30.329-108.912,35.649-141.66,14.878-41.142-26.1-22.3-30.836,15.876-60.7C1453.419,1369.107,1500.236,1339.99,1513.154,1315.585Z" transform="translate(-1377.717 -1261.423)" fill="#fff" stroke="#5c63c6" stroke-linecap="round" stroke-linejoin="round" stroke-width="6"/><path d="M1490.874,1349.727c25.614,2.82,51.518,28.375,55.135,35.783" transform="translate(-1397.967 -1261.423)" fill="none" stroke="#5c63c6" stroke-linecap="round" stroke-linejoin="round" stroke-width="6"/><path d="M1556.311,1389.142c14.527-1.862,33.191,10.273,36.809,17.682" transform="translate(-1510.516 -1261.423)" fill="none" stroke="#5c63c6" stroke-linecap="round" stroke-linejoin="round" stroke-width="6"/><path d="M1530.757,1376.866c25.748,1.029,41.725,17.593,45.343,25" transform="translate(-1467.941 -1261.423)" fill="none" stroke="#5c63c6" stroke-linecap="round" stroke-linejoin="round" stroke-width="6"/><path d="M1509.647,1362.475c25.613,2.82,48.654,23.57,52.271,30.978" transform="translate(-1432.649 -1261.423)" fill="none" stroke="#5c63c6" stroke-linecap="round" stroke-linejoin="round" stroke-width="6"/><path d="M1378.921,1429.222c2.8-4.66,26.432-8.915,36.138,11.555,5.1,10.746,20.334,38.322,108.287-7.151,58.278-30.13,87.485-59.728,114.02-43.05" transform="translate(-1377.371 -1261.423)" fill="none" stroke="#5c63c6" stroke-linecap="round" stroke-linejoin="round" stroke-width="6"/></g><g transform="translate(1032.053 563.654)"><path d="M1070.917,1325.563c4.548-11.38,10.85-38.611,15.8-61.866h0c29.765-9.4,86.762,11.969,104.656,35.047-8.2,24.6-16.466,50.618-15.72,53.5,29.919,74.892-162.739,127.635-185.18,98.928S1062.274,1347.191,1070.917,1325.563Z" transform="translate(-945.458 -1261.425)" fill="#fdb78f"/><path d="M1091.107,1325.563c4.876-27.8,53.631-12.88,49.642,14.988-9.509,66.43,62.03,7.945,69.991,2.7s21.086,41.985,22.2,71.161c.593,15.513-42.345,20.026-79.986,51.578-48.98,41.058-111.034,41.944-146.95,27.318-45.122-18.376-27.421-26.386,4.846-62.55C1041.824,1396.046,1082.728,1351.874,1091.107,1325.563Z" transform="translate(-978.81 -1261.425)" fill="#fff" stroke="#5c63c6" stroke-linecap="round" stroke-linejoin="round" stroke-width="6"/><path d="M1019.814,1408.657q-2.085.852-4.165,1.6" transform="translate(-802.515 -1261.425)" fill="none" stroke="#5c63c6" stroke-linecap="round" stroke-linejoin="round" stroke-width="6"/><path d="M987.006,1419.736h0a3.6,3.6,0,0,0,4.781,3.6,122.686,122.686,0,0,0,30.519-15.317,10.789,10.789,0,0,0,4.556-8.18l.028-.494a3.6,3.6,0,0,0-5.616-3.174,136.133,136.133,0,0,1-15.65,9.15" transform="translate(-780.948 -1261.425)" fill="none" stroke="#5c63c6" stroke-linecap="round" stroke-linejoin="round" stroke-width="6"/><path d="M1095.83,1366.714c25.707-1.773,55.737,18.777,60.613,25.425" transform="translate(-1019.325 -1261.425)" fill="none" stroke="#5c63c6" stroke-linecap="round" stroke-linejoin="round" stroke-width="6"/><path d="M1156.443,1413.868c13.964-4.412,34.487,4.217,39.363,10.865" transform="translate(-1119.301 -1261.425)" fill="none" stroke="#5c63c6" stroke-linecap="round" stroke-linejoin="round" stroke-width="6"/><path d="M1132.175,1398.765c25.522-3.559,44.186,9.905,49.062,16.554" transform="translate(-1080.464 -1261.425)" fill="none" stroke="#5c63c6" stroke-linecap="round" stroke-linejoin="round" stroke-width="6"/><path d="M1112.894,1382.085c25.708-1.773,52.066,14.556,56.942,21.205" transform="translate(-1049.782 -1261.425)" fill="none" stroke="#5c63c6" stroke-linecap="round" stroke-linejoin="round" stroke-width="6"/><path d="M984.757,1468.373c1.93-5.084,12.3-8.516,25.484,9.906,6.923,9.67,78.122,26.847,140.741-38.141,45.52-47.244,52.176-74.593,81.251-62.893" transform="translate(-984.042 -1261.425)" fill="none" stroke="#5c63c6" stroke-linecap="round" stroke-linejoin="round" stroke-width="6"/></g><path d="M1326.631,1138.8a656.421,656.421,0,0,0-74.21-32.422L1075.59,1280.989" transform="translate(-137.22 -697.771)" fill="none" stroke="#5c63c6" stroke-linecap="round" stroke-linejoin="round" stroke-width="6" stroke-dasharray="21.669 21.669"/><g transform="translate(877.686 662.096)"><line x2="168.426" transform="translate(320.858 124.511)" fill="none" stroke="#fff" stroke-linecap="round" stroke-linejoin="round" stroke-width="6"/><line x2="66.795" transform="translate(359.857 105.239)" fill="none" stroke="#fff" stroke-linecap="round" stroke-linejoin="round" stroke-width="6"/><line x2="66.795" transform="translate(1059.532)" fill="none" stroke="#fff" stroke-linecap="round" stroke-linejoin="round" stroke-width="6"/><line x2="40.201" transform="translate(410.142 85.968)" fill="none" stroke="#fff" stroke-linecap="round" stroke-linejoin="round" stroke-width="6"/><line x2="66.795" transform="translate(0 80.939)" fill="none" stroke="#fff" stroke-linecap="round" stroke-linejoin="round" stroke-width="6"/><line x2="40.201" transform="translate(50.285 61.667)" fill="none" stroke="#fff" stroke-linecap="round" stroke-linejoin="round" stroke-width="6"/><line x2="40.201" transform="translate(1027.421 15.502)" fill="none" stroke="#fff" stroke-linecap="round" stroke-linejoin="round" stroke-width="6"/></g></g></svg>