<svg xmlns="http://www.w3.org/2000/svg" xmlns:xlink="http://www.w3.org/1999/xlink" width="512" height="512" viewBox="0 0 512 512"><defs><clipPath id="a"><rect width="341.333" height="512" fill="#fff"/></clipPath></defs><g transform="translate(20380 7382)"><rect width="512" height="512" transform="translate(-20380 -7382)" fill="#fff" opacity="0"/><g transform="translate(-20295 -7382)" clip-path="url(#a)"><path d="M19,104.341a85.333,85.333,0,1,1,24.989,60.335A85.333,85.333,0,0,1,19,104.341Z" transform="translate(151.667 151.659)" fill="#1abcfe"/><path d="M0,123.333A85.333,85.333,0,0,1,85.333,38h85.333v85.333A85.333,85.333,0,1,1,0,123.333Z" transform="translate(0 303.333)" fill="#0acf83"/><path d="M19,0V170.667h85.333A85.333,85.333,0,1,0,104.333,0Z" transform="translate(151.667)" fill="#ff7262"/><path d="M0,85.333a85.333,85.333,0,0,0,85.333,85.333h85.333V0H85.333A85.333,85.333,0,0,0,0,85.333Z" transform="translate(0)" fill="#f24e1e"/><path d="M0,104.333a85.333,85.333,0,0,0,85.333,85.333h85.333V19H85.333A85.333,85.333,0,0,0,0,104.333Z" transform="translate(0 151.667)" fill="#a259ff"/><rect width="512" height="512" transform="translate(-574)" fill="#fff"/><path d="M1,1V511H511V1H1M0,0H512V512H0Z" transform="translate(-574)" fill="#707070"/></g></g></svg>