<svg xmlns="http://www.w3.org/2000/svg" xmlns:xlink="http://www.w3.org/1999/xlink" width="38" height="57" viewBox="0 0 38 57"><defs><clipPath id="a"><rect width="38" height="57" fill="#fff"/></clipPath></defs><g clip-path="url(#a)"><path d="M19,28.5a9.5,9.5,0,1,1,2.782,6.717A9.5,9.5,0,0,1,19,28.5Z" fill="#1abcfe"/><path d="M0,47.5A9.5,9.5,0,0,1,9.5,38H19v9.5a9.5,9.5,0,0,1-19,0Z" fill="#0acf83"/><path d="M19,0V19h9.5a9.5,9.5,0,0,0,0-19Z" fill="#ff7262"/><path d="M0,9.5A9.5,9.5,0,0,0,9.5,19H19V0H9.5A9.5,9.5,0,0,0,0,9.5Z" fill="#f24e1e"/><path d="M0,28.5A9.5,9.5,0,0,0,9.5,38H19V19H9.5A9.5,9.5,0,0,0,0,28.5Z" fill="#a259ff"/></g></svg>