<svg xmlns="http://www.w3.org/2000/svg" width="512" height="512" viewBox="0 0 512 512"><path d="M512,256c0,127.969-93.895,234-216.555,252.98q-4.154.642-8.359,1.149a255.314,255.314,0,0,1-27.429,1.839q-3.657.064-7.314,0a255.316,255.316,0,0,1-27.429-1.839q-4.2-.5-8.359-1.149C93.895,490,0,383.969,0,256,0,114.615,114.615,0,256,0S512,114.615,512,256Z" transform="translate(0)" fill="#f2f2f2"/><g transform="translate(0)"><path d="M512,256a257.437,257.437,0,0,1-1.578,28.536c-.115,1.045-.23,2.1-.355,3.145q-.986,7.925-2.456,15.778-.28,1.539-.6,3.072A256.325,256.325,0,0,1,337.073,498.886c-12.978,2.508-17.586-5.465-17.586-12.288,0-8.432.293-36,.293-70.249,0-23.886-8.182-39.466-17.356-47.407,44.335-4.932,90.425-19.122,108.711-71.471q.551-1.552,1.045-3.124,1.573-4.932,2.748-9.979c.24-1.034.481-2.079.7-3.145a186.963,186.963,0,0,0,3.689-38.6c0-27.941-9.937-50.782-26.352-68.712,2.664-6.447,11.431-32.486-2.508-67.751,0,0-21.462-6.875-70.332,26.248a242.673,242.673,0,0,0-128.209,0C143,99.286,121.5,106.161,121.5,106.161c-13.9,35.265-5.13,61.3-2.476,67.751-16.374,17.93-26.384,40.772-26.384,68.712a186.2,186.2,0,0,0,3.7,38.588c.219,1.066.449,2.111.69,3.145a129.471,129.471,0,0,0,3.8,13.113c18.275,52.255,64.24,66.644,108.45,71.67-7.325,6.395-13.96,17.69-16.259,34.241-14.608,6.541-51.66,17.847-74.491-21.285,0,0-13.542-24.576-39.246-26.384,0,0-24.984-.324-1.745,15.559,0,0,16.771,7.879,28.421,37.46,0,0,15.026,45.693,86.246,30.208.115,21.389.345,41.556.345,47.658,0,6.76-4.692,14.691-17.492,12.319A256.355,256.355,0,0,1,4.984,306.531v-.01q-.317-1.526-.585-3.062-1.484-7.847-2.456-15.778c-.136-1.045-.251-2.09-.366-3.145A257.676,257.676,0,0,1,0,256C0,114.615,114.636,0,256,0S512,114.615,512,256Z" transform="translate(0)" fill="#222123"/><path d="M94.678,363.7c-1.849-.878-3.856-.512-4.409.794-.6,1.275.439,3.009,2.3,3.845,1.829.878,3.824.5,4.389-.773.647-1.275-.419-3.03-2.279-3.866ZM106.6,373.8c-1.682-1.776-3.992-2.309-5.245-1.181-1.243,1.149-.93,3.542.742,5.319,1.62,1.787,4.012,2.32,5.235,1.191,1.275-1.15.94-3.522-.732-5.329Zm10.857,13.907c-1.609-2.257-4.138-3.239-5.716-2.152-1.609,1.1-1.609,3.824-.042,6.1,1.588,2.278,4.148,3.3,5.726,2.2,1.6-1.108,1.6-3.845.032-6.155Zm12.392,13.866c-2.205-2.1-5.214-2.529-6.635-.982-1.4,1.546-.784,4.483,1.452,6.541,2.194,2.111,5.183,2.529,6.583.982C132.744,406.58,132.065,403.634,129.849,401.575Zm16.29,9.561c-2.926-.909-5.82.042-6.416,2.058s1.306,4.378,4.2,5.256c2.9.846,5.778-.063,6.4-2.069.6-2.037-1.294-4.367-4.189-5.245Zm19.6,3.051c-3.062.052-5.465,1.776-5.465,3.908.031,2.079,2.508,3.793,5.569,3.72,3.041-.031,5.507-1.787,5.433-3.9C171.28,415.828,168.782,414.124,165.742,414.187Zm25.035.418c-.387-2.1-3.1-3.333-6.123-2.811-2.978.543-5.13,2.664-4.754,4.775.376,2.038,3.124,3.312,6.1,2.769C189.022,418.774,191.133,416.664,190.777,414.6Z" transform="translate(0 0)" fill="#222123"/></g></svg>