<svg xmlns="http://www.w3.org/2000/svg" width="512" height="512" viewBox="0 0 512 512"><path d="M0,0H512V512H0Z" fill="#cf4547"/><path d="M959.186,1639.84a19.665,19.665,0,0,0-1.284,3.3q-.933,2.783-2.256,6.96t-2.868,9.367q-1.549,5.175-3.179,10.57t-3.139,10.58q-1.5,5.175-2.7,9.367t-1.986,7.02c-.532,1.885-.852,3-.973,3.35a21.2,21.2,0,0,1-1.414,3.721,25.063,25.063,0,0,1-2.3,3.871,14.088,14.088,0,0,1-2.918,3.039,5.385,5.385,0,0,1-3.269,1.2,4.62,4.62,0,0,1-4.112-1.885q-1.279-1.88-1.284-6.91v-1.464a14.458,14.458,0,0,1,.09-1.564,38.062,38.062,0,0,1,1.324-6.288q1.233-4.6,2.958-10.42c1.143-3.881,2.387-7.882,3.711-12.044s2.517-7.872,3.58-11.152q-4.693,5.235-10.169,10.42a109.334,109.334,0,0,1-11.222,9.317,65.668,65.668,0,0,1-11.583,6.749,27.391,27.391,0,0,1-11.222,2.617,20.163,20.163,0,0,1-10.65-2.718,23.376,23.376,0,0,1-7.381-7.12,32.184,32.184,0,0,1-4.332-9.948,44.817,44.817,0,0,1-1.414-11.1v-1.364a8.785,8.785,0,0,1,.09-1.254,126.607,126.607,0,0,1,2.868-20.629,167.659,167.659,0,0,1,6.148-21.04,194.635,194.635,0,0,1,8.8-20.468,179.517,179.517,0,0,1,10.871-18.894,147.013,147.013,0,0,1,12.506-16.387,99.41,99.41,0,0,1,13.609-12.877,64.913,64.913,0,0,1,14.1-8.424,35.7,35.7,0,0,1,14.1-3.039,30.394,30.394,0,0,1,15.554,4.393q7.506,4.393,14.05,14.241a11.289,11.289,0,0,1,1.9,4.453,24.962,24.962,0,0,1,.4,4.242,11.3,11.3,0,0,1-2.256,7.431,6.757,6.757,0,0,1-5.345,2.718q-2.828,0-5.255-2.989a56.163,56.163,0,0,1-5.436-8.534,20.664,20.664,0,0,0-6.228-7.281,13.091,13.091,0,0,0-7.381-2.246q-6.183,0-13.218,5.135a76.987,76.987,0,0,0-13.92,13.559,148.247,148.247,0,0,0-13.218,19.265,200.7,200.7,0,0,0-11.182,22.193,158.484,158.484,0,0,0-7.732,22.4,79.663,79.663,0,0,0-2.868,19.847,46.049,46.049,0,0,0,.4,6.017,20.356,20.356,0,0,0,1.5,5.606,11.138,11.138,0,0,0,3.009,4.132,7.136,7.136,0,0,0,4.814,1.625,16.241,16.241,0,0,0,7.421-2.2,55.256,55.256,0,0,0,8.615-5.756,109.657,109.657,0,0,0,8.976-8.063q4.513-4.5,8.394-9.106c2.587-3.069,4.894-6.017,6.89-8.845a51.116,51.116,0,0,0,4.5-7.381l8.223-24.6a11.676,11.676,0,0,1,3.931-5.656,8.747,8.747,0,0,1,4.994-1.675,7.7,7.7,0,0,1,2.477.421,6.04,6.04,0,0,1,2.206,1.314,6.181,6.181,0,0,1,1.544,2.307,8.776,8.776,0,0,1,.572,3.3,47.706,47.706,0,0,1-.883,9.427,75.408,75.408,0,0,1-2.256,8.584c-.913,2.788-1.925,5.606-3.049,8.424-1.1,2.808-2.2,5.756-3.249,8.835Zm111.458,20.518a83.6,83.6,0,0,1-9.056,10.209,91.46,91.46,0,0,1-10.65,8.845,64,64,0,0,1-10.781,6.228,23.839,23.839,0,0,1-9.547,2.357,9.042,9.042,0,0,1-6.9-2.828q-2.648-2.828-2.648-9.637a52.651,52.651,0,0,1,1.414-11.2,57.208,57.208,0,0,1-5.746,8.274,50.341,50.341,0,0,1-7.872,7.642,38.9,38.9,0,0,1-9.9,5.6,32.364,32.364,0,0,1-11.934,2.146,21.19,21.19,0,0,1-5.616-.732,11.8,11.8,0,0,1-4.723-2.507,12.533,12.533,0,0,1-3.269-4.764,19.674,19.674,0,0,1-1.234-7.481c0-.07.12-1.133.351-3.189a67.008,67.008,0,0,1,2.256-9.738q1.9-6.649,5.877-17.219T991.89,1616.7a14.2,14.2,0,0,1,4.282-5.706,8.881,8.881,0,0,1,5.255-1.725,9.835,9.835,0,0,1,2.567.361,8.577,8.577,0,0,1,2.477,1.153,6.165,6.165,0,0,1,1.855,1.986,5.375,5.375,0,0,1,.712,2.778,7.088,7.088,0,0,1-.271,1.986,22.874,22.874,0,0,1-1.905,4.663q-1.459,2.888-3.4,6.6t-4.112,8.013q-2.166,4.287-4.021,8.9a89.51,89.51,0,0,0-3.179,9.367,40.719,40.719,0,0,0-1.5,9.266,6.939,6.939,0,0,0,.883,3.46,3.1,3.1,0,0,0,2.918,1.574,18.407,18.407,0,0,0,10.961-3.771,48.453,48.453,0,0,0,9.638-9.367,89.044,89.044,0,0,0,8-12.044q3.58-6.438,5.967-11.774a59.641,59.641,0,0,0,2.958-7.642,75.947,75.947,0,0,1,2.788-7.542,22.972,22.972,0,0,1,3.45-5.756,6.111,6.111,0,0,1,4.864-2.307,6.019,6.019,0,0,1,5.034,2.407,9.184,9.184,0,0,1,1.855,5.756,16.259,16.259,0,0,1-1.193,5.185c-.8,2.2-1.8,4.714-3.009,7.542s-2.517,5.847-3.931,9.056-2.728,6.479-3.931,9.788a98.575,98.575,0,0,0-3.009,9.738,36.759,36.759,0,0,0-1.193,8.845q0,3.776,3.891,3.771a17.069,17.069,0,0,0,6.809-1.885,46.4,46.4,0,0,0,8.534-5.285,79.34,79.34,0,0,0,8.925-8.013,64.307,64.307,0,0,0,7.913-9.948Z" transform="translate(-782.031 -1380.431)" fill="#fff"/><path d="M930.906,1718.879a11.237,11.237,0,0,1-9.646-4.815c-1.666-2.45-2.442-5.842-2.442-10.673v-1.464a21.142,21.142,0,0,1,.13-2.29,38.829,38.829,0,0,1,1.511-7.289q1.112-4.15,2.616-9.26-1.672,1.306-3.374,2.534a72.67,72.67,0,0,1-12.774,7.435,34.114,34.114,0,0,1-13.948,3.2,26.822,26.822,0,0,1-14.119-3.687,30.147,30.147,0,0,1-9.487-9.14,38.989,38.989,0,0,1-5.243-12,51.723,51.723,0,0,1-1.621-12.754v-1.364a15.419,15.419,0,0,1,.157-2.2,129.289,129.289,0,0,1,2.958-21.123,175.125,175.125,0,0,1,6.394-21.888,202.287,202.287,0,0,1,9.1-21.168,187.086,187.086,0,0,1,11.277-19.6,154.439,154.439,0,0,1,13.077-17.131A106.589,106.589,0,0,1,920,1540.463a71.872,71.872,0,0,1,15.56-9.28,42.5,42.5,0,0,1,16.729-3.577,37.133,37.133,0,0,1,18.935,5.309c5.86,3.429,11.325,8.917,16.242,16.31a17.84,17.84,0,0,1,2.917,7.016,31.634,31.634,0,0,1,.5,5.385,17.8,17.8,0,0,1-3.8,11.7,13.357,13.357,0,0,1-10.5,5.14c-2.752,0-6.8-.949-10.458-5.472a62,62,0,0,1-6.116-9.555,14.411,14.411,0,0,0-4.045-4.894,6.384,6.384,0,0,0-3.68-1.13c-2.656,0-5.775,1.294-9.271,3.847a70.7,70.7,0,0,0-12.686,12.391,142.214,142.214,0,0,0-12.615,18.4A194.889,194.889,0,0,0,906.9,1613.51a152.49,152.49,0,0,0-7.408,21.457,73.405,73.405,0,0,0-2.652,18.161,39.372,39.372,0,0,0,.344,5.143,13.815,13.815,0,0,0,.988,3.769,4.563,4.563,0,0,0,1.2,1.725,8.923,8.923,0,0,0,4.793-1.37,48.8,48.8,0,0,0,7.561-5.065,103,103,0,0,0,8.434-7.579q4.3-4.287,8-8.68c2.455-2.911,4.645-5.707,6.538-8.39a45.1,45.1,0,0,0,3.923-6.387l7.925-23.857c1.573-4.168,3.716-7.121,6.457-9.028a15.387,15.387,0,0,1,8.816-2.874,14.423,14.423,0,0,1,4.617.773,12.76,12.76,0,0,1,7.816,7.454,15.434,15.434,0,0,1,1.059,5.807,54.652,54.652,0,0,1-1.014,10.748,82.066,82.066,0,0,1-2.457,9.345c-.955,2.919-2.016,5.87-3.192,8.82-1.056,2.688-2.114,5.542-3.134,8.523l-.3.865-.517.754c.155-.172-.1.574-.458,1.642q-.918,2.74-2.222,6.853-1.307,4.13-2.832,9.25l-3.188,10.6c-1.088,3.584-2.123,7.077-3.118,10.51l-4.667,16.331c-.591,2.094-.952,3.323-1.086,3.712a25.527,25.527,0,0,1-1.707,4.437,31.726,31.726,0,0,1-2.907,4.9,20.824,20.824,0,0,1-4.314,4.465A12.1,12.1,0,0,1,930.906,1718.879Zm22.379-86.416-9.744,30.06-3.57,11.121c-1.307,4.11-2.537,8.066-3.667,11.9s-2.1,7.239-2.914,10.261a34.267,34.267,0,0,0-1.106,4.926l-.08,1.194v1.315a18.4,18.4,0,0,0,1.148-2.055,14.56,14.56,0,0,0,.977-2.526c.26-.831.545-1.835,1.007-3.474l4.7-16.439q1.514-5.222,3.162-10.656l3.172-10.545c1.031-3.476,2.005-6.644,2.9-9.467s1.66-5.183,2.291-7.067a32.618,32.618,0,0,1,1.479-3.869c1.03-2.985,2.1-5.851,3.17-8.586,1.083-2.716,2.048-5.4,2.917-8.059a68.735,68.735,0,0,0,2.056-7.824,41.273,41.273,0,0,0,.751-8.106c-.423-.648-.831-.479-1.318-.145a5.69,5.69,0,0,0-1.455,2.506l-8.135,24.351a54.131,54.131,0,0,1-5.391,9.131q-1.116,1.582-2.359,3.217Zm-1-91.471a29.216,29.216,0,0,0-11.472,2.5,58.52,58.52,0,0,0-12.64,7.568,93.208,93.208,0,0,0-12.687,12.015,141.031,141.031,0,0,0-11.935,15.642,173.677,173.677,0,0,0-10.465,18.191,188.881,188.881,0,0,0-8.493,19.765,161.678,161.678,0,0,0-5.9,20.2,120.437,120.437,0,0,0-2.718,19.529l-.081,2.267a38.327,38.327,0,0,0,1.207,9.449,25.654,25.654,0,0,0,3.421,7.9,16.612,16.612,0,0,0,5.289,5.109,13.508,13.508,0,0,0,7.167,1.74,20.919,20.919,0,0,0,8.483-2.031,59.3,59.3,0,0,0,10.411-6.074,103.04,103.04,0,0,0,10.528-8.742q.749-.708,1.481-1.415-1.907,1.675-3.794,3.181a62.1,62.1,0,0,1-9.66,6.441,22.8,22.8,0,0,1-10.551,2.973,13.853,13.853,0,0,1-9.169-3.236,17.747,17.747,0,0,1-4.786-6.533,27.069,27.069,0,0,1-2.007-7.413,52.738,52.738,0,0,1-.458-6.891,86.625,86.625,0,0,1,3.084-21.532,165.9,165.9,0,0,1,8.056-23.351,208.3,208.3,0,0,1,11.554-22.933,155.584,155.584,0,0,1,13.818-20.13,83.96,83.96,0,0,1,15.154-14.727c5.836-4.261,11.611-6.422,17.165-6.422a19.721,19.721,0,0,1,11.082,3.363,27.267,27.267,0,0,1,8.359,9.574,50.9,50.9,0,0,0,4.783,7.579c.729-.32.984-1.442.984-2.922a18.284,18.284,0,0,0-.3-3.1,4.769,4.769,0,0,0-.823-1.813c-3.832-5.76-7.821-9.854-11.909-12.246A23.612,23.612,0,0,0,952.287,1540.992Zm78.323,153.7a15.74,15.74,0,0,1-11.773-4.933,15.275,15.275,0,0,1-3.452-6.224q-1.171,1.019-2.4,1.984a45.765,45.765,0,0,1-11.59,6.56,39.141,39.141,0,0,1-14.366,2.6,27.969,27.969,0,0,1-7.383-.97,18.5,18.5,0,0,1-7.361-3.923,19.2,19.2,0,0,1-5.053-7.253,25.932,25.932,0,0,1-1.738-10.031c0-.08.082-1.168.316-3.255a70.963,70.963,0,0,1,2.551-11.52c1.3-4.549,3.275-10.351,6.044-17.724,2.7-7.174,6.557-15.985,11.453-26.194a20.617,20.617,0,0,1,6.427-8.258,15.709,15.709,0,0,1,17.935-.311,12.873,12.873,0,0,1,3.88,4.142,12.005,12.005,0,0,1,1.634,6.168,13.807,13.807,0,0,1-.536,3.852,28.2,28.2,0,0,1-2.371,5.84q-1.458,2.886-3.428,6.654-1.919,3.675-4.066,7.924-2.045,4.048-3.789,8.382a82.845,82.845,0,0,0-2.941,8.666,36.085,36.085,0,0,0-1.072,5.349,13.527,13.527,0,0,0,3.959-2.037,42.016,42.016,0,0,0,8.309-8.094,82.778,82.778,0,0,0,7.4-11.141q3.424-6.157,5.705-11.248a53.719,53.719,0,0,0,2.687-6.923,82.636,82.636,0,0,1,3.036-8.207,29.344,29.344,0,0,1,4.487-7.421,13.068,13.068,0,0,1,20.3.355,15.963,15.963,0,0,1,3.242,9.836,22.276,22.276,0,0,1-1.6,7.481c-.839,2.3-1.876,4.928-3.145,7.884q-1.809,4.251-3.957,9.116-2.032,4.611-3.766,9.376a91.933,91.933,0,0,0-2.809,9.089c-.294,1.179-.523,2.319-.687,3.411q.419-.174.9-.4a40.066,40.066,0,0,0,7.285-4.534,73.12,73.12,0,0,0,8.168-7.34,57.915,57.915,0,0,0,7.1-8.923l11.056-17.14,2.27,37.032-1.461,1.963a90.722,90.722,0,0,1-9.777,11.029,98.6,98.6,0,0,1-11.438,9.5,70.916,70.916,0,0,1-11.914,6.873A30.52,30.52,0,0,1,1030.61,1694.69Zm-2.67-22.516a33.062,33.062,0,0,0-.185,3.358c0,3.967.836,5.058.844,5.068a2.366,2.366,0,0,0,2.01.705,17.5,17.5,0,0,0,6.828-1.779q2.005-.894,4.068-2.049C1035.034,1678.975,1029.952,1676.724,1027.94,1672.175Zm-25.675-56.223a3.239,3.239,0,0,0-2.219.5,7.9,7.9,0,0,0-2.09,3.075c-4.761,9.93-8.46,18.381-11.026,25.187-2.6,6.923-4.52,12.542-5.7,16.693a59.255,59.255,0,0,0-2.042,8.649l-.333,3a12.247,12.247,0,0,0,.748,4.367,6.064,6.064,0,0,0,1.49,2.285,5.159,5.159,0,0,0,2.086,1.091,14.588,14.588,0,0,0,3.849.495,25.854,25.854,0,0,0,9.487-1.683,32.417,32.417,0,0,0,8.222-4.638,45.257,45.257,0,0,0,4.008-3.532,24.87,24.87,0,0,1-14.3,4.625,9.753,9.753,0,0,1-8.74-4.965,13.612,13.612,0,0,1-1.754-6.762,47.828,47.828,0,0,1,1.748-11.057,96.244,96.244,0,0,1,3.418-10.073q1.959-4.873,4.258-9.417,2.184-4.337,4.153-8.093l3.358-6.519A16.615,16.615,0,0,0,1002.265,1615.952Zm34.236,16.042-1.174,5.294q.189-.435.38-.869,2.1-4.772,3.9-8.978c1.166-2.718,2.115-5.12,2.88-7.217a11.233,11.233,0,0,0,.787-2.9,2.511,2.511,0,0,0-.469-1.668c-.353,1.167-1.164,2.544-1.9,4.246a69.256,69.256,0,0,0-2.54,6.876Q1037.51,1629.489,1036.5,1631.994Z" transform="translate(-782.031 -1380.431)" fill="#fff"/><path d="M2729.226,1767.949a58.379,58.379,0,0,0-1.906,5.606,20.564,20.564,0,0,0-.923,5.706,5.186,5.186,0,0,0,.531,2.517,2.119,2.119,0,0,0,2.036.943,11.394,11.394,0,0,0,4.643-1.314,46.791,46.791,0,0,0,6.007-3.46q3.234-2.136,6.719-4.924,3.49-2.768,6.94-5.756t6.589-5.967c2.1-2,3.961-3.821,5.616-5.5a3.912,3.912,0,0,1,1.675-1.043,5.482,5.482,0,0,1,1.675-.311,3.568,3.568,0,0,1,2.918,1.464,6.109,6.109,0,0,1,1.143,3.871,12.113,12.113,0,0,1-1.234,4.924,15.593,15.593,0,0,1-4.332,5.335q-5.656,6.183-11.4,11.723a117.449,117.449,0,0,1-11.443,9.788,61,61,0,0,1-11.312,6.759,26.626,26.626,0,0,1-10.921,2.507,14.065,14.065,0,0,1-6.057-1.153,10.084,10.084,0,0,1-3.891-3.139,12.535,12.535,0,0,1-2.076-4.713,25.973,25.973,0,0,1-.622-5.756,45.487,45.487,0,0,1,1.284-10.52,72.779,72.779,0,0,1,3.049-9.888q3.1-8.168,6.278-16.226t5.837-14.762l26.776-67.533a11.269,11.269,0,0,1,4.292-5.756,10.238,10.238,0,0,1,5.435-1.675,7.889,7.889,0,0,1,4.994,1.775c1.5,1.183,2.256,3.109,2.256,5.756a11.793,11.793,0,0,1-.752,3.981q-.752,2.091-1.9,4.5-2.211,4.919-5.255,12.034t-6.539,15.494q-3.49,8.379-7.16,17.43t-7.16,17.64q-3.49,8.589-6.539,16.276Q2731.417,1762.293,2729.226,1767.949Z" transform="translate(-2437.865 -1493.255)" fill="#fff"/><path d="M2722.246,1807.515a20.7,20.7,0,0,1-8.93-1.8,16.762,16.762,0,0,1-6.411-5.221,19.223,19.223,0,0,1-3.21-7.2,32.817,32.817,0,0,1-.787-7.235,52.373,52.373,0,0,1,1.465-12.066,79.777,79.777,0,0,1,3.335-10.8c2.045-5.392,4.142-10.827,6.28-16.231l5.841-14.774,26.774-67.526a17.747,17.747,0,0,1,7-8.986,16.834,16.834,0,0,1,8.948-2.671,14.659,14.659,0,0,1,9.132,3.208c2.2,1.727,4.812,5.04,4.812,11.017a18.471,18.471,0,0,1-1.147,6.247c-.569,1.581-1.283,3.289-2.148,5.109-1.4,3.12-3.139,7.093-5.145,11.791q-3.048,7.1-6.516,15.439t-7.136,17.37l-7.162,17.646q-3.48,8.564-6.519,16.228-3.079,7.69-5.256,13.31c-.38.936-.737,1.924-1.083,2.988q.743-.461,1.515-.977c2.032-1.342,4.106-2.87,6.265-4.592q3.4-2.7,6.735-5.586,3.315-2.88,6.363-5.763,3.044-2.9,5.458-5.341a10.43,10.43,0,0,1,4.439-2.727,11.912,11.912,0,0,1,3.671-.615,10.225,10.225,0,0,1,8.187,4.029,12.629,12.629,0,0,1,2.568,8,18.727,18.727,0,0,1-1.83,7.687,22.2,22.2,0,0,1-6.124,7.7c-3.232,3.618-7.129,7.618-11.057,11.412a124.756,124.756,0,0,1-12.1,10.344,67.977,67.977,0,0,1-12.559,7.492A33.4,33.4,0,0,1,2722.246,1807.515Zm40.3-141.122a3.768,3.768,0,0,0-1.908.67,5.417,5.417,0,0,0-1.586,2.506l-26.788,67.562-5.831,14.747q-3.178,8.035-6.248,16.149a66.765,66.765,0,0,0-2.794,9.06,38.984,38.984,0,0,0-1.1,8.974,19.41,19.41,0,0,0,.457,4.278,5.975,5.975,0,0,0,.941,2.228,3.368,3.368,0,0,0,1.371,1.058,7.586,7.586,0,0,0,3.184.505,20.136,20.136,0,0,0,8.186-1.923,54.587,54.587,0,0,0,10.052-6.02c2.03-1.51,4.085-3.171,6.145-4.967q-1.691,1.232-3.325,2.312a53.294,53.294,0,0,1-6.847,3.931,17.606,17.606,0,0,1-7.491,1.95,8.689,8.689,0,0,1-7.886-4.385,11.738,11.738,0,0,1-1.374-5.768,27.254,27.254,0,0,1,1.192-7.584,64.923,64.923,0,0,1,2.129-6.247c1.433-3.693,3.2-8.167,5.262-13.327q3.053-7.685,6.551-16.308L2742,1718.16q3.683-9.087,7.185-17.489t6.567-15.56q3.06-7.167,5.3-12.139c.719-1.516,1.268-2.817,1.7-4.024a5.3,5.3,0,0,0,.357-1.717Z" transform="translate(-2437.865 -1493.255)" fill="#fff"/><path d="M3040.894,2308.617a19.818,19.818,0,0,1,2.3-1.364,4.545,4.545,0,0,1,2.036-.521,3.168,3.168,0,0,1,2.918,1.725,8.506,8.506,0,0,1,.973,4.242,14.069,14.069,0,0,1-1.193,5.546,11.7,11.7,0,0,1-3.58,4.713q-9.462,8.379-16.878,15.284a182.35,182.35,0,0,1-14.01,11.884,63.315,63.315,0,0,1-12.856,7.692,33.388,33.388,0,0,1-13.438,2.718q-6.724,0-10.39-2.928a9.757,9.757,0,0,1-3.67-8.063v-.782a5.446,5.446,0,0,1,.09-.893,19.009,19.009,0,0,1,2.738-7.221,85.827,85.827,0,0,1,5.746-8.484q3.354-4.407,7.16-8.9t7.03-8.534a84.041,84.041,0,0,0,5.345-7.381c1.414-2.236,2.126-4.042,2.126-5.446a2.446,2.446,0,0,0-.883-1.986,4.579,4.579,0,0,0-2.918-.732,16.569,16.569,0,0,0-7.291,1.835,36.14,36.14,0,0,0-7.421,4.914,65.877,65.877,0,0,0-7.16,7.07,103.331,103.331,0,0,0-6.539,8.273c-2.036,2.868-3.891,5.736-5.566,8.635s-3.109,5.566-4.282,8.013q-.527,1.158-1.5,3.249t-2.116,4.714c-.772,1.745-1.574,3.54-2.437,5.385s-1.635,3.6-2.337,5.235-1.344,3.1-1.905,4.4-.963,2.176-1.193,2.668c-.3.632-.782,1.815-1.464,3.56s-1.454,3.781-2.347,6.127-1.815,4.794-2.778,7.381-1.885,5.024-2.738,7.331-1.6,4.323-2.256,6.067-1.063,2.928-1.244,3.56a39.2,39.2,0,0,1-2.076,5.135,20.847,20.847,0,0,1-2.738,4.242,12.439,12.439,0,0,1-3.54,2.928,9.08,9.08,0,0,1-4.463,1.093,8.769,8.769,0,0,1-5.265-1.514q-2.076-1.519-2.076-5.807a18.41,18.41,0,0,1,.531-4.292,39.357,39.357,0,0,1,1.324-4.342c.531-1.434,1.073-2.828,1.635-4.182s1.073-2.668,1.544-3.931q4.768-10.47,9.728-20.99t9.5-20.839q4.558-10.3,8.444-20.258t6.448-19.054q.707-1.88,1.946-5.345a72.742,72.742,0,0,1,2.828-6.809,28.9,28.9,0,0,1,3.58-5.807,5.564,5.564,0,0,1,4.282-2.457q3.535,0,5.125,1.625a6.525,6.525,0,0,1,1.594,4.763,16.8,16.8,0,0,1-.181,1.986c-.12.9-.271,1.865-.441,2.878s-.371,1.976-.572,2.878a14.6,14.6,0,0,1-.572,1.986c2.176-2.377,4.533-4.723,7.07-7.07a73.345,73.345,0,0,1,7.872-6.338,45.456,45.456,0,0,1,8.3-4.613,21.826,21.826,0,0,1,8.484-1.775,20.458,20.458,0,0,1,5.787.842,16.733,16.733,0,0,1,5.125,2.457,12.922,12.922,0,0,1,3.671,4.082,11.254,11.254,0,0,1,1.414,5.706,22.618,22.618,0,0,1-2.166,9.166,66.87,66.87,0,0,1-5.436,9.788q-3.279,4.919-7.07,9.577-3.806,4.663-7.12,8.484t-5.566,6.489q-2.256,2.678-2.347,3.61a2.79,2.79,0,0,0,.792,2.046,3.647,3.647,0,0,0,2.658.782,10.256,10.256,0,0,0,4.423-1.675,74.055,74.055,0,0,0,8.173-5.807q5.25-4.137,13.348-11.1T3040.894,2308.617Z" transform="translate(-2624.286 -2052.877)" fill="#fff"/><path d="M3005.272,2275.007a27.257,27.257,0,0,1,7.669,1.113,23.509,23.509,0,0,1,7.153,3.448,19.621,19.621,0,0,1,5.558,6.169,17.933,17.933,0,0,1,2.309,9.05,29.349,29.349,0,0,1-2.743,11.884,73.9,73.9,0,0,1-5.975,10.771q-1.116,1.673-2.285,3.317,7.962-6.846,19.478-17.134a26.016,26.016,0,0,1,3.763-2.359,11.179,11.179,0,0,1,5.028-1.228,9.831,9.831,0,0,1,8.732,5.1,15.136,15.136,0,0,1,1.852,7.557,20.794,20.794,0,0,1-1.728,8.167,18.349,18.349,0,0,1-5.582,7.338c-5.981,5.31-11.566,10.367-16.474,14.937a190.041,190.041,0,0,1-14.535,12.325,70.3,70.3,0,0,1-14.227,8.492,40.185,40.185,0,0,1-16.1,3.271c-6,0-10.9-1.474-14.555-4.382a16.413,16.413,0,0,1-6.2-13.3,15.1,15.1,0,0,1,.187-2.808,24.851,24.851,0,0,1,3.552-9.458,92.566,92.566,0,0,1,6.2-9.167q3.456-4.541,7.377-9.165,3.746-4.427,6.919-8.4.643-.8,1.24-1.581a33.381,33.381,0,0,0-2.746,2.09,59.507,59.507,0,0,0-6.44,6.363,96.655,96.655,0,0,0-6.116,7.739c-1.912,2.694-3.656,5.387-5.229,8.109s-2.935,5.25-4.042,7.558l-1.476,3.19q-.945,2.021-2.045,4.557c-.8,1.815-1.625,3.653-2.507,5.541-.809,1.761-1.568,3.455-2.25,5.042l-3.188,7.27c-.281.59-.694,1.629-1.291,3.156l-5.085,13.405-5,13.407c-.56,1.5-.923,2.513-1.078,3.056a46.242,46.242,0,0,1-2.5,6.245,27.662,27.662,0,0,1-3.632,5.611,19.193,19.193,0,0,1-5.434,4.479,15.7,15.7,0,0,1-7.683,1.919,15.357,15.357,0,0,1-9.174-2.774c-2.241-1.64-4.86-4.89-4.86-11.24a25.179,25.179,0,0,1,.716-5.853,46.108,46.108,0,0,1,1.548-5.083c.571-1.541,1.144-3.014,1.738-4.446q.787-1.912,1.455-3.706c3.37-7.44,6.631-14.465,9.943-21.5q4.912-10.449,9.427-20.686,4.505-10.186,8.338-20c2.51-6.431,4.609-12.632,6.237-18.423l2.085-5.782a79.415,79.415,0,0,1,3.088-7.435,35.706,35.706,0,0,1,4.423-7.145c3.283-4.079,6.97-4.938,9.484-4.938,4.206,0,7.538,1.221,9.9,3.629a11.61,11.61,0,0,1,2.221,3.218q1.965-1.562,3.959-2.946a52.347,52.347,0,0,1,9.517-5.28A28.6,28.6,0,0,1,3005.272,2275.007Zm-10.259,76.416a9.984,9.984,0,0,1-7.435-2.788,9.414,9.414,0,0,1-2.708-6.733c.274-3.149,1.7-5.286,3.921-7.923l5.625-6.558c2.184-2.51,4.505-5.284,6.994-8.334q3.583-4.394,6.687-9.058a60.47,60.47,0,0,0,4.888-8.793,16.186,16.186,0,0,0,1.589-6.448,4.7,4.7,0,0,0-.528-2.378,6.213,6.213,0,0,0-1.775-1.979,10.035,10.035,0,0,0-3.1-1.466,14.1,14.1,0,0,0-9.8.685,38.927,38.927,0,0,0-7.063,3.932q-.261.181-.521.366a22.226,22.226,0,0,1,7.748-1.449,10.941,10.941,0,0,1,7.194,2.276,9.093,9.093,0,0,1,3.3,7.135c0,2.744-1,5.611-3.162,9.022a90.7,90.7,0,0,1-5.772,7.98c-2.2,2.742-4.573,5.635-7.151,8.681q-3.691,4.362-6.944,8.626a79.194,79.194,0,0,0-5.3,7.818,12.452,12.452,0,0,0-1.857,4.565c-.05,2.707.546,3.331,1.105,3.778,1.2.954,3.352,1.464,6.211,1.464a26.881,26.881,0,0,0,10.773-2.164,56.985,56.985,0,0,0,11.486-6.892,176.716,176.716,0,0,0,13.49-11.448l.675-.627q-7.062,6.04-11.833,9.794a79.235,79.235,0,0,1-8.991,6.359C2999.667,2350.634,2997.278,2351.423,2995.013,2351.423Zm-41.632-18,13.958-34.441c.068-.194.152-.545.257-.993.165-.745.337-1.615.5-2.531l.277-1.813a23.385,23.385,0,0,0-1.6,2.872,66.07,66.07,0,0,0-2.569,6.183q-1.258,3.531-1.985,5.454c-1.566,5.666-3.806,12.286-6.478,19.132q-3.952,10.086-8.558,20.532-4.568,10.378-9.561,20.979-4.933,10.482-9.694,20.917c-.317.9-.855,2.269-1.446,3.705-.537,1.294-1.047,2.608-1.548,3.96a32.539,32.539,0,0,0-1.091,3.577,11.794,11.794,0,0,0-.347,2.732c0,.23.007.427.018.593a5.394,5.394,0,0,0,.63.035,2.361,2.361,0,0,0,1.224-.257,5.813,5.813,0,0,0,1.665-1.389,14.27,14.27,0,0,0,1.85-2.887,32.457,32.457,0,0,0,1.714-4.246c.134-.485.594-1.837,1.337-3.828l7.781-20.8,2.374-6.2c.768-1.964,1.317-3.292,1.656-4l3-6.85c.715-1.665,1.52-3.461,2.4-5.37.861-1.843,1.644-3.6,2.4-5.3.774-1.773,1.5-3.4,2.173-4.84l1.474-3.184c1.3-2.709,2.811-5.53,4.58-8.592l.183-.315Z" transform="translate(-2624.286 -2052.877)" fill="#fff"/></svg>