<svg xmlns="http://www.w3.org/2000/svg" width="512" height="512" viewBox="0 0 512 512"><g transform="translate(1033.498)"><rect width="512" height="512" transform="translate(-1033.498)" fill="#fff" opacity="0"/><g transform="translate(-1030)"><path d="M68.5,460,27.5,0h451l-41,460-185,52" fill="#848484"/><path d="M234.675,468.918l149-41,35-394h-184" transform="translate(18.826 3.082)" fill="#8c8c8c"/><path d="M246.5,200.17h-75l-5-58h80v-56h-142l15,171h127Zm-1,147-63-17-4-45h-56l7,89,116,32Z" transform="translate(6.998 7.83)" fill="#ebebeb"/><path d="M233.758,200.17v57h70l-7,73-63,17v59l116-32,16-174Zm0-114v56h137l5-56Z" transform="translate(18.742 7.83)" fill="#fff"/></g></g></svg>