<svg xmlns="http://www.w3.org/2000/svg" width="100" height="100" viewBox="0 0 100 100"><path d="M17.708,0H82.292A17.925,17.925,0,0,1,100,18.162V81.838A17.925,17.925,0,0,1,82.292,100H17.708A17.925,17.925,0,0,1,0,81.838V18.162A17.925,17.925,0,0,1,17.708,0Z" fill="#470137"/><g transform="translate(15 26)"><path d="M72.977,60.625,60.477,81.25,73.81,103.125a.717.717,0,0,1,.083.5c-.042.167-.208.042-.458.083H63.894c-.667,0-1.125-.042-1.417-.458-.875-1.75-1.792-3.458-2.667-5.208-.875-1.708-1.833-3.458-2.833-5.25s-2-3.583-3-5.417h-.083c-.875,1.792-1.833,3.583-2.792,5.375s-1.917,3.583-2.833,5.333c-.958,1.75-1.917,3.542-2.875,5.25-.167.417-.5.458-.958.458H35.269c-.167,0-.292.083-.292-.125a.579.579,0,0,1,.083-.458l12.958-21.25L35.394,60.583c-.125-.167-.167-.333-.083-.417A.483.483,0,0,1,35.727,60h9.458a2.459,2.459,0,0,1,.583.083,1.182,1.182,0,0,1,.417.375c.792,1.792,1.708,3.583,2.667,5.375,1,1.792,1.958,3.542,3,5.292,1,1.75,1.917,3.5,2.792,5.292h.083c.875-1.833,1.792-3.625,2.708-5.375s1.875-3.5,2.833-5.25,1.875-3.542,2.792-5.25a.709.709,0,0,1,.25-.417.794.794,0,0,1,.542-.083h8.792a.384.384,0,0,1,.458.292c.042.042-.042.208-.125.292Z" transform="translate(-34.961 -56.369)" fill="#ff61f6"/><path d="M147.839,99.5a20.715,20.715,0,0,1-8.958-1.875,14.526,14.526,0,0,1-6.292-5.667,18.029,18.029,0,0,1-2.292-9.5,17.113,17.113,0,0,1,2.292-8.792,17.3,17.3,0,0,1,6.625-6.458,21.313,21.313,0,0,1,10.542-2.417,7.441,7.441,0,0,1,.875.042c.375.042.792.042,1.292.083V51.749c0-.292.125-.458.417-.458H160.8a.374.374,0,0,1,.417.292v39.75c0,.75.042,1.583.083,2.5.083.875.125,1.708.167,2.417a.677.677,0,0,1-.417.667,31.822,31.822,0,0,1-6.792,2A36.754,36.754,0,0,1,147.839,99.5Zm4.083-8.333V72.833a10.66,10.66,0,0,0-1.125-.208c-.458-.042-.917-.083-1.375-.083a10.271,10.271,0,0,0-4.708,1.083,9.341,9.341,0,0,0-3.542,3.083A9.236,9.236,0,0,0,139.8,82a11.611,11.611,0,0,0,.708,4.292,8.143,8.143,0,0,0,1.875,2.958,7.2,7.2,0,0,0,2.833,1.667,10.907,10.907,0,0,0,3.458.542c.625,0,1.208-.042,1.75-.083A3.644,3.644,0,0,0,151.923,91.166Z" transform="translate(-90.573 -51.284)" fill="#ff61f6"/></g></svg>