<svg xmlns="http://www.w3.org/2000/svg" width="512" height="512" viewBox="0 0 512 512"><g transform="translate(0.002)"><path d="M90.669,0h330.66A91.775,91.775,0,0,1,511.99,92.989V419.011A91.775,91.775,0,0,1,421.328,512H90.669A91.775,91.775,0,0,1,.007,419.011V92.989A91.775,91.775,0,0,1,90.669,0Z" transform="translate(0)" fill="#470137"/><g transform="translate(76.805 133.138)"><path d="M229.6,63.21l-64,105.6,68.263,112a3.671,3.671,0,0,1,.425,2.56c-.215.855-1.065.215-2.345.425H183.093c-3.415,0-5.76-.215-7.255-2.345-4.48-8.96-9.175-17.7-13.655-26.665-4.48-8.745-9.385-17.7-14.5-26.88s-10.24-18.345-15.36-27.735h-.425c-4.48,9.175-9.385,18.345-14.295,27.52s-9.815,18.345-14.5,27.3c-4.9,8.96-9.815,18.135-14.72,26.88-.855,2.135-2.56,2.345-4.9,2.345H36.537c-.855,0-1.495.425-1.495-.64a2.965,2.965,0,0,1,.425-2.345l66.343-108.8L37.177,63c-.64-.855-.855-1.7-.425-2.135a2.473,2.473,0,0,1,2.13-.85H87.306a12.588,12.588,0,0,1,2.985.425,6.052,6.052,0,0,1,2.135,1.92C96.48,71.53,101.17,80.7,106.08,89.875c5.12,9.175,10.025,18.135,15.36,27.1,5.12,8.96,9.815,17.92,14.295,27.1h.425c4.48-9.385,9.175-18.56,13.865-27.52s9.6-17.92,14.5-26.88,9.6-18.135,14.295-26.88a3.63,3.63,0,0,1,1.28-2.135,4.065,4.065,0,0,1,2.775-.425h45.014a1.966,1.966,0,0,1,2.345,1.5c.215.215-.215,1.065-.64,1.5Z" transform="translate(-34.961 -41.437)" fill="#ff61f6"/><path d="M220.162,298.136a106.054,106.054,0,0,1-45.863-9.6,74.371,74.371,0,0,1-32.214-29.015,92.311,92.311,0,0,1-11.735-48.64,87.62,87.62,0,0,1,11.735-45.015A88.575,88.575,0,0,1,176,132.8a109.118,109.118,0,0,1,53.973-12.375,38.1,38.1,0,0,1,4.48.215c1.92.215,4.055.215,6.615.425V53.651c0-1.5.64-2.345,2.135-2.345H286.52a1.915,1.915,0,0,1,2.135,1.5v203.52c0,3.84.215,8.1.425,12.8.425,4.48.64,8.745.855,12.375a3.466,3.466,0,0,1-2.135,3.415,162.919,162.919,0,0,1-34.774,10.24,188.162,188.162,0,0,1-32.864,2.985Zm20.9-42.665V161.6a54.582,54.582,0,0,0-5.76-1.065c-2.345-.215-4.695-.425-7.04-.425a52.585,52.585,0,0,0-24.1,5.545,47.825,47.825,0,0,0-18.134,15.785,47.289,47.289,0,0,0-7.024,27.1,59.45,59.45,0,0,0,3.625,21.975,41.692,41.692,0,0,0,9.6,15.145,36.863,36.863,0,0,0,14.5,8.535,55.841,55.841,0,0,0,17.7,2.775c3.2,0,6.185-.215,8.96-.425a18.658,18.658,0,0,0,7.675-1.075Z" transform="translate(73.03 -51.287)" fill="#ff61f6"/></g></g></svg>