<svg xmlns="http://www.w3.org/2000/svg" xmlns:xlink="http://www.w3.org/1999/xlink" width="100" height="100" viewBox="0 0 100 100"><defs><clipPath id="a"><path d="M17.708,0H82.292A17.925,17.925,0,0,1,100,18.162V81.838A17.925,17.925,0,0,1,82.292,100H17.708A17.925,17.925,0,0,1,0,81.838V18.162A17.925,17.925,0,0,1,17.708,0Z" transform="translate(3560 1796)" fill="#470137"/></clipPath></defs><g transform="translate(-3560 -1796)" clip-path="url(#a)"><g transform="translate(3560 1796)"><path d="M100,95.73A4.278,4.278,0,0,1,95.73,100H4.27A4.278,4.278,0,0,1,0,95.73V4.27A4.278,4.278,0,0,1,4.27,0H95.73A4.278,4.278,0,0,1,100,4.27V95.73Z" fill="#f08705"/><g transform="translate(14.295 13.861)"><path d="M108.805,104.269a4.278,4.278,0,0,1-4.27,4.27H43.026L23.1,88.3,35.476,68.068,72.234,22.4l36.448,37.562Z" transform="translate(-23.1 -22.4)" fill="#df6c0c"/></g><path d="M89.816,63.2H79.3L68.158,44.262A5.441,5.441,0,0,0,72.49,38.94V24.646A5.414,5.414,0,0,0,67.044,19.2H48.48a5.414,5.414,0,0,0-5.446,5.446V38.94a5.4,5.4,0,0,0,4.27,5.322l-11.139,19H25.646A5.414,5.414,0,0,0,20.2,68.7V83a5.414,5.414,0,0,0,5.446,5.446H44.21A5.414,5.414,0,0,0,49.655,83V68.7a5.414,5.414,0,0,0-5.446-5.446H42.415L53.43,44.448h8.6L73.108,63.259H71.252A5.414,5.414,0,0,0,65.806,68.7V83a5.414,5.414,0,0,0,5.446,5.446H89.816A5.414,5.414,0,0,0,95.262,83V68.7A5.467,5.467,0,0,0,89.816,63.2Z" transform="translate(-7.7 -7.319)" fill="#fff"/></g></g></svg>