<svg xmlns="http://www.w3.org/2000/svg" xmlns:xlink="http://www.w3.org/1999/xlink" width="512.002" height="512" viewBox="0 0 512.002 512"><defs><clipPath id="a"><path d="M90.669,0h330.66a91.775,91.775,0,0,1,90.662,92.989V419.01A91.775,91.775,0,0,1,421.329,512H90.669A91.775,91.775,0,0,1,.007,419.01V92.989A91.775,91.775,0,0,1,90.669,0Z" transform="translate(3560 1796)" fill="#470137"/></clipPath></defs><g transform="translate(-3559.998 -1796)" clip-path="url(#a)"><g transform="translate(3560.006 1796)"><path d="M511.985,490.138A21.9,21.9,0,0,1,490.123,512H21.862A21.9,21.9,0,0,1,0,490.138V21.862A21.9,21.9,0,0,1,21.862,0H490.123a21.9,21.9,0,0,1,21.862,21.862Z" fill="#f08705"/><g transform="translate(73.188 70.968)"><path d="M461.9,441.569a21.9,21.9,0,0,1-21.862,21.862H125.118L23.1,359.808,86.463,256.22,274.659,22.4,461.267,214.717Z" transform="translate(-23.1 -22.4)" fill="#df6c0c"/></g><path d="M376.624,244.48h-53.84l-57.045-96.963a27.858,27.858,0,0,0,22.179-27.249V47.084A27.719,27.719,0,0,0,260.035,19.2H164.99a27.719,27.719,0,0,0-27.883,27.884v73.185a27.648,27.648,0,0,0,21.862,27.249l-57.03,97.28H48.083A27.719,27.719,0,0,0,20.2,272.64v73.216A27.719,27.719,0,0,0,48.083,373.74h95.045a27.719,27.719,0,0,0,27.878-27.883V272.64a27.719,27.719,0,0,0-27.883-27.884h-9.185l56.4-96.287h44.031l56.718,96.312h-9.5A27.719,27.719,0,0,0,253.7,272.64v73.216a27.719,27.719,0,0,0,27.883,27.883h95.045a27.719,27.719,0,0,0,27.883-27.883V272.64a27.991,27.991,0,0,0-27.883-28.16Z" transform="translate(43.798 41.63)" fill="#fff"/></g></g></svg>