<svg xmlns="http://www.w3.org/2000/svg" width="512" height="512" viewBox="0 0 512 512"><path d="M0,0H512V512H0Z" fill="#f7df1e"/><path d="M67.313,311.711,106.493,288c7.56,13.4,14.436,24.742,30.93,24.742,15.81,0,25.78-6.184,25.78-30.24v-163.6h48.114V283.181c0,49.834-29.212,72.518-71.832,72.518-38.49,0-60.832-19.934-72.174-43.992m170.14-5.152,39.176-22.682c10.314,16.842,23.718,29.214,47.43,29.214,19.938,0,32.65-9.968,32.65-23.716,0-16.5-13.06-22.34-35.056-31.96l-12.026-5.16c-34.714-14.774-57.74-33.334-57.74-72.514,0-36.088,27.494-63.584,70.456-63.584,30.588,0,52.584,10.656,68.392,38.494l-37.464,24.06c-8.25-14.778-17.182-20.62-30.93-20.62-14.092,0-23.028,8.936-23.028,20.62,0,14.434,8.936,20.28,29.556,29.216l12.028,5.154c40.9,17.53,63.926,35.4,63.926,75.608,0,43.308-34.024,67.02-79.734,67.02-44.678,0-73.548-21.308-87.638-49.148" transform="translate(67.311 116.153)"/></svg>