<svg xmlns="http://www.w3.org/2000/svg" width="512" height="512" viewBox="0 0 512 512"><g transform="translate(-235.273 -213.634)"><g transform="translate(243 212)"><path d="M44.622,80.5C13.759,124.852,17.6,182.56,41.18,229.695l1.725,3.35,1.1,2.124.688,1.222,1.23,2.2c.73,1.289,1.482,2.569,2.25,3.858l1.285,2.116q1.278,2.053,2.611,4.085l1.112,1.717c1.23,1.835,2.485,3.661,3.782,5.462l.109.139.638.861c1.121,1.545,2.275,3.073,3.446,4.588l1.3,1.65c1.045,1.314,2.107,2.615,3.186,3.921l1.217,1.453c1.448,1.7,2.93,3.409,4.437,5.071l.088.092.172.189c1.473,1.608,2.981,3.182,4.513,4.756L77.517,280c1.184,1.192,2.389,2.363,3.6,3.53l1.473,1.4c1.625,1.528,3.262,3.031,4.937,4.492l.076.067.861.73q2.21,1.921,4.483,3.787l1.855,1.482c1.234.987,2.481,1.965,3.736,2.922l2,1.515q2.078,1.53,4.194,3.01l1.524,1.083.424.3c1.335.924,2.708,1.809,4.072,2.7l1.763,1.175c2.1,1.322,4.227,2.636,6.377,3.9l1.763.995c1.583.911,3.174,1.809,4.786,2.682l2.649,1.369,3.426,1.78.789.382,1.4.676c1.793.856,3.6,1.7,5.428,2.515l1.146.512q3.136,1.373,6.33,2.636l1.545.6c1.969.764,3.967,1.507,5.974,2.212l.751.26c2.2.772,4.425,1.482,6.662,2.183l1.608.479a65.032,65.032,0,0,0,6.876,1.939c149.249,27.215,192.6-89.684,192.6-89.684-36.413,47.437-101.04,59.946-162.275,46.018-2.321-.525-4.572-1.251-6.834-1.914l-1.7-.521q-3.311-1.01-6.582-2.141l-.9-.323q-2.917-1.034-5.8-2.154l-1.629-.638c-2.1-.831-4.2-1.7-6.263-2.6l-1.251-.558q-2.658-1.195-5.285-2.456l-1.528-.735c-1.373-.667-2.729-1.377-4.089-2.078l-2.724-1.432c-1.658-.882-3.283-1.805-4.9-2.745l-1.654-.919q-3.22-1.907-6.381-3.912l-1.721-1.146q-2.293-1.473-4.538-3.018l-1.465-1.029q-2.163-1.524-4.29-3.1l-1.9-1.44c-1.3-.995-2.594-2-3.871-3.027l-1.725-1.385q-2.443-2-4.823-4.068l-.529-.441q-2.57-2.267-5.071-4.609l-1.427-1.377q-1.855-1.753-3.644-3.572l-1.427-1.427q-2.279-2.33-4.471-4.727l-.223-.239q-2.317-2.535-4.534-5.159l-1.188-1.411q-1.659-1.994-3.262-4.034l-1.2-1.49q-1.921-2.481-3.77-5.017C53.757,166.44,41.541,102.481,68.714,49.956m71.7-6.826c-22.316,32.114-21.107,75.113-3.694,109.075a141.672,141.672,0,0,0,9.869,16.477c3.342,4.8,7.052,10.5,11.49,14.348,1.608,1.772,3.291,3.5,5.008,5.2l1.318,1.306c1.667,1.616,3.363,3.207,5.113,4.752l.21.181.05.05c1.939,1.7,3.942,3.333,5.974,4.945l1.356,1.058c2.04,1.562,4.118,3.1,6.251,4.563l.18.139L186.4,207.1l1.352.894c1.524.978,3.064,1.927,4.635,2.838l.655.386c1.352.777,2.72,1.541,4.093,2.288l1.457.756,2.863,1.486.432.2c1.969.966,3.95,1.9,5.978,2.783l1.318.546c1.62.684,3.253,1.356,4.9,1.986l2.1.772c1.494.554,2.989,1.062,4.5,1.566l2.032.651a50.509,50.509,0,0,0,6.5,1.881c115.233,19.088,141.835-69.635,141.835-69.635-23.979,34.541-70.42,51.017-119.977,38.155q-3.285-.866-6.528-1.885l-1.96-.634q-2.3-.74-4.563-1.57l-2.061-.768q-2.474-.953-4.916-1.986l-1.322-.558q-3.039-1.325-6.011-2.8l-3.014-1.532-1.738-.894c-1.285-.7-2.561-1.419-3.816-2.158l-.911-.516q-2.338-1.362-4.618-2.821l-1.394-.928-2.989-1.981q-3.17-2.2-6.23-4.555l-1.4-1.108c-21.691-17.123-38.885-40.531-47.059-67.07-8.568-27.526-6.721-58.423,8.123-83.5M220.99,15.21c-13.156,19.361-14.449,43.411-5.319,64.795,9.626,22.7,29.352,40.5,52.377,48.948l2.863.987,1.259.4a34.982,34.982,0,0,0,4.106,1.184c63.628,12.3,80.886-32.647,85.478-39.267-15.117,21.766-40.523,26.993-71.7,19.424q-3.825-.976-7.539-2.33a93.634,93.634,0,0,1-8.958-3.719,93.149,93.149,0,0,1-15.7-9.58c-27.9-21.166-45.22-61.537-27.018-94.42" transform="translate(51.842)" fill="#0868ac"/><path d="M258.508,112.988h-17.74a2.334,2.334,0,0,0-2.17,1.751l-6.3,29.134L226,173.006a2.326,2.326,0,0,1-2.166,1.751H211.281c-12.422,0-10.986-8.593-8.442-20.364l.076-.357.277-1.486.05-.277.567-3.023.609-3.237.646-3.3,2.863-13.987,2.867-13.987a1.41,1.41,0,0,0-1.431-1.759H191.156A2.309,2.309,0,0,0,189,114.739l-3.917,18.572-3.912,18.576-.008.025-.361,1.73c-4.509,20.582-3.316,40.216,21.191,40.833l.714.013H241.17a2.326,2.326,0,0,0,2.166-1.751l8.3-38.995,8.3-39A1.4,1.4,0,0,0,258.508,112.988Zm-189.981-.206H49.048a2.359,2.359,0,0,0-2.187,1.746l-1.847,8.152-1.847,8.152a1.373,1.373,0,0,0,1.4,1.746h19.63a2.334,2.334,0,0,0,2.175-1.751l1.784-8.148,1.784-8.148A1.387,1.387,0,0,0,68.527,112.782Zm-5.65,25.372H43.242a2.363,2.363,0,0,0-2.187,1.746L38.3,152.117l-2.754,12.212-.768,3.5L32.126,180.3,29.482,192.77c-.206.961-.63,2.515-.945,3.446,0,0-3.669,10.915-9.836,10.789l-.772-.017-5.336-.1h0a2.343,2.343,0,0,0-2.2,1.709l-2.036,8.56-2.032,8.555a1.371,1.371,0,0,0,1.369,1.763c3.5.042,11.33.13,16.07.13,15.4,0,23.525-8.534,28.726-33.092l6.091-28.185L64.291,139.9A1.388,1.388,0,0,0,62.876,138.155Zm361.513-6.608-.814-3.363-.8-3.442L422.365,123c-1.6-6.2-6.276-9.773-16.443-9.773l-15.826-.017-14.575-.021h-16.4a2.317,2.317,0,0,0-2.162,1.751l-.726,3.425-.856,4.047-.239,1.138-7.384,34.591-7.011,32.836a7.667,7.667,0,0,0-.16,2.628c.118.483,2.011.877,2.993.877h14.793a9.28,9.28,0,0,0,2.771-.395c.537-.218,1.331-2.154,1.528-3.115l2.628-13.009,2.632-13.014,0-.021.353-1.734,3.19-14.945,2.817-13.2a2.33,2.33,0,0,1,2.162-1.751L423,133.285a1.353,1.353,0,0,0,1.385-1.738Zm59.925-30.393-3.585.013h-14.9a3.8,3.8,0,0,0-2.8,1.482l-32.95,48.268c-.554.814-1.188.7-1.406-.26l-2.426-10.633a2.359,2.359,0,0,0-2.191-1.746H402.879a1.279,1.279,0,0,0-1.3,1.717l9.491,33.252a7.884,7.884,0,0,1,.046,3.459l-4.135,16.091a1.32,1.32,0,0,0,1.343,1.734h20.935a2.435,2.435,0,0,0,2.233-1.734l4.139-16.091a10.578,10.578,0,0,1,1.524-3.169l53.49-70.991c.6-.789.273-1.431-.709-1.423ZM316.036,142.793v-.017a2.158,2.158,0,0,1-2.095,1.851H287.087a1.153,1.153,0,0,1-1.264-1.41l.025-.063-.017.008.013-.088.122-.458c2.565-6.817,7.787-11.292,17.606-11.292,11.057,0,13.215,5.394,12.464,11.469Zm-7.879-31c-34.469,0-42.638,20.922-47.222,42.042-4.58,21.527-4.19,41.648,31.484,41.648h4.324l1.075,0h.252l4.282-.013h.076c9.42-.038,18.87-.109,22.694-.138a2.321,2.321,0,0,0,2.137-1.763l1.444-7.057.281-1.373,1.721-8.421a1.406,1.406,0,0,0-1.431-1.755H297.2c-12.757,0-16.544-3.388-15.146-13.354h51.261l0,0,.034,0a2.112,2.112,0,0,0,1.868-1.322l.122-.445,0,0c7.611-28.71,5.428-48.045-27.177-48.049ZM145.235,142.684l-.487,1.717v0l-3.87,13.719-3.87,13.715a2.5,2.5,0,0,1-2.279,1.725H114.242c-15.541,0-19.327-12.157-15.541-30.082,3.782-18.337,11.2-29.734,26.5-30.888,20.906-1.578,25.087,13.123,20.037,30.091Zm14.055,29.826s9.659-23.458,11.851-37c2.993-18.131-6.087-44.435-41.156-44.435-34.868,0-50.014,25.108-55.79,52.407-5.776,27.5,1.793,51.605,36.463,51.408l27.354-.1,25.561-.092a2.477,2.477,0,0,0,2.242-1.738l4.454-16.985a1.329,1.329,0,0,0-1.339-1.746l-4.269-.025-4.269-.025a1.1,1.1,0,0,1-1.213-1.268Zm172.619-15.7a1.175,1.175,0,1,1-1.178-1.173A1.175,1.175,0,0,1,331.909,156.806Z" transform="translate(0 286.026)" fill="#131b28"/></g><rect width="512" height="512" transform="translate(235.273 213.634)" fill="#fff" opacity="0"/></g></svg>