<svg xmlns="http://www.w3.org/2000/svg" width="148" height="50" viewBox="0 0 148 50"><g transform="translate(15136 -370)"><g transform="translate(-15296.133 357.737)"><path d="M1.806-9.436q0-.232,0-.425a1.971,1.971,0,0,0-.02-.281q-.12,0-.3.008l-.377.02q-.2.012-.409.032t-.385.044q.016-.088.028-.176a1.3,1.3,0,0,0,.012-.176,1.3,1.3,0,0,0-.012-.176q-.012-.088-.028-.176l.493.016q.22.008.449.012l.5.008q.269,0,.645,0t.645,0l.493-.008q.224,0,.437-.012l.461-.016q-.016.088-.028.176a1.3,1.3,0,0,0-.012.176,1.3,1.3,0,0,0,.012.176q.012.088.028.176-.16-.024-.361-.044t-.4-.032l-.373-.02q-.176-.008-.3-.008A.845.845,0,0,0,3-10.029q0,.072,0,.168v2.429q0,.665.016,1.182t.048,1.014a2.547,2.547,0,0,0-.3-.016H2.038a2.547,2.547,0,0,0-.3.016q.032-.5.048-1.014t.016-1.182ZM5.253-7.152a2.694,2.694,0,0,0,.064.6,1.5,1.5,0,0,0,.2.485.965.965,0,0,0,.337.321.948.948,0,0,0,.477.116,1.5,1.5,0,0,0,.986-.361l.1.072-.176.449a1.627,1.627,0,0,1-.481.244,2.422,2.422,0,0,1-.737.092,2.528,2.528,0,0,1-.746-.108A1.589,1.589,0,0,1,4.648-5.6a1.745,1.745,0,0,1-.425-.629,2.391,2.391,0,0,1-.156-.91,2.644,2.644,0,0,1,.14-.906A1.786,1.786,0,0,1,4.6-8.683a1.589,1.589,0,0,1,.589-.385A2.088,2.088,0,0,1,5.926-9.2a1.554,1.554,0,0,1,1.214.465,1.891,1.891,0,0,1,.421,1.315v.168a.367.367,0,0,1-.008.1Zm1.235-.361a3.106,3.106,0,0,0-.148-.962.464.464,0,0,0-.445-.361.4.4,0,0,0-.3.12.868.868,0,0,0-.192.309,2.054,2.054,0,0,0-.108.425,4.028,4.028,0,0,0-.044.469Zm4.665-.473a1.2,1.2,0,0,0-.253-.581.692.692,0,0,0-.557-.22.776.776,0,0,0-.721.437,2.542,2.542,0,0,0-.24,1.214,1.78,1.78,0,0,0,.3,1.118,1.062,1.062,0,0,0,.89.389,1.063,1.063,0,0,0,.481-.116.988.988,0,0,0,.345-.261l.1.08a1.772,1.772,0,0,0-.1.232l-.08.24a1.542,1.542,0,0,1-.445.228,1.968,1.968,0,0,1-.637.092A2.55,2.55,0,0,1,9.253-5.3a1.68,1.68,0,0,1-.645-.457,1.738,1.738,0,0,1-.349-.653,2.658,2.658,0,0,1-.1-.733A2.213,2.213,0,0,1,8.3-7.961a1.852,1.852,0,0,1,.425-.649A1.987,1.987,0,0,1,9.4-9.039a2.344,2.344,0,0,1,.874-.156,2.5,2.5,0,0,1,.774.1,3.156,3.156,0,0,1,.605.273,2.27,2.27,0,0,0-.18.393,2.921,2.921,0,0,0-.124.441Zm1.01-.521q0-.786-.016-1.443T12.1-11.28q.1.016.265.028t.337.012q.176,0,.337-.012t.265-.028q-.032.673-.048,1.331t-.016,1.443l.016.016a1.559,1.559,0,0,1,.509-.521,1.284,1.284,0,0,1,.685-.184,1.2,1.2,0,0,1,.926.349A1.621,1.621,0,0,1,15.7-7.721q0,.409-.016.721t-.016.625q0,.257.012.557t.028.581a1.793,1.793,0,0,0-.265-.016h-.673a1.793,1.793,0,0,0-.265.016,9.489,9.489,0,0,0,.072-.982q.016-.565.016-1.295a1.27,1.27,0,0,0-.172-.742.565.565,0,0,0-.485-.236.56.56,0,0,0-.529.313,1.844,1.844,0,0,0-.168.866v.321q0,.112,0,.325t.012.465q.008.253.02.513t.028.453a1.793,1.793,0,0,0-.265-.016h-.673a1.793,1.793,0,0,0-.265.016q.032-.649.048-1.307t.016-1.443Zm5.531.016a1.71,1.71,0,0,1,.525-.521A1.284,1.284,0,0,1,18.9-9.2a1.2,1.2,0,0,1,.926.349,1.621,1.621,0,0,1,.325,1.126q0,.409-.016.721t-.016.625q0,.257.012.557t.028.581a1.793,1.793,0,0,0-.265-.016h-.673a1.793,1.793,0,0,0-.265.016,9.489,9.489,0,0,0,.072-.982q.016-.565.016-1.295a1.27,1.27,0,0,0-.172-.742.565.565,0,0,0-.485-.236.56.56,0,0,0-.529.313,1.844,1.844,0,0,0-.168.866v.321q0,.489.012.922t.052.834a1.76,1.76,0,0,0-.261-.016H16.82a1.9,1.9,0,0,0-.265.016q.04-.4.052-.834t.012-.922v-.321q0-.489-.012-.918t-.052-.862q.144.016.285.028t.285.012q.144,0,.285-.012l.3-.028-.032.6Zm5.9,1.138a2.72,2.72,0,0,0-.176-1.094.6.6,0,0,0-.585-.389.647.647,0,0,0-.581.433,3.241,3.241,0,0,0-.212,1.355,4.556,4.556,0,0,0,.04.625,1.925,1.925,0,0,0,.132.5.857.857,0,0,0,.24.333.573.573,0,0,0,.373.12Q23.594-5.468,23.594-7.352Zm-2.742.3a2.461,2.461,0,0,1,.164-.938,1.979,1.979,0,0,1,.437-.669,1.758,1.758,0,0,1,.629-.4,2.094,2.094,0,0,1,.733-.132,1.928,1.928,0,0,1,1.451.529,1.974,1.974,0,0,1,.513,1.435,2.543,2.543,0,0,1-.144.882,1.936,1.936,0,0,1-.4.669,1.636,1.636,0,0,1-.621.413,2.229,2.229,0,0,1-.794.136,2.656,2.656,0,0,1-.709-.1,1.7,1.7,0,0,1-.629-.325,1.663,1.663,0,0,1-.453-.6A2.132,2.132,0,0,1,20.853-7.055Zm4.77-1.451q0-.786-.016-1.443t-.048-1.331q.1.016.265.028t.337.012q.176,0,.337-.012t.265-.028q-.032.673-.048,1.331T26.7-8.506v.521q0,.786.016,1.443t.048,1.307a1.793,1.793,0,0,0-.265-.016h-.673a1.793,1.793,0,0,0-.265.016q.032-.649.048-1.307t.016-1.443ZM30.28-7.352A2.72,2.72,0,0,0,30.1-8.446a.6.6,0,0,0-.585-.389.647.647,0,0,0-.581.433,3.241,3.241,0,0,0-.212,1.355,4.556,4.556,0,0,0,.04.625,1.925,1.925,0,0,0,.132.5.857.857,0,0,0,.24.333.573.573,0,0,0,.373.12Q30.28-5.468,30.28-7.352Zm-2.742.3a2.461,2.461,0,0,1,.164-.938,1.979,1.979,0,0,1,.437-.669,1.758,1.758,0,0,1,.629-.4A2.094,2.094,0,0,1,29.5-9.2a1.928,1.928,0,0,1,1.451.529,1.974,1.974,0,0,1,.513,1.435,2.543,2.543,0,0,1-.144.882,1.936,1.936,0,0,1-.4.669,1.636,1.636,0,0,1-.621.413,2.229,2.229,0,0,1-.794.136,2.656,2.656,0,0,1-.709-.1,1.7,1.7,0,0,1-.629-.325,1.663,1.663,0,0,1-.453-.6A2.132,2.132,0,0,1,27.538-7.055Zm6.148-1.812q-.545,0-.545,1.058a1.754,1.754,0,0,0,.048.445.963.963,0,0,0,.124.293.475.475,0,0,0,.168.16.4.4,0,0,0,.188.048.42.42,0,0,0,.393-.232,1.74,1.74,0,0,0,.128-.786,1.477,1.477,0,0,0-.144-.766A.423.423,0,0,0,33.687-8.867Zm1.194.08a1.042,1.042,0,0,1,.317.365,1.112,1.112,0,0,1,.116.525,1.282,1.282,0,0,1-.112.541,1.224,1.224,0,0,1-.317.421,1.45,1.45,0,0,1-.489.273,1.983,1.983,0,0,1-.637.1q-.088,0-.172,0t-.188,0a.2.2,0,0,0-.164.088.319.319,0,0,0-.068.2.362.362,0,0,0,.148.3.817.817,0,0,0,.469.12l.593.008a1.654,1.654,0,0,1,.99.253.926.926,0,0,1,.317.782,1.532,1.532,0,0,1-.2.806,1.649,1.649,0,0,1-.505.529,2.094,2.094,0,0,1-.685.293,3.2,3.2,0,0,1-.729.088A2.035,2.035,0,0,1,32.392-3.4a.9.9,0,0,1-.421-.774.894.894,0,0,1,.212-.621,1.435,1.435,0,0,1,.573-.373V-5.18a.737.737,0,0,1-.333-.22.561.561,0,0,1-.124-.373.8.8,0,0,1,.2-.513,1.011,1.011,0,0,1,.541-.337v-.016a1.386,1.386,0,0,1-.754-.433,1.243,1.243,0,0,1-.273-.834,1.17,1.17,0,0,1,.124-.545,1.152,1.152,0,0,1,.349-.4,1.665,1.665,0,0,1,.537-.253,2.535,2.535,0,0,1,.689-.088q.144,0,.3.012t.3.02q.1.008.212.012t.236,0q.2,0,.417,0t.433,0q-.008.048-.012.1t0,.1q0,.048,0,.1t.012.1L34.905-8.8Zm-.128,4.4a.8.8,0,0,0-.08-.381A.554.554,0,0,0,34.444-5a1.048,1.048,0,0,0-.365-.108,3.834,3.834,0,0,0-.489-.028,1.432,1.432,0,0,0-.577.08.584.584,0,0,0-.2.232.907.907,0,0,0-.108.465.913.913,0,0,0,.084.4.8.8,0,0,0,.228.285,1.063,1.063,0,0,0,.333.172,1.324,1.324,0,0,0,.4.06,1.083,1.083,0,0,0,.417-.076.961.961,0,0,0,.317-.208.889.889,0,0,0,.2-.3A.983.983,0,0,0,34.753-4.386Zm1.467-6.221a.611.611,0,0,1,.184-.449.611.611,0,0,1,.449-.184.611.611,0,0,1,.449.184.611.611,0,0,1,.184.449.611.611,0,0,1-.184.449.611.611,0,0,1-.449.184.611.611,0,0,1-.449-.184A.611.611,0,0,1,36.22-10.607Zm.1,3.295q0-.489-.012-.918t-.052-.862q.112.016.265.028t.337.012a3.573,3.573,0,0,0,.6-.04q-.04.433-.052.862t-.012.918v.321q0,.489.012.922t.052.834a1.76,1.76,0,0,0-.261-.016h-.677a1.9,1.9,0,0,0-.265.016q.04-.4.052-.834t.012-.922Zm3.1.16a2.694,2.694,0,0,0,.064.6,1.5,1.5,0,0,0,.2.485.966.966,0,0,0,.337.321.948.948,0,0,0,.477.116,1.5,1.5,0,0,0,.986-.361l.1.072-.176.449a1.627,1.627,0,0,1-.481.244,2.422,2.422,0,0,1-.737.092,2.528,2.528,0,0,1-.746-.108,1.589,1.589,0,0,1-.621-.357,1.745,1.745,0,0,1-.425-.629,2.391,2.391,0,0,1-.156-.91,2.644,2.644,0,0,1,.14-.906,1.786,1.786,0,0,1,.389-.641,1.589,1.589,0,0,1,.589-.385,2.088,2.088,0,0,1,.742-.128,1.554,1.554,0,0,1,1.214.465,1.891,1.891,0,0,1,.421,1.315v.168a.367.367,0,0,1-.008.1Zm1.235-.361a3.105,3.105,0,0,0-.148-.962.464.464,0,0,0-.445-.361.4.4,0,0,0-.3.12.868.868,0,0,0-.192.309,2.054,2.054,0,0,0-.108.425,4.029,4.029,0,0,0-.044.469Zm1.876,1.291a1.239,1.239,0,0,0,.124.244.925.925,0,0,0,.188.208.9.9,0,0,0,.269.148,1.079,1.079,0,0,0,.365.056.605.605,0,0,0,.433-.144.427.427,0,0,0,.152-.313.365.365,0,0,0-.136-.3,1.512,1.512,0,0,0-.341-.2q-.2-.092-.445-.188a2.052,2.052,0,0,1-.445-.244,1.267,1.267,0,0,1-.341-.373,1.1,1.1,0,0,1-.136-.577,1.268,1.268,0,0,1,.124-.581,1.174,1.174,0,0,1,.325-.4,1.374,1.374,0,0,1,.453-.232,1.728,1.728,0,0,1,.5-.076,1.718,1.718,0,0,1,.6.1,2.51,2.51,0,0,1,.533.281,2.178,2.178,0,0,0-.12.345,3.075,3.075,0,0,0-.072.361h-.224a1.122,1.122,0,0,0-.08-.212.906.906,0,0,0-.152-.22.8.8,0,0,0-.232-.172.728.728,0,0,0-.329-.068.638.638,0,0,0-.4.128.407.407,0,0,0-.164.337.381.381,0,0,0,.14.309,1.4,1.4,0,0,0,.349.2q.208.088.457.176a2.03,2.03,0,0,1,.457.228,1.2,1.2,0,0,1,.349.365,1.074,1.074,0,0,1,.14.577,1.323,1.323,0,0,1-.128.605,1.194,1.194,0,0,1-.345.417A1.383,1.383,0,0,1,43.9-5.2a2.294,2.294,0,0,1-.581.072,1.9,1.9,0,0,1-.649-.1,2.16,2.16,0,0,1-.457-.216,4.265,4.265,0,0,0,.12-.77Zm9.844.08q-.064.168-.112.341a1.956,1.956,0,0,0-.064.341,3.607,3.607,0,0,1-1.635.329,3.687,3.687,0,0,1-1.247-.2,2.641,2.641,0,0,1-.93-.553,2.383,2.383,0,0,1-.581-.846,2.763,2.763,0,0,1-.2-1.058A3.449,3.449,0,0,1,47.863-9.2a2.586,2.586,0,0,1,.7-.946,2.774,2.774,0,0,1,1.014-.533,4.3,4.3,0,0,1,1.21-.168,3.232,3.232,0,0,1,.441.032q.232.032.449.084a3.725,3.725,0,0,1,.413.124,2.065,2.065,0,0,1,.333.152,2.519,2.519,0,0,0-.124.4,3.074,3.074,0,0,0-.06.413h-.112a1.974,1.974,0,0,0-.625-.549,1.632,1.632,0,0,0-.754-.164,1.579,1.579,0,0,0-.645.144,1.732,1.732,0,0,0-.589.441,2.268,2.268,0,0,0-.429.758,3.291,3.291,0,0,0-.164,1.1,2.937,2.937,0,0,0,.168,1.054,2.084,2.084,0,0,0,.437.713,1.657,1.657,0,0,0,.609.4,1.933,1.933,0,0,0,.685.128,1.825,1.825,0,0,0,.393-.044,2.56,2.56,0,0,0,.393-.12,2.048,2.048,0,0,0,.365-.188,1.636,1.636,0,0,0,.3-.249Zm3.3-1.21A2.72,2.72,0,0,0,55.5-8.446a.6.6,0,0,0-.585-.389.647.647,0,0,0-.581.433,3.241,3.241,0,0,0-.212,1.355,4.556,4.556,0,0,0,.04.625,1.925,1.925,0,0,0,.132.5.857.857,0,0,0,.24.333.573.573,0,0,0,.373.12Q55.675-5.468,55.675-7.352Zm-2.742.3a2.461,2.461,0,0,1,.164-.938,1.979,1.979,0,0,1,.437-.669,1.758,1.758,0,0,1,.629-.4A2.094,2.094,0,0,1,54.9-9.2a1.928,1.928,0,0,1,1.451.529,1.974,1.974,0,0,1,.513,1.435,2.543,2.543,0,0,1-.144.882,1.936,1.936,0,0,1-.4.669,1.636,1.636,0,0,1-.621.413,2.229,2.229,0,0,1-.794.136,2.656,2.656,0,0,1-.709-.1,1.7,1.7,0,0,1-.629-.325,1.663,1.663,0,0,1-.453-.6A2.132,2.132,0,0,1,52.934-7.055ZM58.665-8.49a1.71,1.71,0,0,1,.525-.521,1.284,1.284,0,0,1,.685-.184A1,1,0,0,1,60.5-9a1.261,1.261,0,0,1,.4.565A1.8,1.8,0,0,1,61.463-9a1.283,1.283,0,0,1,.681-.2,1.2,1.2,0,0,1,.926.349,1.621,1.621,0,0,1,.325,1.126q0,.409-.016.721t-.016.625q0,.257.012.557t.028.581a1.794,1.794,0,0,0-.265-.016h-.673a1.793,1.793,0,0,0-.265.016,9.491,9.491,0,0,0,.072-.982q.016-.565.016-1.295a1.294,1.294,0,0,0-.168-.742.547.547,0,0,0-.473-.236.534.534,0,0,0-.317.088.627.627,0,0,0-.2.228.966.966,0,0,0-.1.3,2.057,2.057,0,0,0-.024.3v.577q0,.489.012.922t.052.834a1.759,1.759,0,0,0-.261-.016H60.14a1.9,1.9,0,0,0-.265.016q.04-.4.052-.834t.012-.922V-7.48a1.85,1.85,0,0,0-.12-.746.454.454,0,0,0-.457-.265.56.56,0,0,0-.529.313,1.844,1.844,0,0,0-.168.866v.321q0,.489.012.922t.052.834a1.759,1.759,0,0,0-.261-.016h-.677a1.9,1.9,0,0,0-.265.016q.04-.4.052-.834t.012-.922v-.321q0-.489-.012-.918t-.052-.862q.144.016.285.028t.285.012q.144,0,.285-.012l.3-.028-.032.6Zm5.627,2.172q0-.786-.016-1.443t-.048-1.331q.136.016.281.028t.281.012q.136,0,.277-.012t.277-.028q-.016.136-.036.325a3.449,3.449,0,0,0-.02.365H65.3a1.169,1.169,0,0,1,.409-.565,1.16,1.16,0,0,1,.729-.228,1.561,1.561,0,0,1,.585.112,1.328,1.328,0,0,1,.5.353,1.755,1.755,0,0,1,.345.617,2.8,2.8,0,0,1,.128.9,3.032,3.032,0,0,1-.136.97,1.923,1.923,0,0,1-.357.653A1.228,1.228,0,0,1,67-5.236a1.678,1.678,0,0,1-.581.1,1.349,1.349,0,0,1-.625-.136.928.928,0,0,1-.409-.425h-.016v.649q0,.281,0,.573t.012.557q.008.265.02.473t.028.313q-.1-.016-.265-.028t-.337-.012q-.176,0-.337.012t-.265.028q.016-.337.028-.665t.02-.665q.008-.337.012-.681t0-.737Zm2.517-.874a2.51,2.51,0,0,0-.2-1.15A.584.584,0,0,0,66.1-8.7a.522.522,0,0,0-.289.088.779.779,0,0,0-.244.281,1.762,1.762,0,0,0-.172.505,3.857,3.857,0,0,0-.064.762,2.36,2.36,0,0,0,.188,1.078.6.6,0,0,0,.549.349.607.607,0,0,0,.545-.377A2.624,2.624,0,0,0,66.81-7.192Zm3.816.737q0-.345,0-.525t0-.317a1.851,1.851,0,0,1-.357.156,1.684,1.684,0,0,0-.345.152.748.748,0,0,0-.257.253.884.884,0,0,0-.1.465.714.714,0,0,0,.124.453.4.4,0,0,0,.333.156.528.528,0,0,0,.429-.2A.918.918,0,0,0,70.626-6.454Zm-1.9-2.18a2.569,2.569,0,0,1,.725-.417,2.211,2.211,0,0,1,.774-.144,2.267,2.267,0,0,1,.589.072,1.262,1.262,0,0,1,.465.228,1.035,1.035,0,0,1,.3.4,1.5,1.5,0,0,1,.108.6q0,.513-.012.95t-.012.87a1.256,1.256,0,0,0,.028.3.353.353,0,0,0,.084.164.268.268,0,0,0,.148.072,1.251,1.251,0,0,0,.212.016v.192q-.232.1-.393.144a1.194,1.194,0,0,1-.345.048.758.758,0,0,1-.481-.144.887.887,0,0,1-.281-.417,1.515,1.515,0,0,1-.429.409,1.14,1.14,0,0,1-.613.152,1.5,1.5,0,0,1-.521-.08.923.923,0,0,1-.357-.228.914.914,0,0,1-.2-.337,1.175,1.175,0,0,1-.064-.381,1.134,1.134,0,0,1,.084-.457.919.919,0,0,1,.24-.329,1.392,1.392,0,0,1,.373-.228,3.008,3.008,0,0,1,.489-.156q.337-.08.533-.14a1.29,1.29,0,0,0,.293-.12.289.289,0,0,0,.124-.132.488.488,0,0,0,.028-.176.672.672,0,0,0-.2-.493.764.764,0,0,0-.565-.2,1.155,1.155,0,0,0-.281.036,1.423,1.423,0,0,0-.277.1,1.723,1.723,0,0,0-.24.14.6.6,0,0,0-.164.164H68.83Zm5.106.144a1.71,1.71,0,0,1,.525-.521,1.284,1.284,0,0,1,.685-.184,1.2,1.2,0,0,1,.926.349,1.621,1.621,0,0,1,.325,1.126q0,.409-.016.721t-.016.625q0,.257.012.557t.028.581a1.793,1.793,0,0,0-.265-.016h-.673a1.793,1.793,0,0,0-.265.016,9.492,9.492,0,0,0,.072-.982q.016-.565.016-1.295a1.27,1.27,0,0,0-.172-.742.565.565,0,0,0-.485-.236A.56.56,0,0,0,74-8.178a1.844,1.844,0,0,0-.168.866v.321q0,.489.012.922t.052.834a1.759,1.759,0,0,0-.261-.016h-.677a1.9,1.9,0,0,0-.265.016q.04-.4.052-.834t.012-.922v-.321q0-.489-.012-.918t-.052-.862q.144.016.285.028t.285.012q.144,0,.285-.012l.3-.028-.032.6Zm5.05,1.916q.144-.369.265-.685t.228-.613q.108-.3.208-.593t.2-.625l.164.028a1,1,0,0,0,.156.012,1.079,1.079,0,0,0,.16-.012l.176-.028q-.04.1-.188.445T79.9-7.8q-.212.5-.469,1.11l-.517,1.23q-.261.621-.505,1.23t-.429,1.106l-.168-.028a1.135,1.135,0,0,0-.168-.012,1.135,1.135,0,0,0-.168.012l-.168.028q.265-.529.521-1.046t.5-1.046q-.192-.457-.429-1.034t-.465-1.13l-.417-1.01q-.188-.457-.285-.7.152.016.3.028t.3.012q.152,0,.3-.012t.3-.028q.232.633.469,1.259T78.882-6.574Zm4.649-1.948q0-.665-.016-1.182t-.048-1.038q.136.016.3.028t.361.012q.2,0,.361-.012t.3-.028q-.032.521-.048,1.038t-.016,1.182v1.09q0,.457,0,.882t.012.737q.457,0,.914-.024t.922-.08q-.016.088-.024.16a1.924,1.924,0,0,0-.008.2,1.924,1.924,0,0,0,.008.2.594.594,0,0,0,.024.12q-.216-.008-.533-.012t-.87,0H83.9q-.18,0-.273,0t-.156.012q.032-.5.048-1.014t.016-1.182Zm3.776-2.084a.611.611,0,0,1,.184-.449.611.611,0,0,1,.449-.184.611.611,0,0,1,.449.184.611.611,0,0,1,.184.449.611.611,0,0,1-.184.449.611.611,0,0,1-.449.184.611.611,0,0,1-.449-.184A.611.611,0,0,1,87.307-10.607Zm.1,3.295q0-.489-.012-.918t-.052-.862q.112.016.265.028t.337.012a3.573,3.573,0,0,0,.6-.04q-.04.433-.052.862t-.012.918v.321q0,.489.012.922t.052.834a1.76,1.76,0,0,0-.261-.016H87.6a1.9,1.9,0,0,0-.265.016q.04-.4.052-.834t.012-.922Zm3.19-1.178a1.71,1.71,0,0,1,.525-.521A1.284,1.284,0,0,1,91.8-9.2a1,1,0,0,1,.621.2,1.261,1.261,0,0,1,.4.565A1.8,1.8,0,0,1,93.392-9a1.283,1.283,0,0,1,.681-.2A1.2,1.2,0,0,1,95-8.847a1.621,1.621,0,0,1,.325,1.126q0,.409-.016.721t-.016.625q0,.257.012.557t.028.581a1.793,1.793,0,0,0-.265-.016h-.673a1.794,1.794,0,0,0-.265.016,9.49,9.49,0,0,0,.072-.982q.016-.565.016-1.295a1.294,1.294,0,0,0-.168-.742.547.547,0,0,0-.473-.236.534.534,0,0,0-.317.088.627.627,0,0,0-.2.228.966.966,0,0,0-.1.3,2.056,2.056,0,0,0-.024.3v.577q0,.489.012.922t.052.834a1.76,1.76,0,0,0-.261-.016h-.677a1.9,1.9,0,0,0-.265.016q.04-.4.052-.834t.012-.922V-7.48a1.85,1.85,0,0,0-.12-.746.454.454,0,0,0-.457-.265.56.56,0,0,0-.529.313,1.844,1.844,0,0,0-.168.866v.321q0,.489.012.922t.052.834a1.76,1.76,0,0,0-.261-.016H89.72a1.9,1.9,0,0,0-.265.016q.04-.4.052-.834t.012-.922v-.321q0-.489-.012-.918t-.052-.862q.144.016.285.028t.285.012q.144,0,.285-.012l.3-.028-.032.6Zm5.619-2.116a.611.611,0,0,1,.184-.449.611.611,0,0,1,.449-.184.611.611,0,0,1,.449.184.611.611,0,0,1,.184.449.611.611,0,0,1-.184.449.611.611,0,0,1-.449.184.611.611,0,0,1-.449-.184A.611.611,0,0,1,96.214-10.607Zm.1,3.295q0-.489-.012-.918t-.052-.862q.112.016.265.028t.337.012a3.573,3.573,0,0,0,.6-.04q-.04.433-.052.862t-.012.918v.321q0,.489.012.922t.052.834a1.76,1.76,0,0,0-.261-.016H96.51a1.9,1.9,0,0,0-.265.016q.04-.4.052-.834t.012-.922Zm4.184-1.74a1.115,1.115,0,0,0-.024.216.823.823,0,0,0,.024.2l-.705-.016q-.016.184-.028.425t-.016.489q0,.249-.008.481t0,.393q0,.417.02.673a1.622,1.622,0,0,0,.068.393.318.318,0,0,0,.136.184.466.466,0,0,0,.224.048.913.913,0,0,0,.224-.02.662.662,0,0,0,.144-.06v.329a2.219,2.219,0,0,1-.4.128,2.077,2.077,0,0,1-.473.056q-1.018,0-1.018-1.218,0-.232.008-.525t.02-.6q.012-.309.02-.609t.008-.557l-.561.008a.823.823,0,0,0,.024-.2,1.114,1.114,0,0,0-.024-.216l.561.024q0-.249-.008-.465t-.024-.521q.281-.112.553-.236t.545-.261l.08.056q-.016.128-.028.3t-.024.361q-.012.188-.016.385t0,.373Zm1.587,1.9a2.693,2.693,0,0,0,.064.6,1.5,1.5,0,0,0,.2.485.965.965,0,0,0,.337.321.948.948,0,0,0,.477.116,1.5,1.5,0,0,0,.986-.361l.1.072-.176.449a1.627,1.627,0,0,1-.481.244,2.422,2.422,0,0,1-.738.092,2.528,2.528,0,0,1-.746-.108,1.589,1.589,0,0,1-.621-.357,1.745,1.745,0,0,1-.425-.629,2.391,2.391,0,0,1-.156-.91,2.644,2.644,0,0,1,.14-.906,1.786,1.786,0,0,1,.389-.641,1.589,1.589,0,0,1,.589-.385,2.088,2.088,0,0,1,.742-.128,1.554,1.554,0,0,1,1.214.465,1.891,1.891,0,0,1,.421,1.315v.168a.367.367,0,0,1-.008.1Zm1.235-.361a3.106,3.106,0,0,0-.148-.962.464.464,0,0,0-.445-.361.4.4,0,0,0-.3.12.868.868,0,0,0-.192.309,2.054,2.054,0,0,0-.108.425,4.03,4.03,0,0,0-.044.469Zm2.774.441a3.585,3.585,0,0,0,.056.689,1.57,1.57,0,0,0,.152.453.657.657,0,0,0,.22.249.491.491,0,0,0,.261.076.622.622,0,0,0,.541-.373,2.65,2.65,0,0,0,.212-1.239,2.23,2.23,0,0,0-.2-1.086.589.589,0,0,0-.513-.341.519.519,0,0,0-.257.072.653.653,0,0,0-.232.253,1.744,1.744,0,0,0-.172.485A3.567,3.567,0,0,0,106.09-7.071Zm2.517-.914q0,.786.016,1.443t.048,1.307a1.793,1.793,0,0,0-.265-.016h-.645a1.239,1.239,0,0,0-.228.016.451.451,0,0,0,.016-.1q.008-.088.02-.2t.02-.208q.008-.1.008-.12l-.016-.016a1.306,1.306,0,0,1-.417.557,1.2,1.2,0,0,1-.729.2,1.446,1.446,0,0,1-.7-.156,1.3,1.3,0,0,1-.473-.437,2.027,2.027,0,0,1-.273-.657,3.547,3.547,0,0,1-.088-.81,2.535,2.535,0,0,1,.12-.8,2.09,2.09,0,0,1,.329-.633,1.541,1.541,0,0,1,.493-.421,1.264,1.264,0,0,1,.605-.152,1.243,1.243,0,0,1,.645.168,1.088,1.088,0,0,1,.421.425h.016q0-.721-.016-1.359t-.048-1.319q.1.016.265.028t.337.012q.176,0,.337-.012t.265-.028q-.032.673-.048,1.331t-.016,1.443Z" transform="translate(199.462 53.159)" fill="#8d979c" opacity="0.6"/><path d="M5.485-9.372h2.28v-2.835H5.312v-.745h3.38v-.5H5.312v-1.036H4.476v1.036H1.16v.5H4.476v.745H2.032v2.835H4.076A9,9,0,0,1,.833-6.656l.127.318A9.524,9.524,0,0,0,4.476-8.646v2.653h.836V-8.945A8.174,8.174,0,0,0,8.528-6.338l.527-.909A9.241,9.241,0,0,1,5.485-9.372ZM2.841-11.807H4.476v.79H2.841Zm4.125,0v.79H5.312v-.79Zm-4.125,1.19H4.476v.836H2.841Zm4.125.836H5.312v-.836H6.965Zm8.44-2.8a12.567,12.567,0,0,0,.854-1.79l-.927-.164A17.541,17.541,0,0,1,15-12.579H13.616v6.569h.818v-.763h2.48v.69h.818v-6.5Zm-3.18,1.245v-.627h1.163v-.418H12.226v-2.044h-.781v2.044H10.036v.418h1.29A11.174,11.174,0,0,1,9.854-8.228L10.091-8a8.4,8.4,0,0,0,1.354-2.308v4.3h.781V-10.69c.2.372.418.79.645,1.263l.645-.491A8.845,8.845,0,0,0,12.226-11.335Zm4.688,1.326h-2.48v-2.162h2.48Zm0,2.825h-2.48V-9.6h2.48Zm5.9-6.214h.881a2.941,2.941,0,0,1-2.462,2.09L21.32-11a3.542,3.542,0,0,0,2.889-1.563,4.245,4.245,0,0,0,2.507,1.735l.345-.781a4.17,4.17,0,0,1-2.68-1.3,3.882,3.882,0,0,0,.164-.491h1.2a4.743,4.743,0,0,1-.518.918l.209.218a5.132,5.132,0,0,0,1.254-1.254l-.727-.418-.209.127h-2.7a4,4,0,0,0,.236-.536l-.754-.209a5.345,5.345,0,0,1-1.1,2.153l.218.227A4.853,4.853,0,0,0,22.81-13.4Zm-1.381-.282a7.918,7.918,0,0,0-1.844-.609l-.109.309a13.3,13.3,0,0,1,1.5,1Zm-.064,1.1-.236-.2a12.572,12.572,0,0,1-1.981,1.5l.482.654A10.478,10.478,0,0,0,21.365-12.579ZM20.284-7.592h5.642V-10.9H20.284Zm.8-2.9h4.043v.563H21.084Zm0,.945h4.043v.536H21.084Zm0,.918h4.043V-8H21.084ZM19.167-6.32,19.248-6a11.994,11.994,0,0,0,3.561-.918l-.672-.645A9.72,9.72,0,0,1,19.167-6.32Zm4.424-.827c.89.3,2.326.827,3.1,1.2l.363-.881a20.091,20.091,0,0,0-3.38-.654Zm7.959-5.742H29.978l.472-.336a6.31,6.31,0,0,0-1.3-1.254l-.236.218c.227.354.527.881.781,1.372H28.143v.418H31.55Zm4.642,4.3h-.327c.018,1.336-.009,1.626-.2,1.49s-.382-1.572-.382-4.452v-2.335H31.432v.409h.99v2.816h-.981v.409h.981v4.243h.818v-4.243h1.045v-.409H33.24v-2.816h1.245v1.917c0,3.016.073,5.033,1.045,5.442C36.138-5.865,36.81-6.338,36.192-8.591Zm-7.741-2.553h2.8v-.4h-2.8Zm0,1.217h2.8v-.4h-2.8Zm0,3.879h.7v-.627h1.381v.491h.718V-9.027h-2.8Zm.7-2.571h1.372v1.526H29.151Zm11.2-.6.645-.6a9.712,9.712,0,0,0-1.408-1.217v-.536h1.29v-.409H39.59v-1.481a10.391,10.391,0,0,0,1.29-.382l-.645-.709a8.963,8.963,0,0,1-2.9,1.136l.064.309c.418-.036.909-.1,1.408-.191v1.317H37.291v.409h1.363a11.09,11.09,0,0,1-1.526,3.689l.227.209a7.835,7.835,0,0,0,1.454-2.262v3.952h.781v-4.524C39.872-10.063,40.171-9.572,40.353-9.218Zm4.979-.045-.109-.4-1.072.245v-5.006h-.8v5.188c-1.036.236-2.08.463-3.116.672l.136.409c.99-.209,1.99-.418,2.98-.645v2.726h.8V-8.982ZM42.9-12.389a6.755,6.755,0,0,0-1.69-1.217l-.2.245a16.683,16.683,0,0,1,1.272,1.581Zm-2.035,1.272A12.449,12.449,0,0,1,42.07-9.39l.69-.609a6.559,6.559,0,0,0-1.672-1.354Zm8.595.945-.127-.309c-.282.1-.554.191-.845.282v-1.708h1.072v-.409H48.484v-2.108H47.7v2.108H46.4v.409h1.3v1.944c-.445.118-.918.236-1.408.336l.273.854A10.265,10.265,0,0,0,47.7-9.2v2.144c0,.454-.154.509-1.281.282l-.091.3c1.372.818,2.153.382,2.153-.318v-2.8A9.476,9.476,0,0,0,49.456-10.172Zm4.97,3.125A7.522,7.522,0,0,1,52.291-7.9a6.915,6.915,0,0,0,1.617-2.953L53.09-11.2l-.245.182h-.754v-1.5h1.981v-.409H52.091v-1.5h-.818v1.5H49.347v.409h1.926v1.5H49.547v.409h.518A6.1,6.1,0,0,0,51.328-7.8a7.292,7.292,0,0,1-2.462,1.463l.109.309a6.4,6.4,0,0,0,2.762-1.345,6.065,6.065,0,0,0,2.28,1.3Zm-1.5-3.561a5.417,5.417,0,0,1-1.145,2.335,4.64,4.64,0,0,1-1.39-2.335ZM58.4-7.156V-14.1H55.88v3.234a12.441,12.441,0,0,1-.554,4.752l.273.173a6.5,6.5,0,0,0,1.036-3.57h.981v2.153c0,.4-.1.445-1.163.291l-.082.3C57.66-6.165,58.4-6.356,58.4-7.156Zm1.781-6.014v-.436h1.1v1.744c0,.654.127.881,1.136.881a1.423,1.423,0,0,0,1.117-.3l-.327-.591a.756.756,0,0,1-.636.209c-.445,0-.509-.082-.509-.354v-2H59.4v.718a2.822,2.822,0,0,1-.836,2.535l.173.282A2.567,2.567,0,0,0,60.177-13.17Zm-2.562,1.263h-.954v-1.781h.954Zm0,1.99h-.963c.009-.209.009-.427.009-.654v-.936h.954ZM63.593-7.01a6.168,6.168,0,0,1-2.1-.763,6.4,6.4,0,0,0,1.29-2.426l-.863-.336-.191.173H58.723v.409h.709A5.294,5.294,0,0,0,60.486-7.7a6.079,6.079,0,0,1-2.408,1.39L58.187-6a6.274,6.274,0,0,0,2.744-1.226,5.316,5.316,0,0,0,2.208,1.19ZM61.812-9.954a5.55,5.55,0,0,1-.89,1.763,4.12,4.12,0,0,1-1.154-1.763Zm5.26-4.325-.909-.209a10.414,10.414,0,0,1-1.781,4.67l.218.236a6.436,6.436,0,0,0,1.045-1.226v4.779h.781v-6.223A10.778,10.778,0,0,0,67.072-14.278Zm3.434.218H68.962v.409H70.18a5.1,5.1,0,0,0,1.962,3.343l.609-.854A3.822,3.822,0,0,1,70.507-14.06Zm-1.672.563L68-13.76A7.7,7.7,0,0,1,66.564-10.4l.236.227A6.774,6.774,0,0,0,68.835-13.5Zm-1.4,3.207H68.5a4.684,4.684,0,0,1-1.853,4l.2.263c1.508-.854,2.3-1.862,2.48-4.261h1.263a26.563,26.563,0,0,1-.164,2.816c-.073.654-.209.754-1.472.463l-.091.3c1.317.881,2.289.545,2.4-.436.091-.836.191-2.462.218-3.552H67.436ZM81.545-12.6v-.5H77.2a11.24,11.24,0,0,0,.4-1.29l-.909-.182a11.6,11.6,0,0,1-.418,1.472h-2.5v.5h2.308a8.77,8.77,0,0,1-2.571,3.5l.191.273a7.264,7.264,0,0,0,1.872-1.563v4.37h.836V-8.173h3.3v.936c0,.536-.2.572-1.544.363l-.091.318c1.508.8,2.471.527,2.471-.445v-4.461h-4.17a9.009,9.009,0,0,0,.609-1.136Zm-5.133,1.59h3.3v.99h-3.3Zm0,1.4h3.3v1.027h-3.3Zm9.321.436A3.586,3.586,0,0,0,84.6-11.426a11.19,11.19,0,0,0,1.254-2.353l-.836-.354-.218.173h-.981l-.736-.209v8.177h.763v-7.586h1.045a11.122,11.122,0,0,1-.6,2.18,3.909,3.909,0,0,1,.672,2.026c0,.754-.127.827-.936.627l-.091.309C84.961-7.61,85.76-8.01,85.733-9.172Zm3.189.763a7.685,7.685,0,0,0,1.653-1.127L89.84-10.1a6.9,6.9,0,0,1-1.108,1.408,5.337,5.337,0,0,1-.681-1.79H90v-3.425H86.151v6.641c-.363.055-.709.091-1.008.109l.2.918a12.785,12.785,0,0,0,3.1-1.154l-.109-.3c-.391.109-.872.209-1.363.3v-3.089H87.7a6.122,6.122,0,0,0,2.462,4.533l.7-.872A6,6,0,0,1,88.922-8.409ZM86.969-13.5h2.217v1.09H86.969Zm0,1.5h2.217v1.108H86.969ZM95-13.542l-.963-.382a8.269,8.269,0,0,1-2.408,4.37l.191.273A8.709,8.709,0,0,0,95-13.542Zm2.253-.382h-1.8v.409h1.463A6.172,6.172,0,0,0,99.252-9.3L100-10.326A4.82,4.82,0,0,1,97.253-13.924Zm-.282,4.443-.273.227c.291.454.563.936.809,1.408-.963.136-2.253.236-3.452.291a14.535,14.535,0,0,0,2.08-3.371l-1.036-.4a14.763,14.763,0,0,1-1.563,3.8c-.4.009-.781.018-1.127.018l.254,1.036A26,26,0,0,0,97.7-7.483c.227.472.427.927.581,1.336l.972-.527A12.8,12.8,0,0,0,96.971-9.481Zm4.27-4.434v.409h6.1v6.033c0,.727-.245.845-1.817.5l-.109.309c1.926,1.117,2.762.572,2.762-.527v-6.723Zm5.3,1.563h-4.979v.409h4.979Zm-.627,4.615v-3.134H102.05v3.334h.8v-.781h2.262v.581Zm-3.062-.99v-1.735h2.262v1.735Z" transform="translate(198.686 45.07)" fill="#121328"/><path d="M55.511-5.924a.1.1,0,0,1-.053-.015l-.273-.173a.1.1,0,0,1-.04-.121,12.369,12.369,0,0,0,.547-4.716v-3.234a.1.1,0,0,1,.1-.1h2.517a.1.1,0,0,1,.1.1v3.256a2.736,2.736,0,0,0,.8-2.458V-14.1a.1.1,0,0,1,.1-.1h2.661a.1.1,0,0,1,.1.1v2c0,.2,0,.254.409.254h.053a.615.615,0,0,0,.515-.181.1.1,0,0,1,.084-.027.1.1,0,0,1,.073.051l.327.591a.1.1,0,0,1-.019.122,1.517,1.517,0,0,1-1.186.327c-1.049,0-1.236-.257-1.236-.982v-1.644h-.9v.336a2.653,2.653,0,0,1-1.372,2.707H61.61l.16-.147a.1.1,0,0,1,.1-.019l.863.336a.1.1,0,0,1,.059.122,6.547,6.547,0,0,1-1.236,2.372,6.139,6.139,0,0,0,1.962.69.1.1,0,0,1,.071.053.1.1,0,0,1,0,.088l-.454.972a.1.1,0,0,1-.118.053,5.44,5.44,0,0,1-2.185-1.155A6.424,6.424,0,0,1,58.117-5.99.1.1,0,0,1,58-6.055L57.9-6.363a.1.1,0,0,1,.011-.089,1.122,1.122,0,0,1-.361.053,3.26,3.26,0,0,1-1.3-.363.1.1,0,0,1-.053-.117l.082-.3a.1.1,0,0,1,.111-.073,5.972,5.972,0,0,0,.772.081c.267,0,.276-.053.276-.273V-9.495h-.787a6.488,6.488,0,0,1-1.05,3.531A.1.1,0,0,1,55.511-5.924Zm-.15-.314.125.079A6.546,6.546,0,0,0,56.448-9.6a.1.1,0,0,1,.1-.094h.981a.1.1,0,0,1,.1.1v2.153c0,.307-.076.473-.477.473a5.611,5.611,0,0,1-.713-.071l-.036.132a2.95,2.95,0,0,0,1.144.3.688.688,0,0,0,.5-.16.645.645,0,0,0,.165-.481v-6.841H55.893v3.134a12.775,12.775,0,0,1-.532,4.711Zm2.758-.1.046.13A6.108,6.108,0,0,0,60.78-7.393a.1.1,0,0,1,.131,0A5.173,5.173,0,0,0,63-6.245l.366-.778a6.092,6.092,0,0,1-2.006-.751.1.1,0,0,1-.046-.071.1.1,0,0,1,.024-.081,6.216,6.216,0,0,0,1.242-2.3l-.72-.279-.145.131a.1.1,0,0,1-.067.026H58.737v.208h.609a.1.1,0,0,1,.1.079,5.217,5.217,0,0,0,1.033,2.209.1.1,0,0,1-.007.135A6.1,6.1,0,0,1,58.12-6.335Zm.29-4.426v3.517a.835.835,0,0,1-.226.625.678.678,0,0,1-.111.088A5.956,5.956,0,0,0,60.264-7.8a5.416,5.416,0,0,1-1-2.144h-.628a.1.1,0,0,1-.1-.1v-.41a.1.1,0,0,1,.024-.065h0Zm.191-.072.08.131a2.457,2.457,0,0,0,1.309-2.555v-.436a.1.1,0,0,1,.1-.1h1.1a.1.1,0,0,1,.1.1v1.745c0,.588.08.781,1.036.781a1.426,1.426,0,0,0,.991-.222l-.229-.413a.828.828,0,0,1-.556.153h-.053c-.472,0-.609-.1-.609-.455V-14H59.407v.617a2.937,2.937,0,0,1-.807,2.55Zm31.47,4.9a.1.1,0,0,1-.058-.019,6.306,6.306,0,0,1-2.492-4.515h-.538V-7.6c.517-.1.922-.188,1.236-.276a.1.1,0,0,1,.121.063l.107.3a.1.1,0,0,1-.044.121,12.814,12.814,0,0,1-3.126,1.165A.1.1,0,0,1,85.2-6.24a.1.1,0,0,1-.044-.063l-.2-.918a.1.1,0,0,1,.018-.082.1.1,0,0,1,.074-.04c.281-.017.6-.05.914-.1v-6.555a.1.1,0,0,1,.1-.1h3.852a.1.1,0,0,1,.1.1v3.425a.1.1,0,0,1-.1.1h-1.83a5.207,5.207,0,0,0,.578,1.528,6.764,6.764,0,0,0,1-1.3.1.1,0,0,1,.067-.048.1.1,0,0,1,.081.019l.735.564a.1.1,0,0,1,.039.075.1.1,0,0,1-.032.078,7.7,7.7,0,0,1-1.57,1.088,6.092,6.092,0,0,0,1.833,1.469.1.1,0,0,1,.048.068.1.1,0,0,1-.02.081l-.7.872a.1.1,0,0,1-.078.037Zm-3.189-4.734h.727a.1.1,0,0,1,.1.088,7.079,7.079,0,0,0,1.028,3.011,5.335,5.335,0,0,0,1.316,1.4l.565-.706a5.932,5.932,0,0,1-1.865-1.558.1.1,0,0,1-.017-.083.1.1,0,0,1,.053-.066,7.8,7.8,0,0,0,1.542-1.03l-.551-.422a7.093,7.093,0,0,1-1.069,1.332.1.1,0,0,1-.082.028.1.1,0,0,1-.073-.047,5.417,5.417,0,0,1-.695-1.823.1.1,0,0,1,.021-.083.1.1,0,0,1,.077-.036h1.856v-3.225H86.164v6.541a.1.1,0,0,1-.086.1c-.31.046-.619.081-.9.1l.154.7a13.048,13.048,0,0,0,2.9-1.079l-.049-.134c-.33.088-.751.179-1.283.277a.1.1,0,0,1-.082-.021.1.1,0,0,1-.036-.077v-3.089a.1.1,0,0,1,.03-.071.1.1,0,0,1,.071-.029ZM26.6-5.934a.1.1,0,0,1-.043-.01,32.91,32.91,0,0,0-3.087-1.193.1.1,0,0,1-.065-.119l.078-.321H22.271l.521.5a.1.1,0,0,1,.03.087.1.1,0,0,1-.053.075,12.1,12.1,0,0,1-3.6.928.1.1,0,0,1-.107-.075l-.083-.32a.1.1,0,0,1,.011-.076.1.1,0,0,1,.062-.046,9.532,9.532,0,0,0,2.679-1.074H20.2a.1.1,0,0,1-.1-.1v-3.307a.1.1,0,0,1,.1-.1h.931l-.082-.281a.1.1,0,0,1,.01-.079.1.1,0,0,1,.064-.047,2.878,2.878,0,0,0,2.349-1.892h-.693a4.943,4.943,0,0,1-1.148,1.207.1.1,0,0,1-.131-.012l-.218-.227a.1.1,0,0,1-.025-.044,10.5,10.5,0,0,1-1.644,1.821.1.1,0,0,1-.077.027.1.1,0,0,1-.07-.04l-.481-.654a.1.1,0,0,1-.018-.078.1.1,0,0,1,.045-.066,12.483,12.483,0,0,0,1.965-1.487.1.1,0,0,1,.133,0l.236.2a.1.1,0,0,1,.035.071,5.377,5.377,0,0,0,.976-2,.1.1,0,0,1,.122-.067l.754.209a.1.1,0,0,1,.062.05.1.1,0,0,1,.006.08,3.9,3.9,0,0,1-.168.4h2.507l.185-.113a.1.1,0,0,1,.1,0l.727.418a.1.1,0,0,1,.048.066.1.1,0,0,1-.017.08,5.237,5.237,0,0,1-1.278,1.272l-.01.006a5.715,5.715,0,0,0,1.6.467.1.1,0,0,1,.072.053.1.1,0,0,1,0,.088l-.345.781a.1.1,0,0,1-.114.057,3.908,3.908,0,0,1-.687-.229.1.1,0,0,1,.019.059v3.307a.1.1,0,0,1-.1.1H24.29A17.394,17.394,0,0,1,27-7.01a.1.1,0,0,1,.06.053.1.1,0,0,1,0,.08L26.693-6a.1.1,0,0,1-.092.062ZM23.623-7.3c.931.316,2.191.786,2.926,1.129l.282-.685a20.394,20.394,0,0,0-3.169-.6ZM19.2-6.335l.035.135a12.372,12.372,0,0,0,3.313-.835l-.513-.493A9.759,9.759,0,0,1,19.2-6.335Zm1.1-1.443h5.441v-3.107H20.3Zm-1.092-3.561.353.481a10.358,10.358,0,0,0,1.585-1.79l-.1-.083A12.631,12.631,0,0,1,19.206-11.339Zm4.916-1.409a.1.1,0,0,1,.086.049,4.135,4.135,0,0,0,2.364,1.67l.26-.588a4.175,4.175,0,0,1-2.613-1.311.1.1,0,0,1-.017-.1,3.8,3.8,0,0,0,.16-.478.1.1,0,0,1,.1-.075h1.2a.1.1,0,0,1,.084.046.1.1,0,0,1,.007.1,4.857,4.857,0,0,1-.481.866l.092.1a5.018,5.018,0,0,0,1.094-1.091l-.578-.332-.16.1a.1.1,0,0,1-.053.014H22.968a.1.1,0,0,1-.086-.049.1.1,0,0,1,0-.1,4.039,4.039,0,0,0,.193-.422l-.555-.154a5.353,5.353,0,0,1-1.031,2.027l.094.1a4.8,4.8,0,0,0,1.059-1.147.1.1,0,0,1,.083-.045H23.6a.1.1,0,0,1,.08.04.1.1,0,0,1,.016.088,3,3,0,0,1-2.433,2.134l.038.129a3.413,3.413,0,0,0,2.73-1.507.1.1,0,0,1,.089-.049Zm-2.2,1.663h3.9a4.222,4.222,0,0,1-1.705-1.376,3.438,3.438,0,0,1-2.2,1.376Zm2.486-1.927a3.158,3.158,0,0,0,.777.641l-.12-.125a.1.1,0,0,1-.009-.128,4.3,4.3,0,0,0,.442-.759h-.966c-.036.128-.078.252-.124.371ZM39.5-5.97h-.781a.1.1,0,0,1-.1-.1v-3.5a7.8,7.8,0,0,1-1.28,1.87.1.1,0,0,1-.07.032.1.1,0,0,1-.072-.027L36.973-7.9a.1.1,0,0,1-.014-.131,10.829,10.829,0,0,0,1.482-3.531H37.2a.1.1,0,0,1-.1-.1v-.409a.1.1,0,0,1,.1-.1h1.417v-1.1c-.437.076-.884.135-1.3.171a.1.1,0,0,1-.107-.08l-.064-.309a.1.1,0,0,1,.075-.118,8.925,8.925,0,0,0,2.867-1.122.1.1,0,0,1,.128.017l.645.709a.1.1,0,0,1,.024.091.1.1,0,0,1-.062.071,10.213,10.213,0,0,1-1.225.367v1.3h1.19a.1.1,0,0,1,.1.1v.409a.1.1,0,0,1-.1.1H39.6v.385a9.667,9.667,0,0,1,1.384,1.2.1.1,0,0,1-.007.139l-.645.6a.1.1,0,0,1-.086.025.1.1,0,0,1-.072-.053c-.124-.242-.313-.566-.574-.987v4.179a.1.1,0,0,1-.1.1Zm-.681-.2H39.4v-4.424a.1.1,0,0,1,.072-.1.1.1,0,0,1,.113.043c.318.5.55.89.706,1.181l.477-.444a10.33,10.33,0,0,0-1.325-1.128.1.1,0,0,1-.042-.081v-.534a.1.1,0,0,1,.1-.1h1.19v-.208H39.5a.1.1,0,0,1-.1-.1v-1.481a.1.1,0,0,1,.077-.1,10.873,10.873,0,0,0,1.139-.327l-.488-.534a9.051,9.051,0,0,1-2.763,1.082l.026.126c.422-.04.873-.1,1.31-.182a.1.1,0,0,1,.082.022.1.1,0,0,1,.036.077v1.317a.1.1,0,0,1-.1.1H37.305v.208h1.26a.1.1,0,0,1,.079.038.1.1,0,0,1,.019.085,11.267,11.267,0,0,1-1.492,3.651l.089.082a7.749,7.749,0,0,0,1.368-2.16.1.1,0,0,1,.112-.059.1.1,0,0,1,.08.1Zm44.935.191h-.763a.1.1,0,0,1-.1-.1v-8.177a.1.1,0,0,1,.04-.08.1.1,0,0,1,.088-.017l.723.205h.933l.191-.151a.1.1,0,0,1,.1-.014l.836.354a.1.1,0,0,1,.053.128,11.262,11.262,0,0,1-1.219,2.308,3.605,3.605,0,0,1,1.108,2.261,1.407,1.407,0,0,1-.317,1.037.8.8,0,0,1-.585.239,1.7,1.7,0,0,1-.987-.4v2.309a.1.1,0,0,1-.1.1Zm-.663-.2h.563v-7.486a.1.1,0,0,1,.029-.071.1.1,0,0,1,.071-.029H84.8a.1.1,0,0,1,.075.034.1.1,0,0,1,.024.08,11.063,11.063,0,0,1-.588,2.156,3.986,3.986,0,0,1,.661,2.037c0,.466-.035.822-.478.822a2.213,2.213,0,0,1-.489-.076l-.045.152a1.528,1.528,0,0,0,.881.374.594.594,0,0,0,.441-.179,1.218,1.218,0,0,0,.26-.892,3.474,3.474,0,0,0-1.108-2.186.1.1,0,0,1-.01-.126,11.148,11.148,0,0,0,1.208-2.242l-.692-.293-.172.136a.1.1,0,0,1-.062.021h-.981a.1.1,0,0,1-.027,0l-.608-.173Zm.844-2.753.024,0a2.44,2.44,0,0,0,.534.092c.2,0,.277-.056.277-.622a3.823,3.823,0,0,0-.657-1.973.1.1,0,0,1-.009-.09,11.419,11.419,0,0,0,.577-2.044h-.828V-8.89A.1.1,0,0,1,83.937-8.932ZM5.225-5.979H4.389a.1.1,0,0,1-.1-.1v-2.4A9.784,9.784,0,0,1,.906-6.33a.1.1,0,0,1-.125-.059L.653-6.7a.1.1,0,0,1,.053-.128A8.939,8.939,0,0,0,3.795-9.358H1.945a.1.1,0,0,1-.1-.1v-2.832a.1.1,0,0,1,.1-.1H4.289v-.545H1.073a.1.1,0,0,1-.1-.1v-.5a.1.1,0,0,1,.1-.1H4.289v-.936a.1.1,0,0,1,.029-.072.1.1,0,0,1,.071-.03h.836a.1.1,0,0,1,.1.1v.936h3.28a.1.1,0,0,1,.1.1v.5a.1.1,0,0,1-.1.1H5.324v.545H7.676a.1.1,0,0,1,.1.1v2.832a.1.1,0,0,1-.1.1H5.633A9.655,9.655,0,0,0,9-7.426a.1.1,0,0,1,.06.06.1.1,0,0,1-.007.084l-.527.909a.1.1,0,0,1-.128.041A8.564,8.564,0,0,1,5.324-8.717v2.638A.1.1,0,0,1,5.225-5.979Zm-.736-.2h.635V-9.032a.1.1,0,0,1,.072-.1.1.1,0,0,1,.112.041A8.033,8.033,0,0,0,8.4-6.554l.421-.726a9.273,9.273,0,0,1-3.5-2.111A.1.1,0,0,1,5.307-9.5a.1.1,0,0,1,.092-.06h2.18v-2.636H5.228a.1.1,0,0,1-.1-.1v-.745a.1.1,0,0,1,.1-.1H8.5v-.3H5.225a.1.1,0,0,1-.1-.1v-.936H4.489v.936a.1.1,0,0,1-.1.1H1.173v.3H4.389a.1.1,0,0,1,.1.1v.745a.1.1,0,0,1-.1.1H2.045v2.634H3.988a.1.1,0,0,1,.089.053.1.1,0,0,1-.006.1,9.111,9.111,0,0,1-3.2,2.709l.056.143A9.376,9.376,0,0,0,4.314-8.793a.1.1,0,0,1,.111-.027.1.1,0,0,1,.065.094ZM33.152-6h-.818a.1.1,0,0,1-.1-.1V-10.24h-.881a.1.1,0,0,1-.091-.057v.284a.1.1,0,0,1-.1.1h-2.8a.1.1,0,0,1-.1-.1v-.4a.1.1,0,0,1,.1-.1h2.8a.1.1,0,0,1,.091.057v-.293a.1.1,0,0,1,.1-.1h.881v-2.619h-.891a.1.1,0,0,1-.1-.1v-.409a.1.1,0,0,1,.1-.1H35.2a.1.1,0,0,1,.1.1v2.335c0,1.323.04,2.439.114,3.225.09.952.2,1.117.223,1.143a8.452,8.452,0,0,0,.043-1.4.1.1,0,0,1,.029-.072.1.1,0,0,1,.071-.03h.328a.1.1,0,0,1,.1.074c.321,1.176.331,2.009.025,2.41a.607.607,0,0,1-.5.25.844.844,0,0,1-.325-.069C34.376-6.546,34.3-8.586,34.3-11.648v-1.817H33.253v2.619H34.2a.1.1,0,0,1,.1.1v.409a.1.1,0,0,1-.1.1h-.945V-6.1a.1.1,0,0,1-.1.1Zm-.717-.2h.617V-10.34a.1.1,0,0,1,.1-.1H34.1v-.208h-.945a.1.1,0,0,1-.1-.1v-2.816a.1.1,0,0,1,.1-.1H34.4a.1.1,0,0,1,.1.1v1.917a27.694,27.694,0,0,0,.157,3.684c.144.962.407,1.489.827,1.666a.645.645,0,0,0,.247.053.408.408,0,0,0,.339-.171c.15-.2.341-.737-.038-2.162H35.88c.013,1.085-.01,1.365-.115,1.472a.157.157,0,0,1-.113.048.226.226,0,0,1-.132-.049c-.053-.04-.2-.145-.307-1.272-.076-.794-.117-1.924-.117-3.26v-2.234H31.445v.208h.89a.1.1,0,0,1,.1.1v2.816a.1.1,0,0,1-.1.1h-.882v.208h.881a.1.1,0,0,1,.1.1Zm-3.97-3.915h2.6v-.2h-2.6ZM14.346-6h-.818a.1.1,0,0,1-.1-.1v-3.78l-.585.443a.1.1,0,0,1-.084.018.1.1,0,0,1-.067-.053c-.164-.34-.321-.649-.455-.9V-6.1a.1.1,0,0,1-.1.1h-.781a.1.1,0,0,1-.1-.1v-3.81a7.877,7.877,0,0,1-1.181,1.89.1.1,0,0,1-.071.032.1.1,0,0,1-.072-.028L9.7-8.241a.1.1,0,0,1-.015-.126,11.017,11.017,0,0,0,1.432-3.581H9.949a.1.1,0,0,1-.1-.1v-.418a.1.1,0,0,1,.1-.1h1.307v-1.946a.1.1,0,0,1,.1-.1h.781a.1.1,0,0,1,.1.1v1.944H13.3a.1.1,0,0,1,.1.1v.418a.1.1,0,0,1-.1.1H12.239v.481a8.711,8.711,0,0,1,1.19,1.3v-2.5a.1.1,0,0,1,.1-.1h1.3a17.3,17.3,0,0,0,.316-1.864.1.1,0,0,1,.04-.069.1.1,0,0,1,.079-.017l.927.164a.1.1,0,0,1,.07.05.1.1,0,0,1,.006.086,13.33,13.33,0,0,1-.772,1.653h2.151a.1.1,0,0,1,.1.1v6.5a.1.1,0,0,1-.1.1h-.818a.1.1,0,0,1-.1-.1v-.593H14.446V-6.1a.1.1,0,0,1-.1.1Zm-.717-.2h.617V-6.86a.1.1,0,0,1,.1-.1h2.48a.1.1,0,0,1,.1.1v.588h.617v-6.3H15.318a.1.1,0,0,1-.087-.053.1.1,0,0,1,0-.1,12.475,12.475,0,0,0,.8-1.66l-.7-.123a17.733,17.733,0,0,1-.326,1.859.1.1,0,0,1-.1.078H13.625Zm-2.171,0h.581v-4.578a.1.1,0,0,1,.076-.1.1.1,0,0,1,.113.05c.146.271.361.679.594,1.156l.466-.355a8.578,8.578,0,0,0-1.217-1.323.1.1,0,0,1-.034-.075v-.627a.1.1,0,0,1,.1-.1H13.2v-.218H12.139a.1.1,0,0,1-.1-.1v-1.944h-.581v1.944a.1.1,0,0,1-.1.1H10.049v.218h1.19a.1.1,0,0,1,.078.037.1.1,0,0,1,.02.084,11.35,11.35,0,0,1-1.443,3.7l.1.1a8.7,8.7,0,0,0,1.266-2.2.1.1,0,0,1,.112-.061.1.1,0,0,1,.081.1Zm64.867.191h-.836a.1.1,0,0,1-.1-.1v-4.109a7.145,7.145,0,0,1-1.722,1.389.1.1,0,0,1-.131-.03l-.191-.273a.1.1,0,0,1,.019-.135,8.592,8.592,0,0,0,2.483-3.32H73.691a.1.1,0,0,1-.1-.1v-.5a.1.1,0,0,1,.029-.071.1.1,0,0,1,.071-.029h2.427a11.335,11.335,0,0,0,.391-1.392.1.1,0,0,1,.118-.077l.909.182a.1.1,0,0,1,.065.044.1.1,0,0,1,.013.077,11.326,11.326,0,0,1-.356,1.167h4.2a.1.1,0,0,1,.071.029.1.1,0,0,1,.029.071v.5a.1.1,0,0,1-.029.071.1.1,0,0,1-.071.029h-4.5a9.277,9.277,0,0,1-.492.935h3.989a.1.1,0,0,1,.1.1v4.459a.948.948,0,0,1-.285.754.948.948,0,0,1-.762.262,3.542,3.542,0,0,1-1.571-.481.1.1,0,0,1-.049-.116l.091-.318a.1.1,0,0,1,.112-.072,7.807,7.807,0,0,0,1.034.117c.346,0,.395-.081.395-.382V-8.16h-3.1v2.053a.1.1,0,0,1-.1.1Zm-.735-.2h.635V-8.259a.1.1,0,0,1,.1-.1h3.3a.1.1,0,0,1,.1.1v.935c0,.369-.1.582-.6.582a7.285,7.285,0,0,1-.977-.107l-.044.154a3.255,3.255,0,0,0,1.4.42.748.748,0,0,0,.619-.2.748.748,0,0,0,.226-.611v-4.361h-4.07A.1.1,0,0,1,76.2-11.5a.1.1,0,0,1,0-.1,8.851,8.851,0,0,0,.6-1.122.1.1,0,0,1,.091-.059h4.46v-.3H77.114a.1.1,0,0,1-.082-.043.1.1,0,0,1-.011-.092,11.1,11.1,0,0,0,.371-1.176l-.709-.142a11.721,11.721,0,0,1-.4,1.389.1.1,0,0,1-.095.067h-2.4v.3H76a.1.1,0,0,1,.083.044.1.1,0,0,1,.009.094,8.838,8.838,0,0,1-2.527,3.476l.085.121a7.19,7.19,0,0,0,1.766-1.5.1.1,0,0,1,.111-.028.1.1,0,0,1,.065.094Zm-26.7.192a.1.1,0,0,1-.095-.067l-.109-.307a.1.1,0,0,1,.06-.127A7.264,7.264,0,0,0,51.1-7.894a6.157,6.157,0,0,1-1.208-2.7h-.436a.1.1,0,0,1-.1-.1V-11.1a.1.1,0,0,1,.1-.1h1.626v-1.3H49.48a.1.1,0,0,1,.09.1v.409a.1.1,0,0,1-.03.071.1.1,0,0,1-.072.029H48.5v1.471c.241-.077.475-.156.711-.239a.1.1,0,0,1,.126.056l.127.309a.1.1,0,0,1-.036.121,9.72,9.72,0,0,1-.928.56v2.737a.838.838,0,0,1-.247.615.982.982,0,0,1-.695.247,2.794,2.794,0,0,1-1.363-.457.1.1,0,0,1-.044-.115l.091-.3a.1.1,0,0,1,.115-.069,4.987,4.987,0,0,0,.879.128c.249,0,.282-.063.282-.312V-9.134a9.487,9.487,0,0,1-1.007.374.1.1,0,0,1-.123-.066l-.273-.855a.1.1,0,0,1,.009-.081.1.1,0,0,1,.066-.048c.4-.081.812-.179,1.328-.315v-1.768h-1.2a.1.1,0,0,1-.1-.1V-12.4a.1.1,0,0,1,.1-.1h1.2v-2.01a.1.1,0,0,1,.1-.1H48.4a.1.1,0,0,1,.1.1V-12.5h.752a.1.1,0,0,1-.09-.1v-.409a.1.1,0,0,1,.1-.1h1.826v-1.4a.1.1,0,0,1,.1-.1h.818a.1.1,0,0,1,.1.1v1.4h1.88a.1.1,0,0,1,.1.1v.409a.1.1,0,0,1-.1.1H52.1v1.3h.623l.219-.16a.1.1,0,0,1,.1-.012l.818.345a.1.1,0,0,1,.058.118,7.033,7.033,0,0,1-1.558,2.906,7.691,7.691,0,0,0,2,.779.1.1,0,0,1,.064.053.1.1,0,0,1,0,.083l-.408.97a.1.1,0,0,1-.124.056,6.192,6.192,0,0,1-2.252-1.261A6.5,6.5,0,0,1,48.91-6.017Zm-2.525-.593a2.521,2.521,0,0,0,1.191.39.787.787,0,0,0,.558-.191.632.632,0,0,0,.185-.47v-2.8a.1.1,0,0,1,.053-.089,9.253,9.253,0,0,0,.894-.53l-.06-.145c-.251.088-.5.17-.758.251a.1.1,0,0,1-.089-.015.1.1,0,0,1-.041-.081V-12a.1.1,0,0,1,.1-.1h.972V-12.3H48.4a.1.1,0,0,1-.1-.1V-14.41h-.583V-12.4a.1.1,0,0,1-.1.1h-1.2v.208h1.2a.1.1,0,0,1,.1.1v1.944a.1.1,0,0,1-.074.1c-.508.135-.915.233-1.3.315l.209.654a10.843,10.843,0,0,0,1.031-.394.1.1,0,0,1,.095.009.1.1,0,0,1,.045.084v2.144c0,.316-.081.513-.481.513a4.661,4.661,0,0,1-.831-.115Zm2.543.242.046.132a6.28,6.28,0,0,0,2.633-1.3.1.1,0,0,1,.133,0,5.885,5.885,0,0,0,2.156,1.247l.328-.78A7.4,7.4,0,0,1,52.151-7.9a.1.1,0,0,1-.046-.072.1.1,0,0,1,.026-.081A6.807,6.807,0,0,0,53.7-10.882l-.684-.289-.2.147a.1.1,0,0,1-.06.02H52a.1.1,0,0,1-.1-.1v-1.5a.1.1,0,0,1,.1-.1h1.88v-.208H52a.1.1,0,0,1-.1-.1v-1.4h-.62v1.4a.1.1,0,0,1-.1.1H49.36v.208h1.826a.1.1,0,0,1,.1.1v1.5a.1.1,0,0,1-.1.1H49.56v.208h.418a.1.1,0,0,1,.1.081,5.963,5.963,0,0,0,1.241,2.762.1.1,0,0,1-.009.138,7.343,7.343,0,0,1-2.4,1.448Zm17.852.35a.1.1,0,0,1-.08-.04l-.2-.263a.1.1,0,0,1,.017-.139,4.361,4.361,0,0,0,1.3-1.535,6.08,6.08,0,0,0,.508-2.284h-.957a.1.1,0,0,1-.1-.1v-.261a5.522,5.522,0,0,1-.471.455.1.1,0,0,1-.135,0l-.2-.2v4.266a.1.1,0,0,1-.1.1H65.56a.1.1,0,0,1-.1-.1v-4.462a6.017,6.017,0,0,1-.879.982.1.1,0,0,1-.139-.007l-.218-.236a.1.1,0,0,1-.007-.128,10.306,10.306,0,0,0,1.764-4.626.1.1,0,0,1,.043-.067.1.1,0,0,1,.079-.014l.909.209a.1.1,0,0,1,.075.119,10.888,10.888,0,0,1-.641,2.025v1.714a7.679,7.679,0,0,0,1.373-3.26.1.1,0,0,1,.047-.067.1.1,0,0,1,.082-.01l.836.263a.1.1,0,0,1,.029.014.1.1,0,0,1-.032-.073v-.409a.1.1,0,0,1,.1-.1h1.544a.1.1,0,0,1,.1.086,3.746,3.746,0,0,0,2.194,2.825.1.1,0,0,1,.048.066.1.1,0,0,1-.016.08l-.609.855a.1.1,0,0,1-.068.041A.1.1,0,0,1,72-10.317c-.158-.128-.328-.274-.5-.444-.028,1.091-.127,2.705-.218,3.539a1.069,1.069,0,0,1-.342.752,1.069,1.069,0,0,1-.775.284,2.7,2.7,0,0,1-1.436-.527.1.1,0,0,1-.04-.112l.091-.3a.1.1,0,0,1,.119-.068,4.617,4.617,0,0,0,.929.152c.3,0,.371-.089.42-.529a26.4,26.4,0,0,0,.16-2.705H69.334a5.861,5.861,0,0,1-.748,2.662,4.636,4.636,0,0,1-1.773,1.586.1.1,0,0,1-.055.013Zm-1.1-.2h.581v-6.123a.1.1,0,0,1,.009-.04,10.635,10.635,0,0,0,.618-1.911l-.708-.16a10.475,10.475,0,0,1-1.733,4.543l.1.1a6.473,6.473,0,0,0,.956-1.142.1.1,0,0,1,.112-.04.1.1,0,0,1,.071.1ZM66.7-6.362l.088.116c1.353-.783,2.171-1.731,2.351-4.138a.1.1,0,0,1,.1-.092H70.5a.1.1,0,0,1,.071.029.1.1,0,0,1,.029.071,26.709,26.709,0,0,1-.164,2.828c-.044.4-.118.706-.619.706a4.3,4.3,0,0,1-.885-.135l-.042.139a2.439,2.439,0,0,0,1.263.449.871.871,0,0,0,.641-.232.871.871,0,0,0,.277-.623c.088-.809.184-2.357.214-3.441h-3.84v.208h.962a.1.1,0,0,1,.073.032.1.1,0,0,1,.027.074A4.786,4.786,0,0,1,66.7-6.362ZM66.61-10.5l.107.1a6.737,6.737,0,0,0,1.911-3.123l-.638-.2A7.824,7.824,0,0,1,66.61-10.5Zm2.363-3.342H70.09a.1.1,0,0,1,.1.085,4.983,4.983,0,0,0,1.844,3.213l.481-.677a3.869,3.869,0,0,1-2.184-2.832H68.974Zm-1.51,2.953h3.9A5.074,5.074,0,0,1,70-13.638H68.871a.1.1,0,0,1-.059-.019.1.1,0,0,1,.029.1,7.074,7.074,0,0,1-1.376,2.673Zm-38.4,4.852h-.7a.1.1,0,0,1-.1-.1v-2.98a.1.1,0,0,1,.1-.1h2.8a.1.1,0,0,1,.1.1V-6.27a.1.1,0,0,1-.1.1h-.719a.1.1,0,0,1-.1-.1V-6.66H29.164v.526A.1.1,0,0,1,29.064-6.034Zm-.6-.2h.5v-.529a.1.1,0,0,1,.1-.1h1.381a.1.1,0,0,1,.1.1v.393h.517V-9.013h-2.6Zm78.616.2h0a3.848,3.848,0,0,1-1.806-.628.1.1,0,0,1-.044-.12l.107-.309a.1.1,0,0,1,.116-.065,6.181,6.181,0,0,0,1.2.182c.428,0,.5-.153.5-.588V-13.5h-6a.1.1,0,0,1-.1-.1v-.409a.1.1,0,0,1,.1-.1h6.932a.1.1,0,0,1,.1.1v6.726a1.364,1.364,0,0,1-.267.888,1.028,1.028,0,0,1-.839.354Zm-1.634-.76a3.556,3.556,0,0,0,1.634.56h0a.837.837,0,0,0,.684-.281,1.189,1.189,0,0,0,.221-.76V-13.9h-6.734v.208h6a.1.1,0,0,1,.071.029.1.1,0,0,1,.029.071V-7.56c0,.485-.117.786-.7.786a5.865,5.865,0,0,1-1.151-.169Zm-61.383.736h-.8a.1.1,0,0,1-.1-.1v-2.6c-.866.2-1.747.383-2.6.563l-.259.053a.1.1,0,0,1-.116-.066l-.136-.409A.1.1,0,0,1,40.06-8.7a.1.1,0,0,1,.067-.048c.945-.191,1.966-.41,3.036-.654v-5.108a.1.1,0,0,1,.1-.1h.8a.1.1,0,0,1,.1.1v4.88l.95-.218a.1.1,0,0,1,.119.071l.107.4a.1.1,0,0,1-.011.077.1.1,0,0,1-.063.046l-1.1.263v2.829A.1.1,0,0,1,44.064-6.061Zm-.7-.2h.6V-9.068a.1.1,0,0,1,.077-.1l1.081-.258-.057-.207-.979.224A.1.1,0,0,1,44-9.426a.1.1,0,0,1-.037-.079V-14.41h-.6v5.088a.1.1,0,0,1-.078.1c-1.058.242-2.069.46-3.008.65l.072.216.172-.036c.893-.188,1.817-.383,2.719-.588a.1.1,0,0,1,.085.019.1.1,0,0,1,.038.079Zm54.829.128A.1.1,0,0,1,98.1-6.2c-.138-.367-.321-.787-.54-1.248a26.311,26.311,0,0,1-4.97.985.1.1,0,0,1-.107-.076l-.254-1.036a.1.1,0,0,1,.019-.086.1.1,0,0,1,.079-.038c.328,0,.687-.008,1.069-.017h0a14.721,14.721,0,0,0,1.522-3.724.1.1,0,0,1,.053-.064.1.1,0,0,1,.082,0l1.036.4a.1.1,0,0,1,.056.053.1.1,0,0,1,0,.079A14.719,14.719,0,0,1,94.2-7.753c1.156-.058,2.257-.151,3.076-.26-.242-.459-.49-.887-.738-1.274a.1.1,0,0,1,.02-.131l.273-.227a.1.1,0,0,1,.133,0,12.839,12.839,0,0,1,2.3,2.832.1.1,0,0,1,.009.077.1.1,0,0,1-.048.061l-.972.527a.1.1,0,0,1-.053.011Zm-.581-1.538a.1.1,0,0,1,.09.057c.218.454.4.869.544,1.237l.781-.423A12.712,12.712,0,0,0,96.88-9.435l-.136.114c.258.408.515.859.766,1.341a.1.1,0,0,1,0,.092.1.1,0,0,1-.075.053c-.888.126-2.15.232-3.462.292a.1.1,0,0,1-.095-.053.1.1,0,0,1,.013-.107,14.463,14.463,0,0,0,2.023-3.25l-.834-.321a14.737,14.737,0,0,1-1.546,3.717.1.1,0,0,1-.082.047H93.4c-.333.007-.649.015-.944.017l.2.827a25.746,25.746,0,0,0,4.925-1,.1.1,0,0,1,.032-.011Zm-67.175.593H29.064a.1.1,0,0,1-.1-.1V-8.7a.1.1,0,0,1,.1-.1h1.372a.1.1,0,0,1,.1.1v1.526a.1.1,0,0,1-.03.071A.1.1,0,0,1,30.436-7.078Zm-1.272-.2h1.171V-8.6H29.164Zm-12.338.11h-2.48a.1.1,0,0,1-.1-.1V-9.686a.1.1,0,0,1,.1-.1h2.48a.1.1,0,0,1,.1.1v2.416a.1.1,0,0,1-.03.071.1.1,0,0,1-.071.029Zm-2.38-.2h2.28V-9.585h-2.28Zm88.316-.154h-.8a.1.1,0,0,1-.1-.1v-3.335a.1.1,0,0,1,.1-.1h3.861a.1.1,0,0,1,.1.1v3.134a.1.1,0,0,1-.1.1h-.8a.1.1,0,0,1-.1-.1V-8.3H102.86v.681a.1.1,0,0,1-.1.1Zm-.7-.2h.6V-8.4a.1.1,0,0,1,.1-.1h2.262a.1.1,0,0,1,.1.1v.481h.6v-2.934h-3.661ZM25.04-7.986H21a.1.1,0,0,1-.1-.1v-.627a.1.1,0,0,1,.1-.1H25.04a.1.1,0,0,1,.1.1v.627A.1.1,0,0,1,25.04-7.986Zm-3.942-.2h3.84v-.428H21.1Zm39.738.01a.1.1,0,0,1-.067-.025,4.249,4.249,0,0,1-1.182-1.8A.1.1,0,0,1,59.6-10.1a.1.1,0,0,1,.082-.042h2.044a.1.1,0,0,1,.081.041.1.1,0,0,1,.015.089,5.634,5.634,0,0,1-.909,1.794.1.1,0,0,1-.07.038ZM59.824-9.941a4.035,4.035,0,0,0,1,1.514,5.409,5.409,0,0,0,.767-1.514ZM51.7-8.259a.1.1,0,0,1-.065-.024,4.756,4.756,0,0,1-1.421-2.381.1.1,0,0,1,.016-.088.1.1,0,0,1,.08-.04H52.84a.1.1,0,0,1,.078.037.1.1,0,0,1,.02.084,5.546,5.546,0,0,1-1.166,2.378.1.1,0,0,1-.068.036ZM50.44-10.594A4.535,4.535,0,0,0,51.684-8.5a5.338,5.338,0,0,0,1.03-2.091ZM79.623-8.568h-3.3a.1.1,0,0,1-.1-.1V-9.7a.1.1,0,0,1,.1-.1h3.3a.1.1,0,0,1,.1.1v1.027a.1.1,0,0,1-.1.1Zm-3.2-.2h3.1V-9.6h-3.1Zm28.6.053h-2.262a.1.1,0,0,1-.1-.1v-1.734a.1.1,0,0,1,.1-.1h2.262a.1.1,0,0,1,.1.1v1.735a.1.1,0,0,1-.1.1Zm-2.162-.2h2.062V-10.45h-2.062ZM25.04-8.995H21a.1.1,0,0,1-.1-.1V-9.63a.1.1,0,0,1,.1-.1H25.04a.1.1,0,0,1,.1.1v.534A.1.1,0,0,1,25.04-8.995ZM21.1-9.2h3.84v-.336H21.1Zm70.637-.072a.1.1,0,0,1-.082-.043l-.191-.273a.1.1,0,0,1,.013-.13,8.138,8.138,0,0,0,2.379-4.32.1.1,0,0,1,.053-.066.1.1,0,0,1,.083,0l.962.382a.1.1,0,0,1,.057.127,9.817,9.817,0,0,1-1.283,2.421,7.557,7.557,0,0,1-1.936,1.89.1.1,0,0,1-.057.016Zm-.059-.36.085.122a8.667,8.667,0,0,0,3.026-4.066l-.765-.3a8.284,8.284,0,0,1-2.347,4.246Zm7.491.341a.1.1,0,0,1-.06-.02,6.285,6.285,0,0,1-2.36-4.2H95.368a.1.1,0,0,1-.1-.1v-.409a.1.1,0,0,1,.1-.1h1.8a.1.1,0,0,1,.1.084,4.692,4.692,0,0,0,2.69,3.527.1.1,0,0,1,.053.066.1.1,0,0,1-.017.082l-.747,1.023a.1.1,0,0,1-.066.04Zm-3.7-4.416h1.362a.1.1,0,0,1,.1.085,6.148,6.148,0,0,0,2.215,4.088l.616-.849a4.859,4.859,0,0,1-2.679-3.532H95.467ZM41.985-9.376h-.017a.1.1,0,0,1-.071-.049,12.41,12.41,0,0,0-1.2-1.713.1.1,0,0,1,.006-.133l.227-.236a.1.1,0,0,1,.123-.017,6.65,6.65,0,0,1,1.7,1.373.1.1,0,0,1,.025.073.1.1,0,0,1-.034.069L42.05-9.4A.1.1,0,0,1,41.985-9.376ZM40.908-11.2a12.571,12.571,0,0,1,1.1,1.564l.523-.461a6.408,6.408,0,0,0-1.512-1.219ZM6.879-9.768H5.225a.1.1,0,0,1-.1-.1V-10.7a.1.1,0,0,1,.1-.1H6.879a.1.1,0,0,1,.1.1v.835A.1.1,0,0,1,6.879-9.768Zm-1.554-.2H6.778V-10.6H5.324Zm-.935.2H2.754A.1.1,0,0,1,2.682-9.8a.1.1,0,0,1-.03-.071V-10.7a.1.1,0,0,1,.1-.1H4.389a.1.1,0,0,1,.1.1v.835A.1.1,0,0,1,4.389-9.768Zm-1.535-.2H4.289V-10.6H2.854Zm54.674.064h-.962a.1.1,0,0,1-.072-.031.1.1,0,0,1-.028-.074c.009-.207.009-.422.009-.65v-.934a.1.1,0,0,1,.1-.1h.954a.1.1,0,0,1,.1.1V-10a.1.1,0,0,1-.03.071.1.1,0,0,1-.072.029Zm-.859-.2h.759v-1.389h-.754v.836c0,.193,0,.377-.005.555ZM25.04-9.914H21a.1.1,0,0,1-.1-.1v-.562a.1.1,0,0,1,.1-.1H25.04a.1.1,0,0,1,.1.1v.563a.1.1,0,0,1-.1.1Zm-3.942-.2h3.84v-.363H21.1ZM16.827-10H14.346a.1.1,0,0,1-.1-.1v-2.162a.1.1,0,0,1,.1-.1h2.48a.1.1,0,0,1,.1.1V-10.1a.1.1,0,0,1-.029.072.1.1,0,0,1-.072.029Zm-2.38-.2h2.28v-1.961h-2.28ZM79.623-10h-3.3a.1.1,0,0,1-.1-.1v-.989a.1.1,0,0,1,.1-.1h3.3a.1.1,0,0,1,.1.1v.99a.1.1,0,0,1-.03.071.1.1,0,0,1-.072.029Zm-3.2-.2h3.1v-.789h-3.1ZM89.1-10.878H86.882a.1.1,0,0,1-.1-.1v-1.107a.1.1,0,0,1,.1-.1H89.1a.1.1,0,0,1,.1.1v1.108A.1.1,0,0,1,89.1-10.878Zm-2.115-.2H89v-.909H86.983ZM6.879-11H5.225a.1.1,0,0,1-.1-.1v-.79a.1.1,0,0,1,.1-.1H6.879a.1.1,0,0,1,.072.029.1.1,0,0,1,.03.071v.79a.1.1,0,0,1-.03.071A.1.1,0,0,1,6.879-11Zm-1.554-.2H6.778v-.588H5.324Zm-.935.2H2.754a.1.1,0,0,1-.072-.029.1.1,0,0,1-.03-.071v-.79a.1.1,0,0,1,.1-.1H4.389a.1.1,0,0,1,.1.1v.79a.1.1,0,0,1-.1.1Zm-1.535-.2H4.289v-.588H2.854Zm28.309.073h-2.8a.1.1,0,0,1-.1-.1v-.4a.1.1,0,0,1,.1-.1h2.8a.1.1,0,0,1,.1.1v.4a.1.1,0,0,1-.1.1Zm-2.7-.2h2.6v-.2h-2.6Zm13.728-.436h-.009a.1.1,0,0,1-.073-.042,16.549,16.549,0,0,0-1.265-1.572.1.1,0,0,1,0-.13l.2-.245a.1.1,0,0,1,.125-.025,6.8,6.8,0,0,1,1.713,1.235.1.1,0,0,1,.029.071.1.1,0,0,1-.03.071l-.618.608A.1.1,0,0,1,42.192-11.766Zm-1.14-1.684a16.533,16.533,0,0,1,1.153,1.43l.462-.455a6.576,6.576,0,0,0-1.522-1.09Zm16.476,1.557h-.953a.1.1,0,0,1-.1-.1v-1.781a.1.1,0,0,1,.1-.1h.954a.1.1,0,0,1,.1.1v1.781a.1.1,0,0,1-.03.071.1.1,0,0,1-.072.029Zm-.855-.2h.754v-1.58h-.754Zm49.777.164h-4.979a.1.1,0,0,1-.1-.1v-.409a.1.1,0,0,1,.1-.1h4.979a.1.1,0,0,1,.071.029.1.1,0,0,1,.029.071v.409a.1.1,0,0,1-.1.1Zm-4.877-.2h4.778v-.208h-4.778ZM89.1-12.393H86.882a.1.1,0,0,1-.1-.1v-1.09a.1.1,0,0,1,.1-.1H89.1a.1.1,0,0,1,.1.1v1.09a.1.1,0,0,1-.1.1Zm-2.116-.2H89v-.89H86.983Zm-55.521.136H28.056a.1.1,0,0,1-.1-.1v-.418a.1.1,0,0,1,.1-.1h1.389c-.236-.447-.5-.9-.7-1.217a.1.1,0,0,1,.017-.128L29-14.638a.1.1,0,0,1,.126-.009,6.38,6.38,0,0,1,1.318,1.276.1.1,0,0,1,.019.075.1.1,0,0,1-.041.066l-.217.154h1.26a.1.1,0,0,1,.1.1v.418A.1.1,0,0,1,31.463-12.457Zm-3.306-.2h3.207v-.218H29.891a.1.1,0,0,1-.1-.069.1.1,0,0,1,.037-.112l.388-.276a6.413,6.413,0,0,0-1.148-1.1l-.115.107c.221.352.5.844.741,1.309a.1.1,0,0,1,0,.1.1.1,0,0,1-.086.048H28.156Zm-7.268-.308a.1.1,0,0,1-.06-.02,13.2,13.2,0,0,0-1.488-.991.1.1,0,0,1-.046-.121l.107-.309a.1.1,0,0,1,.113-.065,8.033,8.033,0,0,1,1.87.617.1.1,0,0,1,.053.063.1.1,0,0,1-.012.081l-.454.7a.1.1,0,0,1-.066.044Zm-1.377-1.145a13.451,13.451,0,0,1,1.35.9l.333-.514a7.953,7.953,0,0,0-1.632-.534Z" transform="translate(198.773 45.157)" fill="#111226"/><g transform="translate(160.133 25.263)"><path d="M10.377,10.287a2.34,2.34,0,0,1-.653-.392l.2-3.29q.018-.277.057-.957t.06-1c.014-.214.036-.451.064-.708s.069-.565.121-.924q.16-.937.292-1.516T10.927,0h1.122V.286c-.034.02-.1.053-.182.1a.991.991,0,0,0-.208.136A.454.454,0,0,0,11.538.7q-.063.166-.292,1.223t-.418,2.343a17.625,17.625,0,0,0-.2,2.319L10.58,9.121a.839.839,0,0,0,.311.659,1.063,1.063,0,0,0,.724.271,1.007,1.007,0,0,0,.723-.369,2.272,2.272,0,0,0,.457-.876,3.821,3.821,0,0,0,.153-1.066,4.666,4.666,0,0,0-.209-1.477.77.77,0,0,0-.748-.626,1.119,1.119,0,0,0-.321.039,1,1,0,0,0-.267.131l-.292.2-.166-.28.321-.223q.537-.335.748-.447a.956.956,0,0,1,.463-.113.876.876,0,0,1,.716.336,1.934,1.934,0,0,1,.377.8,4.108,4.108,0,0,1,.107.909,4.615,4.615,0,0,1-.172,1.14,4.392,4.392,0,0,1-.481,1.125,2.732,2.732,0,0,1-.8.855,1.882,1.882,0,0,1-1.089.328,2.712,2.712,0,0,1-.756-.153Zm4.983.145a1.785,1.785,0,0,1-.687-.2A1,1,0,0,1,14.26,9.7a3.077,3.077,0,0,1-.145-1.069,7.949,7.949,0,0,1,.219-1.843,2.687,2.687,0,0,1,.78-1.336A2.358,2.358,0,0,1,16.723,4.9a.814.814,0,0,1,.672.335,2.129,2.129,0,0,1,.379.843,5.213,5.213,0,0,1,.131,1.055,5.7,5.7,0,0,1-.225,1.657,2.5,2.5,0,0,1-.748,1.2,2,2,0,0,1-1.363.453ZM15.4,5.8a4.141,4.141,0,0,0-.321,1.141,10.447,10.447,0,0,0-.111,1.187,6.782,6.782,0,0,0,.053.935,1.466,1.466,0,0,0,.267.68.811.811,0,0,0,.633.317.962.962,0,0,0,.929-.72,4.824,4.824,0,0,0,.278-1.733V7.452a4.008,4.008,0,0,0-.267-1.51A.9.9,0,0,0,16,5.291C15.754,5.3,15.555,5.474,15.4,5.8ZM3.665,6.723a25.15,25.15,0,0,1-2.52,3.618h-.6L.821,5.548,0,5.746V5.337a3.49,3.49,0,0,0,.855-.146,4.883,4.883,0,0,0,.836-.374l.154.157a17.252,17.252,0,0,0-.477,4.369A12.58,12.58,0,0,0,2.4,8.038,10.87,10.87,0,0,0,3.28,6.527,6.764,6.764,0,0,0,3.809,5h.724L4.241,9.639l.879-.187v.455a3.26,3.26,0,0,0-1.868.524,22.514,22.514,0,0,0,.413-3.709ZM6.348,10.34,6.6,5.68,5.5,5.9V5.456A4.243,4.243,0,0,0,6.466,5.3a6.346,6.346,0,0,0,.982-.335L7.3,7.766l.245-.6q.229-.564.37-.885T8.2,5.691a1.9,1.9,0,0,1,.267-.4A.76.76,0,0,1,9.035,5a.921.921,0,0,1,.135.008.555.555,0,0,1,.066.014v.934a.581.581,0,0,0-.066-.014.973.973,0,0,0-.135-.008q-.548,0-1.156,1.309A11.872,11.872,0,0,0,7.4,8.514q-.214.665-.341,1.205a5.063,5.063,0,0,0-.13.621Z" transform="translate(18.365 13.139)" fill="#83bf6e" opacity="0.997"/><path d="M35.971,399.476l.886-.436a6.973,6.973,0,0,0,.689-.323l-.021-.451a.3.3,0,0,1,.345.007,3.627,3.627,0,0,0,.6-.316c.042-.071.049-.049.049-.049l.123.2.011.016s.851-.394.893-.394,2.637-.506,2.687-.577c0,0,.155-.218.239-.19a.16.16,0,0,1,.091.134l.323-.028.408.19.169-.021a1.523,1.523,0,0,1,1.344-.253,2.186,2.186,0,0,0,.641-.014,4.174,4.174,0,0,1,2.363.224.207.207,0,0,0,.119.092l.147.014.056-.049a3.681,3.681,0,0,1,1.5.26,4.973,4.973,0,0,0,1.568.2s.107.141.218.141.134.049.134.049.176-.141.647.021c.035.014.647.218.689.218s.119-.148.428-.007c.267.147.33.035.33.035a1.355,1.355,0,0,0,.591.071,1.131,1.131,0,0,1,.837.2l.316.042s.464-.232.626.155l.641.007a.377.377,0,0,1,.478.042l.176.035a.352.352,0,0,1,.428-.056l.641.12s.246-.275.436-.1l.668-.225s.282-.042.323-.16a.282.282,0,0,1,.3-.091l.3-.155s.084-.028.107.021l.183.1a.4.4,0,0,1,.549-.214v.021s-.056-.345.042-.374a.666.666,0,0,1,.282.028s.053-.16.119-.19a.313.313,0,0,0,.12-.352s.035-.091.112.021a1.007,1.007,0,0,0,.141.169l.053-.352a1.058,1.058,0,0,1-.154-.746s.464.6.541.591-.1-.366-.1-.366.183.253.275.218a.214.214,0,0,1,.274.19c.141.141.443.387.443.387l.169.366.119-.042.2.379s.612.451.492.767c0,0,.8.584.563.985l.2.731a.43.43,0,0,1,.323.274,1.268,1.268,0,0,0,.183.359l-.077.316a.561.561,0,0,1,.45.415s-.028.26-.436.134v.295h-.679l-.16.071.218.711.021.218-.049.6-.19.218-.394.267s0,.107-.19.147-.977.214-.977.214l-.682.295a.744.744,0,0,1-.57.2l-.619.218a4.125,4.125,0,0,0-.886.16c-.316.12-.626.239-.795.148a11.191,11.191,0,0,1-2.011-.141l-.309.035s-.2.374-.654-.021l-.1.176-1.443-.436-.38.119a.513.513,0,0,1-.3-.16,3.976,3.976,0,0,0-.45.077,3.507,3.507,0,0,1-1.006-.3c-.267-.183-.359-.147-.359-.147s-.176.077.007.507a3.12,3.12,0,0,0,.021.935.391.391,0,0,1-.214.471c-.035,0-.717.316-.591.873,0,0-.091.626-.091.9a2.046,2.046,0,0,1-.214.774,1.72,1.72,0,0,0-.056.6c-.014.155-.147.253-.253.2a4.291,4.291,0,0,1,.141,1.646l.218.218-.58,1.139s-.1.007.16,1.61c0,0-.084,2.031-.337,3.7a1.9,1.9,0,0,1-1.589,1.653s-.359-.064-.724-1.176a1.736,1.736,0,0,1,.107-.323s0-.028-1.006-1.7a4.289,4.289,0,0,1-.485-1.491c.021-.057-.064-.485-.788-1.477a3.4,3.4,0,0,1-.457-.95c0-.077.281-.19.077-.428-.267-.619-1.118-1.681-.83-2.342a1.132,1.132,0,0,1,.506-.471l-.352-.661.345-.548.141.084-.049-.19.113-.063s-.141.408.126.183.183-.2.183-.2l-.113-.169s.894-.724.774-1.336c0,0,.415.057.591-.563a1.912,1.912,0,0,0,1.1-.619l.1.084.014-.042.035.112.071-.154s.155.154.2.141.035-.253.577-.45a1.4,1.4,0,0,0,.6-.486s.549.612.76.612c.3.113.534-.316.534-.316s.246-.309.374-.274c0,0,.214.144.725-.049l.021-.008a3.4,3.4,0,0,0-.387-.183l-.119.035a2.875,2.875,0,0,0-.612-.337s-.214-.359-.374-.267l-.253.007s-.071-.1-.16.107-.155.077-.16,0a1.407,1.407,0,0,0-.057-.225s-.239-.232-.33-.218-.091.141-.091.141-.267-.218-.436-.113c0,0-.126-.168-.408.028,0,0,.127-.507-.214-.141a1.006,1.006,0,0,0-.879-.288s-.232-.225-.323-.007-.021,0-.021,0-.724-.2-.795-.1c0,0,.014.218-.064.218a.518.518,0,0,1-.214-.107.272.272,0,0,0-.274-.26.278.278,0,0,1-.289-.239l-.084-.021s-.014.225-.169.176a.782.782,0,0,0-.126.169c-.042.085-.091.014-.16-.042a1.056,1.056,0,0,1-.134-.134L45.146,403l-.134-.323h-.138l-.049.4s-.577-.148-.748.126a.564.564,0,0,0-.485.19c-.064.035-.26.107-.26.107s-.021-.436-.155-.316c-.134.049-.267.275-.3.323,0,0-.176.218-.352-.084l-.289.253-.281-.07-.107-.107s-.295-.042-.323-.007c0,0-.126.2-.183.2s-.176-.16-.176-.16-.084.2-.148.19a.565.565,0,0,0-.218-.309l-.127-.183-.661.253s-.021.239-.077.239-.176-.169-.176-.169l-1,.232-.053.042s-.218.028-.3.042-.049.064-.049.064-.436-.035-.415-.084.323-.007.366-.007c0,0-.148-.078-.107-.148s.084-.071.084-.071l-.053-.253.035-.064L38,402.987s-.042-.345.134-.19a1.444,1.444,0,0,0,.232.107c.021-.007.021-.071.021-.071l.16-.107.3.071.049-.042s.014-.246.169-.232a.112.112,0,0,1,.091.072.126.126,0,0,1,.007.02l-.19-.521s.007-.218.274-.035a1.681,1.681,0,0,1,.275.323l.183-.028s0-.16.049-.169a.477.477,0,0,1,.134.014l-.176-.374.028-.218a4.387,4.387,0,0,0,.57-.288c.071-.071.345-.064.379-.057a.829.829,0,0,0-.2-.527s-.26-.415.028-.422l.077-.1-.021-.056-.084-.647-.3.155-.5.16-.275-.147s-.428.478-.71.275l-.759.267a4.932,4.932,0,0,0-.546-.075,1.389,1.389,0,0,1-.084.38,1.269,1.269,0,0,1-.6.246,4.036,4.036,0,0,0-.5.563s-.577-.014-.6-.428l.028-.12s-.422-.141-.464-.141c0,0-.19-.112-.014-.345S35.922,399.568,35.971,399.476Z" transform="translate(-35.088 -396.182)" fill="#83bf6e"/></g></g><rect width="148" height="50" transform="translate(-15136 370)" fill="#fff" opacity="0"/></g></svg>