<svg xmlns="http://www.w3.org/2000/svg" width="148" height="50" viewBox="0 0 148 50"><g transform="translate(4880 -1501)"><rect width="148" height="50" transform="translate(-4880 1501)" fill="#fff" opacity="0"/><g transform="translate(-4918.615 853.015)"><g transform="translate(87.36 674.88)"><path d="M142.662,702.494l-.5.861a7.74,7.74,0,0,1-3.044-2.471v2.8h-.791v-2.513A9.014,9.014,0,0,1,135,703.355l-.121-.3a8.521,8.521,0,0,0,3.07-2.574h-1.935v-2.686h2.313v-.705h-3.139v-.473h3.139v-.981h.791v.981h3.2v.473h-3.2v.705h2.322v2.686h-2.159A8.746,8.746,0,0,0,142.662,702.494Zm-5.883-3.572h1.548v-.749h-1.548Zm0,1.17h1.548V699.3h-1.548Zm2.339-1.92v.749h1.565v-.749Zm1.565,1.128h-1.565v.791h1.565Z" transform="translate(-134.879 -695.556)" fill="#5b8224"/><path d="M154.787,699.921l-.611.465c-.215-.448-.421-.844-.611-1.2v4.433h-.739V699.55a7.973,7.973,0,0,1-1.282,2.187l-.224-.215a10.585,10.585,0,0,0,1.394-3.538h-1.221v-.4h1.333v-1.937h.739v1.937h1.1v.4h-1.1v.594A8.4,8.4,0,0,1,154.787,699.921Zm3.99-2.522v6.154H158V702.9h-2.348v.724h-.774V697.4h1.307a16.515,16.515,0,0,0,.318-1.851l.878.155a11.906,11.906,0,0,1-.809,1.7Zm-.774.387h-2.348v2.049H158Zm0,2.436h-2.348v2.29H158Z" transform="translate(-142.995 -695.514)" fill="#5b8224"/><path d="M168.728,699.233l-.456-.619a11.9,11.9,0,0,0,1.875-1.42l.224.189A9.924,9.924,0,0,1,168.728,699.233Zm2.373,2.9.636.611a11.345,11.345,0,0,1-3.371.869l-.078-.3A9.211,9.211,0,0,0,171.1,702.134ZM170,697a12.6,12.6,0,0,0-1.419-.947l.1-.293a7.485,7.485,0,0,1,1.745.577Zm-.654,1.971h5.341v3.133h-5.341Zm.757.921h3.827v-.534H170.1Zm0,.869h3.827v-.508H170.1Zm0,.956h3.827v-.593H170.1Zm.542-3.951-.206-.215a5.071,5.071,0,0,0,1.04-2.04l.714.2a3.8,3.8,0,0,1-.224.508h2.554l.2-.12.688.4a4.86,4.86,0,0,1-1.187,1.188l-.2-.207a4.516,4.516,0,0,0,.49-.87H173.38a3.6,3.6,0,0,1-.155.465,3.943,3.943,0,0,0,2.537,1.23l-.327.74a4.015,4.015,0,0,1-2.374-1.644,3.352,3.352,0,0,1-2.734,1.481l-.086-.293a2.786,2.786,0,0,0,2.33-1.98h-.834A4.6,4.6,0,0,1,170.646,697.77Zm1.909,4.441a19,19,0,0,1,3.2.62l-.344.834c-.731-.352-2.09-.852-2.933-1.136Z" transform="translate(-151.363 -695.497)" fill="#5b8224"/><path d="M187.889,697.552h-3.225v-.4h1.47c-.241-.465-.525-.964-.739-1.3l.224-.207a5.983,5.983,0,0,1,1.229,1.188l-.447.318h1.488Zm-2.932.878h2.648v.379h-2.648Zm0,1.154h2.648v.378h-2.648Zm0,1.231h2.648v2.694h-.679v-.465h-1.307v.594h-.662Zm.662,1.833h1.3V701.2h-1.3Zm6.036.921c-.92-.388-.989-2.3-.989-5.156V696.6h-1.178v2.669h.989v.387h-.989v4.02h-.774v-4.02h-.929v-.387h.929V696.6h-.937v-.387h3.646v2.212c0,2.729.172,4.08.361,4.218s.207-.146.189-1.412h.31C192.868,703.363,192.232,703.81,191.655,703.569Z" transform="translate(-159.454 -695.564)" fill="#5b8224"/><path d="M203.368,699.345v4.287h-.74v-3.745a7.417,7.417,0,0,1-1.375,2.144l-.215-.2a10.508,10.508,0,0,0,1.445-3.494h-1.29v-.387h1.436V696.7c-.472.086-.937.146-1.332.181l-.06-.293a8.485,8.485,0,0,0,2.743-1.076l.611.671a9.777,9.777,0,0,1-1.222.362v1.4h1.222v.387h-1.222v.508A9.151,9.151,0,0,1,204.7,700l-.611.568C203.919,700.231,203.635,699.766,203.368,699.345Zm4.317,1.447v2.754h-.757v-2.583c-.938.215-1.884.413-2.821.611l-.129-.387c.98-.2,1.969-.413,2.95-.637v-4.915h.757v4.743l1.015-.232.1.379Zm-2.9-2.247a6.2,6.2,0,0,1,1.582,1.282l-.653.577a11.79,11.79,0,0,0-1.144-1.635Zm1.127-.4a15.893,15.893,0,0,0-1.2-1.5l.189-.232a6.391,6.391,0,0,1,1.6,1.154Z" transform="translate(-167.537 -695.497)" fill="#5b8224"/><path d="M219.826,700.331v2.651c0,.663-.74,1.076-2.039.3l.086-.285c1.066.216,1.213.164,1.213-.266V700.7a9.751,9.751,0,0,1-1.075.4l-.258-.809c.464-.1.911-.207,1.333-.319v-1.842h-1.23v-.387h1.23v-2h.74v2h1.014v.387h-1.014v1.618c.274-.086.533-.172.8-.266l.12.292A8.873,8.873,0,0,1,219.826,700.331Zm5.237,3.331a5.743,5.743,0,0,1-2.158-1.231,6.055,6.055,0,0,1-2.615,1.274l-.1-.293a6.9,6.9,0,0,0,2.331-1.386,5.784,5.784,0,0,1-1.2-2.659h-.49v-.387h1.634v-1.42h-1.823v-.387h1.823v-1.42h.774v1.42h1.875v.387H223.24v1.42h.713l.232-.172.774.327a6.552,6.552,0,0,1-1.53,2.8,7.106,7.106,0,0,0,2.02.809Zm-3.431-4.3a4.388,4.388,0,0,0,1.316,2.212,5.14,5.14,0,0,0,1.083-2.212Z" transform="translate(-175.788 -695.614)" fill="#5b8224"/><path d="M235.2,703.31l.077-.284c1.006.147,1.1.1,1.1-.275v-2.04h-.929a6.172,6.172,0,0,1-.98,3.383l-.258-.164a11.8,11.8,0,0,0,.525-4.5v-3.065h2.382v6.576C237.118,703.7,236.421,703.879,235.2,703.31Zm1.178-4.493h-.9v.887c0,.215,0,.421-.009.62h.912Zm0-2.066h-.9v1.687h.9ZM241.607,704a5.03,5.03,0,0,1-2.09-1.127,5.932,5.932,0,0,1-2.6,1.162l-.1-.293a5.75,5.75,0,0,0,2.279-1.317,5.028,5.028,0,0,1-1-2.135h-.671V699.9h2.847l.181-.164.817.318a6.056,6.056,0,0,1-1.221,2.3,5.828,5.828,0,0,0,1.986.723Zm-4.17-4.208-.164-.267a2.675,2.675,0,0,0,.791-2.4v-.68h2.52v1.893c0,.258.06.336.482.336a.713.713,0,0,0,.6-.2l.31.56a1.346,1.346,0,0,1-1.058.284c-.955,0-1.075-.215-1.075-.835v-1.653H238.8v.413A2.433,2.433,0,0,1,237.436,699.79Zm.98.5a3.909,3.909,0,0,0,1.093,1.67,5.267,5.267,0,0,0,.843-1.67Z" transform="translate(-183.912 -695.916)" fill="#5b8224"/><path d="M252.656,697.751v5.9h-.74V699.12a6.088,6.088,0,0,1-.988,1.161l-.207-.224a9.873,9.873,0,0,0,1.686-4.424l.86.2A10.2,10.2,0,0,1,252.656,697.751Zm.352,1.971-.223-.215a7.3,7.3,0,0,0,1.359-3.185l.791.25A6.419,6.419,0,0,1,253.009,699.722Zm.6-.5h3.827c-.026,1.033-.12,2.573-.206,3.365-.1.93-1.024,1.248-2.27.413l.086-.284c1.2.275,1.325.18,1.393-.439a25.177,25.177,0,0,0,.155-2.668h-1.2c-.172,2.272-.921,3.228-2.348,4.037l-.189-.25a4.438,4.438,0,0,0,1.755-3.788h-1.006Zm5.031-.44-.576.809a4.836,4.836,0,0,1-1.858-3.167h-1.152v-.387h1.462A3.62,3.62,0,0,0,258.642,698.784Z" transform="translate(-192.062 -695.556)" fill="#5b8224"/><path d="M270.652,697.348a8.538,8.538,0,0,1-.576,1.076h3.947v4.226c0,.921-.911,1.179-2.339.422l.086-.3c1.273.2,1.462.164,1.462-.344v-.887h-3.122v2.04h-.791v-4.14a6.887,6.887,0,0,1-1.772,1.481l-.18-.259a8.309,8.309,0,0,0,2.434-3.314h-2.185v-.474h2.365a10.981,10.981,0,0,0,.4-1.395l.86.172a10.738,10.738,0,0,1-.379,1.222h4.111v.474Zm-.541,2.444h3.122v-.938h-3.122Zm0,1.361h3.122v-.973h-3.122Z" transform="translate(-200.279 -695.48)" fill="#5b8224"/><path d="M285.638,701.659l.086-.293c.765.189.886.121.886-.594a3.705,3.705,0,0,0-.636-1.919,10.607,10.607,0,0,0,.568-2.066h-.989v7.187h-.723v-7.746l.7.2h.929l.206-.164.791.336a10.6,10.6,0,0,1-1.187,2.229,3.4,3.4,0,0,1,1.075,2.135C287.366,702.064,286.609,702.443,285.638,701.659Zm6.552,1.532-.662.826a5.8,5.8,0,0,1-2.33-4.295h-.688v2.926c.464-.086.921-.181,1.29-.284l.1.284a12.056,12.056,0,0,1-2.932,1.093l-.189-.869c.284-.017.61-.052.955-.1v-6.291h3.646v3.245h-1.849a5.042,5.042,0,0,0,.645,1.7,6.514,6.514,0,0,0,1.049-1.334l.7.533a7.269,7.269,0,0,1-1.565,1.068A5.678,5.678,0,0,0,292.19,703.191Zm-3.681-5.293h2.1v-1.033h-2.1Zm0,1.437h2.1v-1.05h-2.1Z" transform="translate(-208.899 -695.849)" fill="#5b8224"/><path d="M300.568,701.085l-.181-.258a7.828,7.828,0,0,0,2.279-4.14l.912.362A8.245,8.245,0,0,1,300.568,701.085Zm7.035,2.471-.921.5c-.146-.387-.335-.817-.55-1.265a24.631,24.631,0,0,1-4.764.956l-.241-.981c.327,0,.689-.009,1.067-.017a13.988,13.988,0,0,0,1.479-3.6l.98.379a13.781,13.781,0,0,1-1.969,3.193c1.135-.052,2.356-.146,3.268-.275-.232-.448-.491-.9-.766-1.334l.258-.216A12.128,12.128,0,0,1,307.6,703.556Zm.7-3.46-.7.972a5.844,5.844,0,0,1-2.211-3.994h-1.384v-.387h1.7A4.566,4.566,0,0,0,308.308,700.1Z" transform="translate(-216.579 -696.076)" fill="#5b8224"/><path d="M324.495,696.7v6.37c0,1.042-.79,1.558-2.614.5l.1-.293c1.488.328,1.721.216,1.721-.473v-5.715h-5.771V696.7Zm-1.547,1.868h-4.713v-.387h4.713Zm-1.35,3.985v-.551h-2.141v.74H318.7v-3.159h3.655v2.97Zm0-.938v-1.644h-2.141v1.644Z" transform="translate(-225.24 -696.084)" fill="#5b8224"/></g><g transform="translate(38.615 653.748)"><path d="M84.108,697.367l.189.193a21.231,21.231,0,0,0-.586,5.376,15.42,15.42,0,0,0,1.273-1.605,13.385,13.385,0,0,0,1.082-1.859,8.321,8.321,0,0,0,.651-1.878h.89l-.357,5.708,1.081-.23v.56a4.006,4.006,0,0,0-2.3.646,27.744,27.744,0,0,0,.507-4.564,30.956,30.956,0,0,1-3.1,4.451H82.7l.34-5.9-1.011.243v-.5a4.271,4.271,0,0,0,1.049-.179A6.058,6.058,0,0,0,84.108,697.367Z" transform="translate(-60.046 -675.28)" fill="#5f5e5e"/><path d="M100,697.8v1.148a.765.765,0,0,0-.082-.017,1.173,1.173,0,0,0-.166-.01q-.674,0-1.422,1.61a14.665,14.665,0,0,0-.593,1.564q-.261.82-.421,1.483a6.191,6.191,0,0,0-.16.764h-.711l.314-5.734-1.352.273v-.549a5.2,5.2,0,0,0,1.185-.191,7.761,7.761,0,0,0,1.209-.412l-.18,3.444c.013-.031.114-.278.3-.74s.34-.826.456-1.089.232-.505.349-.724a2.342,2.342,0,0,1,.329-.492.936.936,0,0,1,.7-.357,1.094,1.094,0,0,1,.166.01A.605.605,0,0,1,100,697.8Z" transform="translate(-66.648 -675.46)" fill="#5f5e5e"/><path d="M107.363,693.055l-.2-.344.4-.274q.661-.412.918-.55a1.183,1.183,0,0,1,.571-.138,1.076,1.076,0,0,1,.881.414,2.374,2.374,0,0,1,.464.99,5.023,5.023,0,0,1,.131,1.12,5.667,5.667,0,0,1-.211,1.4,5.376,5.376,0,0,1-.593,1.385,3.36,3.36,0,0,1-.983,1.054,2.317,2.317,0,0,1-1.341.4,3.332,3.332,0,0,1-.931-.193,2.9,2.9,0,0,1-.8-.483l.247-4.048q.024-.339.07-1.176t.073-1.234q.027-.4.078-.87t.149-1.137q.194-1.152.359-1.864t.5-1.844h1.379v.352q-.064.037-.224.119a1.219,1.219,0,0,0-.255.167.554.554,0,0,0-.149.221q-.078.2-.359,1.505t-.515,2.883a21.7,21.7,0,0,0-.25,2.853l-.054,3.123a1.034,1.034,0,0,0,.383.811,1.314,1.314,0,0,0,.891.333,1.237,1.237,0,0,0,.888-.455,2.8,2.8,0,0,0,.563-1.078,4.711,4.711,0,0,0,.189-1.311,5.751,5.751,0,0,0-.258-1.817.948.948,0,0,0-.92-.771,1.373,1.373,0,0,0-.394.049,1.24,1.24,0,0,0-.329.161C107.61,692.886,107.49,692.968,107.363,693.055Z" transform="translate(-71.709 -669.504)" fill="#5f5e5e"/><path d="M116.327,702.159a9.766,9.766,0,0,1,.269-2.268,3.3,3.3,0,0,1,.96-1.647,2.9,2.9,0,0,1,1.979-.68,1,1,0,0,1,.827.412,2.635,2.635,0,0,1,.467,1.037,6.468,6.468,0,0,1,.161,1.3,7.01,7.01,0,0,1-.277,2.036,3.077,3.077,0,0,1-.92,1.47,2.463,2.463,0,0,1-1.677.558h-.259a2.192,2.192,0,0,1-.846-.25,1.224,1.224,0,0,1-.508-.653A3.785,3.785,0,0,1,116.327,702.159Zm1.052-.616a8.435,8.435,0,0,0,.068,1.15,1.81,1.81,0,0,0,.328.837,1,1,0,0,0,.779.39,1.182,1.182,0,0,0,1.142-.886,5.921,5.921,0,0,0,.342-2.132v-.193a4.933,4.933,0,0,0-.326-1.858,1.108,1.108,0,0,0-1.067-.8q-.455.023-.735.63a5.093,5.093,0,0,0-.4,1.4A12.965,12.965,0,0,0,117.379,701.544Z" transform="translate(-76.976 -675.377)" fill="#5f5e5e"/><path d="M39.7,657.8l1.09-.536a8.6,8.6,0,0,0,.848-.4l-.026-.554a.366.366,0,0,1,.424.009,4.462,4.462,0,0,0,.744-.389c.052-.087.06-.061.06-.061l.151.239.013.02s1.047-.485,1.1-.485,3.245-.623,3.306-.709c0,0,.19-.268.294-.234a.194.194,0,0,1,.113.165l.4-.034.5.233.208-.026a1.874,1.874,0,0,1,1.653-.311,2.7,2.7,0,0,0,.787-.017,5.136,5.136,0,0,1,2.908.276.258.258,0,0,0,.147.113l.182.017.069-.061a4.541,4.541,0,0,1,1.843.32,6.124,6.124,0,0,0,1.93.243s.13.173.268.173.164.06.164.06.216-.173.8.026c.044.017.8.268.848.268s.147-.181.528-.009c.329.182.407.043.407.043a1.665,1.665,0,0,0,.727.087,1.391,1.391,0,0,1,1.03.251l.389.052s.571-.286.77.19l.787.009a.465.465,0,0,1,.588.052l.216.044a.433.433,0,0,1,.528-.069l.787.147s.3-.338.536-.122l.822-.277s.346-.052.4-.2a.346.346,0,0,1,.372-.112l.372-.19s.1-.034.13.026l.225.122a.488.488,0,0,1,.675-.26v.026s-.069-.424.052-.458a.818.818,0,0,1,.346.034s.069-.2.147-.233a.384.384,0,0,0,.147-.433s.043-.112.138.026a1.238,1.238,0,0,0,.173.208l.069-.433a1.3,1.3,0,0,1-.19-.917s.571.744.666.727-.122-.45-.122-.45.225.311.338.268a.265.265,0,0,1,.337.234c.173.173.545.476.545.476l.208.45.147-.052.251.467s.753.554.606.943c0,0,.986.719.692,1.212l.251.9a.53.53,0,0,1,.4.337,1.56,1.56,0,0,0,.225.442l-.1.389a.69.69,0,0,1,.554.51s-.034.32-.536.165v.363h-.84l-.2.087.268.874.026.268-.061.744-.233.268-.485.329s0,.13-.233.182-1.2.26-1.2.26l-.839.363a.916.916,0,0,1-.7.243l-.761.268a5.086,5.086,0,0,0-1.091.2c-.389.147-.77.295-.977.182a13.785,13.785,0,0,1-2.475-.173l-.381.043s-.242.459-.8-.026l-.121.216-1.774-.536-.467.147a.632.632,0,0,1-.372-.2,4.931,4.931,0,0,0-.554.1,4.318,4.318,0,0,1-1.238-.364c-.329-.225-.441-.182-.441-.182s-.216.1.009.623a3.839,3.839,0,0,0,.026,1.15.481.481,0,0,1-.26.58c-.043,0-.883.389-.727,1.073,0,0-.112.77-.112,1.107a2.519,2.519,0,0,1-.26.952,2.128,2.128,0,0,0-.069.744c-.017.19-.181.312-.311.251a5.282,5.282,0,0,1,.173,2.025l.268.268-.719,1.4s-.121.009.2,1.981c0,0-.1,2.5-.415,4.552a2.343,2.343,0,0,1-1.956,2.034s-.441-.078-.891-1.445a2.135,2.135,0,0,1,.13-.4s0-.034-1.237-2.086a5.264,5.264,0,0,1-.6-1.834c.026-.069-.077-.6-.969-1.817a4.163,4.163,0,0,1-.563-1.168c0-.1.346-.233.1-.528-.329-.762-1.376-2.069-1.021-2.882a1.392,1.392,0,0,1,.623-.58l-.433-.814.424-.674.173.1-.06-.234.138-.078s-.173.5.156.225.225-.251.225-.251l-.138-.208s1.1-.891.951-1.644c0,0,.511.069.727-.692a2.355,2.355,0,0,0,1.35-.761l.121.1.017-.052.044.138.086-.19s.19.19.243.173.044-.311.709-.554a1.723,1.723,0,0,0,.736-.6s.675.753.935.753c.372.139.657-.389.657-.389s.3-.381.459-.337c0,0,.261.177.892-.06l.025-.01a4.2,4.2,0,0,0-.475-.225l-.147.043a3.541,3.541,0,0,0-.753-.415s-.26-.442-.459-.329l-.311.008s-.087-.121-.2.13-.19.1-.2,0a1.73,1.73,0,0,0-.069-.277s-.294-.286-.407-.268-.112.173-.112.173-.329-.268-.536-.139c0,0-.156-.207-.5.035,0,0,.156-.623-.259-.173a1.238,1.238,0,0,0-1.082-.354s-.286-.277-.4-.009-.026,0-.026,0-.891-.242-.978-.121c0,0,.017.268-.078.268a.635.635,0,0,1-.259-.13.335.335,0,0,0-.338-.32.341.341,0,0,1-.354-.294l-.1-.026s-.018.277-.208.216a.962.962,0,0,0-.155.208c-.052.1-.112.018-.2-.052a1.292,1.292,0,0,1-.165-.165l-.286-.026-.164-.4h-.173l-.061.493s-.709-.182-.917.155a.694.694,0,0,0-.6.234c-.078.043-.321.13-.321.13s-.026-.537-.19-.389c-.164.061-.329.338-.363.4,0,0-.217.268-.433-.1l-.354.311-.346-.087-.13-.13s-.364-.052-.4-.009c0,0-.156.251-.225.251s-.216-.2-.216-.2-.1.242-.182.233a.7.7,0,0,0-.268-.381l-.155-.225-.814.311s-.026.294-.1.294-.216-.208-.216-.208l-1.229.286-.069.052s-.268.035-.364.052-.06.078-.06.078-.537-.044-.511-.1.4-.009.45-.009c0,0-.182-.1-.13-.182s.1-.086.1-.086l-.069-.311.043-.078-.346-.4s-.052-.424.165-.234a1.759,1.759,0,0,0,.285.13c.026-.009.026-.087.026-.087l.2-.13.363.087.061-.052s.017-.3.208-.286a.14.14,0,0,1,.112.088.12.12,0,0,1,.009.024l-.233-.641s.009-.268.338-.043a2.076,2.076,0,0,1,.337.4l.225-.034s0-.2.061-.208a.566.566,0,0,1,.165.018l-.217-.459.035-.268a5.383,5.383,0,0,0,.7-.354c.087-.087.424-.078.467-.069a1.025,1.025,0,0,0-.243-.649s-.32-.51.035-.519l.1-.122-.026-.069-.1-.8-.372.19-.614.2-.337-.182s-.528.588-.874.338l-.935.329a6.048,6.048,0,0,0-.675-.1s-.052.441-.1.467a1.558,1.558,0,0,1-.735.3,4.962,4.962,0,0,0-.615.692s-.709-.017-.735-.528l.034-.147s-.519-.173-.571-.173c0,0-.233-.139-.017-.424S39.641,657.91,39.7,657.8Z" transform="translate(-38.615 -653.748)" fill="#d4d5d5"/></g><g transform="translate(46.676 687.057)"><path d="M55.619,720.462l-.276,0c-.1,0-.192.005-.289.01s-.189.011-.279.018-.17.015-.241.025a.6.6,0,0,0,.025-.162.679.679,0,0,0-.025-.157c.223.007.441.013.653.018s.43.008.654.008.441,0,.653-.008.43-.011.653-.018a.666.666,0,0,0-.026.163.572.572,0,0,0,.026.156c-.071-.01-.151-.018-.241-.025s-.182-.013-.279-.018-.192-.008-.289-.01l-.276,0q-.015.522-.015,1.048v.871c0,.223,0,.443.012.658s.018.429.028.638q-.117-.01-.248-.01c-.088,0-.171,0-.249.01.01-.209.019-.422.028-.638s.013-.435.013-.658v-.871Q55.634,720.984,55.619,720.462Z" transform="translate(-54.535 -719.86)" fill="#5b8224"/><path d="M59.245,723.551a1.482,1.482,0,0,1,.3-.977,1.062,1.062,0,0,1,.863-.354,1.168,1.168,0,0,1,.463.084.975.975,0,0,1,.327.223.885.885,0,0,1,.195.327,1.247,1.247,0,0,1,.063.4c0,.034,0,.067,0,.1s0,.065-.008.1l-.542-.01c-.179,0-.36-.005-.542-.005q-.167,0-.332.005l-.331.01a.4.4,0,0,0-.005.076v.066a1.141,1.141,0,0,0,.058.37.845.845,0,0,0,.169.3.824.824,0,0,0,.274.2.9.9,0,0,0,.375.073.806.806,0,0,0,.208-.028,1.162,1.162,0,0,0,.208-.076,1.124,1.124,0,0,0,.19-.114.973.973,0,0,0,.154-.142l.025.015-.03.248a1.39,1.39,0,0,1-.377.208,1.307,1.307,0,0,1-.468.086,1.427,1.427,0,0,1-.5-.083,1.09,1.09,0,0,1-.643-.62A1.234,1.234,0,0,1,59.245,723.551Zm1.17-1.17a.559.559,0,0,0-.316.086.732.732,0,0,0-.213.215,1.032,1.032,0,0,0-.127.284,1.472,1.472,0,0,0-.053.292l.327.01c.113,0,.223.005.331.005s.225,0,.34-.005l.334-.01a1.947,1.947,0,0,0-.022-.289.9.9,0,0,0-.091-.284.606.606,0,0,0-.19-.218A.542.542,0,0,0,60.415,722.381Z" transform="translate(-56.86 -720.857)" fill="#5b8224"/><path d="M64.316,723.48a1.332,1.332,0,0,1,.111-.567,1.133,1.133,0,0,1,.7-.62,1.588,1.588,0,0,1,.476-.073,1.68,1.68,0,0,1,.5.068.876.876,0,0,1,.316.154,1.4,1.4,0,0,0-.063.159,1.761,1.761,0,0,0-.048.175h-.041a.733.733,0,0,0-.1-.134.811.811,0,0,0-.145-.127.838.838,0,0,0-.184-.1.631.631,0,0,0-.223-.038.86.86,0,0,0-.393.084.73.73,0,0,0-.268.23,1.007,1.007,0,0,0-.152.347,1.887,1.887,0,0,0-.048.433,1.2,1.2,0,0,0,.223.788.9.9,0,0,0,.861.238,1.129,1.129,0,0,0,.207-.076,1.085,1.085,0,0,0,.19-.114.935.935,0,0,0,.155-.142l.025.015a1.55,1.55,0,0,0-.031.248,1.387,1.387,0,0,1-.377.208,1.306,1.306,0,0,1-.469.086,1.586,1.586,0,0,1-.437-.063,1.071,1.071,0,0,1-.4-.213,1.085,1.085,0,0,1-.286-.387A1.391,1.391,0,0,1,64.316,723.48Z" transform="translate(-59.363 -720.857)" fill="#5b8224"/><path d="M69.513,720.613c0-.135,0-.268-.008-.4s-.008-.257-.013-.377-.011-.222-.018-.306a1.038,1.038,0,0,0,.456,0q-.01.126-.018.3t-.013.372c0,.13-.006.261-.008.392s0,.253,0,.365v.385h.01a1.049,1.049,0,0,1,.339-.337.9.9,0,0,1,.471-.119,1.06,1.06,0,0,1,.286.041.689.689,0,0,1,.261.139.712.712,0,0,1,.19.268,1.093,1.093,0,0,1,.073.433q0,.218-.01.448t-.01.489v.329c0,.054,0,.107,0,.159s0,.1.008.149q-.1-.01-.213-.01c-.071,0-.14,0-.208.01.007-.175.015-.356.023-.542s.013-.376.013-.572v-.309a.951.951,0,0,0-.146-.575.481.481,0,0,0-.406-.195.609.609,0,0,0-.519.218,1,1,0,0,0-.165.613q0,.141,0,.329c0,.125,0,.251.008.377s.008.249.013.367.011.215.018.289q-.116-.01-.228-.01c-.074,0-.15,0-.228.01.007-.078.013-.175.018-.294s.01-.243.013-.375.006-.265.008-.4,0-.26,0-.375v-.917C69.516,720.873,69.515,720.748,69.513,720.613Z" transform="translate(-61.91 -719.529)" fill="#5b8224"/><path d="M76.539,722.677a.48.48,0,0,0-.406-.195.608.608,0,0,0-.519.218,1,1,0,0,0-.165.613v.43q0,.228.007.479c.006.167.017.319.033.453-.077-.007-.154-.01-.228-.01s-.15,0-.228.01c.017-.135.028-.286.033-.453s.008-.327.008-.479v-.527q0-.228-.008-.479c-.005-.167-.016-.324-.033-.468a1.325,1.325,0,0,0,.228.025.572.572,0,0,0,.088-.008l.114-.018q-.015.2-.015.405h.01a1.054,1.054,0,0,1,.339-.337.9.9,0,0,1,.471-.119,1.056,1.056,0,0,1,.286.041.686.686,0,0,1,.261.139.722.722,0,0,1,.19.268,1.094,1.094,0,0,1,.073.433q0,.218-.01.448t-.011.489v.329c0,.054,0,.107,0,.159s0,.1.008.149c-.068-.007-.138-.01-.213-.01s-.14,0-.208.01q.01-.263.023-.542t.012-.572v-.309A.948.948,0,0,0,76.539,722.677Z" transform="translate(-64.654 -720.857)" fill="#5b8224"/><path d="M80.185,723.48a1.409,1.409,0,0,1,.109-.585,1.073,1.073,0,0,1,.286-.39,1.138,1.138,0,0,1,.4-.218,1.447,1.447,0,0,1,.879,0,1.138,1.138,0,0,1,.394.218,1.08,1.08,0,0,1,.286.39,1.626,1.626,0,0,1,0,1.17,1.085,1.085,0,0,1-.286.39,1.038,1.038,0,0,1-.394.21,1.622,1.622,0,0,1-.879,0,1.039,1.039,0,0,1-.4-.21,1.078,1.078,0,0,1-.286-.39A1.408,1.408,0,0,1,80.185,723.48Zm.446,0a2.179,2.179,0,0,0,.037.411,1.117,1.117,0,0,0,.129.351.689.689,0,0,0,.243.246.815.815,0,0,0,.749,0,.689.689,0,0,0,.243-.246,1.093,1.093,0,0,0,.129-.351,2.236,2.236,0,0,0,0-.821,1.091,1.091,0,0,0-.129-.352.693.693,0,0,0-.243-.246.815.815,0,0,0-.749,0,.693.693,0,0,0-.243.246,1.115,1.115,0,0,0-.129.352A2.169,2.169,0,0,0,80.631,723.48Z" transform="translate(-67.197 -720.857)" fill="#5b8224"/><path d="M86.373,720.613q0-.2-.007-.4c0-.132-.008-.257-.013-.377s-.011-.222-.017-.306a1.038,1.038,0,0,0,.456,0c-.007.084-.013.186-.018.306s-.009.246-.012.377-.006.265-.008.4,0,.26,0,.375v.917c0,.115,0,.24,0,.375s0,.268.008.4.008.257.012.375.011.216.018.294c-.078-.007-.154-.01-.228-.01s-.149,0-.227.01c.007-.078.013-.175.017-.294s.01-.243.013-.375.006-.265.007-.4,0-.26,0-.375v-.917C86.376,720.873,86.375,720.748,86.373,720.613Z" transform="translate(-70.233 -719.529)" fill="#5b8224"/><path d="M88.525,723.48a1.409,1.409,0,0,1,.109-.585,1.073,1.073,0,0,1,.286-.39,1.134,1.134,0,0,1,.4-.218,1.446,1.446,0,0,1,.879,0,1.14,1.14,0,0,1,.395.218,1.08,1.08,0,0,1,.286.39,1.625,1.625,0,0,1,0,1.17,1.085,1.085,0,0,1-.286.39,1.04,1.04,0,0,1-.395.21,1.621,1.621,0,0,1-.879,0,1.035,1.035,0,0,1-.4-.21,1.078,1.078,0,0,1-.286-.39A1.408,1.408,0,0,1,88.525,723.48Zm.446,0a2.178,2.178,0,0,0,.037.411,1.117,1.117,0,0,0,.129.351.689.689,0,0,0,.243.246.816.816,0,0,0,.749,0,.689.689,0,0,0,.243-.246,1.093,1.093,0,0,0,.129-.351,2.238,2.238,0,0,0,0-.821,1.091,1.091,0,0,0-.129-.352.693.693,0,0,0-.243-.246.816.816,0,0,0-.749,0,.693.693,0,0,0-.243.246,1.115,1.115,0,0,0-.129.352A2.169,2.169,0,0,0,88.971,723.48Z" transform="translate(-71.313 -720.857)" fill="#5b8224"/><path d="M94.152,723.044a.817.817,0,0,1,.076-.367.708.708,0,0,1,.21-.256.937.937,0,0,1,.308-.152,1.351,1.351,0,0,1,.373-.051c.064,0,.126,0,.185.005l.225.015.208.015c.061,0,.109.005.147.005a2.352,2.352,0,0,0,.41-.025.536.536,0,0,0-.008.053c0,.019,0,.036,0,.053s0,.034,0,.053a.535.535,0,0,0,.008.053c-.1-.007-.193-.014-.286-.023s-.185-.014-.276-.018l-.011.01a.631.631,0,0,1,.253.266.779.779,0,0,1,.1.372.737.737,0,0,1-.256.595,1.033,1.033,0,0,1-.687.215c-.047,0-.093,0-.139-.005s-.092-.005-.139-.005a.257.257,0,0,0-.17.066.208.208,0,0,0-.079.167.257.257,0,0,0,.063.192.362.362,0,0,0,.236.066c.095,0,.187.006.278.007l.279.008a1.476,1.476,0,0,1,.4.056.774.774,0,0,1,.268.137.529.529,0,0,1,.152.2.616.616,0,0,1,.048.243,1.018,1.018,0,0,1-.068.36.947.947,0,0,1-.213.329,1.143,1.143,0,0,1-.372.243,1.4,1.4,0,0,1-.547.1,1.35,1.35,0,0,1-.775-.195.615.615,0,0,1-.283-.534.609.609,0,0,1,.048-.243.744.744,0,0,1,.125-.2.6.6,0,0,1,.172-.137.868.868,0,0,1,.2-.076v-.01a.444.444,0,0,1-.238-.152.408.408,0,0,1-.081-.253.371.371,0,0,1,.033-.157.483.483,0,0,1,.084-.127.423.423,0,0,1,.116-.091.415.415,0,0,1,.127-.046v-.01a.853.853,0,0,1-.365-.286A.783.783,0,0,1,94.152,723.044Zm1.8,2.167a.479.479,0,0,0-.177-.425,1.074,1.074,0,0,0-.587-.121,1.153,1.153,0,0,0-.587.124.478.478,0,0,0-.208.448.666.666,0,0,0,.059.294.532.532,0,0,0,.156.2.652.652,0,0,0,.236.112,1.161,1.161,0,0,0,.294.035,1.129,1.129,0,0,0,.3-.041.823.823,0,0,0,.261-.122.636.636,0,0,0,.185-.205A.589.589,0,0,0,95.949,725.212Zm-.273-2.193a.7.7,0,0,0-.151-.486.572.572,0,0,0-.825.018.753.753,0,0,0-.152.494.819.819,0,0,0,.139.5.538.538,0,0,0,.856-.03.708.708,0,0,0,.1-.228A1.1,1.1,0,0,0,95.676,723.019Z" transform="translate(-74.049 -720.857)" fill="#5b8224"/><path d="M99.616,720.327a.258.258,0,0,1,.441-.182.258.258,0,1,1-.365.365A.247.247,0,0,1,99.616,720.327Zm.07,1.828q0-.228-.007-.479t-.033-.469a1.028,1.028,0,0,0,.455,0q-.025.217-.032.469t-.008.479v.527q0,.228.008.479t.032.453c-.077-.007-.153-.01-.228-.01s-.15,0-.227.01q.025-.2.033-.453t.007-.479Z" transform="translate(-76.788 -719.796)" fill="#5b8224"/><path d="M101.866,723.551a1.482,1.482,0,0,1,.3-.977,1.062,1.062,0,0,1,.864-.354,1.172,1.172,0,0,1,.463.084.978.978,0,0,1,.327.223.885.885,0,0,1,.195.327,1.247,1.247,0,0,1,.063.4c0,.034,0,.067,0,.1s0,.065-.008.1l-.542-.01q-.268-.005-.542-.005-.167,0-.332.005l-.331.01a.405.405,0,0,0-.005.076v.066a1.141,1.141,0,0,0,.058.37.838.838,0,0,0,.17.3.816.816,0,0,0,.273.2.907.907,0,0,0,.375.073.806.806,0,0,0,.208-.028,1.161,1.161,0,0,0,.208-.076,1.123,1.123,0,0,0,.19-.114.972.972,0,0,0,.154-.142l.025.015-.03.248a1.39,1.39,0,0,1-.377.208,1.305,1.305,0,0,1-.468.086,1.427,1.427,0,0,1-.5-.083,1.09,1.09,0,0,1-.643-.62A1.234,1.234,0,0,1,101.866,723.551Zm1.17-1.17a.559.559,0,0,0-.316.086.738.738,0,0,0-.213.215,1.032,1.032,0,0,0-.127.284,1.51,1.51,0,0,0-.053.292l.327.01c.113,0,.224.005.331.005s.225,0,.34-.005l.334-.01a1.95,1.95,0,0,0-.023-.289.9.9,0,0,0-.091-.284.606.606,0,0,0-.19-.218A.542.542,0,0,0,103.036,722.381Z" transform="translate(-77.899 -720.857)" fill="#5b8224"/><path d="M107.151,724.315a.738.738,0,0,0,.127.114.7.7,0,0,0,.167.089.557.557,0,0,0,.2.035.58.58,0,0,0,.185-.03.517.517,0,0,0,.157-.087.4.4,0,0,0,.109-.142.46.46,0,0,0,.04-.2.314.314,0,0,0-.088-.24.7.7,0,0,0-.22-.137,2.383,2.383,0,0,0-.289-.094,1.229,1.229,0,0,1-.289-.114.677.677,0,0,1-.22-.2.556.556,0,0,1-.089-.334.822.822,0,0,1,.055-.306.674.674,0,0,1,.163-.241.758.758,0,0,1,.263-.159,1.038,1.038,0,0,1,.36-.058.879.879,0,0,1,.316.051c.086.034.168.064.246.091a1.125,1.125,0,0,0-.076.187,1.3,1.3,0,0,0-.046.172h-.061A.481.481,0,0,0,108,722.5a.437.437,0,0,0-.289-.1.467.467,0,0,0-.152.025.43.43,0,0,0-.137.076.4.4,0,0,0-.1.132.421.421,0,0,0-.041.192.337.337,0,0,0,.089.251.614.614,0,0,0,.22.139,2.326,2.326,0,0,0,.288.089,1.266,1.266,0,0,1,.289.106.626.626,0,0,1,.22.19.556.556,0,0,1,.089.334.7.7,0,0,1-.063.289.818.818,0,0,1-.182.256.833.833,0,0,1-.286.177,1.071,1.071,0,0,1-.38.063,1.42,1.42,0,0,1-.39-.046,1.2,1.2,0,0,1-.263-.106,1.383,1.383,0,0,0,.063-.18.715.715,0,0,0,.033-.19h.061A.537.537,0,0,0,107.151,724.315Z" transform="translate(-80.392 -720.857)" fill="#5b8224"/><path d="M116.363,723.495a1.386,1.386,0,0,1-.239.086q-.138.038-.311.068a2.059,2.059,0,0,1-.36.03,2.3,2.3,0,0,1-.739-.114,1.553,1.553,0,0,1-.585-.347,1.637,1.637,0,0,1-.385-.57,2.182,2.182,0,0,1,0-1.534,1.592,1.592,0,0,1,.39-.57,1.678,1.678,0,0,1,.6-.354,2.329,2.329,0,0,1,.77-.122,2.539,2.539,0,0,1,.61.068,2.863,2.863,0,0,1,.489.165.652.652,0,0,0-.066.192c-.017.081-.03.148-.041.2l-.03.01a1.127,1.127,0,0,0-.142-.137,1.5,1.5,0,0,0-.213-.146,1.353,1.353,0,0,0-.273-.12,1.107,1.107,0,0,0-.334-.048,1.567,1.567,0,0,0-.554.1,1.184,1.184,0,0,0-.446.3,1.386,1.386,0,0,0-.3.506,2.536,2.536,0,0,0,0,1.453,1.386,1.386,0,0,0,.3.506,1.172,1.172,0,0,0,.446.3,1.555,1.555,0,0,0,.554.1,1.2,1.2,0,0,0,.337-.045,1.825,1.825,0,0,0,.283-.109,1.609,1.609,0,0,0,.233-.137c.069-.049.127-.092.175-.129l.02.02-.046.3A.658.658,0,0,1,116.363,723.495Z" transform="translate(-83.694 -719.796)" fill="#5b8224"/><path d="M120.276,721.882a1.985,1.985,0,0,1,.139-.767,1.592,1.592,0,0,1,.39-.57,1.678,1.678,0,0,1,.6-.354,2.479,2.479,0,0,1,1.534,0,1.68,1.68,0,0,1,.6.354,1.6,1.6,0,0,1,.39.57,2.182,2.182,0,0,1,0,1.534,1.561,1.561,0,0,1-.99.917,2.638,2.638,0,0,1-1.534,0,1.562,1.562,0,0,1-.99-.917A1.985,1.985,0,0,1,120.276,721.882Zm3.3,0a2.208,2.208,0,0,0-.106-.727,1.378,1.378,0,0,0-.3-.506,1.184,1.184,0,0,0-.446-.3,1.571,1.571,0,0,0-.554-.1,1.553,1.553,0,0,0-.549.1,1.184,1.184,0,0,0-.446.3,1.386,1.386,0,0,0-.3.506,2.536,2.536,0,0,0,0,1.453,1.386,1.386,0,0,0,.3.506,1.172,1.172,0,0,0,.446.3,1.541,1.541,0,0,0,.549.1,1.559,1.559,0,0,0,.554-.1,1.172,1.172,0,0,0,.446-.3,1.378,1.378,0,0,0,.3-.506A2.208,2.208,0,0,0,123.572,721.882Z" transform="translate(-86.987 -719.796)" fill="#5b8224"/><path d="M128.706,725.982a.183.183,0,0,1,.151-.063.227.227,0,0,1,.124.041.145.145,0,0,1,.063.132.248.248,0,0,1-.025.111l-.051.1-.633,1.059-.092-.036.39-1.215A.39.39,0,0,1,128.706,725.982Z" transform="translate(-90.92 -722.683)" fill="#5b8224"/><path d="M131.545,726.318a.289.289,0,0,1,.577,0,.253.253,0,0,1-.086.195.3.3,0,0,1-.405,0A.253.253,0,0,1,131.545,726.318Z" transform="translate(-92.549 -722.738)" fill="#5b8224"/><path d="M137.214,720.855q-.013-.322-.028-.656c.044.007.086.013.127.018a.975.975,0,0,0,.243,0c.041-.005.083-.011.127-.018-.01.223-.019.441-.027.656s-.013.433-.013.656q0,.638.005,1.106t.011.838q.359,0,.689-.008a6.609,6.609,0,0,0,.708-.058.6.6,0,0,0-.025.152.479.479,0,0,0,.025.137q-.232-.01-.466-.01h-.934c-.15,0-.307,0-.468.01.01-.209.019-.422.028-.638s.013-.435.013-.658v-.871Q137.227,721.176,137.214,720.855Z" transform="translate(-95.334 -719.86)" fill="#5b8224"/><path d="M141.649,720.462l-.276,0c-.1,0-.192.005-.289.01s-.189.011-.279.018-.17.015-.24.025a.619.619,0,0,0,.025-.162.709.709,0,0,0-.025-.157c.222.007.441.013.653.018s.43.008.653.008.441,0,.653-.008.43-.011.653-.018a.692.692,0,0,0-.026.163.592.592,0,0,0,.026.156c-.071-.01-.151-.018-.241-.025s-.182-.013-.279-.018-.192-.008-.289-.01l-.276,0q-.014.522-.015,1.048v.871q0,.334.012.658c.009.216.018.429.028.638q-.116-.01-.248-.01c-.088,0-.171,0-.248.01.01-.209.019-.422.027-.638s.013-.435.013-.658v-.871Q141.665,720.984,141.649,720.462Z" transform="translate(-97.002 -719.86)" fill="#5b8224"/><path d="M146.866,721.51q0-.334-.013-.656t-.028-.656c.128.007.256.013.382.018s.254.008.382.008.256,0,.382-.013.254-.013.382-.013a2.206,2.206,0,0,1,.762.116,1.326,1.326,0,0,1,.519.332,1.3,1.3,0,0,1,.3.527,2.439,2.439,0,0,1,.094.7,1.877,1.877,0,0,1-.175.853,1.625,1.625,0,0,1-.446.56,1.676,1.676,0,0,1-.6.3,2.406,2.406,0,0,1-.626.088c-.114,0-.228,0-.339-.005s-.224-.005-.339-.005h-.339q-.167,0-.339.01c.01-.209.02-.422.028-.638s.013-.435.013-.658Zm.415.871q0,.547.03,1.074a1.927,1.927,0,0,0,.289.038q.182.013.375.013a2.407,2.407,0,0,0,.557-.066,1.2,1.2,0,0,0,.5-.248,1.328,1.328,0,0,0,.36-.5,2.467,2.467,0,0,0,.03-1.542,1.1,1.1,0,0,0-.3-.448,1.059,1.059,0,0,0-.453-.228,2.472,2.472,0,0,0-.577-.063q-.228,0-.425.015t-.354.035q-.015.243-.022.509t-.008.539Z" transform="translate(-100.092 -719.86)" fill="#5b8224"/></g></g></g></svg>