<svg xmlns="http://www.w3.org/2000/svg" width="148" height="50" viewBox="0 0 148 50"><g transform="translate(4880 -1563)"><rect width="148" height="50" transform="translate(-4880 1563)" fill="#fff" opacity="0"/><g transform="translate(1.796 6.752)"><g transform="translate(-4848.015 1571.862)"><path d="M2.857-31.553v.51h4.2v-.51H5.451v-2.005H7.343v-.51H5.451V-35.8h-1v1.734H2.562v.51H4.454v2.005ZM9.2-33.513H7.638v5.676h4.249v-5.676H9.745a13.283,13.283,0,0,0,.793-1.235h1.994v-.51H7.343v.51H9.417C9.372-34.385,9.292-33.909,9.2-33.513Zm1.734,1.688H8.59V-33h2.345Zm0,1.711H8.59v-1.2h2.345Zm-4.226.091H3.174v4.328h.974v-.793H6.709Zm4.226,1.677H8.59V-29.6h2.345ZM5.757-27H4.148v-2.515H5.757Zm.34,1.439.159.374a8.29,8.29,0,0,0,3.376-1.734l-.906-.668A6.484,6.484,0,0,1,6.1-25.559Zm3.966-2.017-.193.363a25.179,25.179,0,0,1,2.107,1.983l.7-.929A10.154,10.154,0,0,0,10.063-27.576Zm9.37-6.911.374-.793a12.2,12.2,0,0,0-2.7-.634l-.113.4c.555.261,1.394.68,2.028,1.031H13.8v.567H23.908v-.567Zm2.538,1.2H15.864v2.141h6.107Zm-1,1.632H16.861v-1.122h4.113Zm.7,1.088-.487.125H15.025v.51h5.926a8.4,8.4,0,0,1-1.507.974l-.986-.193v2.481c0,.6-.249.7-2.1.431l-.113.385c1.994.986,3.274.646,3.274-.465V-28.55a11.771,11.771,0,0,0,3.014-1.258Zm8.158-3.966h1.1a3.668,3.668,0,0,1-3.071,2.606l.113.385a4.417,4.417,0,0,0,3.6-1.949,5.294,5.294,0,0,0,3.127,2.164l.431-.974a5.2,5.2,0,0,1-3.342-1.62,4.841,4.841,0,0,0,.2-.612h1.5a5.915,5.915,0,0,1-.646,1.144l.261.272a6.4,6.4,0,0,0,1.564-1.564l-.906-.521-.261.159H30.14a4.993,4.993,0,0,0,.295-.668l-.94-.261a6.667,6.667,0,0,1-1.371,2.685L28.4-33A6.053,6.053,0,0,0,29.834-34.532Zm-1.722-.351a9.875,9.875,0,0,0-2.3-.759l-.136.385a16.588,16.588,0,0,1,1.87,1.246Zm-.079,1.371-.295-.249a15.679,15.679,0,0,1-2.47,1.87l.6.816A13.068,13.068,0,0,0,28.033-33.513Zm-1.348,6.22H33.72v-4.124H26.684Zm1-3.614h5.042v.7H27.681Zm0,1.178h5.042v.668H27.681Zm0,1.144h5.042v.782H27.681Zm-2.391,2.878.1.4a14.958,14.958,0,0,0,4.441-1.144l-.838-.8A12.122,12.122,0,0,1,25.291-25.706Zm5.518-1.031c1.11.374,2.9,1.031,3.864,1.5l.453-1.1a25.057,25.057,0,0,0-4.215-.816ZM40.734-33.9h-1.96l.589-.419a7.869,7.869,0,0,0-1.62-1.564l-.295.272c.283.442.657,1.1.974,1.711H36.485v.521h4.249Zm5.79,5.359h-.408c.023,1.666-.011,2.028-.249,1.858s-.476-1.96-.476-5.552v-2.912h-4.8v.51h1.235v3.512H40.6v.51h1.224v5.291h1.02v-5.291h1.3v-.51h-1.3v-3.512h1.552v2.391c0,3.762.091,6.277,1.3,6.787C46.456-25.14,47.294-25.729,46.524-28.539ZM36.87-31.722h3.49v-.5H36.87Zm0,1.518h3.49v-.5H36.87Zm0,4.838h.872v-.782h1.722v.612h.9v-3.546H36.87Zm.872-3.206h1.711v1.9H37.743Zm13.812,1.824V-35.4H48.416v4.034c0,2.855-.079,4.34-.691,5.926l.34.215a8.111,8.111,0,0,0,1.292-4.453H50.58V-27c0,.5-.125.555-1.45.363l-.1.374C50.637-25.513,51.554-25.751,51.554-26.748Zm2.221-7.5v-.544h1.371v2.175c0,.816.159,1.1,1.416,1.1a1.775,1.775,0,0,0,1.394-.374l-.408-.736a.943.943,0,0,1-.793.261c-.555,0-.634-.1-.634-.442V-35.3H52.8v.9c0,1.462-.045,2.232-1.042,3.161l.215.351C53.333-31.632,53.775-32.516,53.775-34.249Zm-3.2,1.575H49.39v-2.221h1.19Zm0,2.481h-1.2c.011-.261.011-.533.011-.816v-1.167h1.19Zm7.455,3.626a7.692,7.692,0,0,1-2.617-.952,7.978,7.978,0,0,0,1.609-3.025l-1.076-.419-.238.215h-3.75v.51h.884a6.6,6.6,0,0,0,1.314,2.81,7.582,7.582,0,0,1-3,1.734l.136.385a7.825,7.825,0,0,0,3.422-1.53,6.63,6.63,0,0,0,2.753,1.484Zm-2.221-3.671a6.922,6.922,0,0,1-1.11,2.2,5.138,5.138,0,0,1-1.439-2.2Zm6.56-5.393-1.133-.261a12.988,12.988,0,0,1-2.221,5.824l.272.295a8.028,8.028,0,0,0,1.3-1.53v5.96h.974V-33.1A13.442,13.442,0,0,0,62.375-35.631Zm4.283.272H64.731v.51H66.25A6.363,6.363,0,0,0,68.7-30.68l.759-1.065A4.766,4.766,0,0,1,66.658-35.36Zm-2.085.7-1.042-.329a9.605,9.605,0,0,1-1.79,4.192l.295.283A8.448,8.448,0,0,0,64.573-34.657Zm-1.745,4h1.326c-.147,2.617-.827,3.8-2.311,4.985l.249.329c1.881-1.065,2.867-2.323,3.093-5.314H66.76a33.125,33.125,0,0,1-.2,3.512c-.091.816-.261.94-1.836.578l-.113.374c1.643,1.1,2.855.68,2.991-.544.113-1.042.238-3.071.272-4.43H62.828Zm17.6-2.878v-.623H75.008a14.014,14.014,0,0,0,.5-1.609l-1.133-.227a14.466,14.466,0,0,1-.521,1.836H70.736v.623h2.878a10.937,10.937,0,0,1-3.206,4.362l.238.34a9.059,9.059,0,0,0,2.334-1.949v5.45h1.042v-2.685h4.113v1.167c0,.668-.249.714-1.926.453L76.1-26c1.881,1,3.082.657,3.082-.555v-5.563h-5.2a11.233,11.233,0,0,0,.759-1.416Zm-6.4,1.983h4.113v1.235H74.022Zm0,1.745h4.113v1.28H74.022Zm11.625.544a4.472,4.472,0,0,0-1.416-2.81,13.955,13.955,0,0,0,1.564-2.935l-1.042-.442-.272.215H83.256l-.918-.261v10.2h.952v-9.461h1.3a13.871,13.871,0,0,1-.748,2.719,4.875,4.875,0,0,1,.838,2.527c0,.94-.159,1.031-1.167.782l-.113.385C84.684-27.315,85.681-27.814,85.647-29.264Zm3.977.952a9.583,9.583,0,0,0,2.062-1.4l-.918-.7a8.609,8.609,0,0,1-1.382,1.756,6.657,6.657,0,0,1-.85-2.232h2.436v-4.272h-4.8v8.282c-.453.068-.884.113-1.258.136L85.16-25.6a15.944,15.944,0,0,0,3.864-1.439l-.136-.374c-.487.136-1.088.261-1.7.374V-30.9h.906a7.635,7.635,0,0,0,3.071,5.654l.872-1.088A7.483,7.483,0,0,1,89.624-28.312Zm-2.436-6.345h2.765v1.36H87.188Zm0,1.87h2.765v1.382H87.188ZM97.2-34.714,96-35.19a10.312,10.312,0,0,1-3,5.45l.238.34A10.861,10.861,0,0,0,97.2-34.714Zm2.81-.476H97.771v.51h1.824a7.7,7.7,0,0,0,2.912,5.257l.929-1.28A6.011,6.011,0,0,1,100.014-35.19Zm-.351,5.541-.34.283c.363.567.7,1.167,1.008,1.756-1.2.17-2.81.295-4.306.363a18.127,18.127,0,0,0,2.595-4.2l-1.292-.5a18.411,18.411,0,0,1-1.949,4.736c-.5.011-.974.023-1.4.023l.317,1.292a32.431,32.431,0,0,0,6.277-1.258c.283.589.533,1.156.725,1.666l1.212-.657A15.959,15.959,0,0,0,99.663-29.649Zm5.325-5.529v.51h7.6v7.523c0,.906-.306,1.054-2.266.623l-.136.385c2.4,1.394,3.444.714,3.444-.657v-8.384Zm6.606,1.949h-6.209v.51h6.209Zm-.782,5.756v-3.909H106v4.158h1V-28.2h2.821v.725Zm-3.818-1.235v-2.164h2.821v2.164Z" transform="translate(-1.949 35.994)" fill="#282d3c"/><path d="M2.483-18.053H3.3v3.134a1.571,1.571,0,0,1-.492,1.2,1.7,1.7,0,0,1-1.217.453,1.747,1.747,0,0,1-.7-.142,1.538,1.538,0,0,1-.557-.4l-.045-.045.363-.285.039.045a1.153,1.153,0,0,0,.9.421.881.881,0,0,0,.66-.227,1.175,1.175,0,0,0,.233-.868v-3.289Zm1.787.006H5.1V-13.3H4.27Zm2.667,2.24v2.078H9.495l-.317.427H6.121v-4.746H9.572l-.4.414H6.937v1.418H9.469l-.33.408Zm10.443-2.247h.065V-13.3h-.829v-1.916H14.13V-13.3H13.3v-4.752h.835v2.428h2.486l-.006-2.428h.77Zm1.91,2.247v2.078h2.557l-.317.427H18.475v-4.746h3.451l-.4.414H19.291v1.418h2.532l-.33.408Zm6.979-2.24h.408V-13.3h-.511l-3.172-3.412L22.987-13.3H22.58v-4.746h.388l3.3,3.535Zm3.7,2.331h1.891v2.389h-.829v-.3a1.585,1.585,0,0,1-1.12.395,2.419,2.419,0,0,1-.932-.185,2.392,2.392,0,0,1-.77-.5,2.385,2.385,0,0,1-.515-.751,2.241,2.241,0,0,1-.191-.913,2.834,2.834,0,0,1,.207-1.1,2.226,2.226,0,0,1,.55-.806,2.459,2.459,0,0,1,.77-.476,2.423,2.423,0,0,1,.881-.165,2.192,2.192,0,0,1,.945.214,2.278,2.278,0,0,1,.783.609l.039.052-.427.337-.039-.052a1.978,1.978,0,0,0-.761-.6,1.55,1.55,0,0,0-.9-.113,1.324,1.324,0,0,0-.638.275,1.334,1.334,0,0,0-.4.521,2.472,2.472,0,0,0-.175.631,2.673,2.673,0,0,0-.006.67,2.462,2.462,0,0,0,.149.625,2.428,2.428,0,0,0,.3.563,1.983,1.983,0,0,0,.418.431,1.316,1.316,0,0,0,1.062.291,1.128,1.128,0,0,0,.482-.2.772.772,0,0,0,.282-.327v-1.094h-.868Zm5.866-2.331h.829V-13.3h-.829Zm5.542,0h.408V-13.3h-.511l-3.172-3.412L38.1-13.3h-.408v-4.746h.388l3.3,3.535Zm5.186-.013-.524.408H43.615v1.929H45.15l-.078.1q-.162.227-.194.265a.125.125,0,0,1-.058.045h-1.2V-13.3h-.8V-18.06Zm1.942-.084a2.308,2.308,0,0,1,1.2.333,2.489,2.489,0,0,1,.89.9,2.383,2.383,0,0,1,.33,1.22,2.383,2.383,0,0,1-.33,1.22,2.489,2.489,0,0,1-.89.9,2.308,2.308,0,0,1-1.2.333,2.3,2.3,0,0,1-1.2-.333,2.471,2.471,0,0,1-.884-.9,2.4,2.4,0,0,1-.327-1.22,2.4,2.4,0,0,1,.327-1.22,2.471,2.471,0,0,1,.884-.9A2.3,2.3,0,0,1,48.51-18.144Zm-.363.447a1.365,1.365,0,0,0-.906.576,1.891,1.891,0,0,0-.311.78,2.765,2.765,0,0,0,.006.942,2.283,2.283,0,0,0,.7,1.347,1.412,1.412,0,0,0,1.23.369,1.377,1.377,0,0,0,.919-.589,2.016,2.016,0,0,0,.324-.8,2.6,2.6,0,0,0-.006-.949,2.232,2.232,0,0,0-.605-1.23,1.5,1.5,0,0,0-1.091-.466A1.744,1.744,0,0,0,48.147-17.7ZM57.8-13.813l.045-.019.259.356-.071.032a3.376,3.376,0,0,1-1.36.278,4.982,4.982,0,0,1-1.936-.35,2.732,2.732,0,0,1-1.263-.991h-.906v1.2h-.816V-18.04h1.683a2.166,2.166,0,0,1,1,.243,2.029,2.029,0,0,1,.754.647,1.486,1.486,0,0,1,.282.864v.026a1.373,1.373,0,0,1-.178.677,1.9,1.9,0,0,1-.447.544,2.377,2.377,0,0,1-.586.359,2.386,2.386,0,0,0,.89.677,3.894,3.894,0,0,0,1.175.372A2.653,2.653,0,0,0,57.8-13.813Zm-3.166-2.473a1.386,1.386,0,0,0-.149-.657,1.067,1.067,0,0,0-.421-.437,1.244,1.244,0,0,0-.628-.155h-.868V-15h.868a1.144,1.144,0,0,0,.868-.346,1.264,1.264,0,0,0,.33-.91Zm5.633-1.761h.712V-13.3h-.758v-3.813L58.345-13.7l-1.988-3.03v2.771h-.414v-4.085h.6l2.027,3.082Zm3.995.123L66.081-13.3h-.9l-.045-.123-.343-.868h-2.35l-.058.129-.343.861h-.447l.1-.253,1.819-4.487h.706Zm.376,3.224-.032-.084-.978-2.486L62.6-14.7Zm.822-3.36h4.3l-.129.408H68.024V-13.3H67.2v-4.351H65.6Zm4.759.013h.829V-13.3h-.829Zm4.053-.1a2.308,2.308,0,0,1,1.2.333,2.489,2.489,0,0,1,.89.9,2.383,2.383,0,0,1,.33,1.22,2.383,2.383,0,0,1-.33,1.22,2.489,2.489,0,0,1-.89.9,2.308,2.308,0,0,1-1.2.333,2.3,2.3,0,0,1-1.2-.333,2.471,2.471,0,0,1-.884-.9,2.4,2.4,0,0,1-.327-1.22,2.4,2.4,0,0,1,.327-1.22,2.471,2.471,0,0,1,.884-.9A2.3,2.3,0,0,1,74.272-18.144Zm-.363.447a1.365,1.365,0,0,0-.906.576,1.891,1.891,0,0,0-.311.78,2.765,2.765,0,0,0,.006.942,2.283,2.283,0,0,0,.7,1.347,1.412,1.412,0,0,0,1.23.369,1.377,1.377,0,0,0,.919-.589,2.016,2.016,0,0,0,.324-.8,2.6,2.6,0,0,0-.006-.949,2.232,2.232,0,0,0-.605-1.23,1.5,1.5,0,0,0-1.091-.466A1.744,1.744,0,0,0,73.909-17.7Zm7.29-.35h.408V-13.3H81.1l-3.172-3.412L77.917-13.3h-.408v-4.746H77.9l3.3,3.535Zm7.918,4.118.039-.026.3.3-.065.039a2.5,2.5,0,0,1-1.327.376,2.582,2.582,0,0,1-1.282-.333,2.559,2.559,0,0,1-.945-.9,2.277,2.277,0,0,1-.35-1.217,2.277,2.277,0,0,1,.35-1.217,2.559,2.559,0,0,1,.945-.9,2.582,2.582,0,0,1,1.282-.333,2.467,2.467,0,0,1,1.47.473l.058.039-.376.388-.045-.032a1.84,1.84,0,0,0-1.5-.421,1.519,1.519,0,0,0-1.055.647,1.827,1.827,0,0,0-.311.754,2.381,2.381,0,0,0,.013.89,2.206,2.206,0,0,0,.77,1.347,1.674,1.674,0,0,0,1.36.369A1.71,1.71,0,0,0,89.118-13.929Zm2.946-4.215a2.308,2.308,0,0,1,1.2.333,2.489,2.489,0,0,1,.89.9,2.383,2.383,0,0,1,.33,1.22,2.383,2.383,0,0,1-.33,1.22,2.489,2.489,0,0,1-.89.9,2.308,2.308,0,0,1-1.2.333,2.3,2.3,0,0,1-1.2-.333,2.471,2.471,0,0,1-.884-.9,2.4,2.4,0,0,1-.327-1.22,2.4,2.4,0,0,1,.327-1.22,2.471,2.471,0,0,1,.884-.9A2.3,2.3,0,0,1,92.064-18.144ZM91.7-17.7a1.365,1.365,0,0,0-.906.576,1.891,1.891,0,0,0-.311.78,2.765,2.765,0,0,0,.006.942,2.283,2.283,0,0,0,.7,1.347,1.412,1.412,0,0,0,1.23.369,1.377,1.377,0,0,0,.919-.589,2.016,2.016,0,0,0,.324-.8,2.6,2.6,0,0,0-.006-.949,2.232,2.232,0,0,0-.605-1.23,1.5,1.5,0,0,0-1.091-.466A1.744,1.744,0,0,0,91.7-17.7Zm3.179,3.8a.4.4,0,0,1,.275-.1.389.389,0,0,1,.272.1.326.326,0,0,1,.113.249.326.326,0,0,1-.113.249.389.389,0,0,1-.272.1.389.389,0,0,1-.272-.1.326.326,0,0,1-.113-.249A.33.33,0,0,1,94.88-13.9Zm1.282.091h.544l-.013.071a.2.2,0,0,1-.013.039l-.44.952H95.7l.013-.078a.122.122,0,0,1,.006-.039Zm5.1.1h2.46l-.091.1-.253.285-.019.019h-2.92v-4.746h.822Zm1.586-4.351h4.3l-.129.408h-1.606V-13.3h-.822v-4.351h-1.606Zm8.1.641a2.225,2.225,0,0,1,.712,1.742,2.3,2.3,0,0,1-.842,1.806,2.563,2.563,0,0,1-1.735.57H107.6V-17.71q-.006-.233,0-.275a.071.071,0,0,1,.042-.062l.039-.013.013.013h1.392A2.686,2.686,0,0,1,110.95-17.419Zm-.123,1.742q0-1.994-1.742-1.994h-.673v3.988h.673a1.652,1.652,0,0,0,1.308-.492A2.221,2.221,0,0,0,110.827-15.677Zm1.224,1.78a.4.4,0,0,1,.275-.1.389.389,0,0,1,.272.1.326.326,0,0,1,.113.249.326.326,0,0,1-.113.249.389.389,0,0,1-.272.1.389.389,0,0,1-.272-.1.326.326,0,0,1-.113-.249A.33.33,0,0,1,112.05-13.9Z" transform="translate(-0.288 33.211)" fill="#7a8387"/></g><g transform="translate(-4880 1568)"><path d="M-848.026,1501.751c5.179-3.508,23.248,4.909,23.771,11.482s-9.377,15.492-20.718,14.032S-853.206,1505.259-848.026,1501.751Z" transform="translate(852.695 -1500.927)" fill="#282d3c"/><g transform="translate(5.888 5.152)"><g transform="translate(0 0)"><path d="M435.848,465.5c5.477-.054,8.09,2.613,8.076,8.015h-3.544c-.163-2.182-.539-3.822-2.346-4.362a4.122,4.122,0,0,0-1.733-.133l-.987.267A12.456,12.456,0,0,0,435.848,465.5Z" transform="translate(-428.468 -458.062)" fill="#fff" fill-rule="evenodd"/><path d="M184.208,180h3.4v5.564a19.388,19.388,0,0,1-.468,5.648c-.868,2.622-3.526,4.188-6.928,4.188.019-.04.022-3.618,0-3.59,3.573-.01,3.993-2.723,3.993-6.408Z" transform="translate(-180.215 -180)" fill="#3cb1ff" fill-rule="evenodd"/></g></g></g></g></g></svg>