<svg xmlns="http://www.w3.org/2000/svg" width="512" height="512" viewBox="0 0 512 512"><path d="M512,256c0,141.385-114.615,256-256,256C125.555,512,17.9,414.438,2.027,288.3a258.338,258.338,0,0,1,4.629-90.562C33.029,84.428,134.656,0,256,0,377.041,0,478.469,84.01,505.135,196.9a254.533,254.533,0,0,1,6.51,45.641Q512,249.265,512,256Z" fill="#f2f2f2"/><path d="M243.2,276.559V210l-57.642-33.279L127.912,210v66.559l57.641,33.279Z" fill="#3b8739"/><path d="M470.2,266.459l37.564,21.692L470.2,309.843l-57.637-33.28V210l57.637-33.28L505.135,196.9a254.533,254.533,0,0,1,6.51,45.641l-21.358,12.33V231.685L470.2,220.1l-20.083,11.588v23.186L470.2,266.459Z" fill="#333"/><path d="M481.392,249.74V236.82L470.2,230.36l-11.19,6.46v12.92L470.2,256.2Z" fill="#66a060"/><path d="M100.686,210v87.771L62.244,275.843V230.85L43.05,219.763,23.855,230.849v44.993L2.027,288.3a258.335,258.335,0,0,1,4.629-90.562L43.05,176.723,100.686,210Z" fill="#333"/><path d="M185.549,176.718l57.64,99.833-57.638,33.278L127.911,210Z" fill="#6da75d"/><path d="M127.912,276.559,147.7,244.283,127.912,210Z" fill="#55a344"/><path d="M223.979,243.277,243.2,210l-57.642-33.279Z" fill="#639d57"/><path d="M346.551,99.579v88.3l-19.32-11.16L269.584,210v66.56l57.647,33.28,57.637-33.28V120.09L346.551,99.579Zm-.105,154.791-19.216,11.1-19.216-11.1V232.187l19.216-11.1,19.216,11.1V254.37Z" fill="#333"/><g transform="translate(194.722 298.6)"><path d="M282.149,358.717s-1.132-9.729-11.539-9.729-17.534,1.357-17.534,7.127,20.25,5.77,27.943,8.032S295.5,372.292,292.1,382.7s-13.8,11.539-29.866,11.539-19.685-13.35-19.685-18.553h9.05s-1.132,8.145,9.5,9.5,20.8,2.121,22.173-6.108c1.81-10.861-34.391-5.43-37.559-16.064-2.676-8.985-1.132-20.815,16.969-22.626s28.056,6.181,28.056,18.1l-8.6.226Z" transform="translate(-194.722 -298.6)" fill="#66a060"/><path d="M194.723,401.131l20.008,11.551a15.079,15.079,0,0,0,22.619-13.059V342.128H229.2v55.227a8.235,8.235,0,0,1-12.353,7.131l-13.965-8.062v-58.94l51.043-29.467,51.043,29.467v58.94L253.92,425.891l-14.7-8.489-9.6,3.872,24.3,14.033,59.2-34.179V332.777L253.92,298.6l-59.2,34.179v68.352h0Z" transform="translate(-194.722 -298.6)" fill="#66a060"/></g></svg>