<svg xmlns="http://www.w3.org/2000/svg" width="512" height="512" viewBox="0 0 512 512"><g transform="translate(-805 -195.24)"><g transform="translate(802 212)"><path d="M114.717,24.39,259,9.24,403.283,24.39,515,173.122,259,468.865,3,173.122Z" fill="#fdb300"/><path d="M106.7,48.29,259,344.033,3,48.29Zm304.6,0L259,344.033,515,48.29Z" transform="translate(0 124.832)" fill="#ea6c00"/><path d="M27.71,48.29h304.6l-152.3,295.743Z" transform="translate(78.991 124.832)" fill="#fdad00"/><path d="M180.009,9.24,35.726,24.39,27.71,173.122Zm0,0L324.292,24.39l8.016,148.732Z" transform="translate(78.991)" fill="#fdd231"/><path d="M210.1,161.582,98.38,12.85,106.4,161.582Z" transform="translate(304.903 11.54)" fill="#fdad00"/><path d="M180.009,9.24,27.71,173.122h304.6Z" transform="translate(78.991)" fill="#feeeb7"/><path d="M3,161.582,114.717,12.85,106.7,161.582Z" transform="translate(0 11.54)" fill="#fdad00"/></g><rect width="512" height="512" transform="translate(805 195.24)" fill="#fff" opacity="0"/></g></svg>