<svg xmlns="http://www.w3.org/2000/svg" width="512" height="512" viewBox="0 0 512 512"><g transform="translate(74 -212)"><g transform="translate(-44 212)"><path d="M226.269,0,452.539,127.985V384.015L226.269,512,0,384.015V127.985Z" fill="#fff"/><path d="M431.658,400.729,253.273,501.643v-78.58L364.42,361.906Zm12.22-11.05V178.669l-65.25,37.712V352.025ZM59.22,400.729,237.6,501.643v-78.58L126.4,361.906ZM47,389.678V178.669l65.25,37.712V352.025Zm7.659-224.691L237.6,61.5v75.949l-117.227,64.49-.935.526Zm381.559,0L253.273,61.5v75.949L370.5,201.881l.935.526Z" transform="translate(-19.521 -25.542)" fill="#8ed6fb"/><path d="M295.085,468.8,185.4,408.461V289.012l109.685,63.32Zm15.669,0,109.685-60.28V289.012l-109.685,63.32ZM192.825,275.214,302.92,214.7l110.094,60.514L302.92,338.768Z" transform="translate(-77.001 -89.17)" fill="#1c78c0"/></g><rect width="512" height="512" transform="translate(-74 212)" fill="#fff" opacity="0"/></g></svg>