<svg xmlns="http://www.w3.org/2000/svg" width="512" height="512" viewBox="0 0 512 512"><g transform="translate(8.023 102.984)"><rect width="512" height="512" transform="translate(-8.023 -102.984)" fill="#fff" opacity="0"/><g transform="translate(-8 -52)"><path d="M34.138,33.084,7.352,42.872,5.918,122.547l92.714-33.86C66.829,78,43.609,59.213,34.138,33.093" transform="translate(44.755 249.11)" fill="#fdbd39" fill-rule="evenodd"/><path d="M92.913,23.208-.023,57.153,52.115,117.27l26.777-9.788c-9.446-26.044-3.618-55.475,14.02-84.275" transform="translate(0 174.712)" fill="#f69833" fill-rule="evenodd"/><path d="M183.6,30.156C65.25,73.385-11.046,162.592,13.189,229.408L441.738,72.856c-24.234-66.816-139.8-85.93-258.14-42.7" transform="translate(65.704 52.787)" fill="#fecf33" fill-rule="evenodd"/><path d="M267.381,213.99C385.721,170.752,462.153,81.946,437.791,14.738L9.224,171.289c24.371,67.208,139.8,85.93,258.149,42.7" transform="translate(69.66 110.905)" fill="#ee6723" fill-rule="evenodd"/><path d="M437.774,14.738,9.225,171.289c8.388,23.142,40.4,34.543,85.29,34.543,43.776,0,99.814-10.829,158.232-32.17,118.339-43.23,201.6-113.228,185.027-158.924" transform="translate(69.668 110.905)" fill="#f69833" fill-rule="evenodd"/><path d="M354.331,10.69c-43.767,0-99.805,10.829-158.224,32.17C77.768,86.09-5.491,156.08,11.08,201.784L439.63,45.233C431.242,22.09,399.242,10.69,354.34,10.69" transform="translate(67.813 80.41)" fill="#fdbd39" fill-rule="evenodd"/><path d="M252.17,345.948c-12.612,0-31.206-11.392-55.3-33.851C168.4,285.524,135.767,246.6,105,202.5,74.234,158.4,48.95,114.312,33.812,78.353,17.317,39.168,14.97,15.079,26.823,6.742a15.863,15.863,0,0,1,9.318-2.748c9.643,0,28.433,7.176,63.172,41.386l.768.742L99.97,47.19q-.354,3.684-.649,7.373l-.384,4.83-3.413-3.43C58.089,18.245,41.611,14.174,36.261,14.174a6.191,6.191,0,0,0-3.61.922c-5.146,3.61-5.478,21.308,10.513,59.289C58.038,109.7,82.946,153.122,113.308,196.65c30.378,43.537,62.506,81.885,90.487,107.98,30.165,28.143,43.759,31.181,48.213,31.181a6.3,6.3,0,0,0,3.7-.981c5.419-3.806,5.427-22.767-12.407-63.658l-.819-1.869,1.792-.981c1.792-.981,3.533-1.946,5.154-2.867l2.15-1.22.99,2.261c12.638,28.97,24.456,65.792,8.96,76.689a15.94,15.94,0,0,1-9.361,2.765Zm0-4.471v0Z" transform="translate(146.312 29.933)" fill="#ee6723" fill-rule="evenodd"/><path d="M128.557,323.675l-.171,2.219c-3,37.026-10.88,81.527-31.419,83.336q-.63.053-1.263.051c-13.96,0-27.161-19.993-39.236-59.417-11.435-37.307-20.309-87.381-24.977-141.029-4.676-53.623-4.608-104.5.2-143.231C36.918,23.389,46.885,1.347,61.306.076c.427-.034.87-.06,1.306-.06,10.12,0,25.378,11.469,40.994,64.853l-10.2,1.963C88.194,49,82.511,34.49,76.87,24.506c-5.222-9.216-10.291-14.293-14.285-14.293a3.153,3.153,0,0,0-.4.017c-6.246.546-15.351,15.71-20.42,56.627-4.719,38.041-4.779,88.149-.171,141.089C46.219,260.9,54.94,310.235,66.17,346.868c5.026,16.4,10.539,29.926,15.949,39.1,4.983,8.465,9.8,13.124,13.576,13.124a3.089,3.089,0,0,0,.393-.017c5.973-.521,17.246-16.3,21.99-71.807l10.479-3.593" transform="translate(211.352)" fill="#ee6723" fill-rule="evenodd"/></g></g></svg>