<?xml version="1.0" standalone="no"?>
<!DOCTYPE svg PUBLIC "-//W3C//DTD SVG 1.1//EN" "http://www.w3.org/Graphics/SVG/1.1/DTD/svg11.dtd" >
<svg xmlns="http://www.w3.org/2000/svg">
<metadata>Generated by IcoMoon</metadata>
<defs>
<font id="BarryFont" horiz-adv-x="1024">
<font-face units-per-em="1024" ascent="960" descent="-64" />
<missing-glyph horiz-adv-x="1024" />
<glyph unicode="&#x20;" horiz-adv-x="512" d="" />
<glyph unicode="&#xe900;" glyph-name="search-check" d="M470.56 694.592c5.789-5.791 9.369-13.789 9.369-22.624s-3.58-16.833-9.369-22.624l-128-128c-5.791-5.789-13.789-9.369-22.624-9.369s-16.833 3.58-22.624 9.369l-64 64c-5.558 5.749-8.983 13.59-8.983 22.231 0 17.673 14.327 32 32 32 8.641 0 16.482-3.425 22.24-8.991l-0.009 0.009 41.44-41.376 105.376 105.376c5.787 5.77 13.773 9.337 22.592 9.337s16.805-3.567 22.593-9.338l-0.001 0.001zM982.56 9.376l-32-32c-5.791-5.789-13.789-9.369-22.624-9.369s-16.833 3.58-22.624 9.369l-288 288c-11.52 11.52-9.376 24.608-9.376 41.376l-53.472 53.472c-54.703-45.010-125.462-72.3-202.595-72.3-176.731 0-320 143.269-320 320s143.269 320 320 320c176.731 0 320-143.269 320-320 0-77.054-27.234-147.746-72.601-202.978l0.445 0.558 53.504-53.504c16.768 0 29.856 2.144 41.376-9.376l288-288c5.798-5.792 9.385-13.797 9.385-22.64 0-8.827-3.574-16.819-9.354-22.608v0zM532.96 788.96c-46.328 46.334-110.333 74.992-181.031 74.992-141.385 0-256-114.615-256-256s114.615-256 256-256c70.698 0 134.703 28.658 181.030 74.992v0c46.32 46.326 74.969 110.321 74.969 181.008s-28.649 134.682-74.97 181.008v0z" />
<glyph unicode="&#xe901;" glyph-name="file" d="M971.872 797.696l-320 128c-3.515 1.445-7.596 2.284-11.872 2.284-17.666 0-31.988-14.315-32-31.979v-96.001h-512c-35.346 0-64-28.654-64-64v0-576c0-35.346 28.654-64 64-64v0h512v-96c0-0.004 0-0.008 0-0.012 0-17.673 14.327-32 32-32 4.276 0 8.357 0.839 12.086 2.361l-0.214-0.077 320 128c11.896 4.846 20.128 16.32 20.128 29.716 0 0.004 0 0.008 0 0.012v-0.001 640c-0.009 13.389-8.239 24.853-19.914 29.619l-0.214 0.077zM608 160h-512v576h512zM928 149.664l-256-102.4v801.472l256-102.4zM192 608c0 17.673 14.327 32 32 32v0h256c17.673 0 32-14.327 32-32s-14.327-32-32-32v0h-256c-17.673 0-32 14.327-32 32v0zM192 448c0 17.673 14.327 32 32 32v0h256c17.673 0 32-14.327 32-32s-14.327-32-32-32v0h-256c-17.673 0-32 14.327-32 32v0zM192 288c0 17.673 14.327 32 32 32v0h256c17.673 0 32-14.327 32-32s-14.327-32-32-32v0h-256c-17.673 0-32 14.327-32 32v0z" />
<glyph unicode="&#xe902;" glyph-name="reply-all" d="M489.376 169.376l-256 256c-5.789 5.791-9.369 13.789-9.369 22.624s3.58 16.833 9.369 22.624l256 256c5.791 5.789 13.789 9.369 22.624 9.369 17.671 0 31.996-14.323 32-31.993v0-128h352c53.019 0 96-42.981 96-96v0-224c0-0.008 0-0.017 0-0.026 0-17.673-14.327-32-32-32-6.087 0-11.777 1.699-16.621 4.65l0.141-0.080-152.384 91.456h-247.136v-128c-0.004-17.67-14.329-31.993-32-31.993-8.835 0-16.833 3.58-22.624 9.369v0zM301.248 448l178.752-178.752v82.752c0 17.673 14.327 32 32 32v0h288c0.013 0 0.028 0 0.043 0 6.069 0 11.744-1.69 16.579-4.624l-0.142 0.080 111.52-66.944v167.488c0 17.673-14.327 32-32 32v0h-384c-17.673 0-32 14.327-32 32v0 82.688zM342.624 169.408c5.789 5.791 9.369 13.789 9.369 22.624s-3.58 16.833-9.369 22.624l-233.376 233.344 233.376 233.376c6.027 5.827 9.769 13.985 9.769 23.017 0 17.673-14.327 32-32 32-9.032 0-17.19-3.742-23.009-9.76l-256.009-256.009c-5.789-5.791-9.369-13.789-9.369-22.624s3.58-16.833 9.369-22.624l256-256c5.791-5.789 13.789-9.369 22.624-9.369s16.833 3.58 22.624 9.369v0z" />
<glyph unicode="&#xe903;" glyph-name="download-queue" d="M278.624 214.592c5.789-5.791 9.369-13.789 9.369-22.624s-3.58-16.833-9.369-22.624l-96-96c-5.794-5.808-13.805-9.401-22.656-9.401s-16.862 3.593-22.655 9.401l-96.001 96.001c-6.027 5.827-9.769 13.985-9.769 23.017 0 17.673 14.327 32 32 32 9.032 0 17.19-3.742 23.009-9.76l0.009-0.009 41.44-41.376v178.784c0 17.673 14.327 32 32 32s32-14.327 32-32v0-178.784l41.376 41.376c5.791 5.789 13.789 9.369 22.624 9.369s16.833-3.58 22.624-9.369v0zM960 256h-544c-17.673 0-32-14.327-32-32s14.327-32 32-32v0h544c17.673 0 32 14.327 32 32s-14.327 32-32 32v0zM233.376 662.592l-41.376-41.376v178.784c0 17.673-14.327 32-32 32s-32-14.327-32-32v0-178.784l-41.376 41.376c-5.749 5.558-13.59 8.983-22.231 8.983-17.673 0-32-14.327-32-32 0-8.641 3.425-16.482 8.991-22.24l95.991-95.991c5.794-5.808 13.805-9.401 22.656-9.401s16.862 3.593 22.655 9.401l96.001 96.001c5.785 5.792 9.362 13.79 9.362 22.624 0 17.683-14.335 32.018-32.018 32.018-8.849 0-16.86-3.59-22.656-9.393v0zM416 640h544c17.673 0 32 14.327 32 32s-14.327 32-32 32v0h-544c-17.673 0-32-14.327-32-32s14.327-32 32-32v0z" />
<glyph unicode="&#xe904;" glyph-name="plus" d="M512 928c-265.097 0-480-214.903-480-480s214.903-480 480-480c265.097 0 480 214.903 480 480v0c-0.309 264.972-215.027 479.69-479.97 480h-0.030zM512 32c-229.75 0-416 186.25-416 416s186.25 416 416 416c229.75 0 416-186.25 416-416v0c-0.273-229.641-186.359-415.727-415.974-416h-0.026zM704 448c0-17.673-14.327-32-32-32v0h-128v-128c0-17.673-14.327-32-32-32s-32 14.327-32 32v0 128h-128c-17.673 0-32 14.327-32 32s14.327 32 32 32v0h128v128c0 17.673 14.327 32 32 32s32-14.327 32-32v0-128h128c17.673 0 32-14.327 32-32v0z" />
<glyph unicode="&#xe905;" glyph-name="copy" d="M832-32h-512c-35.346 0-64 28.654-64 64v0 704c0 35.346 28.654 64 64 64v0h512c35.346 0 64-28.654 64-64v0-704c0-35.346-28.654-64-64-64v0zM320 736v-704h512v704zM192 128v704c0 17.673 14.327 32 32 32v0h512c17.673 0 32 14.327 32 32s-14.327 32-32 32v0h-512c-53.019 0-96-42.981-96-96v0-704c0-17.673 14.327-32 32-32s32 14.327 32 32v0z" />
<glyph unicode="&#xe906;" glyph-name="unlock" d="M608 298.624c-0.177-41.389-26.519-76.58-63.331-89.901l-0.669-0.211v-80.512c0-17.673-14.327-32-32-32s-32 14.327-32 32v0 80.512c-37.43 13.614-63.68 48.883-63.68 90.283 0 52.931 42.909 95.84 95.84 95.84s95.84-42.909 95.84-95.84c0-0.060 0-0.12 0-0.18v0.009zM896 448v-384c0-53.019-42.981-96-96-96v0h-576c-53.019 0-96 42.981-96 96v0 384c0 53.019 42.981 96 96 96v0 99.552c0 379.264 576 380.448 576-3.552 0-17.673-14.327-32-32-32s-32 14.327-32 32v0c0 300.8-448 295.584-448 3.552v-99.552h512c53.019 0 96-42.981 96-96v0zM832 448c0 17.673-14.327 32-32 32v0h-576c-17.673 0-32-14.327-32-32v0-384c0-17.673 14.327-32 32-32v0h576c17.673 0 32 14.327 32 32v0z" />
<glyph unicode="&#xe907;" glyph-name="microphone" d="M512 64c-176.651 0.2-319.8 143.349-320 319.981v160.019c0 17.673 14.327 32 32 32s32-14.327 32-32v0-160c0-141.385 114.615-256 256-256s256 114.615 256 256v0 160c0 17.673 14.327 32 32 32s32-14.327 32-32v0-160c-0.2-176.651-143.349-319.8-319.981-320h-0.019zM704 384v352c0 106.039-85.961 192-192 192s-192-85.961-192-192v0-352c0-106.039 85.961-192 192-192s192 85.961 192 192v0zM640 736v-352c0-70.692-57.308-128-128-128s-128 57.308-128 128v0 352c0 70.692 57.308 128 128 128s128-57.308 128-128v0zM704 0c0 17.673-14.327 32-32 32v0h-320c-17.673 0-32-14.327-32-32s14.327-32 32-32v0h320c17.673 0 32 14.327 32 32v0z" />
<glyph unicode="&#xe908;" glyph-name="check-double" d="M512-32c-265.097 0-480 214.903-480 480s214.903 480 480 480c265.097 0 480-214.903 480-480v0c-0.309-264.972-215.027-479.69-479.97-480h-0.030zM512 864c-229.75 0-416-186.25-416-416s186.25-416 416-416c229.75 0 416 186.25 416 416v0c-0.273 229.641-186.359 415.727-415.974 416h-0.026zM472.064 202.944l224 256c5.82 5.796 9.421 13.815 9.421 22.676 0 17.673-14.327 32-32 32-10.329 0-19.515-4.894-25.366-12.489l-0.055-0.075-198.144-226.272-72.32 96.416c-5.9 7.807-15.167 12.8-25.6 12.8-17.673 0-32-14.327-32-32 0-7.24 2.404-13.919 6.458-19.28l-0.058 0.080 96-128c5.901-7.796 15.161-12.78 25.585-12.78 9.584 0 18.183 4.213 24.048 10.888l0.031 0.036zM472.064 394.944l224 256c5.82 5.796 9.421 13.815 9.421 22.676 0 17.673-14.327 32-32 32-10.329 0-19.515-4.894-25.366-12.489l-0.055-0.075-198.144-226.272-72.32 96.416c-5.9 7.807-15.167 12.8-25.6 12.8-17.673 0-32-14.327-32-32 0-7.24 2.404-13.919 6.458-19.28l-0.058 0.080 96-128c5.901-7.796 15.161-12.78 25.585-12.78 9.584 0 18.183 4.213 24.048 10.888l0.031 0.036z" />
<glyph unicode="&#xe909;" glyph-name="sync" d="M960 480h-320c-17.673 0-32-14.327-32-32v0-448c0-17.673 14.327-32 32-32v0h320c17.673 0 32 14.327 32 32v0 448c0 17.673-14.327 32-32 32v0zM928 32h-256v384h256zM64 416h320c17.673 0 32 14.327 32 32v0 448c0 17.673-14.327 32-32 32v0h-320c-17.673 0-32-14.327-32-32v0-448c0-17.673 14.327-32 32-32v0zM96 864h256v-384h-256zM544 0c0-17.673-14.327-32-32-32v0h-288c-53.019 0-96 42.981-96 96v0 178.752l-41.376-41.376c-5.749-5.558-13.59-8.983-22.231-8.983-17.673 0-32 14.327-32 32 0 8.641 3.425 16.482 8.991 22.24l95.991 95.991c5.794 5.808 13.805 9.401 22.656 9.401s16.862-3.593 22.655-9.401l96.001-96.001c5.558-5.749 8.983-13.59 8.983-22.231 0-17.673-14.327-32-32-32-8.641 0-16.482 3.425-22.24 8.991l0.009-0.009-41.44 41.376v-178.752c0-17.673 14.327-32 32-32v0h288c17.673 0 32-14.327 32-32v0zM480 896c0 17.673 14.327 32 32 32v0h288c53.019 0 96-42.981 96-96v0-178.752l41.376 41.376c5.749 5.558 13.59 8.983 22.231 8.983 17.673 0 32-14.327 32-32 0-8.641-3.425-16.482-8.991-22.24l-95.991-95.991c-5.794-5.808-13.805-9.401-22.656-9.401s-16.862 3.593-22.655 9.401l-96.001 96.001c-5.558 5.749-8.983 13.59-8.983 22.231 0 17.673 14.327 32 32 32 8.641 0 16.482-3.425 22.24-8.991l-0.009 0.009 41.44-41.376v178.752c0 17.673-14.327 32-32 32v0h-288c-17.673 0-32 14.327-32 32v0z" />
<glyph unicode="&#xe90a;" glyph-name="list" d="M160-32c-53.019 0-96 42.981-96 96s42.981 96 96 96c53.019 0 96-42.981 96-96v0c0-53.019-42.981-96-96-96v0zM160 96c-17.673 0-32-14.327-32-32s14.327-32 32-32c17.673 0 32 14.327 32 32v0c0 17.673-14.327 32-32 32v0zM160 352c-53.019 0-96 42.981-96 96s42.981 96 96 96c53.019 0 96-42.981 96-96v0c0-53.019-42.981-96-96-96v0zM160 480c-17.673 0-32-14.327-32-32s14.327-32 32-32c17.673 0 32 14.327 32 32v0c0 17.673-14.327 32-32 32v0zM160 736c-53.019 0-96 42.981-96 96s42.981 96 96 96c53.019 0 96-42.981 96-96v0c0-53.019-42.981-96-96-96v0zM160 864c-17.673 0-32-14.327-32-32s14.327-32 32-32c17.673 0 32 14.327 32 32v0c0 17.673-14.327 32-32 32v0zM960 64c0 17.673-14.327 32-32 32v0h-512c-17.673 0-32-14.327-32-32s14.327-32 32-32v0h512c17.673 0 32 14.327 32 32v0zM960 448c0 17.673-14.327 32-32 32v0h-512c-17.673 0-32-14.327-32-32s14.327-32 32-32v0h512c17.673 0 32 14.327 32 32v0zM960 832c0 17.673-14.327 32-32 32v0h-512c-17.673 0-32-14.327-32-32s14.327-32 32-32v0h512c17.673 0 32 14.327 32 32v0z" />
<glyph unicode="&#xe90b;" glyph-name="alarm" d="M128 352c0-0.12 0-0.262 0-0.404 0-212.077 171.923-384 384-384s384 171.923 384 384c0 176.193-118.665 324.671-280.435 369.872l-2.701 0.644c16.811 21.224 27.011 48.353 27.136 77.86v0.028c0 70.692-57.308 128-128 128s-128-57.308-128-128v0c0.107-29.537 10.311-56.671 27.337-78.151l-0.201 0.263c-164.273-45.916-282.818-194.126-283.136-370.075v-0.037zM576 800c0-35.346-28.654-64-64-64s-64 28.654-64 64c0 35.346 28.654 64 64 64v0c35.346 0 64-28.654 64-64v0zM192 352c0 176.731 143.269 320 320 320s320-143.269 320-320c0-176.731-143.269-320-320-320v0c-176.651 0.2-319.8 143.349-320 319.981v0.019zM105.376 630.624l128 128c5.749 5.558 13.59 8.983 22.231 8.983 17.673 0 32-14.327 32-32 0-8.641-3.425-16.482-8.991-22.24l-127.991-127.991c-5.749-5.558-13.59-8.983-22.231-8.983-17.673 0-32 14.327-32 32 0 8.641 3.425 16.482 8.991 22.24l-0.009-0.009zM873.376 585.376l-128 128c-5.558 5.749-8.983 13.59-8.983 22.231 0 17.673 14.327 32 32 32 8.641 0 16.482-3.425 22.24-8.991l127.991-127.991c5.558-5.749 8.983-13.59 8.983-22.231 0-17.673-14.327-32-32-32-8.641 0-16.482 3.425-22.24 8.991l0.009-0.009zM384 384h96v160c0 17.673 14.327 32 32 32s32-14.327 32-32v0-192c0-17.673-14.327-32-32-32v0h-128c-17.673 0-32 14.327-32 32s14.327 32 32 32v0z" />
<glyph unicode="&#xe90c;" glyph-name="search-plus" d="M512 608c0-17.673-14.327-32-32-32v0h-96v-96c0-17.673-14.327-32-32-32s-32 14.327-32 32v0 96h-96c-17.673 0-32 14.327-32 32s14.327 32 32 32v0h96v96c0 17.673 14.327 32 32 32s32-14.327 32-32v0-96h96c17.673 0 32-14.327 32-32v0zM982.624 9.376l-32-32c-5.791-5.789-13.789-9.369-22.624-9.369s-16.833 3.58-22.624 9.369l-288 288c-11.52 11.52-9.376 24.608-9.376 41.376l-53.44 53.44c-54.754-45.092-125.598-72.435-202.828-72.435-176.837 0-320.192 143.355-320.192 320.192s143.355 320.192 320.192 320.192c176.837 0 320.192-143.355 320.192-320.192 0-77.071-27.23-147.782-72.594-203.037l0.446 0.56 53.504-53.472c16.768 0 29.856 2.144 41.376-9.376l288-288c5.779-5.789 9.353-13.781 9.353-22.608 0-8.843-3.587-16.848-9.385-22.64v0zM533.056 788.96c-46.328 46.334-110.333 74.992-181.031 74.992-141.385 0-256-114.615-256-256s114.615-256 256-256c70.698 0 134.703 28.658 181.030 74.992v0c46.359 46.308 75.036 110.309 75.036 181.008s-28.677 134.7-75.033 181.006l-0.002 0.002z" />
<glyph unicode="&#xe90d;" glyph-name="help" d="M512 224c-17.673 0-32 14.327-32 32v0 192c0 17.673 14.327 32 32 32v0c70.692 0 128 57.308 128 128s-57.308 128-128 128c-70.692 0-128-57.308-128-128v0c0-17.673-14.327-32-32-32s-32 14.327-32 32v0c0.017 106.026 85.972 191.971 192 191.971 106.039 0 192-85.961 192-192 0-94.735-68.611-173.445-158.853-189.149l-1.147-0.165v-162.656c0-17.673-14.327-32-32-32v0zM512 160c-17.673 0-32-14.327-32-32s14.327-32 32-32c17.673 0 32 14.327 32 32v0c0 17.673-14.327 32-32 32v0zM758.624-22.624l224 224c5.791 5.79 9.374 13.788 9.376 22.624v0 448c-0.002 8.836-3.585 16.834-9.376 22.624l-224 224c-5.79 5.791-13.788 9.374-22.624 9.376h-448c-8.836-0.002-16.834-3.585-22.624-9.376l-224-224c-5.791-5.79-9.374-13.788-9.376-22.624v0-448c0.002-8.836 3.585-16.834 9.376-22.624l224-224c5.79-5.791 13.788-9.374 22.624-9.376h448c8.836 0.002 16.834 3.585 22.624 9.376v0zM96 237.248v421.504l205.248 205.248h421.504l205.248-205.248v-421.504l-205.248-205.248h-421.504z" />
<glyph unicode="&#xe90e;" glyph-name="search-alt" d="M982.624 22.624l-273.664 273.664c56.545 66.484 90.937 153.333 90.937 248.215 0 212.201-172.023 384.224-384.224 384.224s-384.224-172.023-384.224-384.224c0-212.201 172.023-384.224 384.224-384.224 94.786 0 181.556 34.323 248.559 91.218l-0.552-0.457 273.696-273.664c5.749-5.558 13.59-8.983 22.231-8.983 17.673 0 32 14.327 32 32 0 8.641-3.425 16.482-8.991 22.24l0.009-0.009zM642.208 317.792c-57.904-57.881-137.886-93.68-226.228-93.68-176.731 0-320 143.269-320 320s143.269 320 320 320c88.343 0 168.324-35.799 226.229-93.681l-0.001 0.001c57.828-57.963 93.586-137.965 93.586-226.32s-35.758-168.358-93.593-226.326l0.006 0.006z" />
<glyph unicode="&#xe90f;" glyph-name="female-user-alt" d="M990.528 9.6c-39.7 120.928-122.117 218.573-228.996 277.133l-2.524 1.267h104.992c17.673 0 32 14.327 32 32v0 224c0 212.077-171.923 384-384 384s-384-171.923-384-384v0-224c0-17.673 14.327-32 32-32v0h104.992c-109.403-59.827-191.82-157.472-230.542-274.972l-0.978-3.428c-0.935-2.87-1.474-6.172-1.474-9.6 0-17.673 14.327-32 32-32 0.001 0 0.001 0 0.002 0h896c0.001 0 0.001 0 0.002 0 17.673 0 32 14.327 32 32 0 3.428-0.539 6.73-1.537 9.826l0.063-0.226zM192 352v192c0 176.731 143.269 320 320 320s320-143.269 320-320v0-192h-151.232c53.577 46.851 87.231 115.334 87.231 191.678 0 40.042-9.258 77.921-25.75 111.615l0.663-1.5c-5.262 10.834-16.17 18.177-28.796 18.208h-404.164c-12.63-0.031-23.538-7.374-28.717-18.018l-0.083-0.19c-15.841-32.203-25.106-70.097-25.106-110.154 0-76.322 33.635-144.789 86.89-191.385l0.295-0.253zM512 352c-105.987 0.127-191.872 86.012-192 191.988v0.012c0 0.012 0 0.027 0 0.042 0 22.947 4.117 44.932 11.654 65.257l-0.422-1.299h361.6c7.074-18.976 11.168-40.901 11.168-63.781 0-0.077 0-0.154 0-0.231v0.012c-0.127-105.987-86.012-191.872-191.988-192h-0.012zM110.080 32c71.138 152.34 223.048 256.009 399.171 256.009 0.966 0 1.932-0.003 2.897-0.009l-0.148 0.001c0.817 0.005 1.782 0.009 2.749 0.009 176.123 0 328.033-103.668 398.039-253.313l1.133-2.695z" />
<glyph unicode="&#xe910;" glyph-name="reply" d="M330.72 168.096l-288 256c-6.594 5.888-10.726 14.413-10.726 23.904s4.132 18.016 10.694 23.877l0.031 0.027 288 256c5.628 5.028 13.095 8.101 21.28 8.101 17.673 0 32-14.327 32-32 0-0.002 0-0.004 0-0.005v0-128h512c53.019 0 96-42.981 96-96v0-224c-0.003-17.67-14.329-31.994-32-31.994-6.087 0-11.777 1.699-16.621 4.65l0.141-0.080-152.384 91.424h-407.136v-128c0-0.001 0-0.003 0-0.005 0-17.673-14.327-32-32-32-8.185 0-15.652 3.073-21.311 8.128l0.031-0.027zM112.16 448l207.84-184.768v88.768c0 17.673 14.327 32 32 32v0h448c0.013 0 0.028 0 0.043 0 6.069 0 11.744-1.69 16.579-4.624l-0.142 0.080 111.52-66.944v167.488c0 17.673-14.327 32-32 32v0h-544c-17.673 0-32 14.327-32 32v0 88.704z" />
<glyph unicode="&#xe911;" glyph-name="download" d="M512 928c-265.097 0-480-214.903-480-480s214.903-480 480-480c265.097 0 480 214.903 480 480v0c-0.309 264.972-215.027 479.69-479.97 480h-0.030zM512 32c-229.75 0-416 186.25-416 416s186.25 416 416 416c229.75 0 416-186.25 416-416v0c-0.273-229.641-186.359-415.727-415.974-416h-0.026zM630.624 374.624c5.789-5.791 9.369-13.789 9.369-22.624s-3.58-16.833-9.369-22.624l-96-96c-5.791-5.789-13.789-9.369-22.624-9.369s-16.833 3.58-22.624 9.369l-96 96c-5.558 5.749-8.983 13.59-8.983 22.231 0 17.673 14.327 32 32 32 8.641 0 16.482-3.425 22.24-8.991l41.367-41.367v306.752c0 17.673 14.327 32 32 32s32-14.327 32-32v0-306.752l41.376 41.376c5.791 5.789 13.789 9.369 22.624 9.369s16.833-3.58 22.624-9.369v0z" />
<glyph unicode="&#xe912;" glyph-name="paste" d="M800 864h-85.888c-13.532 37.481-48.723 63.823-90.090 64h-224.022c-41.389-0.177-76.58-26.519-89.901-63.331l-0.211-0.669h-85.888c-53.019 0-96-42.981-96-96v0-704c0-53.019 42.981-96 96-96v0h576c53.019 0 96 42.981 96 96v0 704c0 53.019-42.981 96-96 96v0zM400 864h224c17.673 0 32-14.327 32-32s-14.327-32-32-32v0h-224c-17.673 0-32 14.327-32 32s14.327 32 32 32v0zM832 64c0-17.673-14.327-32-32-32v0h-576c-17.673 0-32 14.327-32 32v0 704c0 17.673 14.327 32 32 32v0h85.888c13.532-37.481 48.723-63.823 90.090-64h224.022c41.389 0.177 76.58 26.519 89.901 63.331l0.211 0.669h85.888c17.673 0 32-14.327 32-32v0zM736 384c0-17.673-14.327-32-32-32v0h-384c-17.673 0-32 14.327-32 32s14.327 32 32 32v0h384c17.673 0 32-14.327 32-32v0zM736 192c0-17.673-14.327-32-32-32v0h-384c-17.673 0-32 14.327-32 32s14.327 32 32 32v0h384c17.673 0 32-14.327 32-32v0zM736 576c0-17.673-14.327-32-32-32v0h-384c-17.673 0-32 14.327-32 32s14.327 32 32 32v0h384c17.673 0 32-14.327 32-32v0z" />
<glyph unicode="&#xe913;" glyph-name="cogwheel-alt" d="M576-32h-128c-17.673 0-32 14.327-32 32v0 109.28c-57.621 16.621-107.132 45.925-147.292 84.825l0.092-0.089-91.040-60.64c-4.987-3.365-11.132-5.371-17.745-5.371-12.457 0-23.252 7.118-28.539 17.509l-0.084 0.182-64 128c-2.127 4.167-3.373 9.088-3.373 14.3 0 11.059 5.61 20.808 14.139 26.556l0.114 0.072 89.6 59.808c-5.063 22.12-7.965 47.521-7.965 73.6s2.902 51.48 8.4 75.898l-0.435-2.298-89.6 59.808c-8.643 5.82-14.253 15.569-14.253 26.628 0 5.212 1.246 10.134 3.457 14.482l-0.084-0.182 64 128c5.371 10.573 16.165 17.691 28.623 17.691 6.614 0 12.758-2.006 17.859-5.443l-0.114 0.072 91.040-60.704c40.068 38.811 89.579 68.115 144.743 84.125l2.457 0.611v109.28c0 17.673 14.327 32 32 32v0h128c17.673 0 32-14.327 32-32v0-109.28c57.621-16.621 107.132-45.925 147.292-84.825l-0.092 0.089 90.976 60.8c4.987 3.365 11.132 5.371 17.745 5.371 12.457 0 23.252-7.118 28.539-17.509l0.084-0.182 64-128c2.127-4.167 3.373-9.088 3.373-14.3 0-11.059-5.61-20.808-14.139-26.556l-0.114-0.072-89.6-59.808c5.063-22.12 7.965-47.521 7.965-73.6s-2.902-51.48-8.4-75.898l0.435 2.298 89.6-59.808c8.643-5.82 14.253-15.569 14.253-26.628 0-5.212-1.246-10.134-3.457-14.482l0.084 0.182-64-128c-5.371-10.573-16.165-17.691-28.623-17.691-6.614 0-12.758 2.006-17.859 5.443l0.114-0.072-90.976 60.544c-40.068-38.811-89.579-68.115-144.743-84.125l-2.457-0.611v-109.28c0-17.673-14.327-32-32-32v0zM480 32h64v102.4c0 0.002 0 0.004 0 0.007 0 15.408 10.889 28.272 25.392 31.317l0.208 0.037c63.058 13.125 117.057 45.531 156.985 90.673l0.263 0.303c5.886 6.578 14.402 10.698 23.88 10.698 6.603 0 12.739-2 17.835-5.427l-0.115 0.073 83.2-55.392 35.2 70.4-84.992 56.64c-8.641 5.821-14.248 15.568-14.248 26.625 0 3.122 0.447 6.14 1.281 8.993l-0.057-0.226c7.136 23.633 11.244 50.793 11.244 78.912s-4.108 55.279-11.756 80.912l0.512-2c-0.777 2.627-1.224 5.645-1.224 8.767 0 11.057 5.608 20.804 14.135 26.552l0.114 0.072 84.992 56.64-35.2 70.4-83.2-55.392c-4.982-3.354-11.117-5.354-17.72-5.354-9.478 0-17.993 4.12-23.853 10.668l-0.027 0.031c-40.202 45.408-94.2 77.781-155.394 90.556l-1.854 0.324c-14.711 3.082-25.6 15.946-25.6 31.353 0 0.014 0 0.027 0 0.041v-0.002 102.4h-64v-102.4c0-0.002 0-0.004 0-0.007 0-15.408-10.889-28.272-25.392-31.317l-0.208-0.037c-63.058-13.125-117.057-45.531-156.985-90.673l-0.263-0.303c-5.886-6.578-14.402-10.698-23.88-10.698-6.603 0-12.739 2-17.835 5.427l0.115-0.073-83.136 55.36-35.2-70.4 84.992-56.64c8.641-5.821 14.248-15.568 14.248-26.625 0-3.122-0.447-6.14-1.281-8.993l0.057 0.226c-7.136-23.633-11.244-50.793-11.244-78.912s4.108-55.279 11.756-80.912l-0.512 2c0.777-2.627 1.224-5.645 1.224-8.767 0-11.057-5.608-20.804-14.135-26.552l-0.114-0.072-84.992-56.64 35.2-70.4 83.2 55.392c4.982 3.354 11.117 5.354 17.72 5.354 9.478 0 17.993-4.12 23.853-10.668l0.027-0.031c40.19-45.385 94.164-77.745 155.329-90.524l1.855-0.324c14.711-3.082 25.6-15.946 25.6-31.353 0-0.002 0-0.005 0-0.007v0zM512 256c-106.039 0-192 85.961-192 192s85.961 192 192 192c106.039 0 192-85.961 192-192v0c-0.109-105.995-86.005-191.891-191.99-192h-0.010zM512 576c-70.692 0-128-57.308-128-128s57.308-128 128-128c70.692 0 128 57.308 128 128v0c0 70.692-57.308 128-128 128v0z" />
<glyph unicode="&#xe914;" glyph-name="umbrella" d="M544 862.368v33.632c0 17.673-14.327 32-32 32s-32-14.327-32-32v0-33.632c-215.362-17.258-383.64-196.105-384-414.332v-0.036c0-17.673 14.327-32 32-32s32 14.327 32 32v0c0 83.904 192 84.576 192 0 0-17.673 14.327-32 32-32s32 14.327 32 32v0c0 27.232 27.2 50.88 64 59.936v-427.936c0-26.51-21.49-48-48-48s-48 21.49-48 48v0 48c0 17.673-14.327 32-32 32s-32-14.327-32-32v0-48c0-61.856 50.144-112 112-112s112 50.144 112 112v0 427.936c36.8-9.056 64-32.704 64-59.936 0-17.673 14.327-32 32-32s32 14.327 32 32v0c0 83.904 192 84.576 192 0 0-17.673 14.327-32 32-32s32 14.327 32 32v0c-0.361 218.264-168.639 397.11-382.534 414.273l-1.466 0.095zM640 524.8c-31.771 31.666-75.606 51.245-124.014 51.245-1.402 0-2.8-0.016-4.193-0.049l0.207 0.004c-1.187 0.029-2.585 0.045-3.986 0.045-48.408 0-92.243-19.579-124.019-51.25l0.005 0.005c-33.473 32.005-78.944 51.705-129.017 51.705-27.818 0-54.216-6.080-77.937-16.984l1.162 0.479c48.17 140.815 179.369 240.255 333.792 240.255s285.622-99.44 333.054-237.779l0.738-2.476c-22.559 10.425-48.957 16.505-76.775 16.505-50.073 0-95.544-19.7-129.087-51.772l0.070 0.067z" />
<glyph unicode="&#xe915;" glyph-name="menu-dots" d="M256 480c-123.712 0-224 100.288-224 224s100.288 224 224 224c123.712 0 224-100.288 224-224v0c-0.146-123.653-100.347-223.855-223.986-224h-0.014zM256 864c-88.366 0-160-71.634-160-160s71.634-160 160-160c88.366 0 160 71.634 160 160v0c-0.109 88.321-71.678 159.891-159.989 160h-0.011zM768 480c-123.712 0-224 100.288-224 224s100.288 224 224 224c123.712 0 224-100.288 224-224v0c-0.146-123.653-100.347-223.855-223.986-224h-0.014zM768 864c-88.366 0-160-71.634-160-160s71.634-160 160-160c88.366 0 160 71.634 160 160v0c-0.109 88.321-71.678 159.891-159.989 160h-0.011zM256-32c-123.712 0-224 100.288-224 224s100.288 224 224 224c123.712 0 224-100.288 224-224v0c-0.146-123.653-100.347-223.855-223.986-224h-0.014zM256 352c-88.366 0-160-71.634-160-160s71.634-160 160-160c88.366 0 160 71.634 160 160v0c-0.109 88.321-71.678 159.891-159.989 160h-0.011zM768-32c-123.712 0-224 100.288-224 224s100.288 224 224 224c123.712 0 224-100.288 224-224v0c-0.146-123.653-100.347-223.855-223.986-224h-0.014zM768 352c-88.366 0-160-71.634-160-160s71.634-160 160-160c88.366 0 160 71.634 160 160v0c-0.109 88.321-71.678 159.891-159.989 160h-0.011z" />
<glyph unicode="&#xe916;" glyph-name="check" d="M512-32c-265.097 0-480 214.903-480 480s214.903 480 480 480c265.097 0 480-214.903 480-480v0c-0.309-264.972-215.027-479.69-479.97-480h-0.030zM512 864c-229.75 0-416-186.25-416-416s186.25-416 416-416c229.75 0 416 186.25 416 416v0c-0.273 229.641-186.359 415.727-415.974 416h-0.026zM472.064 298.944l224 256c5.82 5.796 9.421 13.815 9.421 22.676 0 17.673-14.327 32-32 32-10.329 0-19.515-4.894-25.366-12.489l-0.055-0.075-198.144-226.272-72.32 96.416c-5.9 7.807-15.167 12.8-25.6 12.8-17.673 0-32-14.327-32-32 0-7.24 2.404-13.919 6.458-19.28l-0.058 0.080 96-128c5.901-7.796 15.161-12.78 25.585-12.78 9.584 0 18.183 4.213 24.048 10.888l0.031 0.036z" />
<glyph unicode="&#xe917;" glyph-name="stars" d="M288 416c-17.673 0-32 14.327-32 32v0c-0.109 105.995-86.005 191.891-191.99 192h-0.010c-17.673 0-32 14.327-32 32s14.327 32 32 32v0c105.995 0.109 191.891 86.005 192 191.99v0.010c0 17.673 14.327 32 32 32s32-14.327 32-32v0c0.109-105.995 86.005-191.891 191.99-192h0.010c17.673 0 32-14.327 32-32s-14.327-32-32-32v0c-105.995-0.109-191.891-86.005-192-191.99v-0.010c0-17.673-14.327-32-32-32v0zM187.84 672c42.299-23.817 76.342-57.861 99.491-98.871l0.669-1.289c23.817 42.299 57.861 76.342 98.871 99.491l1.289 0.669c-42.299 23.817-76.342 57.861-99.491 98.871l-0.669 1.289c-23.817-42.299-57.861-76.342-98.871-99.491l-1.289-0.669zM736 256c-17.673 0-32 14.327-32 32v0c-0.109 105.995-86.005 191.891-191.99 192h-0.010c-17.673 0-32 14.327-32 32s14.327 32 32 32v0c105.995 0.109 191.891 86.005 192 191.99v0.010c0 17.673 14.327 32 32 32s32-14.327 32-32v0c0.109-105.995 86.005-191.891 191.99-192h0.010c17.673 0 32-14.327 32-32s-14.327-32-32-32v0c-105.995-0.109-191.891-86.005-192-191.99v-0.010c0-17.673-14.327-32-32-32v0zM635.84 512c42.299-23.817 76.342-57.861 99.491-98.871l0.669-1.289c23.817 42.299 57.861 76.342 98.871 99.491l1.289 0.669c-42.299 23.817-76.342 57.861-99.491 98.871l-0.669 1.289c-23.817-42.299-57.861-76.342-98.871-99.491l-1.289-0.669zM416-32c-17.673 0-32 14.327-32 32v0c-0.109 88.321-71.678 159.891-159.989 160h-0.011c-17.673 0-32 14.327-32 32s14.327 32 32 32v0c88.321 0.109 159.891 71.678 160 159.989v0.011c0 17.673 14.327 32 32 32s32-14.327 32-32v0c0.109-88.321 71.678-159.891 159.989-160h0.011c17.673 0 32-14.327 32-32s-14.327-32-32-32v0c-88.321-0.109-159.891-71.678-160-159.989v-0.011c0-17.673-14.327-32-32-32v0zM339.2 192c31.647-19.31 57.49-45.153 76.237-75.809l0.563-0.991c19.31 31.647 45.153 57.49 75.809 76.237l0.991 0.563c-31.647 19.31-57.49 45.153-76.237 75.809l-0.563 0.991c-19.31-31.647-45.153-57.49-75.809-76.237l-0.991-0.563z" />
<glyph unicode="&#xe918;" glyph-name="lifebuoy" d="M512 928c-265.097 0-480-214.903-480-480s214.903-480 480-480c265.097 0 480 214.903 480 480v0c-0.309 264.972-215.027 479.69-479.97 480h-0.030zM544 862.368c204.232-16.418 365.949-178.136 382.273-380.898l0.095-1.47h-128.256c-15.576 133.608-120.505 238.537-252.764 253.984l-1.348 0.128zM480 862.368v-128.256c-133.608-15.576-238.537-120.505-253.984-252.764l-0.128-1.348h-128.256c16.418 204.232 178.136 365.949 380.898 382.273l1.47 0.095zM480 33.568c-204.252 16.423-365.98 178.173-382.273 380.964l-0.095 1.468h128.256c15.576-133.608 120.505-238.537 252.764-253.984l1.348-0.128zM288 448c0 123.712 100.288 224 224 224s224-100.288 224-224c0-123.712-100.288-224-224-224v0c-123.653 0.146-223.855 100.347-224 223.986v0.014zM544 33.632v128.256c133.608 15.576 238.537 120.505 253.984 252.764l0.128 1.348h128.256c-16.418-204.232-178.136-365.949-380.898-382.273l-1.47-0.095z" />
<glyph unicode="&#xe919;" glyph-name="search-minus-alt" d="M576 544c0-17.673-14.327-32-32-32v0h-256c-17.673 0-32 14.327-32 32s14.327 32 32 32v0h256c17.673 0 32-14.327 32-32v0zM982.72-22.72c-5.791-5.789-13.789-9.369-22.624-9.369s-16.833 3.58-22.624 9.369l-273.664 273.664c-66.428-56.456-153.185-90.791-247.961-90.791-212.077 0-384 171.923-384 384s171.923 384 384 384c212.077 0 384-171.923 384-384 0-94.776-34.336-181.533-91.246-248.51l0.455 0.549 273.664-273.664c5.732-5.781 9.273-13.741 9.273-22.528 0-8.835-3.58-16.834-9.369-22.624v0zM642.208 770.432c-57.904 57.881-137.886 93.68-226.228 93.68-176.731 0-320-143.269-320-320s143.269-320 320-320c88.343 0 168.324 35.799 226.229 93.681l-0.001-0.001c57.82 57.966 93.573 137.968 93.573 226.32s-35.753 168.354-93.58 226.327l0.006-0.007z" />
<glyph unicode="&#xe91a;" glyph-name="heart" d="M503.36 33.184c-346.24 96.96-470.528 327.36-471.36 510.816-0.832 183.776 117.28 320 256 320 89.979-4.652 169.346-46.499 223.629-110.337l0.371-0.447c54.661 64.276 134.024 106.12 223.233 110.752l0.767 0.032c138.848 0 256.832-136.448 256-320v0c-0.832-183.296-125.12-413.728-471.36-510.656-2.675-0.798-5.748-1.258-8.928-1.258-2.97 0-5.847 0.401-8.579 1.151l0.227-0.053zM288 800c-106.304 0-192.672-112.896-192-256 0.704-158.304 110.624-358.080 416-446.72 305.376 88.64 415.264 288.416 416 446.72 0.672 142.944-85.6 256-192 256-68.544 0-141.024-42.208-198.848-115.776-5.912-7.468-14.978-12.217-25.152-12.217s-19.24 4.748-25.101 12.15l-0.051 0.067c-57.824 73.568-130.272 115.776-198.848 115.776z" />
<glyph unicode="&#xe91b;" glyph-name="search" d="M982.624 54.624l-288 288c-11.52 11.52-24.608 9.376-41.376 9.376l-53.44 53.44c44.971 54.69 72.236 125.419 72.236 202.516 0 176.731-143.269 320-320 320s-320-143.269-320-320c0-176.731 143.269-320 320-320 77.097 0 147.827 27.265 203.072 72.679l-0.556-0.443 53.44-53.472c0-16.768-2.144-29.856 9.376-41.376l288-288c5.791-5.789 13.789-9.369 22.624-9.369s16.833 3.58 22.624 9.369l32 32c5.798 5.792 9.385 13.797 9.385 22.64s-3.587 16.848-9.385 22.64v0zM533.056 426.944c-46.328-46.334-110.333-74.992-181.031-74.992-141.385 0-256 114.615-256 256s114.615 256 256 256c70.698 0 134.703-28.658 181.030-74.992v0c46.359-46.308 75.036-110.309 75.036-181.008s-28.677-134.7-75.033-181.006l-0.002-0.002z" />
<glyph unicode="&#xe91c;" glyph-name="female-user" d="M990.528 9.6c-20.83 64.998-53.166 121.093-94.979 168.652l0.451-0.524v366.272c0 212.077-171.923 384-384 384s-384-171.923-384-384v0-366.272c-41.362-47.035-73.698-103.13-93.602-164.809l-0.926-3.319c-0.935-2.87-1.474-6.172-1.474-9.6 0-17.673 14.327-32 32-32 0.001 0 0.001 0 0.002 0h896c0.001 0 0.001 0 0.002 0 17.673 0 32 14.327 32 32 0 3.428-0.539 6.73-1.537 9.826l0.063-0.226zM192 544c0 176.731 143.269 320 320 320s320-143.269 320-320v0-304.768c-50.172 40.46-109.422 72.048-174.008 91.236l-3.624 0.924c68.88 46.565 113.577 124.361 113.632 212.6v0.008c-0.006 39.929-9.253 77.697-25.717 111.284l0.661-1.492c-5.262 10.834-16.17 18.177-28.796 18.208h-404.196c-12.63-0.031-23.538-7.374-28.717-18.018l-0.083-0.19c-15.834-32.088-25.113-69.852-25.152-109.779v-0.013c0.055-88.247 44.752-166.043 112.729-212.032l0.903-0.576c-68.209-20.112-127.459-51.699-178.615-92.926l0.983 0.766zM512 352c-105.987 0.127-191.872 86.012-192 191.988v0.012c0 0.040 0 0.088 0 0.136 0 22.912 4.106 44.865 11.621 65.163l-0.421-1.299h361.6c7.094-18.999 11.2-40.952 11.2-63.864 0-0.048 0-0.096 0-0.143v0.007c-0.127-105.987-86.012-191.872-191.988-192h-0.012zM110.080 32c71.138 152.34 223.048 256.009 399.171 256.009 0.966 0 1.932-0.003 2.897-0.009l-0.148 0.001c0.817 0.005 1.782 0.009 2.749 0.009 176.123 0 328.033-103.668 398.039-253.313l1.133-2.695z" />
<glyph unicode="&#xe91d;" glyph-name="refresh" d="M896 452.576c0-0.195 0.001-0.427 0.001-0.659 0-160.785-100.331-298.137-241.802-352.862l-2.583-0.879c-3.463-1.398-7.479-2.21-11.685-2.21-13.434 0-24.934 8.278-29.678 20.011l-0.077 0.215c-1.375 3.414-2.172 7.372-2.172 11.516 0 13.41 8.349 24.87 20.133 29.466l0.215 0.074c120.044 46.679 203.581 161.313 203.581 295.459 0 153.311-109.111 281.137-253.916 310.061l-2.017 0.336 26.496-39.392c3.375-4.94 5.389-11.043 5.389-17.616 0-10.978-5.618-20.644-14.135-26.279l-0.117-0.073c-4.992-3.338-11.133-5.328-17.738-5.328-11.036 0-20.775 5.553-26.575 14.018l-0.071 0.11-64 95.072c-3.348 4.943-5.345 11.038-5.345 17.6s1.997 12.657 5.416 17.712l-0.071-0.112 64 95.072c5.824 8.614 15.556 14.201 26.593 14.201 6.633 0 12.794-2.018 17.904-5.473l-0.113 0.072c8.633-5.702 14.25-15.361 14.25-26.333 0-6.568-2.013-12.667-5.456-17.711l0.070 0.108-33.92-50.432c185.448-27.427 326.311-184.968 327.423-375.627l0.001-0.117zM455.328 67.712l-33.92-50.432c-3.373-4.936-5.386-11.034-5.386-17.603 0-10.972 5.617-20.632 14.133-26.26l0.117-0.073c4.997-3.383 11.158-5.401 17.791-5.401 11.037 0 20.769 5.588 26.521 14.088l0.072 0.113 64 95.072c3.348 4.943 5.345 11.038 5.345 17.6s-1.997 12.657-5.416 17.712l0.071-0.112-64 95.072c-5.871 8.574-15.61 14.128-26.646 14.128-6.605 0-12.746-1.989-17.855-5.401l0.117 0.074c-8.635-5.709-14.253-15.374-14.253-26.352 0-6.573 2.014-12.676 5.459-17.725l-0.070 0.109 26.592-39.424c-146.821 29.26-255.933 157.086-255.933 310.397 0 134.146 83.537 248.78 201.428 294.721l2.153 0.739c11.999 4.67 20.348 16.13 20.348 29.54 0 4.144-0.797 8.102-2.247 11.729l0.075-0.213c-4.821 11.948-16.321 20.226-29.755 20.226-4.206 0-8.222-0.811-11.9-2.286l0.215 0.076c-144.093-55.928-244.387-193.476-244.387-354.448 0-191.138 141.406-349.25 325.311-375.428l2.020-0.236z" />
<glyph unicode="&#xe91e;" glyph-name="down-alt" d="M416 544h192c17.673 0 32-14.327 32-32v0-192.16h128c0.001 0 0.003 0 0.005 0 17.673 0 32-14.327 32-32 0-8.185-3.073-15.652-8.128-21.311l0.027 0.031-256-288.256c-6.018-6.33-14.501-10.267-23.904-10.267s-17.886 3.937-23.891 10.253l-0.013 0.014-256 288.256c-5.011 5.623-8.073 13.078-8.073 21.248 0 17.665 14.314 31.987 31.975 32h128.001v192.192c0 17.673 14.327 32 32 32v0zM576 480h-128v-192.16c0-17.673-14.327-32-32-32v0h-88.736l184.736-208.096 184.736 208h-88.736c-17.673 0-32 14.327-32 32v0zM416 800h192c17.673 0 32-14.327 32-32v0-128c0-17.673-14.327-32-32-32v0h-192c-17.673 0-32 14.327-32 32v0 128c0 17.673 14.327 32 32 32v0zM576 736h-128v-64h128zM384 896c0-17.673 14.327-32 32-32v0h192c17.673 0 32 14.327 32 32s-14.327 32-32 32v0h-192c-17.673 0-32-14.327-32-32v0z" />
<glyph unicode="&#xe91f;" glyph-name="notification-disable" d="M928 192c0 53.019-42.981 96-96 96v0 192c-0.215 165.374-125.68 301.377-286.613 318.25l-1.387 0.118v97.632c0 17.673-14.327 32-32 32s-32-14.327-32-32v0-97.632c-73.14-7.62-137.818-38.934-187.369-86.017l0.137 0.129-78.144 78.144c-5.749 5.558-13.59 8.983-22.231 8.983-17.673 0-32-14.327-32-32 0-8.641 3.425-16.482 8.991-22.24l81.303-81.303c-36.7-51.152-58.688-115.020-58.688-184.023 0-0.015 0-0.029 0-0.044v0.003-192c-53.019 0-96-42.981-96-96s42.981-96 96-96v0h229.888c-3.623-9.499-5.773-20.481-5.888-31.951v-0.049c0-53.019 42.981-96 96-96s96 42.981 96 96v0c-0.115 11.519-2.265 22.501-6.105 32.653l0.217-0.653h216.64l22.624-22.624c5.791-5.789 13.789-9.369 22.624-9.369s16.833 3.58 22.624 9.369v0c5.579 5.696 9.022 13.504 9.022 22.115 0 7.381-2.53 14.172-6.769 19.552l0.051-0.067c23.788 17.581 39.050 45.518 39.072 77.020v0.004zM256 480c0 0.002 0 0.005 0 0.008 0 51.294 15.196 99.039 41.332 138.978l-0.596-0.97 330.016-330.016h-370.752zM512 32c-17.673 0-32 14.327-32 32s14.327 32 32 32c17.673 0 32-14.327 32-32v0c0-17.673-14.327-32-32-32v0zM192 160c-17.673 0-32 14.327-32 32s14.327 32 32 32v0h498.752l64-64zM768 288h-50.752l-379.232 379.232c45.539 42.593 106.915 68.748 174.4 68.748 141.155 0 255.584-114.429 255.584-255.584 0-0.139 0-0.279 0-0.418v0.022zM843.008 162.24l-61.76 61.76h50.752c0.035 0 0.077 0 0.119 0 17.585 0 31.84-14.255 31.84-31.84 0-13.677-8.624-25.341-20.731-29.848l-0.22-0.072z" />
<glyph unicode="&#xe920;" glyph-name="cogwheel" d="M576-32h-128c-17.673 0-32 14.327-32 32v0 109.312c-27.49 7.917-51.356 17.965-73.705 30.408l1.769-0.904-65.44-65.44c-5.791-5.789-13.789-9.369-22.624-9.369s-16.833 3.58-22.624 9.369l-96 96c-5.789 5.791-9.369 13.789-9.369 22.624s3.58 16.833 9.369 22.624l65.44 65.44c-11.539 20.58-21.587 44.446-28.89 69.482l-0.614 2.454h-109.312c-17.673 0-32 14.327-32 32v0 128c0 17.673 14.327 32 32 32v0h109.312c7.917 27.49 17.965 51.356 30.408 73.705l-0.904-1.769-65.44 65.44c-5.789 5.791-9.369 13.789-9.369 22.624s3.58 16.833 9.369 22.624l96 96c5.791 5.789 13.789 9.369 22.624 9.369s16.833-3.58 22.624-9.369l65.44-65.44c20.58 11.539 44.446 21.587 69.482 28.89l2.454 0.614v109.312c0 17.673 14.327 32 32 32v0h128c17.673 0 32-14.327 32-32v0-109.312c27.492-7.925 51.358-17.972 73.709-30.41l-1.773 0.906 65.44 65.44c5.791 5.789 13.789 9.369 22.624 9.369s16.833-3.58 22.624-9.369l96-96c5.789-5.791 9.369-13.789 9.369-22.624s-3.58-16.833-9.369-22.624l-65.44-65.44c11.524-20.576 21.571-44.441 28.887-69.471l0.617-2.465h109.312c17.673 0 32-14.327 32-32v0-128c0-17.673-14.327-32-32-32v0h-109.312c-7.934-27.495-17.98-51.36-30.412-73.715l0.908 1.779 65.44-65.44c5.789-5.791 9.369-13.789 9.369-22.624s-3.58-16.833-9.369-22.624l-96-96c-5.791-5.789-13.789-9.369-22.624-9.369s-16.833 3.58-22.624 9.369l-65.44 65.44c-20.578-11.532-44.444-21.579-69.476-28.889l-2.46-0.615v-109.312c0-17.673-14.327-32-32-32v0zM480 32h64v102.4c0 0.002 0 0.004 0 0.007 0 15.408 10.889 28.272 25.392 31.317l0.208 0.037c37.097 7.74 69.939 21.668 99.063 40.793l-1.079-0.665c4.9 3.204 10.901 5.11 17.347 5.11 8.833 0 16.831-3.579 22.621-9.366l60.448-60.384 50.752 50.752-60.352 60.416c-5.791 5.791-9.373 13.791-9.373 22.628 0 6.43 1.896 12.417 5.16 17.432l-0.075-0.124c18.471 28.060 32.382 60.931 39.742 96.205l0.322 1.843c3.082 14.711 15.946 25.6 31.353 25.6 0.025 0 0.050 0 0.074 0h102.396v64h-102.4c-0.011 0-0.025 0-0.039 0-15.408 0-28.272 10.889-31.317 25.392l-0.037 0.208c-7.707 37.11-21.639 69.967-40.789 99.087l0.661-1.071c-3.189 4.892-5.085 10.878-5.085 17.308 0 8.853 3.595 16.866 9.404 22.659l0.001 0.001 60.352 60.416-50.752 50.752-60.416-60.352c-5.79-5.787-13.788-9.366-22.621-9.366-6.446 0-12.447 1.906-17.47 5.185l0.123-0.075c-28.057 18.442-60.911 32.35-96.163 39.739l-1.853 0.325c-14.711 3.082-25.6 15.946-25.6 31.353 0 0.014 0 0.027 0 0.041v-0.002 102.4h-64v-102.4c0-0.002 0-0.004 0-0.007 0-15.408-10.889-28.272-25.392-31.317l-0.208-0.037c-37.097-7.74-69.939-21.668-99.063-40.793l1.079 0.665c-4.9-3.204-10.901-5.11-17.347-5.11-8.849 0-16.859 3.592-22.652 9.397l-0.001 0.001-60.416 60.352-50.752-50.752 60.352-60.416c5.787-5.79 9.366-13.788 9.366-22.621 0-6.446-1.906-12.447-5.185-17.47l0.075 0.123c-18.442-28.057-32.35-60.911-39.739-96.163l-0.325-1.853c-3.082-14.711-15.946-25.6-31.353-25.6-0.002 0-0.005 0-0.007 0h-102.432v-64h102.4c0.002 0 0.004 0 0.007 0 15.408 0 28.272-10.889 31.317-25.392l0.037-0.208c7.74-37.097 21.668-69.939 40.793-99.063l-0.665 1.079c3.204-4.9 5.11-10.901 5.11-17.347 0-8.849-3.592-16.859-9.397-22.652l-0.001-0.001-60.352-60.416 50.752-50.752 60.416 60.352c5.79 5.787 13.788 9.366 22.621 9.366 6.446 0 12.447-1.906 17.47-5.185l-0.123 0.075c28.057-18.442 60.911-32.35 96.163-39.739l1.853-0.325c14.711-3.082 25.6-15.946 25.6-31.353 0-0.002 0-0.005 0-0.007v0zM512 256c-106.039 0-192 85.961-192 192s85.961 192 192 192c106.039 0 192-85.961 192-192v0c-0.109-105.995-86.005-191.891-191.99-192h-0.010zM512 576c-70.692 0-128-57.308-128-128s57.308-128 128-128c70.692 0 128 57.308 128 128v0c0 70.692-57.308 128-128 128v0z" />
<glyph unicode="&#xe921;" glyph-name="trash-full" d="M960 736h-146.752l-182.624 182.624c-5.791 5.789-13.789 9.369-22.624 9.369s-16.833-3.58-22.624-9.369l-73.376-73.376-73.376 73.376c-5.791 5.789-13.789 9.369-22.624 9.369s-16.833-3.58-22.624-9.369l-182.624-182.624h-146.752c-17.673 0-32-14.327-32-32s14.327-32 32-32v0h68.896l112.864-677.248c2.609-15.273 15.747-26.752 31.567-26.752 0.006 0 0.012 0 0.018 0h469.311c0.005 0 0.011 0 0.017 0 15.82 0 28.958 11.479 31.54 26.562l0.027 0.19 112.864 677.248h68.896c17.673 0 32 14.327 32 32s-14.327 32-32 32v0zM608 850.752l114.752-114.752h-101.504l-64 64zM416 850.752l114.752-114.752h-229.504zM719.552 32h-415.104l-106.656 640h628.416zM576 224v320c0 17.673 14.327 32 32 32s32-14.327 32-32v0-320c0-17.673-14.327-32-32-32s-32 14.327-32 32v0zM384 224v320c0 17.673 14.327 32 32 32s32-14.327 32-32v0-320c0-17.673-14.327-32-32-32s-32 14.327-32 32v0z" />
<glyph unicode="&#xe922;" glyph-name="menu-burger" d="M864 672h-704c-17.673 0-32 14.327-32 32s14.327 32 32 32v0h704c17.673 0 32-14.327 32-32s-14.327-32-32-32v0zM992 448c0 17.673-14.327 32-32 32v0h-896c-17.673 0-32-14.327-32-32s14.327-32 32-32v0h896c17.673 0 32 14.327 32 32v0zM896 192c0 17.673-14.327 32-32 32v0h-704c-17.673 0-32-14.327-32-32s14.327-32 32-32v0h704c17.673 0 32 14.327 32 32v0z" />
<glyph unicode="&#xe923;" glyph-name="bug" d="M928 416h-128v96c0 4.032-0.448 7.936-0.608 11.904l110.912 55.296c10.583 5.371 17.709 16.173 17.709 28.64 0 17.68-14.333 32.013-32.013 32.013-5.214 0-10.136-1.246-14.486-3.457l0.182 0.084-92.8-46.4c-28.060 96.313-102.375 170.628-196.646 198.177l-2.042 0.511 46.4 92.8c2.127 4.168 3.373 9.090 3.373 14.304 0 17.68-14.333 32.013-32.013 32.013-12.467 0-23.269-7.126-28.556-17.527l-0.084-0.182-55.424-110.784c-3.572 0.413-7.71 0.648-11.904 0.648s-8.332-0.235-12.403-0.694l0.499 0.046-55.296 110.912c-5.371 10.583-16.173 17.709-28.64 17.709-17.68 0-32.013-14.333-32.013-32.013 0-5.214 1.246-10.136 3.457-14.486l-0.084 0.182 46.4-92.8c-96.313-28.060-170.628-102.375-198.177-196.646l-0.511-2.042-92.8 46.4c-4.168 2.127-9.090 3.373-14.304 3.373-17.68 0-32.013-14.333-32.013-32.013 0-12.467 7.126-23.269 17.527-28.556l0.182-0.084 110.912-55.456c0-3.968-0.608-7.872-0.608-11.904v-96h-128.128c-17.673 0-32-14.327-32-32s14.327-32 32-32v0h128v-96c0-4.032 0.448-7.936 0.608-11.904l-110.912-55.424c-10.583-5.371-17.709-16.173-17.709-28.64 0-17.68 14.333-32.013 32.013-32.013 5.214 0 10.136 1.246 14.486 3.457l-0.182-0.084 92.8 46.4c35.142-122.017 145.788-209.766 276.928-209.766s241.786 87.748 276.426 207.734l0.502 2.031 92.8-46.4c4.168-2.127 9.090-3.373 14.304-3.373 17.68 0 32.013 14.333 32.013 32.013 0 12.467-7.126 23.269-17.527 28.556l-0.182 0.084-110.912 55.456c0 3.968 0.608 7.872 0.608 11.904v96h128c17.673 0 32 14.327 32 32s-14.327 32-32 32v0zM736 256c0-123.712-100.288-224-224-224s-224 100.288-224 224v0 256c0 123.712 100.288 224 224 224s224-100.288 224-224v0z" />
<glyph unicode="&#xe924;" glyph-name="star" d="M782.24 5.504l-270.24 180.096-270.24-180.16c-4.983-3.357-11.121-5.359-17.727-5.359-17.673 0-32 14.327-32 32 0 4.233 0.822 8.275 2.315 11.973l-0.077-0.215 118.4 295.872-266.432 177.76c-8.558 5.832-14.104 15.532-14.104 26.528 0 17.625 14.25 31.923 31.857 32h298.343l119.936 299.84c4.838 11.911 16.32 20.157 29.728 20.157s24.89-8.246 29.651-19.943l0.077-0.214 119.936-299.84h298.336c0.002 0 0.005 0 0.007 0 17.673 0 32-14.327 32-32 0-11.056-5.607-20.803-14.133-26.552l-0.114-0.072-266.4-177.472 118.4-295.872c1.468-3.54 2.32-7.652 2.32-11.962 0-17.673-14.327-32-32-32-6.654 0-12.833 2.031-17.952 5.506l0.112-0.072zM529.76 250.752l202.272-134.848-89.6 224.32c-1.425 3.493-2.253 7.547-2.253 11.794 0 11.045 5.596 20.783 14.107 26.534l0.113 0.072 200 133.376h-214.4c-0.007 0-0.016 0-0.025 0-13.385 0-24.85 8.217-29.626 19.883l-0.077 0.213-98.272 245.824-98.272-245.728c-4.828-11.926-16.313-20.186-29.727-20.192h-214.401l200.064-133.376c8.625-5.823 14.221-15.561 14.221-26.606 0-4.247-0.827-8.3-2.329-12.008l0.077 0.215-89.6-224.32 202.272 134.848c4.983 3.358 11.122 5.359 17.728 5.359s12.745-2.002 17.842-5.432l-0.114 0.072z" />
<glyph unicode="&#xe925;" glyph-name="left-alt" d="M608 544v-192c0-17.673-14.327-32-32-32v0h-192v-128c0-0.001 0-0.003 0-0.005 0-17.673-14.327-32-32-32-8.185 0-15.652 3.073-21.311 8.128l0.031-0.027-288.256 256c-6.33 6.018-10.267 14.501-10.267 23.904s3.937 17.886 10.253 23.891l0.014 0.013 288.256 256c5.6 4.926 12.993 7.932 21.088 7.932 17.615 0 31.906-14.233 32-31.827v-128.009h192c0.057 0 0.124 0.001 0.192 0.001 17.673 0 32-14.327 32-32 0 0 0 0 0-0.001v0zM544 384v128h-192.224c-17.673 0-32 14.327-32 32v0 88.736l-208.032-184.736 208-184.736v88.736c0 17.673 14.327 32 32 32v0zM864 544v-192c0-17.673-14.327-32-32-32v0h-128c-17.673 0-32 14.327-32 32v0 192c0 17.673 14.327 32 32 32v0h128c17.673 0 32-14.327 32-32v0zM800 384v128h-64v-128zM960 576c-17.673 0-32-14.327-32-32v0-192c0-17.673 14.327-32 32-32s32 14.327 32 32v0 192c0 17.673-14.327 32-32 32v0z" />
<glyph unicode="&#xe926;" glyph-name="search-minus" d="M512 608c0-17.673-14.327-32-32-32v0h-256c-17.673 0-32 14.327-32 32s14.327 32 32 32v0h256c17.673 0 32-14.327 32-32v0zM982.624 9.376l-32-32c-5.791-5.789-13.789-9.369-22.624-9.369s-16.833 3.58-22.624 9.369l-288 288c-11.52 11.52-9.376 24.608-9.376 41.376l-53.472 53.472c-54.703-45.010-125.462-72.3-202.595-72.3-176.731 0-320 143.269-320 320s143.269 320 320 320c176.731 0 320-143.269 320-320 0-77.054-27.234-147.746-72.601-202.978l0.445 0.558 53.44-53.504c16.768 0 29.856 2.144 41.376-9.376l288-288c5.798-5.792 9.385-13.797 9.385-22.64 0-8.827-3.574-16.819-9.354-22.608v0zM532.96 788.96c-46.328 46.334-110.333 74.992-181.031 74.992-141.385 0-256-114.615-256-256s114.615-256 256-256c70.698 0 134.703 28.658 181.030 74.992v0c46.32 46.326 74.969 110.321 74.969 181.008s-28.649 134.682-74.97 181.008v0z" />
<glyph unicode="&#xe927;" glyph-name="fullscreen" d="M192 160h-128c-17.673 0-32-14.327-32-32v0-128c0-17.673 14.327-32 32-32v0h128c17.673 0 32 14.327 32 32v0 128c0 17.673-14.327 32-32 32v0zM160 32h-64v64h64zM992 864v-832c0-35.346-28.654-64-64-64v0h-576c-17.673 0-32 14.327-32 32s14.327 32 32 32v0h576v832h-832v-576c0-17.673-14.327-32-32-32s-32 14.327-32 32v0 576c0 35.346 28.654 64 64 64v0h832c35.346 0 64-28.654 64-64v0zM640 530.752l-329.376-329.376c-5.749-5.558-13.59-8.983-22.231-8.983-17.673 0-32 14.327-32 32 0 8.641 3.425 16.482 8.991 22.24l329.367 329.367h-82.752c-17.673 0-32 14.327-32 32s14.327 32 32 32v0h160c17.673 0 32-14.327 32-32v0-160c0-17.673-14.327-32-32-32s-32 14.327-32 32v0z" />
<glyph unicode="&#xe928;" glyph-name="screenshot" d="M64 736c-17.673 0-32 14.327-32 32v0 128c0 17.673 14.327 32 32 32v0h128c17.673 0 32-14.327 32-32s-14.327-32-32-32v0h-96v-96c0-17.673-14.327-32-32-32v0zM992 768v128c0 17.673-14.327 32-32 32v0h-128c-17.673 0-32-14.327-32-32s14.327-32 32-32v0h96v-96c0-17.673 14.327-32 32-32s32 14.327 32 32v0zM224 0c0 17.673-14.327 32-32 32v0h-96v96c0 17.673-14.327 32-32 32s-32-14.327-32-32v0-128c0-17.673 14.327-32 32-32v0h128c17.673 0 32 14.327 32 32v0zM992 0v128c0 17.673-14.327 32-32 32s-32-14.327-32-32v0-96h-96c-17.673 0-32-14.327-32-32s14.327-32 32-32v0h128c17.673 0 32 14.327 32 32v0zM800 448c0 159.058-128.942 288-288 288s-288-128.942-288-288c0-159.058 128.942-288 288-288v0c158.977 0.2 287.8 129.023 288 287.981v0.019zM736 448c0-123.712-100.288-224-224-224s-224 100.288-224 224c0 123.712 100.288 224 224 224v0c123.653-0.146 223.855-100.347 224-223.986v-0.014z" />
<glyph unicode="&#xe929;" glyph-name="eye-open" d="M989.184 365.12c-47.101 90.352-118.412 162.536-205.374 209.426l-2.626 1.294 105.6 105.6c6.027 5.827 9.769 13.985 9.769 23.017 0 17.673-14.327 32-32 32-9.032 0-17.19-3.742-23.009-9.76l-122.953-122.857c-51.597 19.567-111.244 32.053-173.452 34.619l-1.14 0.037v161.504c0 17.673-14.327 32-32 32s-32-14.327-32-32v0-161.504c-63.348-2.603-122.995-15.089-178.541-35.957l3.949 1.301-122.784 122.784c-5.827 6.027-13.985 9.769-23.017 9.769-17.673 0-32-14.327-32-32 0-9.032 3.742-17.19 9.76-23.009l105.609-105.609c-89.588-48.184-160.899-120.368-206.703-207.994l-1.297-2.726c-1.777-3.856-2.813-8.367-2.813-13.12s1.036-9.264 2.895-13.319l-0.082 0.199c4.896-11.168 127.616-274.816 477.024-274.816s472.128 263.648 477.184 274.88c1.777 3.856 2.813 8.367 2.813 13.12s-1.036 9.264-2.895 13.319l0.082-0.199zM512 128c-267.968 0-384 173.472-411.968 224 81.749 135.269 228.010 224.31 395.069 224.31 5.943 0 11.86-0.113 17.748-0.336l-0.849 0.026c267.872 0 384-173.344 411.968-224-81.749-135.269-228.010-224.31-395.069-224.31-5.943 0-11.86 0.113-17.748 0.336l0.849-0.026zM512 544c-106.039 0-192-85.961-192-192s85.961-192 192-192c106.039 0 192 85.961 192 192v0c-0.109 105.995-86.005 191.891-191.99 192h-0.010zM512 224c-70.692 0-128 57.308-128 128s57.308 128 128 128c70.692 0 128-57.308 128-128v0c0-70.692-57.308-128-128-128v0z" />
<glyph unicode="&#xe92a;" glyph-name="puzzle" d="M800-32h-576c-35.346 0-64 28.654-64 64v0 576.8c0 35.346 28.654 64 64 64v0h131.52c-12.298 23.225-19.519 50.769-19.52 80v0c0 209.92 308.736 242.784 348.8 34.144 2.147-10.284 3.376-22.102 3.376-34.207 0-29.226-7.165-56.779-19.836-80.997l0.459 0.964h131.2c35.346 0 64-28.654 64-64v0-160.192c0-17.673-14.327-32-32-32v0c-53.081 0-96.112-43.031-96.112-96.112s43.031-96.112 96.112-96.112v0c17.673 0 32-14.327 32-32v0-160.288c0-35.346-28.654-64-64-64v0zM224 608.8v-576.8h576v131.456c-73.57 15.514-127.999 79.889-127.999 156.976s54.429 141.462 126.953 156.791l1.046 0.185v131.392h-198.4c-0.016 0-0.036 0-0.055 0-17.673 0-32 14.327-32 32 0 10.102 4.681 19.111 11.992 24.975l0.063 0.049c26 20.55 42.534 52.085 42.534 87.482 0 7.702-0.783 15.222-2.273 22.483l0.123-0.718c-25.344 131.936-221.984 112.192-221.984-22.112 0.139-35.244 16.625-66.61 42.264-86.927l0.232-0.177c7.398-5.913 12.095-14.936 12.095-25.056 0-17.673-14.327-32-32-32-0.034 0-0.067 0-0.101 0h0.005z" />
<glyph unicode="&#xe92b;" glyph-name="down" d="M640 640v-320.256h128c0.001 0 0.003 0 0.005 0 17.673 0 32-14.327 32-32 0-8.185-3.073-15.652-8.128-21.311l0.027 0.031-256-288.192c-6.018-6.33-14.501-10.267-23.904-10.267s-17.886 3.937-23.891 10.253l-0.013 0.014-256 288.192c-5.028 5.628-8.101 13.095-8.101 21.28 0 17.673 14.327 32 32 32 0.002 0 0.004 0 0.005 0h128v320.256c0 17.673 14.327 32 32 32v0h192c17.673 0 32-14.327 32-32v0zM448 287.744c0-17.673-14.327-32-32-32v0h-88.736l184.736-208.032 184.736 208h-88.736c-17.673 0-32 14.327-32 32v0 320.288h-128zM640 896v-128c0-17.673-14.327-32-32-32v0h-192c-17.673 0-32 14.327-32 32v0 128c0 17.673 14.327 32 32 32v0h192c17.673 0 32-14.327 32-32v0zM448 800h128v64h-128z" />
<glyph unicode="&#xe92c;" glyph-name="notification" d="M832 288v192c-0.215 165.374-125.68 301.377-286.613 318.25l-1.387 0.118v97.632c0 17.673-14.327 32-32 32s-32-14.327-32-32v0-97.632c-162.32-16.991-287.785-152.994-288-318.346v-192.022c-53.019 0-96-42.981-96-96s42.981-96 96-96v0h229.888c-3.623-9.499-5.773-20.481-5.888-31.951v-0.049c0-53.019 42.981-96 96-96s96 42.981 96 96v0c-0.115 11.519-2.265 22.501-6.105 32.653l0.217-0.653h229.888c53.019 0 96 42.981 96 96s-42.981 96-96 96v0zM256 480c0 141.385 114.615 256 256 256s256-114.615 256-256v0-192h-512zM512 32c-17.673 0-32 14.327-32 32s14.327 32 32 32c17.673 0 32-14.327 32-32v0c0-17.673-14.327-32-32-32v0zM832 160h-640c-17.673 0-32 14.327-32 32s14.327 32 32 32v0h640c17.673 0 32-14.327 32-32s-14.327-32-32-32v0z" />
<glyph unicode="&#xe92d;" glyph-name="cloud-upload" d="M585.376 361.408l-41.376 41.376v-306.784c0-17.673-14.327-32-32-32s-32 14.327-32 32v0 306.784l-41.376-41.376c-5.827-6.027-13.985-9.769-23.017-9.769-17.673 0-32 14.327-32 32 0 9.032 3.742 17.19 9.76 23.009l96.009 96.009c5.791 5.789 13.789 9.369 22.624 9.369s16.833-3.58 22.624-9.369l96-96c6.027-5.827 9.769-13.985 9.769-23.017 0-17.673-14.327-32-32-32-9.032 0-17.19 3.742-23.009 9.76l-0.009 0.009zM768 704c-0.021 0-0.045 0-0.070 0-18.139 0-35.772-2.17-52.652-6.264l1.522 0.312c-35.583 79.461-113.966 133.818-205.045 133.818-89.3 0-166.394-52.255-202.375-127.855l-0.581-1.355c-6.233 0.84-13.451 1.328-20.781 1.344h-0.019c-105.995-0.109-191.891-86.005-192-191.99v-0.010c0-5.6 0.288-11.264 0.864-17.056-38.985-22.087-64.865-63.292-64.865-110.541 0-0.141 0-0.283 0.001-0.424v0.022c0-70.692 57.308-128 128-128v0h192c17.673 0 32 14.327 32 32s-14.327 32-32 32v0h-192c-35.346 0-64 28.654-64 64v0c0.042 28.692 19.139 52.911 45.311 60.686l0.449 0.114c13.297 4.085 22.797 16.257 22.797 30.648 0 2.591-0.308 5.11-0.889 7.522l0.044-0.218c-2.372 9.168-3.734 19.692-3.734 30.535 0 69.986 56.734 126.72 126.72 126.72 0.458 0 0.915-0.002 1.372-0.007l-0.070 0.001c11.737-0.209 22.976-1.983 33.631-5.122l-0.895 0.226c2.474-0.687 5.315-1.081 8.248-1.081 14.219 0 26.272 9.274 30.44 22.103l0.064 0.226c21.264 65.101 81.441 111.307 152.411 111.307 73.317 0 135.116-49.313 154.039-116.581l0.271-1.127c3.81-13.722 16.191-23.626 30.885-23.626 4.275 0 8.353 0.838 12.081 2.359l-0.214-0.077c17.557 7.208 37.936 11.392 59.293 11.392 88.366 0 160-71.634 160-160s-71.634-160-160-160c-0.089 0-0.177 0-0.266 0h-95.986c-17.673 0-32-14.327-32-32s14.327-32 32-32v0h96c123.712 0 224 100.288 224 224s-100.288 224-224 224v0z" />
<glyph unicode="&#xe92e;" glyph-name="trash-empty" d="M960 736h-256v96c0 53.019-42.981 96-96 96v0h-192c-53.019 0-96-42.981-96-96v0-96h-256c-17.673 0-32-14.327-32-32s14.327-32 32-32v0h68.896l112.896-677.248c2.608-15.268 15.739-26.744 31.551-26.752h469.313c15.813 0.008 28.944 11.484 31.525 26.562l0.027 0.19 112.896 677.248h68.896c17.673 0 32 14.327 32 32s-14.327 32-32 32v0zM384 832c0 17.673 14.327 32 32 32v0h192c17.673 0 32-14.327 32-32v0-96h-256zM719.552 32h-415.104l-106.656 640h628.416zM640 512v-320c0-17.673-14.327-32-32-32s-32 14.327-32 32v0 320c0 17.673 14.327 32 32 32s32-14.327 32-32v0zM448 512v-320c0-17.673-14.327-32-32-32s-32 14.327-32 32v0 320c0 17.673 14.327 32 32 32s32-14.327 32-32v0z" />
<glyph unicode="&#xe92f;" glyph-name="logout" d="M970.112 798.336l-384 128c-3.018 1.039-6.495 1.64-10.112 1.64-17.665 0-31.986-14.313-32-31.974v-96.001h-256c-35.346 0-64-28.654-64-64v0-96c0-17.673 14.327-32 32-32s32 14.327 32 32v0 96h256v-576h-256v96c0 17.673-14.327 32-32 32s-32-14.327-32-32v0-96c0-35.346 28.654-64 64-64v0h256v-96c0.014-17.663 14.335-31.976 32-31.976 3.617 0 7.094 0.6 10.337 1.706l-0.225-0.067 384 128c12.818 4.363 21.877 16.29 21.888 30.335v640.001c-0.011 14.046-9.070 25.973-21.663 30.269l-0.225 0.067zM928 151.072l-320-106.688v807.2l320-106.656zM672 448c0 17.673 14.327 32 32 32v0h64c17.673 0 32-14.327 32-32s-14.327-32-32-32v0h-64c-17.673 0-32 14.327-32 32v0zM182.56 374.624c6.027-5.827 9.769-13.985 9.769-23.017 0-17.673-14.327-32-32-32-9.032 0-17.19 3.742-23.009 9.76l-96.009 96.009c-5.752 5.813-9.306 13.812-9.306 22.64s3.554 16.827 9.309 22.643l95.997 95.997c5.749 5.558 13.59 8.983 22.231 8.983 17.673 0 32-14.327 32-32 0-8.641-3.425-16.482-8.991-22.24l-41.367-41.399h306.816c17.673 0 32-14.327 32-32s-14.327-32-32-32v0h-306.816z" />
<glyph unicode="&#xe930;" glyph-name="bookmark" d="M787.008-29.216l-275.008 122.24-275.008-122.24c-3.822-1.741-8.288-2.756-12.992-2.756-17.663 0-31.984 14.311-32 31.971v896.002c0 17.673 14.327 32 32 32v0h576c17.673 0 32-14.327 32-32v0-896c-0.016-17.661-14.337-31.972-32-31.972-4.704 0-9.17 1.015-13.193 2.838l0.201-0.082zM524.992 157.248l243.008-108v814.752h-512v-814.752l243.008 108c3.822 1.741 8.288 2.756 12.992 2.756s9.17-1.015 13.193-2.838l-0.201 0.082z" />
<glyph unicode="&#xe931;" glyph-name="snooze" d="M612.864 722.112c16.825 21.217 27.029 48.351 27.136 77.864v0.024c0 70.692-57.308 128-128 128s-128-57.308-128-128v0c0.107-29.537 10.311-56.671 27.337-78.151l-0.201 0.263c-164.504-45.824-283.2-194.318-283.2-370.534 0-212.077 171.923-384 384-384s384 171.923 384 384c0 176.216-118.696 324.71-280.499 369.89l-2.701 0.644zM512 864c35.346 0 64-28.654 64-64s-28.654-64-64-64c-35.346 0-64 28.654-64 64v0c0 35.346 28.654 64 64 64v0zM512 32c-176.731 0-320 143.269-320 320s143.269 320 320 320c176.731 0 320-143.269 320-320v0c-0.2-176.651-143.349-319.8-319.981-320h-0.019zM918.624 585.376c-5.791-5.789-13.789-9.369-22.624-9.369s-16.833 3.58-22.624 9.369l-128 128c-5.558 5.749-8.983 13.59-8.983 22.231 0 17.673 14.327 32 32 32 8.641 0 16.482-3.425 22.24-8.991l127.991-127.991c5.789-5.791 9.369-13.789 9.369-22.624s-3.58-16.833-9.369-22.624v0zM105.376 585.376c-5.789 5.791-9.369 13.789-9.369 22.624s3.58 16.833 9.369 22.624l128 128c5.749 5.558 13.59 8.983 22.231 8.983 17.673 0 32-14.327 32-32 0-8.641-3.425-16.482-8.991-22.24l-127.991-127.991c-5.791-5.789-13.789-9.369-22.624-9.369s-16.833 3.58-22.624 9.369v0zM640 256c0-17.673-14.327-32-32-32v0h-192c-17.67 0.004-31.993 14.329-31.993 32 0 8.835 3.58 16.833 9.369 22.624l137.376 137.376h-114.752c-17.673 0-32 14.327-32 32s14.327 32 32 32v0h192c17.67-0.004 31.993-14.329 31.993-32 0-8.835-3.58-16.833-9.369-22.624l-137.376-137.376h114.752c17.673 0 32-14.327 32-32v0z" />
<glyph unicode="&#xe932;" glyph-name="left" d="M704 320h-320.256v-128c0-0.001 0-0.003 0-0.005 0-17.673-14.327-32-32-32-8.185 0-15.652 3.073-21.311 8.128l0.031-0.027-288.192 256c-6.33 6.018-10.267 14.501-10.267 23.904s3.937 17.886 10.253 23.891l0.014 0.013 288.192 256c5.628 5.028 13.095 8.101 21.28 8.101 17.673 0 32-14.327 32-32 0-0.002 0-0.004 0-0.005v0-128h320.256c17.673 0 32-14.327 32-32v0-192c0-17.673-14.327-32-32-32v0zM351.744 512c-17.673 0-32 14.327-32 32v0 88.736l-208.032-184.736 208-184.736v88.736c0 17.673 14.327 32 32 32v0h320.288v128zM960 320h-128c-17.673 0-32 14.327-32 32v0 192c0 17.673 14.327 32 32 32v0h128c17.673 0 32-14.327 32-32v0-192c0-17.673-14.327-32-32-32v0zM864 512v-128h64v128z" />
<glyph unicode="&#xe933;" glyph-name="search-cross-alt" d="M534.4 617.6l-73.248-73.6 73.248-73.28c4.783-5.559 7.695-12.847 7.695-20.815 0-17.673-14.327-32-32-32-7.968 0-15.255 2.912-20.857 7.73l0.042-0.035-73.28 73.248-73.6-73.248c-5.559-4.783-12.847-7.695-20.815-7.695-17.673 0-32 14.327-32 32 0 7.968 2.912 15.255 7.73 20.857l-0.035-0.042 73.376 73.28-73.376 73.6c-4.783 5.559-7.695 12.847-7.695 20.815 0 17.673 14.327 32 32 32 7.968 0 15.255-2.912 20.857-7.73l-0.042 0.035 73.6-73.376 73.28 73.376c5.559 4.783 12.847 7.695 20.815 7.695 17.673 0 32-14.327 32-32 0-7.968-2.912-15.255-7.73-20.857l0.035 0.042zM982.4-22.4c-5.791-5.789-13.789-9.369-22.624-9.369s-16.833 3.58-22.624 9.369l-273.472 273.44c-66.41-56.398-153.124-90.696-247.849-90.696-212.077 0-384 171.923-384 384s171.923 384 384 384c212.077 0 384-171.923 384-384 0-94.82-34.367-181.613-91.325-248.603l0.453 0.547 273.664-273.664c5.789-5.791 9.369-13.789 9.369-22.624s-3.58-16.833-9.369-22.624v0zM642.208 770.432c-57.904 57.881-137.886 93.68-226.228 93.68-176.731 0-320-143.269-320-320s143.269-320 320-320c88.343 0 168.324 35.799 226.229 93.681l-0.001-0.001c57.82 57.966 93.573 137.968 93.573 226.32s-35.753 168.354-93.58 226.327l0.006-0.007z" />
<glyph unicode="&#xe934;" glyph-name="flag-alt" d="M873.76 702.56l-704 224c-2.779 0.86-5.974 1.355-9.285 1.355-17.74 0-32.158-14.222-32.475-31.886v-896.030c0-17.673 14.327-32 32-32s32 14.327 32 32v0 424.64l681.76 216.928c13.043 4.239 22.305 16.286 22.305 30.496s-9.262 26.257-22.079 30.432l-0.226 0.064zM192 491.808v360.512l566.4-180.32z" />
<glyph unicode="&#xe935;" glyph-name="save" d="M982.624 662.624l-256 256c-5.79 5.791-13.788 9.374-22.624 9.376h-608c-35.346 0-64-28.654-64-64v0-832c0-35.346 28.654-64 64-64v0h832c35.346 0 64 28.654 64 64v0 608c-0.002 8.836-3.585 16.834-9.376 22.624v0zM768 32h-512v352c0 17.673 14.327 32 32 32v0h448c17.673 0 32-14.327 32-32v0zM832 32v352c0 53.019-42.981 96-96 96v0h-448c-53.019 0-96-42.981-96-96v0-352h-96v832h594.752l237.248-237.248v-594.752z" />
<glyph unicode="&#xe936;" glyph-name="eye-close" d="M989.184 530.88c1.777 3.856 2.813 8.367 2.813 13.12s-1.036 9.264-2.895 13.319l0.082-0.199c-5.056 11.232-127.776 274.88-477.184 274.88s-472.128-263.648-477.184-274.88c-1.777-3.856-2.813-8.367-2.813-13.12s1.036-9.264 2.895-13.319l-0.082 0.199c47.114-90.419 118.458-162.659 205.469-209.585l2.627-1.295-105.6-105.6c-5.558-5.749-8.983-13.59-8.983-22.231 0-17.673 14.327-32 32-32 8.641 0 16.482 3.425 22.24 8.991l-0.009-0.009 122.848 123.008c51.597-19.567 111.244-32.053 173.452-34.619l1.14-0.037v-161.504c0-17.673 14.327-32 32-32s32 14.327 32 32v0 161.504c63.348 2.603 122.995 15.089 178.541 35.957l-3.949-1.301 122.784-122.784c5.749-5.558 13.59-8.983 22.231-8.983 17.673 0 32 14.327 32 32 0 8.641-3.425 16.482-8.991 22.24l-105.591 105.591c89.636 48.156 160.997 120.319 206.862 207.934l1.298 2.722zM512 320c-267.872 0-384 173.344-411.968 224 81.756 135.269 228.023 224.31 395.086 224.31 5.937 0 11.847-0.112 17.729-0.335l-0.848 0.025c267.968 0 384-173.472 411.968-224-81.749-135.269-228.010-224.31-395.069-224.31-5.943 0-11.86 0.113-17.748 0.336l0.849-0.026z" />
<glyph unicode="&#xe937;" glyph-name="print-alt" d="M928 608h-160v96c-0.361 8.774-3.861 16.668-9.397 22.647l0.021-0.023-128 128c-5.958 5.513-13.85 9.012-22.553 9.374l-0.071 0.002h-288c-35.346 0-64-28.654-64-64v0-192h-160c-35.346 0-64-28.654-64-64v0-416c0-17.673 14.327-32 32-32v0h192c0-35.346 28.654-64 64-64v0h384c35.346 0 64 28.654 64 64v0h192c17.673 0 32 14.327 32 32v0 416c0 35.346-28.654 64-64 64v0zM320 800h256v-96c0-17.673 14.327-32 32-32v0h96v-64h-384zM704 96h-384v320h384zM928 160h-160v288c0 17.673-14.327 32-32 32v0h-448c-17.673 0-32-14.327-32-32v0-288h-160v384h832zM384 320c0 17.673 14.327 32 32 32v0h192c17.673 0 32-14.327 32-32s-14.327-32-32-32v0h-192c-17.673 0-32 14.327-32 32v0zM384 192c0 17.673 14.327 32 32 32v0h192c17.673 0 32-14.327 32-32s-14.327-32-32-32v0h-192c-17.673 0-32 14.327-32 32v0z" />
<glyph unicode="&#xe938;" glyph-name="dashboard" d="M928 864h-832c-35.346 0-64-28.654-64-64v0-704c0-35.346 28.654-64 64-64v0h832c35.346 0 64 28.654 64 64v0 704c0 35.346-28.654 64-64 64v0zM96 800h832v-128h-832zM96 96v512h832v-512z" />
<glyph unicode="&#xe939;" glyph-name="note" d="M896 928h-640c-53.019 0-96-42.981-96-96v0-96h-96c-17.673 0-32-14.327-32-32s14.327-32 32-32v0h96v-192h-96c-17.673 0-32-14.327-32-32s14.327-32 32-32v0h96v-192h-96c-17.673 0-32-14.327-32-32s14.327-32 32-32v0h96v-96c0-53.019 42.981-96 96-96v0h640c53.019 0 96 42.981 96 96v0 768c0 53.019-42.981 96-96 96v0zM928 64c0-17.673-14.327-32-32-32v0h-640c-17.673 0-32 14.327-32 32v0 768c0 17.673 14.327 32 32 32v0h640c17.673 0 32-14.327 32-32v0zM800 192c0-17.673-14.327-32-32-32v0h-384c-17.673 0-32 14.327-32 32s14.327 32 32 32v0h384c17.673 0 32-14.327 32-32v0zM800 704c0-17.673-14.327-32-32-32v0h-384c-17.673 0-32 14.327-32 32s14.327 32 32 32v0h384c17.673 0 32-14.327 32-32v0zM800 448c0-17.673-14.327-32-32-32v0h-384c-17.673 0-32 14.327-32 32s14.327 32 32 32v0h384c17.673 0 32-14.327 32-32v0z" />
<glyph unicode="&#xe93a;" glyph-name="cloud-download" d="M630.624 214.592c5.789-5.791 9.369-13.789 9.369-22.624s-3.58-16.833-9.369-22.624l-96-96c-5.791-5.789-13.789-9.369-22.624-9.369s-16.833 3.58-22.624 9.369l-96 96c-6.027 5.827-9.769 13.985-9.769 23.017 0 17.673 14.327 32 32 32 9.032 0 17.19-3.742 23.009-9.76l41.385-41.385v306.784c0 17.673 14.327 32 32 32s32-14.327 32-32v0-306.784l41.376 41.376c5.791 5.789 13.789 9.369 22.624 9.369s16.833-3.58 22.624-9.369v0zM768 704c-0.083 0-0.18 0-0.278 0-18.067 0-35.626-2.17-52.433-6.263l1.511 0.311c-35.583 79.461-113.966 133.818-205.045 133.818-89.3 0-166.394-52.255-202.375-127.855l-0.581-1.355c-6.233 0.84-13.451 1.328-20.781 1.344h-0.019c-105.995-0.109-191.891-86.005-192-191.99v-0.010c0-5.6 0.288-11.264 0.864-17.056-38.985-22.087-64.865-63.292-64.865-110.541 0-0.141 0-0.283 0.001-0.424v0.022c0-70.692 57.308-128 128-128v0h192c17.673 0 32 14.327 32 32s-14.327 32-32 32v0h-192c-35.346 0-64 28.654-64 64v0c0.042 28.692 19.139 52.911 45.311 60.686l0.449 0.114c13.297 4.085 22.797 16.257 22.797 30.648 0 2.591-0.308 5.11-0.889 7.522l0.044-0.218c-2.372 9.168-3.734 19.692-3.734 30.535 0 69.986 56.734 126.72 126.72 126.72 0.458 0 0.915-0.002 1.372-0.007l-0.070 0.001c11.737-0.209 22.976-1.983 33.631-5.122l-0.895 0.226c2.474-0.687 5.315-1.081 8.248-1.081 14.219 0 26.272 9.274 30.44 22.103l0.064 0.226c21.264 65.101 81.441 111.307 152.411 111.307 73.317 0 135.116-49.313 154.039-116.581l0.271-1.127c3.81-13.722 16.191-23.626 30.885-23.626 4.275 0 8.353 0.838 12.081 2.359l-0.214-0.077c17.557 7.208 37.936 11.392 59.293 11.392 88.366 0 160-71.634 160-160s-71.634-160-160-160c-0.089 0-0.177 0-0.266 0h-95.986c-17.673 0-32-14.327-32-32s14.327-32 32-32v0h96c123.712 0 224 100.288 224 224s-100.288 224-224 224v0z" />
<glyph unicode="&#xe93b;" glyph-name="trash" d="M960 736h-104.96l-49.376 148.224c-8.731 25.652-32.609 43.776-60.721 43.776-0.005 0-0.011 0-0.016 0h-465.855c-0.027 0-0.058 0-0.090 0-28.1 0-51.97-18.109-60.576-43.294l-0.134-0.45-49.344-148.256h-104.928c-17.673 0-32-14.327-32-32s14.327-32 32-32v0h100.064l88.448-648.672c4.525-31.369 31.173-55.22 63.413-55.328h392.139c32.256 0.094 58.912 23.953 63.383 54.983l0.041 0.345 88.448 648.672h100.064c17.673 0 32 14.327 32 32s-14.327 32-32 32v0zM279.072 864h465.856l42.656-128h-551.2zM708.064 32h-392.128l-87.264 640h566.656zM384 128v448c0 17.673 14.327 32 32 32s32-14.327 32-32v0-448c0-17.673-14.327-32-32-32s-32 14.327-32 32v0zM576 128v448c0 17.673 14.327 32 32 32s32-14.327 32-32v0-448c0-17.673-14.327-32-32-32s-32 14.327-32 32v0z" />
<glyph unicode="&#xe93c;" glyph-name="login" d="M970.112 798.336l-384 128c-3.018 1.039-6.495 1.64-10.112 1.64-17.665 0-31.986-14.313-32-31.974v-96.001h-256c-35.346 0-64-28.654-64-64v0-96c0-17.673 14.327-32 32-32s32 14.327 32 32v0 96h256v-576h-256v96c0 17.673-14.327 32-32 32s-32-14.327-32-32v0-96c0-35.346 28.654-64 64-64v0h256v-96c0.014-17.663 14.335-31.976 32-31.976 3.617 0 7.094 0.6 10.337 1.706l-0.225-0.067 384 128c12.818 4.363 21.877 16.29 21.888 30.335v640.001c-0.011 14.046-9.070 25.973-21.663 30.269l-0.225 0.067zM928 151.072l-320-106.688v807.2l320-106.656zM672 448c0 17.673 14.327 32 32 32v0h64c17.673 0 32-14.327 32-32s-14.327-32-32-32v0h-64c-17.673 0-32 14.327-32 32v0zM370.752 416h-306.752c-17.673 0-32 14.327-32 32s14.327 32 32 32v0h306.752l-41.376 41.376c-5.558 5.749-8.983 13.59-8.983 22.231 0 17.673 14.327 32 32 32 8.641 0 16.482-3.425 22.24-8.991l95.991-95.991c5.752-5.813 9.306-13.812 9.306-22.64s-3.554-16.827-9.309-22.643l-95.997-95.997c-5.749-5.558-13.59-8.983-22.231-8.983-17.673 0-32 14.327-32 32 0 8.641 3.425 16.482 8.991 22.24l-0.009-0.009z" />
<glyph unicode="&#xe93d;" glyph-name="block" d="M512 928c-265.097 0-480-214.903-480-480s214.903-480 480-480c265.097 0 480 214.903 480 480v0c-0.346 264.957-215.042 479.654-479.966 480h-0.034zM512 32c-0.175 0-0.383 0-0.59 0-229.432 0-415.424 185.992-415.424 415.424 0 103.746 38.030 198.611 100.911 271.412l-0.449-0.531 585.856-585.856c-72.036-62.416-166.682-100.448-270.21-100.448-0.033 0-0.066 0-0.099 0h0.005zM827.552 177.696l-585.856 585.856c72.285 62.483 167.187 100.547 270.979 100.547 229.432 0 415.424-185.992 415.424-415.424 0-103.792-38.064-198.694-100.994-271.508l0.447 0.529z" />
<glyph unicode="&#xe93e;" glyph-name="shield" d="M972.608 733.408l-448 192c-3.707 1.638-8.030 2.592-12.576 2.592s-8.869-0.954-12.78-2.672l0.204 0.080-448-192c-11.513-5.016-19.415-16.296-19.415-29.422 0-2.456 0.277-4.848 0.801-7.145l-0.041 0.215 128-576c2.412-10.437 9.648-18.791 19.178-22.706l0.214-0.078 319.968-127.968c3.515-1.445 7.596-2.284 11.872-2.284s8.357 0.839 12.086 2.361l-0.214-0.077 0.576 0.224 319.392 127.744c9.744 3.993 16.98 12.347 19.35 22.567l0.042 0.217 128 576c0.483 2.083 0.759 4.474 0.759 6.93 0 13.126-7.903 24.406-19.209 29.341l-0.206 0.080zM480 47.264l-260.448 104.16-58.784 264.576h319.232zM480 480h-333.44l-45.568 205.024 379.008 162.464zM804.448 151.424l-260.448-104.16v368.736h319.232zM877.44 480h-333.44v367.488l379.008-162.464z" />
<glyph unicode="&#xe93f;" glyph-name="information" d="M512 96.704c-17.673 0-32 14.327-32 32v0 320c0 17.673 14.327 32 32 32s32-14.327 32-32v0-320c0-17.673-14.327-32-32-32v0zM544 576.704c0 17.673-14.327 32-32 32s-32-14.327-32-32c0-17.673 14.327-32 32-32v0c17.673 0 32 14.327 32 32v0zM988.576 14.368l-448 897.344c-5.896 9.83-16.496 16.307-28.608 16.307s-22.712-6.477-28.524-16.156l-0.084-0.15-448-897.344c-2.148-4.184-3.407-9.129-3.407-14.368 0-17.673 14.327-32 32-32 0.017 0 0.033 0 0.050 0h895.997c17.666 0.010 31.983 14.333 31.983 32 0 5.239-1.259 10.184-3.491 14.549l0.084-0.181zM512 825.6l396.192-793.6h-792.384z" />
<glyph unicode="&#xe940;" glyph-name="search-cross" d="M470.656 681.344l-73.376-73.344 73.376-73.376c6.027-5.827 9.769-13.985 9.769-23.017 0-17.673-14.327-32-32-32-9.032 0-17.19 3.742-23.009 9.76l-73.417 73.353-73.344-73.376c-5.827-6.027-13.985-9.769-23.017-9.769-17.673 0-32 14.327-32 32 0 9.032 3.742 17.19 9.76 23.009l73.385 73.417-73.376 73.344c-6.027 5.827-9.769 13.985-9.769 23.017 0 17.673 14.327 32 32 32 9.032 0 17.19-3.742 23.009-9.76l73.353-73.385 73.376 73.376c5.827 6.027 13.985 9.769 23.017 9.769 17.673 0 32-14.327 32-32 0-9.032-3.742-17.19-9.76-23.009l-0.009-0.009zM982.656 9.344l-32-32c-5.791-5.789-13.789-9.369-22.624-9.369s-16.833 3.58-22.624 9.369l-288 288c-11.52 11.52-9.376 24.608-9.376 41.376l-53.472 53.472c-54.69-44.971-125.419-72.236-202.516-72.236-176.731 0-320 143.269-320 320s143.269 320 320 320c176.731 0 320-143.269 320-320 0-77.097-27.265-147.827-72.679-203.072l0.443 0.556 53.472-53.44c16.768 0 29.856 2.144 41.376-9.376l288-288c5.779-5.789 9.353-13.781 9.353-22.608 0-8.843-3.587-16.848-9.385-22.64v0zM533.056 788.96c-46.328 46.334-110.333 74.992-181.031 74.992-141.385 0-256-114.615-256-256s114.615-256 256-256c70.698 0 134.703 28.658 181.030 74.992v0c46.359 46.308 75.036 110.309 75.036 181.008s-28.677 134.7-75.033 181.006l-0.002 0.002z" />
<glyph unicode="&#xe941;" glyph-name="flag" d="M742.4 704l116.192 174.24c3.371 4.99 5.381 11.14 5.381 17.76 0 17.664-14.311 31.984-31.971 32h-640.001c-17.673 0-32-14.327-32-32v0-896c0-17.673 14.327-32 32-32s32 14.327 32 32v0 480h608c0.001 0 0.003 0 0.005 0 17.673 0 32 14.327 32 32 0 6.62-2.010 12.77-5.453 17.874l0.072-0.114zM224 544v320h548.16l-94.816-142.24c-3.371-4.99-5.381-11.14-5.381-17.76s2.010-12.77 5.453-17.874l-0.072 0.114 94.816-142.24z" />
<glyph unicode="&#xe942;" glyph-name="right-alt" d="M448 576h192.16v128c0 0.001 0 0.003 0 0.005 0 17.673 14.327 32 32 32 8.185 0 15.652-3.073 21.311-8.128l-0.031 0.027 288.256-256c6.33-6.018 10.267-14.501 10.267-23.904s-3.937-17.886-10.253-23.891l-0.014-0.013-288.256-256c-5.623-5.011-13.078-8.073-21.248-8.073-17.665 0-31.987 14.314-32 31.975v128.001h-192.192c-17.673 0-32 14.327-32 32v0 192c0 17.673 14.327 32 32 32v0zM672.192 384c17.673 0 32-14.327 32-32v0-88.736l208.064 184.736-208 184.736v-88.736c0-17.673-14.327-32-32-32v0h-192.256v-128zM192 576h128c17.673 0 32-14.327 32-32v0-192c0-17.673-14.327-32-32-32v0h-128c-17.673 0-32 14.327-32 32v0 192c0 17.673 14.327 32 32 32v0zM288 384v128h-64v-128zM32 544v-192c0-17.673 14.327-32 32-32s32 14.327 32 32v0 192c0 17.673-14.327 32-32 32s-32-14.327-32-32v0z" />
<glyph unicode="&#xe943;" glyph-name="exit-fullscreen" d="M192 160h-128c-17.673 0-32-14.327-32-32v0-128c0-17.673 14.327-32 32-32v0h128c17.673 0 32 14.327 32 32v0 128c0 17.673-14.327 32-32 32v0zM160 32h-64v64h64zM992 864v-832c0-35.346-28.654-64-64-64v0h-576c-17.673 0-32 14.327-32 32s14.327 32 32 32v0h576v832h-832v-576c0-17.673-14.327-32-32-32s-32 14.327-32 32v0 576c0 35.346 28.654 64 64 64v0h832c35.346 0 64-28.654 64-64v0zM320 301.248l329.376 329.376c5.749 5.558 13.59 8.983 22.231 8.983 17.673 0 32-14.327 32-32 0-8.641-3.425-16.482-8.991-22.24l-329.367-329.367h82.752c17.673 0 32-14.327 32-32s-14.327-32-32-32v0h-160c-17.673 0-32 14.327-32 32v0 160c0 17.673 14.327 32 32 32s32-14.327 32-32v0z" />
<glyph unicode="&#xe944;" glyph-name="print" d="M928 704h-160v64c0 35.346-28.654 64-64 64v0h-384c-35.346 0-64-28.654-64-64v0-64h-160c-35.346 0-64-28.654-64-64v0-384c0-35.346 28.654-64 64-64v0h160v-64c0-35.346 28.654-64 64-64v0h384c35.346 0 64 28.654 64 64v0 64h160c35.346 0 64 28.654 64 64v0 384c0 35.346-28.654 64-64 64v0zM320 768h384v-64h-384zM704 128h-384v384h384zM928 256h-160v288c0 17.673-14.327 32-32 32v0h-448c-17.673 0-32-14.327-32-32v0-288h-160v384h832zM384 384c0 17.673 14.327 32 32 32v0h192c17.673 0 32-14.327 32-32s-14.327-32-32-32v0h-192c-17.673 0-32 14.327-32 32v0zM384 256c0 17.673 14.327 32 32 32v0h192c17.673 0 32-14.327 32-32s-14.327-32-32-32v0h-192c-17.673 0-32 14.327-32 32v0z" />
<glyph unicode="&#xe945;" glyph-name="cut" d="M893.248 270.176c-35.088 49.68-92.272 81.727-156.941 81.727-31.775 0-61.743-7.737-88.123-21.43l1.065 0.503-98.496 144 275.648 402.88c3.901 5.242 6.246 11.844 6.246 18.993 0 17.673-14.327 32-32 32-11.329 0-21.283-5.887-26.969-14.769l-0.077-0.128-261.6-382.208-261.6 382.304c-5.763 9.010-15.717 14.897-27.046 14.897-17.673 0-32-14.327-32-32 0-7.149 2.344-13.751 6.307-19.078l-0.061 0.085 275.648-402.88-98.496-144c-25.072 12.893-54.709 20.45-86.111 20.45-105.774 0-191.52-85.746-191.52-191.52s85.746-191.52 191.52-191.52c105.774 0 191.52 85.746 191.52 191.52 0 51.765-20.537 98.733-53.907 133.201l0.050-0.052 85.696 125.28 85.696-125.216c-33.234-34.47-53.709-81.439-53.709-133.19 0-106.039 85.961-192 192-192s192 85.961 192 192c0 41.247-13.007 79.457-35.142 110.751l0.403-0.601zM392.864 86.656c-23.447-33.189-61.655-54.597-104.862-54.597-70.692 0-128 57.308-128 128s57.308 128 128 128c27.5 0 52.975-8.672 73.838-23.431l-0.4 0.269c33.169-23.45 54.562-61.645 54.562-104.837 0-27.485-8.663-52.947-23.407-73.804l0.269 0.401zM809.376 55.2c-20.463-14.49-45.938-23.163-73.438-23.163-70.692 0-128 57.308-128 128s57.308 128 128 128c43.207 0 81.415-21.408 104.593-54.196l0.269-0.401c14.475-20.456 23.138-45.918 23.138-73.403 0-43.192-21.393-81.388-54.162-104.569l-0.4-0.269z" />
<glyph unicode="&#xe946;" glyph-name="minus" d="M512-32c-265.097 0-480 214.903-480 480s214.903 480 480 480c265.097 0 480-214.903 480-480v0c-0.309-264.972-215.027-479.69-479.97-480h-0.030zM512 864c-229.75 0-416-186.25-416-416s186.25-416 416-416c229.75 0 416 186.25 416 416v0c-0.273 229.641-186.359 415.727-415.974 416h-0.026zM704 448c0 17.673-14.327 32-32 32v0h-320c-17.673 0-32-14.327-32-32s14.327-32 32-32v0h320c17.673 0 32 14.327 32 32v0z" />
<glyph unicode="&#xe947;" glyph-name="cloud-disable" d="M992 384c-0.15 123.704-100.467 223.928-224.192 223.928-18.093 0-35.685-2.143-52.536-6.19l1.528 0.31c-35.574 79.483-113.968 133.86-205.063 133.86-66.448 0-126.138-28.933-167.16-74.888l-0.193-0.22-129.984 129.824c-5.629 5.035-13.102 8.113-21.293 8.113-17.673 0-32-14.327-32-32 0-8.223 3.102-15.722 8.199-21.39l-0.026 0.029 138.688-138.688c-5.98 0.661-12.913 1.038-19.935 1.038-106.039 0-192-85.961-192-192 0-5.908 0.267-11.753 0.789-17.525l-0.054 0.744c-38.622-22.522-64.163-63.751-64.163-110.945 0-70.48 56.963-127.655 127.363-127.998h594.753l54.624-54.624c5.793-5.797 13.798-9.382 22.64-9.382 17.677 0 32.006 14.33 32.006 32.006 0 8.834-3.579 16.833-9.367 22.624l-19.648 19.648c91.681 29.503 156.883 113.982 157.024 213.711v0.017zM160 224c-35.097 0.165-63.486 28.655-63.486 63.775 0 28.612 18.842 52.823 44.794 60.903l0.452 0.121c13.297 4.085 22.797 16.257 22.797 30.648 0 2.591-0.308 5.11-0.889 7.522l0.044-0.218c-2.238 8.924-3.523 19.169-3.523 29.713 0 70.18 56.892 127.072 127.072 127.072 11.922 0 23.46-1.642 34.401-4.712l-0.894 0.214c2.355-0.625 5.059-0.984 7.847-0.984 12.914 0 24.029 7.704 29 18.767l0.081 0.201 333.024-333.024zM780.096 225.216l-390.016 389.888c29.481 34.764 73.191 56.681 122.020 56.681 73.314 0 135.087-49.408 153.841-116.742l0.267-1.123c3.824-13.701 16.194-23.585 30.874-23.585 4.267 0 8.338 0.835 12.060 2.35l-0.214-0.077c17.597 7.263 38.029 11.48 59.445 11.48 88.171 0 159.648-71.477 159.648-159.648 0-84.080-64.997-152.978-147.487-159.192l-0.535-0.032z" />
<glyph unicode="&#xe948;" glyph-name="time" d="M851.2 787.2c-86.871 86.912-206.905 140.672-339.494 140.672-265.097 0-480-214.903-480-480s214.903-480 480-480c132.59 0 252.623 53.759 339.492 140.67l0.002 0.002c86.914 86.809 140.678 206.79 140.678 339.328s-53.764 252.52-140.674 339.324l-0.004 0.004zM806.080 153.92c-75.289-75.327-179.32-121.92-294.233-121.92-229.75 0-416 186.25-416 416s186.25 416 416 416c114.913 0 218.944-46.593 294.231-121.918l0.002-0.002c75.328-75.231 121.926-179.214 121.926-294.080s-46.598-218.849-121.922-294.075l-0.005-0.005zM662.624 342.72c5.558-5.749 8.983-13.59 8.983-22.231 0-17.673-14.327-32-32-32-8.641 0-16.482 3.425-22.24 8.991l-127.991 127.991c-5.73 5.792-9.295 13.736-9.376 22.512v320.016c0 17.673 14.327 32 32 32s32-14.327 32-32v0-306.752z" />
<glyph unicode="&#xe949;" glyph-name="lock" d="M608 299.616c-0.177-41.389-26.519-76.58-63.331-89.901l-0.669-0.211v-80.544c0-17.673-14.327-32-32-32s-32 14.327-32 32v0 80.544c-37.43 13.614-63.68 48.883-63.68 90.283 0 52.931 42.909 95.84 95.84 95.84s95.84-42.909 95.84-95.84c0-0.060 0-0.12 0-0.18v0.009zM896 448.96v-384.768c0 0 0 0 0 0 0-53.058-42.957-96.083-95.99-96.192h-576.010c-53.043 0.109-96 43.134-96 96.192 0 0 0 0 0 0v0 384.768c0 0 0 0 0 0 0 53.058 42.957 96.083 95.99 96.192h0.010v99.808c0 375.904 576 378.88 576 0v-99.808c53.043-0.109 96-43.134 96-96.192 0 0 0 0 0 0v0zM288 545.152h448v99.808c0 294.24-448 291.2-448 0zM832 448.96c0 17.673-14.327 32-32 32v0h-576c-17.673 0-32-14.327-32-32v0-384.768c0-17.673 14.327-32 32-32v0h576c17.673 0 32 14.327 32 32v0z" />
<glyph unicode="&#xe94a;" glyph-name="app-notification" d="M704 832c0 35.346 28.654 64 64 64s64-28.654 64-64c0-35.346-28.654-64-64-64v0c-35.346 0-64 28.654-64 64v0zM928 192c0-53.019-42.981-96-96-96v0h-229.888c3.623-9.499 5.773-20.481 5.888-31.951v-0.049c0-53.019-42.981-96-96-96s-96 42.981-96 96v0c0.115 11.519 2.265 22.501 6.105 32.653l-0.217-0.653h-229.888c-53.019 0-96 42.981-96 96s42.981 96 96 96v0 192c0.215 165.374 125.68 301.377 286.613 318.25l1.387 0.118v97.632c0 17.673 14.327 32 32 32s32-14.327 32-32v0-97.632c162.32-16.991 287.785-152.994 288-318.346v-192.022c53.019 0 96-42.981 96-96v0zM256 288h512v192c0 141.385-114.615 256-256 256s-256-114.615-256-256v0zM544 64c0 17.673-14.327 32-32 32s-32-14.327-32-32c0-17.673 14.327-32 32-32v0c17.673 0 32 14.327 32 32v0zM864 192c0 17.673-14.327 32-32 32v0h-640c-17.673 0-32-14.327-32-32s14.327-32 32-32v0h640c17.673 0 32 14.327 32 32v0z" />
<glyph unicode="&#xe94b;" glyph-name="share" d="M768 672c-60.438-0.009-115.262-24.038-155.446-63.061l0.054 0.053-266.464 118.4c3.527 12.123 5.652 26.076 5.855 40.493l0.001 0.115c0.007 0.557 0.011 1.216 0.011 1.875 0 89.408-72.48 161.888-161.888 161.888s-161.888-72.48-161.888-161.888c0-89.408 72.48-161.888 161.888-161.888 51.587 0 97.538 24.129 127.184 61.717l0.261 0.344 254.816-113.248c-17.856-31.326-28.383-68.834-28.383-108.8s10.527-77.474 28.959-109.901l-0.576 1.101-254.816-113.248c-30.588 39.402-77.962 64.516-131.201 64.516-91.494 0-165.664-74.17-165.664-165.664s74.17-165.664 165.664-165.664c91.494 0 165.664 74.17 165.664 165.664 0 15.575-2.149 30.648-6.168 44.939l0.28-1.166 266.464 118.4c40.252-38.962 95.179-62.976 155.715-62.976 123.712 0 224 100.288 224 224s-100.288 224-224 224c-0.114 0-0.227 0-0.341 0h0.018zM192 672c-53.019 0-96 42.981-96 96s42.981 96 96 96c53.019 0 96-42.981 96-96v0c0-53.019-42.981-96-96-96v0zM192 32c-53.019 0-96 42.981-96 96s42.981 96 96 96c53.019 0 96-42.981 96-96v0c0-53.019-42.981-96-96-96v0zM768 288c-88.366 0-160 71.634-160 160s71.634 160 160 160c88.366 0 160-71.634 160-160v0c-0.109-88.321-71.678-159.891-159.989-160h-0.011z" />
<glyph unicode="&#xe94c;" glyph-name="home-alt" d="M960-32h-352c-17.673 0-32 14.327-32 32v0 256h-128v-256c0-17.673-14.327-32-32-32v0h-352c-17.673 0-32 14.327-32 32v0 608c0 11.241 5.797 21.129 14.564 26.837l0.124 0.075 448 288c4.892 3.19 10.881 5.087 17.312 5.087s12.42-1.897 17.436-5.163l-0.124 0.075 448-288c8.891-5.783 14.688-15.671 14.688-26.912v0-608c0-17.673-14.327-32-32-32v0zM640 32h288v558.528l-416 267.424-416-267.424v-558.528h288v256c0 17.673 14.327 32 32 32v0h192c17.673 0 32-14.327 32-32v0z" />
<glyph unicode="&#xe94d;" glyph-name="search-check-alt" d="M534.4 630.72c5.789-5.791 9.369-13.789 9.369-22.624s-3.58-16.833-9.369-22.624l-128-128c-5.791-5.789-13.789-9.369-22.624-9.369s-16.833 3.58-22.624 9.369l-64 64c-5.558 5.749-8.983 13.59-8.983 22.231 0 17.673 14.327 32 32 32 8.641 0 16.482-3.425 22.24-8.991l-0.009 0.009 41.6-41.376 105.28 105.376c5.784 5.751 13.757 9.305 22.56 9.305s16.776-3.555 22.562-9.307l-0.002 0.002zM982.4-22.624c-5.791-5.789-13.789-9.369-22.624-9.369s-16.833 3.58-22.624 9.369l-273.664 273.664c-66.428-56.456-153.185-90.791-247.961-90.791-212.077 0-384 171.923-384 384s171.923 384 384 384c212.077 0 384-171.923 384-384 0-94.776-34.336-181.533-91.246-248.51l0.455 0.549 273.664-273.664c5.856-5.801 9.482-13.845 9.482-22.736 0-8.779-3.535-16.733-9.26-22.515l0.003 0.003zM642.208 770.432c-57.904 57.881-137.886 93.68-226.228 93.68-176.731 0-320-143.269-320-320s143.269-320 320-320c88.343 0 168.324 35.799 226.229 93.681l-0.001-0.001c57.82 57.966 93.573 137.968 93.573 226.32s-35.753 168.354-93.58 226.327l0.006-0.007z" />
<glyph unicode="&#xe94e;" glyph-name="filter" d="M64 736h292.544c14.498-55.598 64.262-95.97 123.456-95.97s108.958 40.372 123.259 95.084l0.197 0.886h356.544c17.673 0 32 14.327 32 32s-14.327 32-32 32v0h-356.544c-14.498 55.598-64.262 95.97-123.456 95.97s-108.958-40.372-123.259-95.084l-0.197-0.886h-292.544c-17.673 0-32-14.327-32-32s14.327-32 32-32v0zM480 832c35.346 0 64-28.654 64-64s-28.654-64-64-64c-35.346 0-64 28.654-64 64v0c0 35.346 28.654 64 64 64v0zM960 480h-484.544c-14.498 55.598-64.262 95.97-123.456 95.97s-108.958-40.372-123.259-95.084l-0.197-0.886h-164.544c-17.673 0-32-14.327-32-32s14.327-32 32-32v0h164.544c14.498-55.598 64.262-95.97 123.456-95.97s108.958 40.372 123.259 95.084l0.197 0.886h484.544c17.673 0 32 14.327 32 32s-14.327 32-32 32v0zM352 384c-35.346 0-64 28.654-64 64s28.654 64 64 64c35.346 0 64-28.654 64-64v0c0-35.346-28.654-64-64-64v0zM960 160h-292.544c-14.498 55.598-64.262 95.97-123.456 95.97s-108.958-40.372-123.259-95.084l-0.197-0.886h-356.544c-17.673 0-32-14.327-32-32s14.327-32 32-32v0h356.544c14.498-55.598 64.262-95.97 123.456-95.97s108.958 40.372 123.259 95.084l0.197 0.886h292.544c17.673 0 32 14.327 32 32s-14.327 32-32 32v0zM544 64c-35.346 0-64 28.654-64 64s28.654 64 64 64c35.346 0 64-28.654 64-64v0c0-35.346-28.654-64-64-64v0z" />
<glyph unicode="&#xe94f;" glyph-name="right" d="M320 576h320.256v128c0 0.001 0 0.003 0 0.005 0 17.673 14.327 32 32 32 8.185 0 15.652-3.073 21.311-8.128l-0.031 0.027 288.192-256c6.33-6.018 10.267-14.501 10.267-23.904s-3.937-17.886-10.253-23.891l-0.014-0.013-288.192-256c-5.628-5.028-13.095-8.101-21.28-8.101-17.673 0-32 14.327-32 32 0 0.002 0 0.004 0 0.005v0 128h-320.256c-17.673 0-32 14.327-32 32v0 192c0 17.673 14.327 32 32 32v0zM672.224 384c17.673 0 32-14.327 32-32v0-88.736l208.064 184.736-208 184.736v-88.736c0-17.673-14.327-32-32-32v0h-320.288v-128zM64 576h128c17.673 0 32-14.327 32-32v0-192c0-17.673-14.327-32-32-32v0h-128c-17.673 0-32 14.327-32 32v0 192c0 17.673 14.327 32 32 32v0zM160 384v128h-64v-128z" />
<glyph unicode="&#xe950;" glyph-name="draft" d="M982.624 598.624l-128 128c-5.791 5.789-13.789 9.369-22.624 9.369s-16.833-3.58-22.624-9.369l-384-384c-5.791-5.79-9.374-13.788-9.376-22.624v0-96h-352c-17.673 0-32-14.327-32-32s14.327-32 32-32v0h512c8.836 0.002 16.834 3.585 22.624 9.376l384 384c5.789 5.791 9.369 13.789 9.369 22.624s-3.58 16.833-9.369 22.624v0zM562.752 224h-82.752v82.752l352 352 82.752-82.752z" />
<glyph unicode="&#xe951;" glyph-name="power-sign" d="M512-32c-0.056 0-0.122 0-0.189 0-229.644 0-415.808 186.164-415.808 415.808 0 180 114.374 333.287 274.413 391.149l2.896 0.915c3.182 1.164 6.857 1.837 10.688 1.837 17.68 0 32.013-14.333 32.013-32.013 0-13.849-8.794-25.644-21.102-30.105l-0.223-0.071c-137.896-49.776-234.688-179.523-234.688-331.876 0-194.404 157.596-352 352-352s352 157.596 352 352c0 152.353-96.791 282.1-232.236 331.101l-2.452 0.775c-12.531 4.532-21.325 16.327-21.325 30.176 0 17.68 14.333 32.013 32.013 32.013 3.831 0 7.506-0.673 10.911-1.907l-0.223 0.071c162.934-58.777 277.309-212.064 277.309-392.064 0-229.644-186.164-415.808-415.808-415.808-0.066 0-0.133 0-0.199 0h0.010zM544 576v320c0 17.673-14.327 32-32 32s-32-14.327-32-32v0-320c0-17.673 14.327-32 32-32s32 14.327 32 32v0z" />
<glyph unicode="&#xe952;" glyph-name="cross" d="M982.624 694.624l-224 224c-5.79 5.791-13.788 9.374-22.624 9.376h-448c-8.836-0.002-16.834-3.585-22.624-9.376l-224-224c-5.791-5.79-9.374-13.788-9.376-22.624v0-448c0.002-8.836 3.585-16.834 9.376-22.624l224-224c5.79-5.791 13.788-9.374 22.624-9.376h448c8.836 0.002 16.834 3.585 22.624 9.376l224 224c5.791 5.79 9.374 13.788 9.376 22.624v0 448c-0.002 8.836-3.585 16.834-9.376 22.624v0zM928 237.248l-205.248-205.248h-421.504l-205.248 205.248v421.504l205.248 205.248h421.504l205.248-205.248zM726.624 662.624c5.789-5.791 9.369-13.789 9.369-22.624s-3.58-16.833-9.369-22.624l-169.376-169.376 169.376-169.376c5.558-5.749 8.983-13.59 8.983-22.231 0-17.673-14.327-32-32-32-8.641 0-16.482 3.425-22.24 8.991l-169.367 169.367-169.376-169.376c-5.749-5.558-13.59-8.983-22.231-8.983-17.673 0-32 14.327-32 32 0 8.641 3.425 16.482 8.991 22.24l169.367 169.367-169.376 169.376c-5.558 5.749-8.983 13.59-8.983 22.231 0 17.673 14.327 32 32 32 8.641 0 16.482-3.425 22.24-8.991l169.367-169.367 169.376 169.376c5.791 5.789 13.789 9.369 22.624 9.369s16.833-3.58 22.624-9.369v0z" />
<glyph unicode="&#xe953;" glyph-name="microphone-disable" d="M704 0c0-17.673-14.327-32-32-32v0h-320c-17.673 0-32 14.327-32 32s14.327 32 32 32v0h320c17.673 0 32-14.327 32-32v0zM854.624 105.376c-5.791-5.789-13.789-9.369-22.624-9.369s-16.833 3.58-22.624 9.369l-62.272 62.272c-58.613-63.814-142.445-103.666-235.584-103.666-176.466 0-319.52 143.054-319.52 319.52 0 0.175 0 0.35 0 0.525v-0.027 160c0 17.673 14.327 32 32 32s32-14.327 32-32v0-160c0-0.112 0-0.244 0-0.376 0-141.173 114.443-255.616 255.616-255.616 75.44 0 143.247 32.68 190.036 84.657l0.205 0.231-45.216 45.216c-35.355-40.596-87.13-66.108-144.864-66.108-105.915 0-191.776 85.861-191.776 191.776 0 0.077 0 0.155 0 0.232v-0.012 210.752l-150.624 150.624c-5.558 5.749-8.983 13.59-8.983 22.231 0 17.673 14.327 32 32 32 8.641 0 16.482-3.425 22.24-8.991l105.367-105.367v50.752c0 106.039 85.961 192 192 192s192-85.961 192-192v0-352c-0.038-25.037-4.887-48.931-13.672-70.822l0.456 1.286 48.416-48.256c18.145 34.087 28.8 74.54 28.8 117.482 0 0.109 0 0.218 0 0.327v-0.017 160c0 17.673 14.327 32 32 32s32-14.327 32-32v0-160c-0.044-60.866-17.193-117.717-46.9-166.018l0.788 1.378 68.736-68.736c5.789-5.791 9.369-13.789 9.369-22.624s-3.58-16.833-9.369-22.624v0zM610.944 303.776l-226.944 226.976v-146.752c-0.001-0.156-0.001-0.34-0.001-0.524 0-70.392 57.064-127.456 127.456-127.456 40.134 0 75.935 18.55 99.298 47.543l0.191 0.245zM640 736c0 70.692-57.308 128-128 128s-128-57.308-128-128v0-114.752l254.272-254.272c0.902 4.98 1.522 10.846 1.723 16.818l0.005 0.206z" />
<glyph unicode="&#xe954;" glyph-name="cloud" d="M768 160h-608c-70.462 0.303-127.466 57.494-127.466 127.999 0 47.262 25.615 88.542 63.719 110.713l0.611 0.328c-0.474 5.062-0.745 10.946-0.745 16.893 0 106.039 85.961 192 192 192 7.285 0 14.476-0.406 21.55-1.196l-0.87 0.079c36.558 76.964 113.657 129.226 202.963 129.226 91.072 0 169.45-54.35 204.469-132.384l0.569-1.417c15.162 3.66 32.568 5.759 50.466 5.759 123.712 0 224-100.288 224-224 0-123.454-99.87-223.581-223.226-223.999h-0.040zM163.52 386.912c0.559-2.239 0.88-4.809 0.88-7.453 0-14.404-9.517-26.585-22.605-30.599l-0.227-0.060c-26.314-8.269-45.068-32.441-45.068-60.994 0-35.064 28.283-63.523 63.281-63.806h608.219c0.004 0 0.008 0 0.012 0 88.366 0 160 71.634 160 160s-71.634 160-160 160c-21.265 0-41.562-4.149-60.124-11.681l1.072 0.385c-3.506-1.436-7.575-2.27-11.838-2.27-14.69 0-27.068 9.898-30.828 23.389l-0.054 0.225c-19.12 68.504-80.973 117.924-154.368 117.924-71.049 0-131.282-46.31-152.161-110.392l-0.319-1.132c-4.225-13.067-16.284-22.351-30.511-22.351-2.919 0-5.747 0.391-8.434 1.123l0.224-0.052c-10.062 2.863-21.617 4.51-33.558 4.51-70.198 0-127.104-56.906-127.104-127.104 0-10.526 1.28-20.753 3.692-30.535l-0.182 0.873z" />
<glyph unicode="&#xe955;" glyph-name="task" d="M320 512h-256c-17.673 0-32 14.327-32 32v0 256c0 17.673 14.327 32 32 32v0h256c17.673 0 32-14.327 32-32v0-256c0-17.673-14.327-32-32-32v0zM96 576h192v192h-192zM992 800c0 17.673-14.327 32-32 32v0h-448c-17.673 0-32-14.327-32-32s14.327-32 32-32v0h448c17.673 0 32 14.327 32 32v0zM864 608c0 17.673-14.327 32-32 32v0h-320c-17.673 0-32-14.327-32-32s14.327-32 32-32v0h320c17.673 0 32 14.327 32 32v0zM320 64h-256c-17.673 0-32 14.327-32 32v0 256c0 17.673 14.327 32 32 32v0h256c17.673 0 32-14.327 32-32v0-256c0-17.673-14.327-32-32-32v0zM96 128h192v192h-192zM992 352c0 17.673-14.327 32-32 32v0h-448c-17.673 0-32-14.327-32-32s14.327-32 32-32v0h448c17.673 0 32 14.327 32 32v0zM864 160c0 17.673-14.327 32-32 32v0h-320c-17.673 0-32-14.327-32-32s14.327-32 32-32v0h320c17.673 0 32 14.327 32 32v0z" />
<glyph unicode="&#xe956;" glyph-name="loading" d="M512-32c-265.097 0-480 214.903-480 480s214.903 480 480 480c265.097 0 480-214.903 480-480v0c0-265.097-214.903-480-480-480v0zM512 864c-229.75 0-416-186.25-416-416s186.25-416 416-416c229.75 0 416 186.25 416 416v0c0 0.066 0 0.145 0 0.224 0 229.627-186.149 415.776-415.776 415.776-0.079 0-0.158 0-0.237 0h0.012zM544 704v64c0 17.673-14.327 32-32 32s-32-14.327-32-32v0-64c0-17.673 14.327-32 32-32s32 14.327 32 32v0zM694.624 585.376l64 64c5.558 5.749 8.983 13.59 8.983 22.231 0 17.673-14.327 32-32 32-8.641 0-16.482-3.425-22.24-8.991l-63.991-63.991c-5.558-5.749-8.983-13.59-8.983-22.231 0-17.673 14.327-32 32-32 8.641 0 16.482 3.425 22.24 8.991l-0.009-0.009zM758.624 201.376c5.789 5.791 9.369 13.789 9.369 22.624s-3.58 16.833-9.369 22.624l-64 64c-5.749 5.558-13.59 8.983-22.231 8.983-17.673 0-32-14.327-32-32 0-8.641 3.425-16.482 8.991-22.24l63.991-63.991c5.791-5.789 13.789-9.369 22.624-9.369s16.833 3.58 22.624 9.369v0zM310.624 201.376l64 64c5.558 5.749 8.983 13.59 8.983 22.231 0 17.673-14.327 32-32 32-8.641 0-16.482-3.425-22.24-8.991l-63.991-63.991c-5.558-5.749-8.983-13.59-8.983-22.231 0-17.673 14.327-32 32-32 8.641 0 16.482 3.425 22.24 8.991l-0.009-0.009zM864 448c0 17.673-14.327 32-32 32v0h-64c-17.673 0-32-14.327-32-32s14.327-32 32-32v0h64c17.673 0 32 14.327 32 32v0zM544 128v64c0 17.673-14.327 32-32 32s-32-14.327-32-32v0-64c0-17.673 14.327-32 32-32s32 14.327 32 32v0z" />
<glyph unicode="&#xe957;" glyph-name="alert" d="M512 224.704c-17.673 0-32 14.327-32 32v0 320c0 17.673 14.327 32 32 32s32-14.327 32-32v0-320c0-17.673-14.327-32-32-32v0zM480 128.704c0-17.673 14.327-32 32-32s32 14.327 32 32c0 17.673-14.327 32-32 32v0c-17.673 0-32-14.327-32-32v0zM988.576 14.368l-448 897.344c-5.896 9.83-16.496 16.307-28.608 16.307s-22.712-6.477-28.524-16.156l-0.084-0.15-448-897.344c-2.148-4.184-3.407-9.129-3.407-14.368 0-17.673 14.327-32 32-32 0.017 0 0.033 0 0.050 0h895.997c17.666 0.010 31.983 14.333 31.983 32 0 5.239-1.259 10.184-3.491 14.549l0.084-0.181zM512 825.6l396.192-793.6h-792.384z" />
<glyph unicode="&#xe958;" glyph-name="search-plus-alt" d="M576 544c0-17.673-14.327-32-32-32v0h-96v-96c0-17.673-14.327-32-32-32s-32 14.327-32 32v0 96h-96c-17.673 0-32 14.327-32 32s14.327 32 32 32v0h96v96c0 17.673 14.327 32 32 32s32-14.327 32-32v0-96h96c17.673 0 32-14.327 32-32v0zM982.72-22.72c-5.791-5.789-13.789-9.369-22.624-9.369s-16.833 3.58-22.624 9.369l-273.792 273.76c-66.41-56.398-153.124-90.696-247.849-90.696-212.077 0-384 171.923-384 384s171.923 384 384 384c212.077 0 384-171.923 384-384 0-94.82-34.367-181.613-91.325-248.603l0.453 0.547 273.664-273.664c5.789-5.791 9.369-13.789 9.369-22.624s-3.58-16.833-9.369-22.624v0zM642.208 770.432c-57.904 57.881-137.886 93.68-226.228 93.68-176.731 0-320-143.269-320-320s143.269-320 320-320c88.343 0 168.324 35.799 226.229 93.681l-0.001-0.001c57.82 57.966 93.573 137.968 93.573 226.32s-35.753 168.354-93.58 226.327l0.006-0.007z" />
<glyph unicode="&#xe959;" glyph-name="home" d="M978.592 602.048l-448 320c-5.163 3.723-11.617 5.955-18.592 5.955s-13.429-2.232-18.687-6.020l0.095 0.065-448-320c-8.16-5.876-13.411-15.349-13.411-26.048 0-17.674 14.328-32.003 32.003-32.003 6.975 0 13.429 2.231 18.687 6.019l-0.095-0.065 77.408 55.296v-605.248c0-17.673 14.327-32 32-32v0h640c17.673 0 32 14.327 32 32v0 605.248l77.408-55.296c5.163-3.723 11.617-5.955 18.592-5.955 17.674 0 32.003 14.328 32.003 32.003 0 10.699-5.251 20.172-13.316 25.983l-0.095 0.065zM608 32h-192v320h192zM672 32v352c0 17.673-14.327 32-32 32v0h-256c-17.673 0-32-14.327-32-32v0-352h-128v618.944l288 205.728 288-205.728v-618.944z" />
<glyph unicode="&#xe95a;" glyph-name="write" d="M982.624 598.624l-128 128c-5.791 5.789-13.789 9.369-22.624 9.369s-16.833-3.58-22.624-9.369l-384-384c-5.791-5.79-9.374-13.788-9.376-22.624v0-96h-352c-17.673 0-32-14.327-32-32s14.327-32 32-32v0h512c8.836 0.002 16.834 3.585 22.624 9.376l384 384c5.789 5.791 9.369 13.789 9.369 22.624s-3.58 16.833-9.369 22.624v0zM562.752 224h-82.752v82.752l352 352 82.752-82.752zM32 352c0 17.673 14.327 32 32 32v0h224c17.673 0 32-14.327 32-32s-14.327-32-32-32v0h-224c-17.673 0-32 14.327-32 32v0zM32 512c0 17.673 14.327 32 32 32v0h384c17.673 0 32-14.327 32-32s-14.327-32-32-32v0h-384c-17.673 0-32 14.327-32 32v0zM32 672c0 17.673 14.327 32 32 32v0h224c17.673 0 32-14.327 32-32s-14.327-32-32-32v0h-224c-17.673 0-32 14.327-32 32v0z" />
<glyph unicode="&#xe95b;" glyph-name="upload-queue" d="M233.376 681.408l-41.376 41.376v-178.784c0-17.673-14.327-32-32-32s-32 14.327-32 32v0 178.784l-41.376-41.376c-5.749-5.558-13.59-8.983-22.231-8.983-17.673 0-32 14.327-32 32 0 8.641 3.425 16.482 8.991 22.24l95.991 95.991c5.794 5.808 13.805 9.401 22.656 9.401s16.862-3.593 22.655-9.401l96.001-96.001c5.785-5.792 9.362-13.79 9.362-22.624 0-17.683-14.335-32.018-32.018-32.018-8.849 0-16.86 3.59-22.656 9.393v0zM992 672c0 17.673-14.327 32-32 32v0h-544c-17.673 0-32-14.327-32-32s14.327-32 32-32v0h544c17.673 0 32 14.327 32 32v0zM278.624 233.408c5.789 5.791 9.369 13.789 9.369 22.624s-3.58 16.833-9.369 22.624l-96 96c-5.794 5.808-13.805 9.401-22.656 9.401s-16.862-3.593-22.655-9.401l-96.001-96.001c-6.027-5.827-9.769-13.985-9.769-23.017 0-17.673 14.327-32 32-32 9.032 0 17.19 3.742 23.009 9.76l0.009 0.009 41.44 41.376v-178.784c0-17.673 14.327-32 32-32s32 14.327 32 32v0 178.784l41.376-41.376c5.791-5.789 13.789-9.369 22.624-9.369s16.833 3.58 22.624 9.369v0zM384 224c0-17.673 14.327-32 32-32v0h544c17.673 0 32 14.327 32 32s-14.327 32-32 32v0h-544c-17.673 0-32-14.327-32-32v0z" />
<glyph unicode="&#xe95c;" glyph-name="user" d="M653.28 458.72c69.543 46.507 114.72 124.72 114.72 213.485 0 141.385-114.615 256-256 256s-256-114.615-256-256c0-88.765 45.177-166.978 113.793-212.901l0.927-0.584c-197.634-62.52-338.44-244.139-338.72-458.686v-0.034c0-17.673 14.327-32 32-32v0h896c17.673 0 32 14.327 32 32v0c-0.28 214.58-141.085 396.199-335.314 457.788l-3.406 0.932zM320 672c0 106.039 85.961 192 192 192s192-85.961 192-192c0-106.039-85.961-192-192-192v0c-105.995 0.109-191.891 86.005-192 191.99v0.010zM97.216 32c17.023 215.661 196.22 384.216 414.784 384.216s397.761-168.555 414.692-382.768l0.092-1.448z" />
<glyph unicode="&#xe95d;" glyph-name="user-alt" d="M653.568 330.56c58.936 39.697 103.006 97.532 124.515 165.404l0.605 2.212c32.592 25.825 53.312 65.405 53.312 109.824s-20.72 83.999-53.022 109.602l-0.29 0.222c-33.802 119.085-139.546 205.644-266.187 210.162l-0.501 0.014c-127.142-4.532-232.886-91.091-266.196-208.152l-0.492-2.024c-32.592-25.825-53.312-65.405-53.312-109.824s20.72-83.999 53.022-109.602l0.29-0.222c22.114-70.085 66.184-127.919 124.009-166.91l1.111-0.706c-159.776-49.152-274.432-178.56-274.432-330.56 0-17.673 14.327-32 32-32v0h768c17.673 0 32 14.327 32 32v0c0 152-114.656 281.408-274.432 330.56zM303.52 526.688c-2.209 7.491-6.869 13.678-13.035 17.783l-0.117 0.073c-20.814 13.732-34.359 37.012-34.359 63.456s13.545 49.724 34.076 63.28l0.283 0.176c6.283 4.178 10.943 10.365 13.095 17.63l0.057 0.226c30.176 104.48 113.952 174.688 208.48 174.688s178.304-70.208 208.48-174.688c2.209-7.491 6.869-13.678 13.035-17.783l0.117-0.073c20.814-13.732 34.359-37.012 34.359-63.456s-13.545-49.724-34.076-63.28l-0.283-0.176c-6.283-4.178-10.943-10.365-13.095-17.63l-0.057-0.226c-30.176-104.48-113.952-174.688-208.48-174.688s-178.304 70.208-208.48 174.688zM162.144 32c19.552 143.808 168.992 256 349.856 256s330.304-112.192 349.856-256z" />
<glyph unicode="&#xe95e;" glyph-name="verification" d="M496-27.744l-208 118.912-208-118.912c-4.59-2.695-10.109-4.287-16-4.287-17.673 0-32 14.327-32 32 0 0.011 0 0.022 0 0.033v-0.002 864c0 35.346 28.654 64 64 64v0h832c35.346 0 64-28.654 64-64v0-864c0-0.019 0-0.041 0-0.063 0-17.673-14.327-32-32-32-5.891 0-11.41 1.592-16.151 4.369l0.151-0.082-208 118.944-208-118.912c-4.59-2.695-10.109-4.287-16-4.287s-11.41 1.592-16.151 4.369l0.151-0.082zM304 155.808l208-118.944 208 118.944c4.559 2.65 10.033 4.214 15.872 4.214s11.313-1.564 16.026-4.296l-0.154 0.082 176.256-100.64v808.832h-832v-808.832l176 100.64c4.59 2.695 10.109 4.287 16 4.287s11.41-1.592 16.151-4.369l-0.151 0.082zM469.408 328.096l288 256c6.346 5.866 10.306 14.232 10.306 23.524 0 17.673-14.327 32-32 32-7.962 0-15.245-2.908-20.844-7.719l0.042 0.036-265.44-235.968-138.848 138.688c-5.791 5.787-13.79 9.366-22.624 9.366-17.677 0-32.006-14.33-32.006-32.006 0-8.842 3.586-16.847 9.382-22.64l160-160c5.791-5.793 13.792-9.375 22.63-9.375 8.182 0 15.647 3.071 21.305 8.123l-0.031-0.027z" />
<glyph unicode="&#xe95f;" glyph-name="up" d="M608 224h-192c-17.673 0-32 14.327-32 32v0 320.256h-128c-0.001 0-0.003 0-0.005 0-17.673 0-32 14.327-32 32 0 8.185 3.073 15.652 8.128 21.311l-0.027-0.031 256 288.192c6.018 6.33 14.501 10.267 23.904 10.267s17.886-3.937 23.891-10.253l0.013-0.014 256-288.192c5.028-5.628 8.101-13.095 8.101-21.28 0-17.673-14.327-32-32-32-0.002 0-0.004 0-0.005 0h-128v-320.256c0-17.673-14.327-32-32-32v0zM448 288h128v320.256c0 17.673 14.327 32 32 32v0h88.736l-184.736 208.032-184.736-208h88.736c17.673 0 32-14.327 32-32v0zM608-32h-192c-17.673 0-32 14.327-32 32v0 128c0 17.673 14.327 32 32 32v0h192c17.673 0 32-14.327 32-32v0-128c0-17.673-14.327-32-32-32v0zM448 32h128v64h-128z" />
<glyph unicode="&#xe960;" glyph-name="verification-fail" d="M928 928h-832c-35.346 0-64-28.654-64-64v0-864c0-0.019 0-0.041 0-0.063 0-17.673 14.327-32 32-32 5.891 0 11.41 1.592 16.151 4.369l-0.151-0.082 208 118.976 208-118.944c4.559-2.65 10.033-4.214 15.872-4.214s11.313 1.564 16.026 4.296l-0.154-0.082 208.256 118.944 208-118.944c4.59-2.695 10.109-4.287 16-4.287 17.673 0 32 14.327 32 32 0 0.011 0 0.022 0 0.033v-0.002 864c0 35.346-28.654 64-64 64v0zM928 55.2l-176 100.608c-4.559 2.65-10.033 4.214-15.872 4.214s-11.313-1.564-16.026-4.296l0.154 0.082-208.256-118.944-208 118.944c-4.559 2.65-10.033 4.214-15.872 4.214s-11.313-1.564-16.026-4.296l0.154 0.082-176.256-100.608v808.8h832zM297.376 342.656l169.376 169.344-169.376 169.408c-5.558 5.749-8.983 13.59-8.983 22.231 0 17.673 14.327 32 32 32 8.641 0 16.482-3.425 22.24-8.991l169.367-169.367 169.376 169.376c5.827 6.027 13.985 9.769 23.017 9.769 17.673 0 32-14.327 32-32 0-9.032-3.742-17.19-9.76-23.009l-169.385-169.417 169.376-169.376c6.027-5.827 9.769-13.985 9.769-23.017 0-17.673-14.327-32-32-32-9.032 0-17.19 3.742-23.009 9.76l-169.385 169.385-169.376-169.344c-5.827-6.027-13.985-9.769-23.017-9.769-17.673 0-32 14.327-32 32 0 9.032 3.742 17.19 9.76 23.009l0.009 0.009z" />
<glyph unicode="&#xe961;" glyph-name="up-alt" d="M608 352h-192c-17.673 0-32 14.327-32 32v0 192h-128c-0.001 0-0.003 0-0.005 0-17.673 0-32 14.327-32 32 0 8.185 3.073 15.652 8.128 21.311l-0.027-0.031 256 288.256c6.018 6.33 14.501 10.267 23.904 10.267s17.886-3.937 23.891-10.253l0.013-0.014 256-288.256c4.926-5.6 7.932-12.993 7.932-21.088 0-17.615-14.233-31.906-31.827-32h-128.009v-192c0-0.057 0.001-0.124 0.001-0.192 0-17.673-14.327-32-32-32 0 0 0 0-0.001 0v0zM448 416h128v192.224c0 17.673 14.327 32 32 32v0h88.736l-184.736 208.032-184.736-208h88.736c17.673 0 32-14.327 32-32v0zM608 96h-192c-17.673 0-32 14.327-32 32v0 128c0 17.673 14.327 32 32 32v0h192c17.673 0 32-14.327 32-32v0-128c0-17.673-14.327-32-32-32v0zM448 160h128v64h-128zM640 0c0 17.673-14.327 32-32 32v0h-192c-17.673 0-32-14.327-32-32s14.327-32 32-32v0h192c17.673 0 32 14.327 32 32v0z" />
<glyph unicode="&#xe962;" glyph-name="wrench" d="M512-32c-70.692 0-128 57.308-128 128v0 362.688l-85.728 79.264c-6.325 5.862-10.271 14.214-10.272 23.488v0 226.912c0.010 9.788 4.414 18.546 11.345 24.409l0.047 0.039 128 107.616c5.527 4.676 12.735 7.519 20.608 7.519 17.65 0 31.963-14.29 32-31.932v-189.124h64v189.12c0 17.673 14.327 31.999 32 31.999 7.873 0 15.081-2.843 20.655-7.558l-0.047 0.039 128-107.616c6.986-5.909 11.392-14.68 11.392-24.481 0-0.011 0-0.022 0-0.033v0.002-226.912c-0.001-9.274-3.947-17.625-10.251-23.469l-0.021-0.019-85.728-79.264v-362.688c0-70.692-57.308-128-128-128v0zM352 575.456l85.728-79.264c6.325-5.862 10.271-14.214 10.272-23.488v0-376.704c0-35.346 28.654-64 64-64s64 28.654 64 64v0 376.704c0.001 9.274 3.947 17.625 10.251 23.469l0.021 0.019 85.728 79.264v197.984l-64 53.792v-120.352c0-35.346-28.654-64-64-64v0h-64c-35.346 0-64 28.654-64 64v0 120.352l-64-53.792z" />
<glyph unicode="&#xe963;" glyph-name="upload" d="M992 448c0 265.097-214.903 480-480 480s-480-214.903-480-480c0-265.097 214.903-480 480-480v0c264.972 0.309 479.69 215.027 480 479.97v0.030zM928 448c0-229.75-186.25-416-416-416s-416 186.25-416 416c0 229.75 186.25 416 416 416v0c229.641-0.273 415.727-186.359 416-415.974v-0.026zM585.376 521.376l-41.376 41.376v-306.752c0-17.673-14.327-32-32-32s-32 14.327-32 32v0 306.752l-41.376-41.376c-5.749-5.558-13.59-8.983-22.231-8.983-17.673 0-32 14.327-32 32 0 8.641 3.425 16.482 8.991 22.24l95.991 95.991c5.791 5.789 13.789 9.369 22.624 9.369s16.833-3.58 22.624-9.369l96-96c5.558-5.749 8.983-13.59 8.983-22.231 0-17.673-14.327-32-32-32-8.641 0-16.482 3.425-22.24 8.991l0.009-0.009z" />
<glyph unicode="&#xe964;" glyph-name="ship" d="M960 448h-64v160c0 17.673-14.327 32-32 32v0h-32v96c0 17.673-14.327 32-32 32v0h-352c-14.911 0-27.44-10.199-30.992-24.002l-0.048-0.222-25.952-103.776h-103.008c-14.046-0.011-25.973-9.070-30.269-21.663l-0.067-0.225-56.704-170.112h-136.96c-0.004 0-0.010 0-0.015 0-17.673 0-32-14.327-32-32 0-5.214 1.247-10.136 3.459-14.486l-0.084 0.182 128-256c5.37-10.575 16.166-17.696 28.625-17.696 0.005 0 0.010 0 0.016 0h703.999c14.911 0 27.44 10.199 30.992 24.002l0.048 0.222 64 256c0.609 2.334 0.959 5.014 0.959 7.776 0 17.673-14.326 32-31.999 32v0zM472.992 704h295.008v-64h-311.008zM311.072 576h520.928v-128h-563.584zM871.072 192h-659.264l-96 192h803.2z" />
</font>
</defs>
</svg>
